<svg width="56" height="56" viewBox="0 0 56 56" fill="none" xmlns="http://www.w3.org/2000/svg">
<path d="M21.2119 25.4546C21.2119 25.8374 21.2533 26.1478 21.3257 26.3755C21.4085 26.6031 21.512 26.8514 21.6568 27.1205C21.7086 27.2032 21.7292 27.286 21.7292 27.3585C21.7292 27.4619 21.6672 27.5654 21.5327 27.6689L20.8808 28.1035C20.7877 28.1655 20.6945 28.1966 20.6117 28.1966C20.5083 28.1966 20.4048 28.1448 20.3013 28.0517C20.1565 27.8965 20.0323 27.731 19.9288 27.5654C19.8254 27.3895 19.7219 27.1929 19.6081 26.9549C18.801 27.9069 17.787 28.3828 16.566 28.3828C15.6968 28.3828 15.0035 28.1345 14.4965 27.6378C13.9895 27.1412 13.7308 26.4789 13.7308 25.6512C13.7308 24.7716 14.0413 24.0577 14.6724 23.5196C15.3036 22.9816 16.1417 22.7125 17.2075 22.7125C17.5593 22.7125 17.9215 22.7436 18.3043 22.7953C18.6872 22.8471 19.0804 22.9298 19.4942 23.023V22.2676C19.4942 21.4812 19.3287 20.9328 19.0079 20.6121C18.6768 20.2913 18.1181 20.1361 17.3213 20.1361C16.9592 20.1361 16.5867 20.1775 16.2038 20.2706C15.821 20.3637 15.4485 20.4775 15.0863 20.6224C14.9208 20.6948 14.7966 20.7362 14.7242 20.7569C14.6517 20.7776 14.6 20.788 14.5586 20.788C14.4138 20.788 14.3413 20.6845 14.3413 20.4672V19.9602C14.3413 19.7946 14.362 19.6705 14.4138 19.598C14.4655 19.5256 14.5586 19.4532 14.7035 19.3807C15.0656 19.1945 15.5002 19.0393 16.0072 18.9151C16.5142 18.7806 17.0523 18.7185 17.6214 18.7185C18.8527 18.7185 19.7529 18.9979 20.3324 19.5566C20.9015 20.1154 21.1912 20.9639 21.1912 22.1021V25.4546H21.2119ZM17.0109 27.0273C17.3524 27.0273 17.7042 26.9653 18.0767 26.8411C18.4492 26.7169 18.7803 26.4893 19.0597 26.1789C19.2252 25.9823 19.3494 25.765 19.4115 25.5166C19.4736 25.2683 19.5149 24.9682 19.5149 24.6164V24.1819C19.2149 24.1094 18.8941 24.0473 18.563 24.0059C18.2319 23.9646 17.9111 23.9439 17.5904 23.9439C16.8971 23.9439 16.3901 24.0784 16.0486 24.3578C15.7072 24.6371 15.5416 25.0303 15.5416 25.5477C15.5416 26.034 15.6658 26.3962 15.9244 26.6445C16.1728 26.9032 16.5349 27.0273 17.0109 27.0273ZM25.3197 28.1448C25.1335 28.1448 25.0093 28.1138 24.9265 28.0414C24.8438 27.9793 24.7713 27.8344 24.7093 27.6378L22.2777 19.6394C22.2156 19.4325 22.1845 19.298 22.1845 19.2255C22.1845 19.06 22.2673 18.9668 22.4329 18.9668H23.4469C23.6435 18.9668 23.778 18.9979 23.8504 19.0703C23.9332 19.1324 23.9953 19.2773 24.0574 19.4739L25.7957 26.3237L27.4099 19.4739C27.4616 19.2669 27.5237 19.1324 27.6065 19.0703C27.6893 19.0082 27.8341 18.9668 28.0204 18.9668H28.8481C29.0447 18.9668 29.1793 18.9979 29.262 19.0703C29.3448 19.1324 29.4172 19.2773 29.4586 19.4739L31.0935 26.4065L32.8836 19.4739C32.9457 19.2669 33.0181 19.1324 33.0905 19.0703C33.1733 19.0082 33.3078 18.9668 33.4941 18.9668H34.4563C34.6219 18.9668 34.715 19.0496 34.715 19.2255C34.715 19.2773 34.7047 19.329 34.6943 19.3911C34.684 19.4532 34.6633 19.5359 34.6219 19.6498L32.1282 27.6482C32.0661 27.8551 31.9937 27.9896 31.9109 28.0517C31.8282 28.1138 31.6936 28.1552 31.5177 28.1552H30.6279C30.4313 28.1552 30.2968 28.1242 30.214 28.0517C30.1312 27.9793 30.0588 27.8448 30.0174 27.6378L28.4136 20.9639L26.8201 27.6275C26.7684 27.8344 26.7063 27.9689 26.6235 28.0414C26.5407 28.1138 26.3959 28.1448 26.2096 28.1448H25.3197ZM38.6159 28.4242C38.0779 28.4242 37.5398 28.3621 37.0225 28.238C36.5051 28.1138 36.1016 27.9793 35.8325 27.8241C35.667 27.731 35.5532 27.6275 35.5118 27.5344C35.4704 27.4412 35.4497 27.3378 35.4497 27.2446V26.7169C35.4497 26.4996 35.5325 26.3962 35.6877 26.3962C35.7498 26.3962 35.8118 26.4065 35.8739 26.4272C35.936 26.4479 36.0291 26.4893 36.1326 26.5307C36.4844 26.6859 36.8673 26.8101 37.2708 26.8928C37.6847 26.9756 38.0882 27.017 38.5021 27.017C39.154 27.017 39.661 26.9032 40.0128 26.6755C40.3646 26.4479 40.5509 26.1168 40.5509 25.6925C40.5509 25.4028 40.4577 25.1648 40.2715 24.9682C40.0852 24.7716 39.7334 24.5957 39.2264 24.4302L37.7261 23.9646C36.9707 23.7266 36.412 23.3748 36.0705 22.9091C35.7291 22.4539 35.5532 21.9468 35.5532 21.4088C35.5532 20.9742 35.6463 20.5914 35.8325 20.2602C36.0188 19.9291 36.2671 19.6394 36.5775 19.4118C36.8879 19.1738 37.2398 18.9979 37.6536 18.8737C38.0675 18.7496 38.5021 18.6978 38.9574 18.6978C39.185 18.6978 39.423 18.7082 39.6507 18.7392C39.8886 18.7702 40.1059 18.8116 40.3232 18.853C40.5302 18.9048 40.7268 18.9565 40.913 19.0186C41.0993 19.0807 41.2441 19.1427 41.3476 19.2048C41.4925 19.2876 41.5959 19.3704 41.658 19.4635C41.7201 19.5463 41.7512 19.6601 41.7512 19.805V20.2913C41.7512 20.5086 41.6684 20.6224 41.5132 20.6224C41.4304 20.6224 41.2959 20.581 41.12 20.4982C40.5302 20.2292 39.868 20.0947 39.1333 20.0947C38.5435 20.0947 38.0779 20.1878 37.7571 20.3844C37.4364 20.581 37.2708 20.8811 37.2708 21.3053C37.2708 21.595 37.3743 21.8434 37.5812 22.04C37.7882 22.2366 38.171 22.4332 38.7194 22.6091L40.1887 23.0747C40.9337 23.3127 41.4718 23.6438 41.7925 24.068C42.1133 24.4923 42.2685 24.9786 42.2685 25.5166C42.2685 25.9616 42.1754 26.3651 41.9995 26.7169C41.8132 27.0687 41.5649 27.3791 41.2441 27.6275C40.9234 27.8862 40.5405 28.0724 40.0956 28.2069C39.63 28.3518 39.1436 28.4242 38.6159 28.4242Z" fill="white"/>
<path fill-rule="evenodd" clip-rule="evenodd" d="M40.5715 33.453C37.1673 35.9673 32.2213 37.3021 27.9686 37.3021C22.0086 37.3021 16.6384 35.0982 12.5823 31.4353C12.2615 31.1455 12.5512 30.7523 12.9341 30.98C17.3213 33.5254 22.7329 35.0671 28.3308 35.0671C32.1075 35.0671 36.2567 34.2807 40.0749 32.6666C40.644 32.4079 41.1303 33.0391 40.5715 33.453Z" fill="#FF9900"/>
<path fill-rule="evenodd" clip-rule="evenodd" d="M41.9891 31.8388C41.5546 31.2801 39.1126 31.5698 38.0055 31.7043C37.6744 31.7457 37.6226 31.456 37.9227 31.2387C39.868 29.8728 43.0652 30.266 43.4377 30.7213C43.8102 31.1869 43.3343 34.3842 41.5132 35.9156C41.2338 36.1536 40.9648 36.0294 41.0889 35.719C41.5028 34.6946 42.4237 32.3872 41.9891 31.8388Z" fill="#FF9900"/>
</svg>
