<svg width="56" height="56" viewBox="0 0 56 56" fill="none" xmlns="http://www.w3.org/2000/svg">
<path d="M22.8163 13.3345H32.0223L22.4655 41.6668C22.4166 41.8115 22.3455 41.9477 22.2547 42.0705C22.1641 42.1934 22.0548 42.3012 21.9308 42.3902C21.8067 42.4793 21.6698 42.5485 21.5243 42.5952C21.3789 42.6418 21.2272 42.666 21.0748 42.666H13.9102C13.6776 42.666 13.4481 42.6107 13.2412 42.5042C13.0341 42.3979 12.8553 42.2438 12.7197 42.0546C12.584 41.8654 12.4952 41.6466 12.4607 41.4164C12.4261 41.1861 12.4471 40.9508 12.5214 40.7303L21.4252 14.3328C21.4738 14.1881 21.545 14.052 21.636 13.9291C21.7266 13.8062 21.8363 13.6985 21.9599 13.6094C22.084 13.5204 22.2209 13.4511 22.3663 13.4045C22.5118 13.3578 22.6635 13.3337 22.8159 13.3337V13.3341L22.8163 13.3345Z" fill="url(#paint0_linear_1_5896)"/>
<path d="M39.7869 42.666H31.5206C31.4284 42.666 31.3362 42.6574 31.2452 42.6399C31.1546 42.6228 31.0655 42.5972 30.9796 42.5633C30.8936 42.5295 30.8112 42.4875 30.733 42.4385C30.655 42.3891 30.5816 42.3326 30.5141 42.2697L21.1335 33.509C21.0342 33.4164 20.9651 33.296 20.9351 33.1637C20.9051 33.0313 20.9157 32.8929 20.9654 32.7666C21.0151 32.6403 21.1017 32.5318 21.214 32.4554C21.3264 32.3792 21.459 32.3384 21.5947 32.3384H36.193L39.7862 42.6664L39.7869 42.666Z" fill="#0078D4"/>
<path d="M32.0554 13.3344L25.6111 32.3403L36.1405 32.338L39.7524 42.666H31.5171C31.432 42.6652 31.3468 42.6574 31.2628 42.6423C31.1788 42.6271 31.0963 42.6049 31.0162 42.5754C30.8556 42.5168 30.7061 42.4312 30.5744 42.3222L24.2421 36.4122L22.4694 41.64C22.4235 41.7707 22.3605 41.8948 22.282 42.0087C22.1245 42.238 21.9091 42.4214 21.6578 42.5404C21.5326 42.5996 21.4001 42.6418 21.2638 42.666H13.9145C13.6796 42.6668 13.4478 42.6108 13.2389 42.5026C13.03 42.3946 12.8502 42.2379 12.7147 42.0457C12.5792 41.8535 12.4919 41.6315 12.4603 41.3985C12.4288 41.1654 12.4538 40.9281 12.533 40.7066L21.4225 14.3526C21.4687 14.2052 21.5384 14.0664 21.6286 13.9411C21.7184 13.8159 21.8281 13.7055 21.9526 13.6144C22.077 13.5234 22.2155 13.4527 22.3621 13.4052C22.5087 13.3578 22.6623 13.3337 22.8167 13.3344H32.0558H32.0554Z" fill="url(#paint1_linear_1_5896)"/>
<path d="M43.4786 40.7304C43.5529 40.951 43.5738 41.1862 43.5396 41.4164C43.5051 41.6466 43.4164 41.8653 43.281 42.0547C43.1453 42.2437 42.9666 42.3978 42.7596 42.5041C42.5526 42.6104 42.3233 42.6659 42.0905 42.666H31.8302C32.0628 42.666 32.2922 42.6104 32.4995 42.5042C32.7064 42.3981 32.8853 42.2437 33.021 42.0547C33.1568 41.8656 33.2454 41.6467 33.2801 41.4164C33.3147 41.1862 33.2937 40.9509 33.2194 40.7304L24.3152 14.332C24.2172 14.0412 24.0304 13.7885 23.7812 13.6094C23.6575 13.5204 23.5206 13.4515 23.3756 13.4049C23.2305 13.3582 23.0788 13.3345 22.9268 13.3345H33.1867C33.3392 13.3345 33.4905 13.3582 33.6359 13.4049C33.781 13.4515 33.9179 13.5208 34.0419 13.6094C34.1656 13.6985 34.2749 13.8062 34.3655 13.9287C34.4561 14.0512 34.5269 14.1874 34.5759 14.332L43.4801 40.7304H43.4786Z" fill="url(#paint2_linear_1_5896)"/>
<defs>
<linearGradient id="paint0_linear_1_5896" x1="26.1761" y1="15.5085" x2="16.6089" y2="43.7709" gradientUnits="userSpaceOnUse">
<stop stop-color="#114A8B"/>
<stop offset="1" stop-color="#0669BC"/>
</linearGradient>
<linearGradient id="paint1_linear_1_5896" x1="29.1591" y1="28.6771" x2="26.9462" y2="29.4277" gradientUnits="userSpaceOnUse">
<stop stop-opacity="0.3"/>
<stop offset="0.1" stop-opacity="0.2"/>
<stop offset="0.3" stop-opacity="0.1"/>
<stop offset="0.6" stop-opacity="0.1"/>
<stop offset="1" stop-opacity="0"/>
</linearGradient>
<linearGradient id="paint2_linear_1_5896" x1="27.9379" y1="14.684" x2="38.4386" y2="42.6586" gradientUnits="userSpaceOnUse">
<stop stop-color="#3CCBF4"/>
<stop offset="1" stop-color="#2892DF"/>
</linearGradient>
</defs>
</svg>
