<svg width="56" height="56" viewBox="0 0 56 56" fill="none" xmlns="http://www.w3.org/2000/svg">
<path d="M41.7792 21.5954C41.779 21.0737 41.6674 20.6127 41.4418 20.217C41.2201 19.8279 40.8882 19.5019 40.443 19.244C36.7678 17.1249 33.0891 15.0123 29.4151 12.891C28.4246 12.3192 27.4642 12.34 26.4811 12.92C25.0183 13.7827 17.6944 17.9788 15.512 19.2428C14.6132 19.7631 14.1758 20.5594 14.1756 21.5944C14.1742 25.8561 14.1756 30.1177 14.1742 34.3795C14.1744 34.8897 14.2813 35.3418 14.497 35.7315C14.7187 36.1323 15.0553 36.4674 15.5108 36.731C17.6933 37.9951 25.0182 42.1908 26.4807 43.0537C27.4642 43.6341 28.4246 43.6548 29.4154 43.0828C33.0895 40.9614 36.7685 38.8489 40.4442 36.7297C40.8997 36.4662 41.2362 36.1309 41.458 35.7304C41.6734 35.3407 41.7804 34.8886 41.7806 34.3783C41.7806 34.3783 41.7806 25.8572 41.7792 21.5954Z" fill="#5C8DBC"/>
<path d="M28.0197 27.9454L14.497 35.7315C14.7187 36.1323 15.0553 36.4674 15.5108 36.7311C17.6933 37.9952 25.0182 42.1908 26.4807 43.0538C27.4643 43.6341 28.4246 43.6549 29.4154 43.0828C33.0895 40.9614 36.7685 38.8489 40.4442 36.7298C40.8997 36.4662 41.2363 36.1309 41.458 35.7304L28.0197 27.9454Z" fill="#1A4674"/>
<path d="M24.0144 30.2517C24.8013 31.6254 26.2805 32.552 27.9774 32.552C29.6848 32.552 31.1725 31.6137 31.9554 30.2253L28.0197 27.9454L24.0144 30.2517Z" fill="#1A4674"/>
<path d="M41.7792 21.5954C41.779 21.0737 41.6674 20.6127 41.4418 20.217L28.0197 27.9454L41.458 35.7304C41.6734 35.3407 41.7804 34.8887 41.7806 34.3783C41.7806 34.3783 41.7806 25.8572 41.7792 21.5954Z" fill="#1B598E"/>
<path d="M41.0403 28.5019H39.9902V29.5522H38.9398V28.5019H37.8898V27.4519H38.9398V26.4018H39.9902V27.4519H41.0403V28.5019ZM37.2085 28.5019H36.1585V29.5522H35.1084V28.5019H34.0583V27.4519H35.1084V26.4018H36.1585V27.4519H37.2085V28.5019Z" fill="#1E2235"/>
<path d="M31.9554 30.2253C31.1725 31.6137 29.6848 32.552 27.9774 32.552C26.2805 32.552 24.8013 31.6255 24.0144 30.2517C23.6191 29.5624 23.4115 28.7815 23.4123 27.9869C23.4123 25.4658 25.4563 23.4219 27.9774 23.4219C29.6634 23.4219 31.1349 24.3369 31.9257 25.6966L35.9158 23.3989C34.3298 20.6612 31.3689 18.8193 27.9774 18.8193C22.9142 18.8193 18.8097 22.9239 18.8097 27.9869C18.8097 29.6479 19.2516 31.2056 20.0239 32.5492C21.6059 35.3014 24.5753 37.1546 27.9774 37.1546C31.3858 37.1546 34.3599 35.2939 35.9396 32.5336L31.9554 30.2253Z" fill="#1E2235"/>
</svg>
