<svg width="56" height="56" viewBox="0 0 56 56" fill="none" xmlns="http://www.w3.org/2000/svg">
<path fill-rule="evenodd" clip-rule="evenodd" d="M28 35.8832C36.5911 35.8832 43.5556 32.3536 43.5556 28C43.5556 23.6464 36.5911 20.1169 28 20.1169C19.4091 20.1169 12.4445 23.6464 12.4445 28C12.4445 32.3536 19.4091 35.8832 28 35.8832Z" fill="#A5B4FC"/>
<path fill-rule="evenodd" clip-rule="evenodd" d="M31.1526 30.5479L31.9242 26.5767C32.0983 25.6804 31.9535 25.0119 31.494 24.5895C31.0487 24.1807 30.2929 23.9819 29.1835 23.9819H27.8473L28.2295 22.0143C28.2366 21.9777 28.2356 21.94 28.2265 21.9038C28.2173 21.8676 28.2003 21.8339 28.1765 21.8051C28.1528 21.7763 28.123 21.7531 28.0893 21.7372C28.0555 21.7213 28.0187 21.713 27.9814 21.713H26.137C26.0159 21.713 25.9119 21.799 25.8888 21.9179L25.0692 26.1338C24.9947 25.6594 24.8111 25.2516 24.5173 24.9151C23.9763 24.2958 23.1207 23.9819 21.9738 23.9819H18.3991C18.278 23.9819 18.174 24.0678 18.1509 24.1865L16.4924 32.7203C16.4779 32.7946 16.4973 32.871 16.5454 32.9293C16.5934 32.9878 16.6649 33.0215 16.7407 33.0215H18.5995C18.7206 33.0215 18.8246 32.9355 18.8478 32.8164L19.249 30.7524H20.6327C21.3587 30.7524 21.9689 30.6738 22.4452 30.5188C22.9322 30.3604 23.3804 30.0918 23.7754 29.722C24.0946 29.4287 24.3584 29.1003 24.5613 28.7461L24.2301 30.4511C24.2156 30.5254 24.235 30.6021 24.2831 30.66C24.3311 30.7185 24.4028 30.7522 24.4784 30.7522H26.3227C26.4438 30.7522 26.5479 30.6662 26.571 30.5476L27.4812 25.8633H28.7468C29.286 25.8633 29.444 25.9707 29.4871 26.0168C29.5261 26.0589 29.6069 26.2073 29.5161 26.6751L28.7825 30.4509C28.7755 30.4875 28.7766 30.5252 28.7858 30.5613C28.795 30.5974 28.8121 30.6311 28.8358 30.6598C28.8595 30.6886 28.8893 30.7118 28.923 30.7277C28.9567 30.7436 28.9935 30.7519 29.0308 30.752H30.9045C30.9631 30.7521 31.0199 30.7318 31.0652 30.6946C31.1105 30.6573 31.1414 30.6055 31.1526 30.5479ZM22.6019 27.2667C22.486 27.862 22.2678 28.2866 21.9529 28.5287C21.6332 28.7753 21.1217 28.9002 20.4327 28.9002H19.6088L20.2045 25.8345H21.2698C22.0523 25.8345 22.3675 26.0017 22.4941 26.1418C22.6696 26.3363 22.7068 26.7255 22.6019 27.2667ZM38.9213 24.9151C38.3805 24.2958 37.5249 23.9819 36.378 23.9819H32.8033C32.682 23.9819 32.5782 24.0678 32.555 24.1865L30.8968 32.7203C30.8821 32.7946 30.9015 32.871 30.9496 32.9293C30.9978 32.9876 31.0694 33.0215 31.1447 33.0215H33.0037C33.125 33.0215 33.2288 32.9355 33.252 32.8164L33.6532 30.7524H35.037C35.7633 30.7524 36.3729 30.6738 36.8494 30.5188C37.3366 30.3604 37.7848 30.0918 38.1796 29.722C38.5092 29.4193 38.7802 29.079 38.9856 28.7117C39.1911 28.3443 39.3383 27.9346 39.4243 27.4937C39.6355 26.4063 39.4664 25.5388 38.9213 24.9151ZM37.1116 27.2667C36.9955 27.862 36.7773 28.2866 36.4628 28.5287C36.1429 28.7753 35.6314 28.9002 34.9426 28.9002H34.1185L34.7141 25.8345H35.7795C36.562 25.8345 36.8772 26.0017 37.004 26.1418C37.1791 26.3363 37.2166 26.7255 37.1116 27.2667Z" fill="#1E2235"/>
<path fill-rule="evenodd" clip-rule="evenodd" d="M21.2169 25.5815C21.923 25.5815 22.3938 25.7119 22.6291 25.9726C22.8642 26.2333 22.9203 26.681 22.7973 27.3151C22.6686 27.9755 22.4211 28.4469 22.0543 28.7294C21.6875 29.0119 21.1292 29.153 20.3798 29.153H19.2489L19.943 25.5815H21.2169ZM16.6876 32.7685H18.5464L18.9875 30.4998H20.5798C21.2823 30.4998 21.8603 30.4259 22.314 30.2782C22.7677 30.1306 23.1803 29.8832 23.5514 29.5358C23.8629 29.2497 24.1149 28.9337 24.3079 28.5883C24.5007 28.243 24.6377 27.8621 24.7187 27.4454C24.9155 26.4338 24.7671 25.6459 24.2739 25.0816C23.7809 24.5171 22.9963 24.2349 21.9209 24.2349H18.3462L16.6876 32.7685ZM26.084 21.9661H27.9283L27.4874 24.2349H29.1306C30.1641 24.2349 30.8775 24.4151 31.2699 24.7757C31.6623 25.1363 31.7799 25.7207 31.623 26.5286L30.8514 30.4998H28.9777L29.7113 26.7239C29.7946 26.2943 29.7642 26.0014 29.6191 25.8451C29.4741 25.689 29.1654 25.6107 28.6937 25.6107H27.2197L26.2696 30.4998H24.4253L26.084 21.9661ZM35.7266 25.5815C36.4327 25.5815 36.9034 25.7119 37.1389 25.9726C37.374 26.2333 37.4299 26.681 37.3068 27.3151C37.1786 27.9755 36.931 28.4469 36.564 28.7294C36.1974 29.0119 35.639 29.153 34.8899 29.153H33.7591L34.453 25.5815H35.7266ZM31.1969 32.7685H33.0559L33.4969 30.4998H35.0891C35.7919 30.4998 36.3699 30.4259 36.8236 30.2782C37.2773 30.1306 37.6898 29.8832 38.0609 29.5358C38.3724 29.2497 38.6245 28.9337 38.8173 28.5883C39.0101 28.243 39.1472 27.8621 39.2285 27.4454C39.4251 26.4338 39.2766 25.6459 38.7836 25.0816C38.2902 24.5171 37.5059 24.2349 36.4305 24.2349H32.8558L31.1969 32.7685Z" fill="white"/>
</svg>
