<svg width="56" height="56" viewBox="0 0 56 56" fill="none" xmlns="http://www.w3.org/2000/svg">
<path d="M43.1702 17.0492L28.8228 43.1494C28.5266 43.6884 27.7655 43.6915 27.4648 43.1553L12.833 17.0516C12.5054 16.4673 12.9966 15.7595 13.6475 15.8779L28.0103 18.4895C28.102 18.5062 28.1958 18.506 28.2874 18.4891L42.3498 15.8816C42.9985 15.7613 43.492 16.4637 43.1702 17.0492Z" fill="url(#paint0_linear_1_5768)"/>
<path d="M34.852 12.4521L24.2346 14.5687C24.1498 14.5856 24.0729 14.6307 24.016 14.6969C23.9591 14.7631 23.9255 14.8467 23.9204 14.9345L23.2673 26.1564C23.2637 26.2179 23.2743 26.2795 23.2981 26.3361C23.322 26.3928 23.3585 26.443 23.4048 26.4828C23.4511 26.5226 23.5059 26.5509 23.5648 26.5654C23.6237 26.5799 23.6851 26.5802 23.7442 26.5664L26.7002 25.8724C26.9768 25.8074 27.2267 26.0553 27.1698 26.3382L26.2916 30.7134C26.2326 31.0079 26.5042 31.2596 26.7869 31.1722L28.6127 30.6079C28.8957 30.5205 29.1678 30.773 29.1079 31.0677L27.7122 37.9401C27.6249 38.37 28.1869 38.6044 28.4213 38.2359L28.5779 37.9897L37.2296 20.4243C37.3746 20.1302 37.1246 19.7948 36.8073 19.8572L33.7643 20.4546C33.4785 20.5107 33.2352 20.2398 33.3158 19.9553L35.3018 12.9513C35.3826 12.6661 35.1384 12.3951 34.8522 12.4521H34.852Z" fill="url(#paint1_linear_1_5768)"/>
<defs>
<linearGradient id="paint0_linear_1_5768" x1="12.4757" y1="17.9837" x2="28.2959" y2="39.1028" gradientUnits="userSpaceOnUse">
<stop stop-color="#41D1FF"/>
<stop offset="1" stop-color="#BD34FE"/>
</linearGradient>
<linearGradient id="paint1_linear_1_5768" x1="29.3415" y1="13.0268" x2="32.6336" y2="35.2253" gradientUnits="userSpaceOnUse">
<stop stop-color="#FFEA83"/>
<stop offset="0.083" stop-color="#FFDD35"/>
<stop offset="1" stop-color="#FFA800"/>
</linearGradient>
</defs>
</svg>
