<svg width="3291" height="806" viewBox="0 0 3291 806" fill="none" xmlns="http://www.w3.org/2000/svg">
<path d="M0 806H23.9969C47.9937 806 95.9875 806 143.296 786.967C190.947 767.935 237.569 729.869 285.22 698.941C332.528 668.013 380.522 644.222 428.516 653.738C476.509 663.255 524.503 706.078 572.497 725.111C620.491 744.144 668.484 739.386 715.792 732.248C763.443 725.111 810.066 715.595 857.717 696.562C905.025 677.529 953.019 648.98 1001.01 641.843C1049.01 634.706 1097 648.98 1144.99 672.771C1192.99 696.562 1240.98 729.869 1288.29 741.765C1335.94 753.66 1382.56 744.144 1430.21 746.523C1477.52 748.902 1525.52 763.176 1573.51 775.072C1621.5 786.967 1669.5 796.484 1717.49 789.346C1765.48 782.209 1813.48 758.418 1860.79 751.281C1908.44 744.144 1955.06 753.66 2002.71 756.039C2050.02 758.418 2098.01 753.66 2146.01 741.765C2194 729.869 2241.99 710.837 2289.99 701.32C2337.98 691.804 2385.97 691.804 2433.28 684.667C2480.93 677.529 2527.56 663.255 2575.21 658.497C2622.52 653.738 2670.51 658.497 2718.5 687.046C2766.5 715.595 2814.49 767.935 2862.48 779.83C2910.48 791.725 2958.47 763.176 3005.78 748.902C3053.43 734.627 3100.05 734.627 3147.7 722.732C3195.01 710.837 3243.01 687.046 3267 675.15L3291 663.255V196.954L3267 170.784C3243.01 144.614 3195.01 92.2739 3147.7 94.653C3100.05 97.0321 3053.43 154.13 3005.78 201.712C2958.47 249.294 2910.48 287.359 2862.48 287.359C2814.49 287.359 2766.5 249.294 2718.5 201.712C2670.51 154.13 2622.52 97.0321 2575.21 82.7576C2527.56 68.483 2480.93 97.0321 2433.28 99.4112C2385.97 101.79 2337.98 77.9994 2289.99 89.8948C2241.99 101.79 2194 149.372 2146.01 163.647C2098.01 177.921 2050.02 158.888 2002.71 175.542C1955.06 192.196 1908.44 244.535 1860.79 263.568C1813.48 282.601 1765.48 268.326 1717.49 242.156C1669.5 215.986 1621.5 177.921 1573.51 163.647C1525.52 149.372 1477.52 158.888 1430.21 170.784C1382.56 182.679 1335.94 196.954 1288.29 196.954C1240.98 196.954 1192.99 182.679 1144.99 142.235C1097 101.79 1049.01 35.1758 1001.01 11.3849C953.019 -12.4059 905.025 6.62678 857.717 18.5222C810.066 30.4176 763.443 35.1758 715.792 85.1366C668.484 135.097 620.491 230.261 572.497 232.64C524.503 235.019 476.509 144.614 428.516 92.2739C380.522 39.934 332.528 25.6595 285.22 56.5876C237.569 87.5157 190.947 163.647 143.296 201.712C95.9875 239.777 47.9937 239.777 23.9969 239.777H0V806Z" fill="#5D21D1"/>
</svg>
