<svg width="730" height="730" viewBox="0 0 730 730" fill="none" xmlns="http://www.w3.org/2000/svg">
<mask id="mask0_211_464" style="mask-type:alpha" maskUnits="userSpaceOnUse" x="0" y="0" width="730" height="730">
<rect width="10" height="10" rx="5" fill="#FCBAAD"/>
<rect x="60" width="10" height="10" rx="5" fill="#FCBAAD"/>
<rect x="120" width="10" height="10" rx="5" fill="#FCBAAD"/>
<rect x="180" width="10" height="10" rx="5" fill="#FCBAAD"/>
<rect x="240" width="10" height="10" rx="5" fill="#FCBAAD"/>
<rect x="300" width="10" height="10" rx="5" fill="#FCBAAD"/>
<rect x="360" width="10" height="10" rx="5" fill="#FCBAAD"/>
<rect x="420" width="10" height="10" rx="5" fill="#FCBAAD"/>
<rect x="480" width="10" height="10" rx="5" fill="#FCBAAD"/>
<rect x="540" width="10" height="10" rx="5" fill="#FCBAAD"/>
<rect x="600" width="10" height="10" rx="5" fill="#FCBAAD"/>
<rect x="660" width="10" height="10" rx="5" fill="#FCBAAD"/>
<rect x="720" width="10" height="10" rx="5" fill="#FCBAAD"/>
<rect y="60" width="10" height="10" rx="5" fill="#FCBAAD"/>
<rect x="60" y="60" width="10" height="10" rx="5" fill="#FCBAAD"/>
<rect x="120" y="60" width="10" height="10" rx="5" fill="#FCBAAD"/>
<rect x="180" y="60" width="10" height="10" rx="5" fill="#FCBAAD"/>
<rect x="240" y="60" width="10" height="10" rx="5" fill="#FCBAAD"/>
<rect x="300" y="60" width="10" height="10" rx="5" fill="#FCBAAD"/>
<rect x="360" y="60" width="10" height="10" rx="5" fill="#FCBAAD"/>
<rect x="420" y="60" width="10" height="10" rx="5" fill="#FCBAAD"/>
<rect x="480" y="60" width="10" height="10" rx="5" fill="#FCBAAD"/>
<rect x="540" y="60" width="10" height="10" rx="5" fill="#FCBAAD"/>
<rect x="600" y="60" width="10" height="10" rx="5" fill="#FCBAAD"/>
<rect x="660" y="60" width="10" height="10" rx="5" fill="#FCBAAD"/>
<rect x="720" y="60" width="10" height="10" rx="5" fill="#FCBAAD"/>
<rect y="120" width="10" height="10" rx="5" fill="#FCBAAD"/>
<rect x="60" y="120" width="10" height="10" rx="5" fill="#FCBAAD"/>
<rect x="120" y="120" width="10" height="10" rx="5" fill="#FCBAAD"/>
<rect x="180" y="120" width="10" height="10" rx="5" fill="#FCBAAD"/>
<rect x="240" y="120" width="10" height="10" rx="5" fill="#FCBAAD"/>
<rect x="300" y="120" width="10" height="10" rx="5" fill="#FCBAAD"/>
<rect x="360" y="120" width="10" height="10" rx="5" fill="#FCBAAD"/>
<rect x="420" y="120" width="10" height="10" rx="5" fill="#FCBAAD"/>
<rect x="480" y="120" width="10" height="10" rx="5" fill="#FCBAAD"/>
<rect x="540" y="120" width="10" height="10" rx="5" fill="#FCBAAD"/>
<rect x="600" y="120" width="10" height="10" rx="5" fill="#FCBAAD"/>
<rect x="660" y="120" width="10" height="10" rx="5" fill="#FCBAAD"/>
<rect x="720" y="120" width="10" height="10" rx="5" fill="#FCBAAD"/>
<rect y="180" width="10" height="10" rx="5" fill="#FCBAAD"/>
<rect x="60" y="180" width="10" height="10" rx="5" fill="#FCBAAD"/>
<rect x="120" y="180" width="10" height="10" rx="5" fill="#FCBAAD"/>
<rect x="180" y="180" width="10" height="10" rx="5" fill="#FCBAAD"/>
<rect x="240" y="180" width="10" height="10" rx="5" fill="#FCBAAD"/>
<rect x="300" y="180" width="10" height="10" rx="5" fill="#FCBAAD"/>
<rect x="360" y="180" width="10" height="10" rx="5" fill="#FCBAAD"/>
<rect x="420" y="180" width="10" height="10" rx="5" fill="#FCBAAD"/>
<rect x="480" y="180" width="10" height="10" rx="5" fill="#FCBAAD"/>
<rect x="540" y="180" width="10" height="10" rx="5" fill="#FCBAAD"/>
<rect x="600" y="180" width="10" height="10" rx="5" fill="#FCBAAD"/>
<rect x="660" y="180" width="10" height="10" rx="5" fill="#FCBAAD"/>
<rect x="720" y="180" width="10" height="10" rx="5" fill="#FCBAAD"/>
<rect y="240" width="10" height="10" rx="5" fill="#FCBAAD"/>
<rect x="60" y="240" width="10" height="10" rx="5" fill="#FCBAAD"/>
<rect x="120" y="240" width="10" height="10" rx="5" fill="#FCBAAD"/>
<rect x="180" y="240" width="10" height="10" rx="5" fill="#FCBAAD"/>
<rect x="240" y="240" width="10" height="10" rx="5" fill="#FCBAAD"/>
<rect x="300" y="240" width="10" height="10" rx="5" fill="#FCBAAD"/>
<rect x="360" y="240" width="10" height="10" rx="5" fill="#FCBAAD"/>
<rect x="420" y="240" width="10" height="10" rx="5" fill="#FCBAAD"/>
<rect x="480" y="240" width="10" height="10" rx="5" fill="#FCBAAD"/>
<rect x="540" y="240" width="10" height="10" rx="5" fill="#FCBAAD"/>
<rect x="600" y="240" width="10" height="10" rx="5" fill="#FCBAAD"/>
<rect x="660" y="240" width="10" height="10" rx="5" fill="#FCBAAD"/>
<rect x="720" y="240" width="10" height="10" rx="5" fill="#FCBAAD"/>
<rect y="300" width="10" height="10" rx="5" fill="#FCBAAD"/>
<rect x="60" y="300" width="10" height="10" rx="5" fill="#FCBAAD"/>
<rect x="120" y="300" width="10" height="10" rx="5" fill="#FCBAAD"/>
<rect x="180" y="300" width="10" height="10" rx="5" fill="#FCBAAD"/>
<rect x="240" y="300" width="10" height="10" rx="5" fill="#FCBAAD"/>
<rect x="300" y="300" width="10" height="10" rx="5" fill="#FCBAAD"/>
<rect x="360" y="300" width="10" height="10" rx="5" fill="#FCBAAD"/>
<rect x="420" y="300" width="10" height="10" rx="5" fill="#FCBAAD"/>
<rect x="480" y="300" width="10" height="10" rx="5" fill="#FCBAAD"/>
<rect x="540" y="300" width="10" height="10" rx="5" fill="#FCBAAD"/>
<rect x="600" y="300" width="10" height="10" rx="5" fill="#FCBAAD"/>
<rect x="660" y="300" width="10" height="10" rx="5" fill="#FCBAAD"/>
<rect x="720" y="300" width="10" height="10" rx="5" fill="#FCBAAD"/>
<rect y="360" width="10" height="10" rx="5" fill="#FCBAAD"/>
<rect x="60" y="360" width="10" height="10" rx="5" fill="#FCBAAD"/>
<rect x="120" y="360" width="10" height="10" rx="5" fill="#FCBAAD"/>
<rect x="180" y="360" width="10" height="10" rx="5" fill="#FCBAAD"/>
<rect x="240" y="360" width="10" height="10" rx="5" fill="#FCBAAD"/>
<rect x="300" y="360" width="10" height="10" rx="5" fill="#FCBAAD"/>
<rect x="360" y="360" width="10" height="10" rx="5" fill="#FCBAAD"/>
<rect x="420" y="360" width="10" height="10" rx="5" fill="#FCBAAD"/>
<rect x="480" y="360" width="10" height="10" rx="5" fill="#FCBAAD"/>
<rect x="540" y="360" width="10" height="10" rx="5" fill="#FCBAAD"/>
<rect x="600" y="360" width="10" height="10" rx="5" fill="#FCBAAD"/>
<rect x="660" y="360" width="10" height="10" rx="5" fill="#FCBAAD"/>
<rect x="720" y="360" width="10" height="10" rx="5" fill="#FCBAAD"/>
<rect y="420" width="10" height="10" rx="5" fill="#FCBAAD"/>
<rect x="60" y="420" width="10" height="10" rx="5" fill="#FCBAAD"/>
<rect x="120" y="420" width="10" height="10" rx="5" fill="#FCBAAD"/>
<rect x="180" y="420" width="10" height="10" rx="5" fill="#FCBAAD"/>
<rect x="240" y="420" width="10" height="10" rx="5" fill="#FCBAAD"/>
<rect x="300" y="420" width="10" height="10" rx="5" fill="#FCBAAD"/>
<rect x="360" y="420" width="10" height="10" rx="5" fill="#FCBAAD"/>
<rect x="420" y="420" width="10" height="10" rx="5" fill="#FCBAAD"/>
<rect x="480" y="420" width="10" height="10" rx="5" fill="#FCBAAD"/>
<rect x="540" y="420" width="10" height="10" rx="5" fill="#FCBAAD"/>
<rect x="600" y="420" width="10" height="10" rx="5" fill="#FCBAAD"/>
<rect x="660" y="420" width="10" height="10" rx="5" fill="#FCBAAD"/>
<rect x="720" y="420" width="10" height="10" rx="5" fill="#FCBAAD"/>
<rect y="480" width="10" height="10" rx="5" fill="#FCBAAD"/>
<rect x="60" y="480" width="10" height="10" rx="5" fill="#FCBAAD"/>
<rect x="120" y="480" width="10" height="10" rx="5" fill="#FCBAAD"/>
<rect x="180" y="480" width="10" height="10" rx="5" fill="#FCBAAD"/>
<rect x="240" y="480" width="10" height="10" rx="5" fill="#FCBAAD"/>
<rect x="300" y="480" width="10" height="10" rx="5" fill="#FCBAAD"/>
<rect x="360" y="480" width="10" height="10" rx="5" fill="#FCBAAD"/>
<rect x="420" y="480" width="10" height="10" rx="5" fill="#FCBAAD"/>
<rect x="480" y="480" width="10" height="10" rx="5" fill="#FCBAAD"/>
<rect x="540" y="480" width="10" height="10" rx="5" fill="#FCBAAD"/>
<rect x="600" y="480" width="10" height="10" rx="5" fill="#FCBAAD"/>
<rect x="660" y="480" width="10" height="10" rx="5" fill="#FCBAAD"/>
<rect x="720" y="480" width="10" height="10" rx="5" fill="#FCBAAD"/>
<rect y="540" width="10" height="10" rx="5" fill="#FCBAAD"/>
<rect x="60" y="540" width="10" height="10" rx="5" fill="#FCBAAD"/>
<rect x="120" y="540" width="10" height="10" rx="5" fill="#FCBAAD"/>
<rect x="180" y="540" width="10" height="10" rx="5" fill="#FCBAAD"/>
<rect x="240" y="540" width="10" height="10" rx="5" fill="#FCBAAD"/>
<rect x="300" y="540" width="10" height="10" rx="5" fill="#FCBAAD"/>
<rect x="360" y="540" width="10" height="10" rx="5" fill="#FCBAAD"/>
<rect x="420" y="540" width="10" height="10" rx="5" fill="#FCBAAD"/>
<rect x="480" y="540" width="10" height="10" rx="5" fill="#FCBAAD"/>
<rect x="540" y="540" width="10" height="10" rx="5" fill="#FCBAAD"/>
<rect x="600" y="540" width="10" height="10" rx="5" fill="#FCBAAD"/>
<rect x="660" y="540" width="10" height="10" rx="5" fill="#FCBAAD"/>
<rect x="720" y="540" width="10" height="10" rx="5" fill="#FCBAAD"/>
<rect y="600" width="10" height="10" rx="5" fill="#FCBAAD"/>
<rect x="60" y="600" width="10" height="10" rx="5" fill="#FCBAAD"/>
<rect x="120" y="600" width="10" height="10" rx="5" fill="#FCBAAD"/>
<rect x="180" y="600" width="10" height="10" rx="5" fill="#FCBAAD"/>
<rect x="240" y="600" width="10" height="10" rx="5" fill="#FCBAAD"/>
<rect x="300" y="600" width="10" height="10" rx="5" fill="#FCBAAD"/>
<rect x="360" y="600" width="10" height="10" rx="5" fill="#FCBAAD"/>
<rect x="420" y="600" width="10" height="10" rx="5" fill="#FCBAAD"/>
<rect x="480" y="600" width="10" height="10" rx="5" fill="#FCBAAD"/>
<rect x="540" y="600" width="10" height="10" rx="5" fill="#FCBAAD"/>
<rect x="600" y="600" width="10" height="10" rx="5" fill="#FCBAAD"/>
<rect x="660" y="600" width="10" height="10" rx="5" fill="#FCBAAD"/>
<rect x="720" y="600" width="10" height="10" rx="5" fill="#FCBAAD"/>
<rect y="660" width="10" height="10" rx="5" fill="#FCBAAD"/>
<rect x="60" y="660" width="10" height="10" rx="5" fill="#FCBAAD"/>
<rect x="120" y="660" width="10" height="10" rx="5" fill="#FCBAAD"/>
<rect x="180" y="660" width="10" height="10" rx="5" fill="#FCBAAD"/>
<rect x="240" y="660" width="10" height="10" rx="5" fill="#FCBAAD"/>
<rect x="300" y="660" width="10" height="10" rx="5" fill="#FCBAAD"/>
<rect x="360" y="660" width="10" height="10" rx="5" fill="#FCBAAD"/>
<rect x="420" y="660" width="10" height="10" rx="5" fill="#FCBAAD"/>
<rect x="480" y="660" width="10" height="10" rx="5" fill="#FCBAAD"/>
<rect x="540" y="660" width="10" height="10" rx="5" fill="#FCBAAD"/>
<rect x="600" y="660" width="10" height="10" rx="5" fill="#FCBAAD"/>
<rect x="660" y="660" width="10" height="10" rx="5" fill="#FCBAAD"/>
<rect x="720" y="660" width="10" height="10" rx="5" fill="#FCBAAD"/>
<rect y="720" width="10" height="10" rx="5" fill="#FCBAAD"/>
<rect x="60" y="720" width="10" height="10" rx="5" fill="#FCBAAD"/>
<rect x="120" y="720" width="10" height="10" rx="5" fill="#FCBAAD"/>
<rect x="180" y="720" width="10" height="10" rx="5" fill="#FCBAAD"/>
<rect x="240" y="720" width="10" height="10" rx="5" fill="#FCBAAD"/>
<rect x="300" y="720" width="10" height="10" rx="5" fill="#FCBAAD"/>
<rect x="360" y="720" width="10" height="10" rx="5" fill="#FCBAAD"/>
<rect x="420" y="720" width="10" height="10" rx="5" fill="#FCBAAD"/>
<rect x="480" y="720" width="10" height="10" rx="5" fill="#FCBAAD"/>
<rect x="540" y="720" width="10" height="10" rx="5" fill="#FCBAAD"/>
<rect x="600" y="720" width="10" height="10" rx="5" fill="#FCBAAD"/>
<rect x="660" y="720" width="10" height="10" rx="5" fill="#FCBAAD"/>
<rect x="720" y="720" width="10" height="10" rx="5" fill="#FCBAAD"/>
</mask>
<g mask="url(#mask0_211_464)">
<circle cx="365" cy="365" r="365" fill="url(#paint0_radial_211_464)"/>
</g>
<defs>
<radialGradient id="paint0_radial_211_464" cx="0" cy="0" r="1" gradientUnits="userSpaceOnUse" gradientTransform="translate(365 365) rotate(90) scale(365)">
<stop stop-color="#FCBAAD"/>
<stop offset="1" stop-color="#FCBAAD" stop-opacity="0"/>
</radialGradient>
</defs>
</svg>
