<svg width="243" height="200" fill="none" xmlns="http://www.w3.org/2000/svg"><g clip-path="url(#clip0_6484_28685)"><path d="M197.265 35.881c0-1.848-.184-3.65-.541-5.389l9.016-5.205-8.44-14.624-8.988 5.188a26.888 26.888 0 00-9.488-5.499V0h-16.887v10.358a27.101 27.101 0 00-4.526 1.969c-.172.092-.339.196-.506.293-.167.098-.34.19-.507.294a26.717 26.717 0 00-3.967 2.93l-8.97-5.181-8.441 14.624 8.971 5.182a26.172 26.172 0 00-.553 4.9v1.168c.034 1.636.219 3.276.553 4.906l-8.971 5.182 8.441 14.624 8.97-5.182a26.872 26.872 0 009.5 5.47v10.375h16.887v-10.41a26.814 26.814 0 004.94-2.228 26.73 26.73 0 004.491-3.253l9.045 5.222 8.44-14.624-9.045-5.222c.369-1.78.57-3.627.57-5.516h.006zm-15.827 11.9l-.219.202c-.294.265-.593.513-.898.755-.144.109-.288.218-.438.328a14.14 14.14 0 01-.771.524c-.208.132-.421.259-.634.385-.213.127-.432.242-.65.358-.277.143-.559.276-.841.403a17.788 17.788 0 01-1.601.616c-.092.028-.19.063-.282.092a16.33 16.33 0 01-4.715.702c-8.982 0-16.265-7.283-16.265-16.265 0-2.2.443-4.295 1.232-6.207l.115-.27c.144-.334.311-.662.478-.99.109-.208.219-.41.334-.61.115-.202.236-.398.363-.594.195-.305.397-.61.616-.904.057-.08.115-.155.172-.236a16.216 16.216 0 014.762-4.174c7.778-4.49 17.722-1.825 22.213 5.953a16.217 16.217 0 011.75 4.434c.023.097.04.19.063.288a16.106 16.106 0 01.351 3.368c0 .247 0 .495-.017.742a16.05 16.05 0 01-.069.927c-.017.185-.04.363-.063.547a15.41 15.41 0 01-.202 1.152c-.023.098-.04.195-.063.293a16.41 16.41 0 01-1.75 4.434 16.052 16.052 0 01-2.966 3.73l-.005.018zm55.946 39.527a15.16 15.16 0 00-.305-3.04l5.084-2.937-4.762-8.245-5.067 2.925a15.113 15.113 0 00-5.348-3.097v-5.839h-9.518v5.839c-.886.293-1.744.668-2.55 1.11-.098.053-.19.11-.288.162-.092.058-.19.11-.282.167a15.51 15.51 0 00-2.24 1.652l-5.055-2.919-4.761 8.245 5.055 2.92c-.19.915-.294 1.842-.311 2.763v.656c.017.921.121 1.848.311 2.764l-5.055 2.919 4.761 8.245 5.055-2.92a15.15 15.15 0 005.355 3.081v5.85h9.517v-5.867c.95-.317 1.883-.737 2.781-1.256a15.702 15.702 0 002.533-1.83l5.096 2.942 4.761-8.245-5.095-2.942a15.37 15.37 0 00.322-3.11l.006.007zm-8.924 6.707c-.041.04-.081.075-.127.115-.161.15-.334.288-.507.426a9.562 9.562 0 01-1.877 1.129l-.282.12a6.945 6.945 0 01-.622.225 9.203 9.203 0 01-2.821.449 9.168 9.168 0 01-9.166-9.166c0-1.238.248-2.418.697-3.5.023-.052.04-.104.063-.15.081-.19.173-.374.271-.558.063-.116.121-.23.19-.346a10.313 10.313 0 01.547-.846l.098-.133a9.163 9.163 0 0115.205 1.008c.461.8.789 1.64.991 2.499l.034.16c.046.22.081.433.115.651l.035.305a9.554 9.554 0 01.052.939c0 .138 0 .282-.012.42a8.392 8.392 0 01-.04.524l-.035.305a8.695 8.695 0 01-.115.651l-.034.167a9.225 9.225 0 01-.985 2.499 9.276 9.276 0 01-1.67 2.107h-.005zM52.244 143.789a21.258 21.258 0 00-1.923-3.788l5.119-6.363-10.318-8.302-5.101 6.339a20.966 20.966 0 00-8.493-1.33l-2.936-7.577-12.35 4.785 2.936 7.577a21.175 21.175 0 00-2.752 2.723c-.098.115-.19.236-.287.357-.098.121-.196.236-.288.357a20.802 20.802 0 00-2.073 3.27l-8.026-1.249-2.033 13.087 8.026 1.249c.214 1.284.542 2.539.985 3.743.052.143.11.287.167.437.052.138.104.282.161.42a21.443 21.443 0 001.797 3.432l-5.096 6.327 10.318 8.303 5.095-6.328a21.11 21.11 0 008.498 1.307l2.937 7.589 12.35-4.785-2.948-7.611a21.59 21.59 0 002.982-3.029 21.471 21.471 0 002.366-3.65l8.09 1.255 2.032-13.087-8.09-1.255c-.23-1.405-.61-2.81-1.145-4.197v-.006zm-8.204 13.185l-.104.207a13.79 13.79 0 01-.443.806c-.075.121-.15.242-.23.363-.133.207-.271.403-.415.604a13.502 13.502 0 01-1.537 1.739c-.225.207-.455.415-.691.605a2.177 2.177 0 01-.185.144 12.712 12.712 0 01-3.253 1.848c-6.569 2.545-13.956-.72-16.5-7.289a12.763 12.763 0 01-.859-4.888c0-.075 0-.15.006-.231.012-.288.035-.57.07-.858.022-.178.04-.362.068-.541a13.465 13.465 0 01.294-1.37c.017-.075.04-.15.063-.219a12.612 12.612 0 012.297-4.399c4.417-5.487 12.443-6.356 17.93-1.94a12.85 12.85 0 012.539 2.746c.046.064.086.127.126.196.167.259.328.524.478.789.07.127.138.248.202.38.11.219.218.438.316.662.075.179.15.357.22.536.068.184.137.362.2.547.076.23.15.46.214.696.04.138.075.277.11.415.068.299.131.598.177.898l.035.23a12.717 12.717 0 01-1.134 7.307l.006.017zm72.568-127.265H1.474A1.477 1.477 0 010 28.235c0-.812.662-1.474 1.474-1.474h115.134c.811 0 1.474.662 1.474 1.474 0 .812-.663 1.474-1.474 1.474zm0 10.559H1.474A1.477 1.477 0 010 38.794c0-.811.662-1.474 1.474-1.474h115.134c.811 0 1.474.663 1.474 1.474 0 .812-.663 1.474-1.474 1.474zm0 10.554H1.474A1.477 1.477 0 010 49.348c0-.812.662-1.474 1.474-1.474h115.134c.811 0 1.474.662 1.474 1.474 0 .812-.663 1.474-1.474 1.474zm0 7.611H1.474a1.474 1.474 0 000 2.948h115.134a1.474 1.474 0 000-2.948zm0 13.507H1.474A1.477 1.477 0 010 70.468c0-.812.662-1.474 1.474-1.474h115.134c.811 0 1.474.662 1.474 1.474 0 .811-.663 1.474-1.474 1.474zm0 10.554H1.474A1.477 1.477 0 010 81.02c0-.812.662-1.474 1.474-1.474h115.134c.811 0 1.474.662 1.474 1.474 0 .812-.663 1.474-1.474 1.474zm0 10.56H1.474A1.477 1.477 0 010 91.58c0-.812.662-1.474 1.474-1.474h115.134c.811 0 1.474.662 1.474 1.474 0 .811-.663 1.474-1.474 1.474zm0 10.559H1.474A1.477 1.477 0 010 102.139c0-.812.662-1.474 1.474-1.474h115.134c.811 0 1.474.662 1.474 1.474 0 .812-.663 1.474-1.474 1.474zm0 10.553H1.474A1.477 1.477 0 010 112.693c0-.812.662-1.474 1.474-1.474h115.134c.811 0 1.474.662 1.474 1.474 0 .811-.663 1.473-1.474 1.473z" fill="#EBEBF2"/><path d="M116.982 189.377c48.826 0 88.407-3.737 88.407-8.348 0-4.611-39.581-8.348-88.407-8.348-48.826 0-88.407 3.737-88.407 8.348 0 4.611 39.58 8.348 88.407 8.348z" fill="#000" fill-opacity=".32"/><path d="M142.597 181.472H91.361l8.809-25.408h33.618l8.809 25.408z" fill="url(#paint0_linear_6484_28685)"/><path d="M34.885 78.775h164.194v81.308c0 4.865-3.95 8.809-8.809 8.809H43.694c-4.865 0-8.809-3.95-8.809-8.809V78.775z" fill="url(#paint1_linear_6484_28685)"/><path d="M43.694 53.517h146.57c4.865 0 8.809 3.95 8.809 8.808v85.719H34.885V62.325c0-4.865 3.95-8.809 8.81-8.809z" fill="#3D3D89"/><path d="M192.757 62.412H41.483v76.558h151.274V62.412z" fill="url(#paint2_linear_6484_28685)"/><path style="mix-blend-mode:multiply" d="M116.982 162.167a4.779 4.779 0 100-9.558 4.779 4.779 0 000 9.558z" fill="url(#paint3_linear_6484_28685)"/><path d="M155.949 181.472H78.015a4.738 4.738 0 014.738-4.738h68.463a4.74 4.74 0 014.739 4.738h-.006z" fill="url(#paint4_linear_6484_28685)"/><path d="M190.73 200.006c19.785 0 35.824-2.294 35.824-5.124 0-2.83-16.039-5.125-35.824-5.125-19.785 0-35.823 2.295-35.823 5.125s16.038 5.124 35.823 5.124z" fill="#000" fill-opacity=".32"/><path d="M208.653 113.809h-35.846a5.12 5.12 0 00-5.119 5.119v68.854a5.12 5.12 0 005.119 5.119h35.846a5.12 5.12 0 005.119-5.119v-68.854a5.12 5.12 0 00-5.119-5.119z" fill="#4B4BA0"/><path d="M213.772 119.314h-46.084v67.755h46.084v-67.755z" fill="url(#paint5_linear_6484_28685)"/><g filter="url(#filter0_d_6484_28685)"><path d="M202.205 136.759h-22.944a5.118 5.118 0 00-5.118 5.118v22.944a5.118 5.118 0 005.118 5.119h22.944a5.118 5.118 0 005.118-5.119v-22.944a5.118 5.118 0 00-5.118-5.118z" fill="url(#paint6_linear_6484_28685)"/></g><g filter="url(#filter1_d_6484_28685)" fill="#fff"><path d="M190.73 166.053c-7.001 0-12.701-5.7-12.701-12.701s5.7-12.701 12.701-12.701 12.701 5.7 12.701 12.701-5.7 12.701-12.701 12.701zm0-23.059c-5.711 0-10.352 4.647-10.352 10.358 0 5.712 4.646 10.352 10.352 10.352s10.352-4.646 10.352-10.352c0-5.705-4.646-10.358-10.352-10.358z"/><path d="M189.815 158.183l-4.439-3.909 1.859-2.114 2.315 2.039 4.422-5.05 2.119 1.848-6.276 7.186z"/></g><path d="M196.505 122.002h-11.55a3.226 3.226 0 01-3.224-3.224h17.998a3.226 3.226 0 01-3.224 3.224z" fill="#4B4BA0"/><path opacity=".15" d="M194.899 119.314h-8.337a.535.535 0 110-1.071h8.337a.535.535 0 110 1.071z" fill="#fff"/><g filter="url(#filter2_d_6484_28685)"><path d="M156.893 45.508H66.287a5.118 5.118 0 00-5.119 5.118v54.783a5.119 5.119 0 005.119 5.119h90.606a5.12 5.12 0 005.119-5.119V50.626a5.119 5.119 0 00-5.119-5.118z" fill="url(#paint7_linear_6484_28685)"/></g><path d="M156.893 50.626H66.287v54.783h90.606V50.626z" fill="#3D3D89"/><path d="M85.373 57.944h-9.425v1.272h9.425v-1.272zm22.27 0H88.355v1.272h19.288v-1.272z" fill="#FFC700"/><path d="M89.374 63.103H79.95v1.272h9.425v-1.272z" fill="#fff"/><path d="M147.468 63.103H92.357v1.272h55.111v-1.272z" fill="#1E9AFF"/><path d="M89.374 67.893H79.95v1.272h9.425v-1.272z" fill="#fff"/><path d="M147.468 67.893H92.357v1.272h55.111v-1.272z" fill="#1E9AFF"/><path d="M89.374 72.683H79.95v1.273h9.425v-1.273z" fill="#fff"/><path d="M147.468 72.683H92.357v1.273h55.111v-1.273z" fill="#1E9AFF"/><path d="M89.374 77.468H79.95v1.272h9.425v-1.272z" fill="#fff"/><path d="M85.373 82.534h-9.425v1.273h9.425v-1.273zm22.27 0H88.355v1.273h19.288v-1.273z" fill="#FFC700"/><path d="M127.892 87.693H92.357v1.273h35.535v-1.273zm0 4.791H92.357v1.272h35.535v-1.272z" fill="#fff"/><path d="M89.368 92.484h-3.126v1.272h3.126v-1.272zm.006 4.79H79.95v1.272h9.425v-1.272z" fill="#1E9AFF"/><path d="M127.892 97.274H92.357v1.272h35.535v-1.272zm19.979-9.581h-17.416v1.273h17.416v-1.273zm0 4.791h-17.416v1.272h17.416v-1.272zm0 4.79h-17.416v1.272h17.416v-1.272z" fill="#fff"/><path d="M147.468 77.468H92.357v1.272h55.111v-1.272z" fill="#1E9AFF"/><g filter="url(#filter3_d_6484_28685)"><path d="M44.725 71.094H15.528a5.118 5.118 0 00-5.118 5.119v29.196a5.119 5.119 0 005.118 5.119h29.197a5.119 5.119 0 005.118-5.119V76.213a5.118 5.118 0 00-5.118-5.119z" fill="url(#paint8_linear_6484_28685)"/></g><g filter="url(#filter4_d_6484_28685)"><path d="M39.215 90.79a9.03 9.03 0 00-.185-1.819l3.046-1.761-2.856-4.94-3.04 1.756a9.128 9.128 0 00-3.206-1.86v-3.5h-5.706v3.5a8.813 8.813 0 00-1.699.766c-.057.034-.115.063-.172.098a9.268 9.268 0 00-1.342.99l-3.034-1.75-2.856 4.94 3.034 1.75a8.975 8.975 0 00-.19 1.658v.397c.012.553.075 1.106.19 1.659l-3.034 1.75 2.856 4.94 3.034-1.75a9.091 9.091 0 003.213 1.848v3.506h5.706V99.45a9.19 9.19 0 003.19-1.854l3.056 1.762 2.856-4.94-3.057-1.762c.127-.604.19-1.226.19-1.865h.006zm-5.35 4.025l-.074.07a6.482 6.482 0 01-.305.253c-.046.04-.098.075-.15.11a6.792 6.792 0 01-.259.178c-.069.046-.144.086-.213.132-.075.04-.144.08-.219.121l-.282.138c-.057.023-.115.052-.167.075a4.15 4.15 0 01-.374.138c-.035.012-.063.023-.098.029a5.498 5.498 0 01-6.639-7.45c.052-.116.104-.225.162-.334.034-.07.075-.138.115-.208.04-.069.08-.132.12-.201.07-.104.133-.207.208-.305.017-.029.04-.052.058-.08a5.598 5.598 0 011.606-1.411 5.496 5.496 0 018.193 3.995c.006.064.017.121.023.185.012.103.017.207.023.316v.501c0 .104-.011.207-.023.311-.006.063-.011.121-.023.184a4.654 4.654 0 01-.092.49 5.524 5.524 0 01-.593 1.497 5.403 5.403 0 01-1.002 1.26l.006.006z" fill="#fff"/></g><g filter="url(#filter5_d_6484_28685)"><path d="M90.261 119.51H50.834a5.118 5.118 0 00-5.119 5.118v24.078a5.119 5.119 0 005.118 5.119h39.428a5.119 5.119 0 005.119-5.119v-24.078a5.118 5.118 0 00-5.119-5.118z" fill="url(#paint9_linear_6484_28685)"/></g><g filter="url(#filter6_d_6484_28685)" fill="#fff"><path d="M63.368 128.572l-9.345 8.095 9.345 8.089v-4.387l-4.284-3.702 4.284-3.708v-4.387zm14.365 16.184l9.35-8.089-9.35-8.095v4.387l4.283 3.708-4.283 3.702v4.387zm-8.083 2.643h-3.962l5.77-21.464h3.954l-5.763 21.464z"/></g><g filter="url(#filter7_d_6484_28685)"><path d="M223.071 25.16h-44.547a5.119 5.119 0 00-5.118 5.119v44.546a5.119 5.119 0 005.118 5.119h44.547a5.119 5.119 0 005.118-5.119V30.28a5.119 5.119 0 00-5.118-5.119z" fill="url(#paint10_linear_6484_28685)"/></g><g filter="url(#filter8_d_6484_28685)" fill="#fff"><path d="M214.371 42.45a7.404 7.404 0 00-3.155.703c-1.313-4.687-5.608-8.124-10.715-8.124s-9.264 3.328-10.651 7.9a7.42 7.42 0 00-10.042 6.944h41.984a7.42 7.42 0 00-7.421-7.423zM193.08 62.36l7.72 7.72 7.721-7.72h-5.204v-9.108h-5.038v9.108h-5.199z"/></g><g filter="url(#filter9_d_6484_28685)"><path d="M44.725 22.685H15.528a5.118 5.118 0 00-5.118 5.118V57a5.118 5.118 0 005.118 5.118h29.197A5.118 5.118 0 0049.843 57V27.803a5.118 5.118 0 00-5.118-5.118z" fill="url(#paint11_linear_6484_28685)"/></g><path d="M45.185 27.343H15.068V57.46h30.117V27.343z" fill="#3D3D89"/><path d="M22.933 33.204h-2.77v1.272h2.77v-1.272z" fill="#fff"/><path d="M38.553 33.204h-14.17v1.272h14.17v-1.272z" fill="#1E9AFF"/><path d="M24.47 37.482h-4.307v1.272h4.307v-1.272z" fill="#fff"/><path d="M40.09 37.482H25.92v1.272h14.17v-1.272z" fill="#1E9AFF"/><path d="M22.933 45.525h-2.77v1.272h2.77v-1.272z" fill="#fff"/><path d="M38.553 45.525h-14.17v1.272h14.17v-1.272z" fill="#1E9AFF"/><path d="M24.47 49.797h-4.307v1.273h4.307v-1.273z" fill="#fff"/><path d="M40.09 49.797H25.92v1.273h14.17v-1.273z" fill="#1E9AFF"/><path d="M21.913 41.76h-4.306v1.272h4.306V41.76z" fill="#fff"/><path d="M42.646 41.76H23.358v1.272h19.288V41.76z" fill="#1E9AFF"/><path d="M129.602 118.433h-11.549v11.55h11.549v-11.55zm16.778 0h-11.55v11.55h11.55v-11.55zm16.783 0h-11.549v11.55h11.549v-11.55zm23.002-31.373h-17.417v1.272h17.417V87.06zm0 4.784h-17.417v1.273h17.417v-1.273zm0 4.791h-17.417v1.272h17.417v-1.272z" fill="#A7C8FF"/></g><defs><linearGradient id="paint0_linear_6484_28685" x1="100.02" y1="156.214" x2="133.938" y2="190.132" gradientUnits="userSpaceOnUse"><stop offset=".23" stop-color="#A7C8FF"/><stop offset=".45" stop-color="#AACAFF"/><stop offset=".67" stop-color="#B6D2FF"/><stop offset=".89" stop-color="#CAE0FF"/><stop offset="1" stop-color="#D8E9FF"/></linearGradient><linearGradient id="paint1_linear_6484_28685" x1="54.691" y1="58.969" x2="179.267" y2="183.545" gradientUnits="userSpaceOnUse"><stop stop-color="#D8E9FF"/><stop offset="1" stop-color="#A7C8FF"/></linearGradient><linearGradient id="paint2_linear_6484_28685" x1="60.166" y1="43.734" x2="174.08" y2="157.647" gradientUnits="userSpaceOnUse"><stop stop-color="#562BFF"/><stop offset="1" stop-color="#7DA5FF"/></linearGradient><linearGradient id="paint3_linear_6484_28685" x1="113.602" y1="154.009" x2="120.362" y2="160.768" gradientUnits="userSpaceOnUse"><stop stop-color="#A7C8FF"/><stop offset="1" stop-color="#D8E9FF"/></linearGradient><linearGradient id="paint4_linear_6484_28685" x1="97.003" y1="160.515" x2="136.955" y2="200.466" gradientUnits="userSpaceOnUse"><stop stop-color="#A7C8FF"/><stop offset="1" stop-color="#73ABFF"/></linearGradient><linearGradient id="paint5_linear_6484_28685" x1="162.271" y1="124.737" x2="219.19" y2="181.656" gradientUnits="userSpaceOnUse"><stop stop-color="#562BFF"/><stop offset="1" stop-color="#7DA5FF"/></linearGradient><linearGradient id="paint6_linear_6484_28685" x1="175.64" y1="138.262" x2="205.826" y2="168.449" gradientUnits="userSpaceOnUse"><stop stop-color="#35FFFF" stop-opacity=".5"/><stop offset="1" stop-color="#35E6BB"/></linearGradient><linearGradient id="paint7_linear_6484_28685" x1="71.624" y1="38.052" x2="151.556" y2="117.984" gradientUnits="userSpaceOnUse"><stop stop-color="#35C9E2" stop-opacity=".5"/><stop offset="1" stop-color="#35E6BB"/></linearGradient><linearGradient id="paint8_linear_6484_28685" x1="11.912" y1="72.597" x2="48.346" y2="109.031" gradientUnits="userSpaceOnUse"><stop stop-color="#35C9E2" stop-opacity=".5"/><stop offset="1" stop-color="#35E6BB"/></linearGradient><linearGradient id="paint9_linear_6484_28685" x1="51.052" y1="117.172" x2="90.048" y2="156.162" gradientUnits="userSpaceOnUse"><stop stop-color="#35C9E2" stop-opacity=".5"/><stop offset="1" stop-color="#35E6BB"/></linearGradient><linearGradient id="paint10_linear_6484_28685" x1="174.909" y1="26.663" x2="226.692" y2="78.447" gradientUnits="userSpaceOnUse"><stop stop-color="#35C9E2" stop-opacity=".5"/><stop offset="1" stop-color="#35E6BB"/></linearGradient><linearGradient id="paint11_linear_6484_28685" x1="11.912" y1="24.182" x2="48.346" y2="60.615" gradientUnits="userSpaceOnUse"><stop stop-color="#35C9E2" stop-opacity=".5"/><stop offset="1" stop-color="#35E6BB"/></linearGradient><filter id="filter0_d_6484_28685" x="168.005" y="135.74" width="45.456" height="45.456" filterUnits="userSpaceOnUse" color-interpolation-filters="sRGB"><feFlood flood-opacity="0" result="BackgroundImageFix"/><feColorMatrix in="SourceAlpha" values="0 0 0 0 0 0 0 0 0 0 0 0 0 0 0 0 0 0 127 0" result="hardAlpha"/><feOffset dy="5.118"/><feGaussianBlur stdDeviation="3.069"/><feColorMatrix values="0 0 0 0 0.0666667 0 0 0 0 0.447059 0 0 0 0 0.835294 0 0 0 0.4 0"/><feBlend in2="BackgroundImageFix" result="effect1_dropShadow_6484_28685"/><feBlend in="SourceGraphic" in2="effect1_dropShadow_6484_28685" result="shape"/></filter><filter id="filter1_d_6484_28685" x="173.711" y="138.492" width="34.039" height="34.039" filterUnits="userSpaceOnUse" color-interpolation-filters="sRGB"><feFlood flood-opacity="0" result="BackgroundImageFix"/><feColorMatrix in="SourceAlpha" values="0 0 0 0 0 0 0 0 0 0 0 0 0 0 0 0 0 0 127 0" result="hardAlpha"/><feOffset dy="2.159"/><feGaussianBlur stdDeviation="2.159"/><feColorMatrix values="0 0 0 0 0.117647 0 0 0 0 0.521569 0 0 0 0 1 0 0 0 0.4 0"/><feBlend in2="BackgroundImageFix" result="effect1_dropShadow_6484_28685"/><feBlend in="SourceGraphic" in2="effect1_dropShadow_6484_28685" result="shape"/></filter><filter id="filter2_d_6484_28685" x="55.031" y="44.489" width="113.119" height="77.295" filterUnits="userSpaceOnUse" color-interpolation-filters="sRGB"><feFlood flood-opacity="0" result="BackgroundImageFix"/><feColorMatrix in="SourceAlpha" values="0 0 0 0 0 0 0 0 0 0 0 0 0 0 0 0 0 0 127 0" result="hardAlpha"/><feOffset dy="5.118"/><feGaussianBlur stdDeviation="3.069"/><feColorMatrix values="0 0 0 0 0.117647 0 0 0 0 0.521569 0 0 0 0 1 0 0 0 0.4 0"/><feBlend in2="BackgroundImageFix" result="effect1_dropShadow_6484_28685"/><feBlend in="SourceGraphic" in2="effect1_dropShadow_6484_28685" result="shape"/></filter><filter id="filter3_d_6484_28685" x="4.272" y="70.075" width="51.708" height="51.709" filterUnits="userSpaceOnUse" color-interpolation-filters="sRGB"><feFlood flood-opacity="0" result="BackgroundImageFix"/><feColorMatrix in="SourceAlpha" values="0 0 0 0 0 0 0 0 0 0 0 0 0 0 0 0 0 0 127 0" result="hardAlpha"/><feOffset dy="5.118"/><feGaussianBlur stdDeviation="3.069"/><feColorMatrix values="0 0 0 0 0.117647 0 0 0 0 0.521569 0 0 0 0 1 0 0 0 0.4 0"/><feBlend in2="BackgroundImageFix" result="effect1_dropShadow_6484_28685"/><feBlend in="SourceGraphic" in2="effect1_dropShadow_6484_28685" result="shape"/></filter><filter id="filter4_d_6484_28685" x="13.847" y="76.506" width="32.547" height="32.939" filterUnits="userSpaceOnUse" color-interpolation-filters="sRGB"><feFlood flood-opacity="0" result="BackgroundImageFix"/><feColorMatrix in="SourceAlpha" values="0 0 0 0 0 0 0 0 0 0 0 0 0 0 0 0 0 0 127 0" result="hardAlpha"/><feOffset dy="2.159"/><feGaussianBlur stdDeviation="2.159"/><feColorMatrix values="0 0 0 0 0.117647 0 0 0 0 0.521569 0 0 0 0 1 0 0 0 0.4 0"/><feBlend in2="BackgroundImageFix" result="effect1_dropShadow_6484_28685"/><feBlend in="SourceGraphic" in2="effect1_dropShadow_6484_28685" result="shape"/></filter><filter id="filter5_d_6484_28685" x="39.578" y="118.49" width="61.94" height="46.59" filterUnits="userSpaceOnUse" color-interpolation-filters="sRGB"><feFlood flood-opacity="0" result="BackgroundImageFix"/><feColorMatrix in="SourceAlpha" values="0 0 0 0 0 0 0 0 0 0 0 0 0 0 0 0 0 0 127 0" result="hardAlpha"/><feOffset dy="5.118"/><feGaussianBlur stdDeviation="3.069"/><feColorMatrix values="0 0 0 0 0.117647 0 0 0 0 0.521569 0 0 0 0 1 0 0 0 0.4 0"/><feBlend in2="BackgroundImageFix" result="effect1_dropShadow_6484_28685"/><feBlend in="SourceGraphic" in2="effect1_dropShadow_6484_28685" result="shape"/></filter><filter id="filter6_d_6484_28685" x="49.705" y="123.776" width="41.696" height="30.1" filterUnits="userSpaceOnUse" color-interpolation-filters="sRGB"><feFlood flood-opacity="0" result="BackgroundImageFix"/><feColorMatrix in="SourceAlpha" values="0 0 0 0 0 0 0 0 0 0 0 0 0 0 0 0 0 0 127 0" result="hardAlpha"/><feOffset dy="2.159"/><feGaussianBlur stdDeviation="2.159"/><feColorMatrix values="0 0 0 0 0.117647 0 0 0 0 0.521569 0 0 0 0 1 0 0 0 0.4 0"/><feBlend in2="BackgroundImageFix" result="effect1_dropShadow_6484_28685"/><feBlend in="SourceGraphic" in2="effect1_dropShadow_6484_28685" result="shape"/></filter><filter id="filter7_d_6484_28685" x="167.268" y="24.141" width="67.058" height="67.058" filterUnits="userSpaceOnUse" color-interpolation-filters="sRGB"><feFlood flood-opacity="0" result="BackgroundImageFix"/><feColorMatrix in="SourceAlpha" values="0 0 0 0 0 0 0 0 0 0 0 0 0 0 0 0 0 0 127 0" result="hardAlpha"/><feOffset dy="5.118"/><feGaussianBlur stdDeviation="3.069"/><feColorMatrix values="0 0 0 0 0.117647 0 0 0 0 0.521569 0 0 0 0 1 0 0 0 0.4 0"/><feBlend in2="BackgroundImageFix" result="effect1_dropShadow_6484_28685"/><feBlend in="SourceGraphic" in2="effect1_dropShadow_6484_28685" result="shape"/></filter><filter id="filter8_d_6484_28685" x="175.49" y="32.87" width="50.62" height="43.688" filterUnits="userSpaceOnUse" color-interpolation-filters="sRGB"><feFlood flood-opacity="0" result="BackgroundImageFix"/><feColorMatrix in="SourceAlpha" values="0 0 0 0 0 0 0 0 0 0 0 0 0 0 0 0 0 0 127 0" result="hardAlpha"/><feOffset dy="2.159"/><feGaussianBlur stdDeviation="2.159"/><feColorMatrix values="0 0 0 0 0.117647 0 0 0 0 0.521569 0 0 0 0 1 0 0 0 0.4 0"/><feBlend in2="BackgroundImageFix" result="effect1_dropShadow_6484_28685"/><feBlend in="SourceGraphic" in2="effect1_dropShadow_6484_28685" result="shape"/></filter><filter id="filter9_d_6484_28685" x="4.272" y="21.666" width="51.708" height="51.709" filterUnits="userSpaceOnUse" color-interpolation-filters="sRGB"><feFlood flood-opacity="0" result="BackgroundImageFix"/><feColorMatrix in="SourceAlpha" values="0 0 0 0 0 0 0 0 0 0 0 0 0 0 0 0 0 0 127 0" result="hardAlpha"/><feOffset dy="5.118"/><feGaussianBlur stdDeviation="3.069"/><feColorMatrix values="0 0 0 0 0.117647 0 0 0 0 0.521569 0 0 0 0 1 0 0 0 0.4 0"/><feBlend in2="BackgroundImageFix" result="effect1_dropShadow_6484_28685"/><feBlend in="SourceGraphic" in2="effect1_dropShadow_6484_28685" result="shape"/></filter><clipPath id="clip0_6484_28685"><path fill="#fff" d="M0 0h242.163v200H0z"/></clipPath></defs></svg>