<svg width="420" height="479" viewBox="0 0 420 479" fill="none" xmlns="http://www.w3.org/2000/svg">
<path d="M210 0.395508C94.2047 0.395508 0 89.2413 0 198.446C0 261.618 34.3383 327.821 102.057 395.213C151.725 444.643 200.685 475.628 202.745 476.924C204.895 478.278 207.42 479 210.002 479C212.584 479 215.108 478.278 217.258 476.924C219.319 475.628 268.278 444.643 317.947 395.213C385.662 327.821 420 261.618 420 198.446C420 89.2413 325.795 0.395508 210 0.395508ZM210 451.387C175.074 427.587 26.25 319.057 26.25 198.446C26.25 102.95 108.678 25.2579 210 25.2579C311.322 25.2579 393.75 102.95 393.75 198.446C393.75 319.057 244.926 427.587 210 451.387ZM210 124.142C166.579 124.142 131.25 157.476 131.25 198.446C131.25 239.419 166.579 272.751 210 272.751C253.421 272.751 288.75 239.416 288.75 198.446C288.75 157.476 253.421 124.142 210 124.142ZM210 247.888C181.053 247.888 157.5 225.708 157.5 198.446C157.5 171.185 181.053 149.004 210 149.004C238.947 149.004 262.5 171.185 262.5 198.446C262.5 225.711 238.947 247.888 210 247.888Z" fill="#5D21D1"/>
</svg>
