<svg width="290" height="69" viewBox="0 0 290 69" fill="none" xmlns="http://www.w3.org/2000/svg">
<path d="M129.026 34.875H124.048C123.957 34.2311 123.772 33.6591 123.491 33.1591C123.211 32.6515 122.851 32.2197 122.412 31.8636C121.973 31.5076 121.465 31.2348 120.889 31.0455C120.321 30.8561 119.704 30.7614 119.037 30.7614C117.832 30.7614 116.783 31.0606 115.889 31.6591C114.995 32.25 114.302 33.1136 113.81 34.25C113.317 35.3788 113.071 36.75 113.071 38.3636C113.071 40.0227 113.317 41.4167 113.81 42.5455C114.31 43.6742 115.007 44.5265 115.901 45.1023C116.795 45.678 117.829 45.9659 119.003 45.9659C119.662 45.9659 120.272 45.8788 120.832 45.7045C121.401 45.5303 121.904 45.2765 122.344 44.9432C122.783 44.6023 123.147 44.1894 123.435 43.7045C123.73 43.2197 123.935 42.6667 124.048 42.0455L129.026 42.0682C128.897 43.1364 128.575 44.1667 128.06 45.1591C127.552 46.1439 126.866 47.0265 126.003 47.8068C125.147 48.5795 124.124 49.1932 122.935 49.6477C121.753 50.0947 120.416 50.3182 118.923 50.3182C116.848 50.3182 114.991 49.8485 113.355 48.9091C111.726 47.9697 110.438 46.6098 109.491 44.8295C108.552 43.0492 108.082 40.8939 108.082 38.3636C108.082 35.8258 108.56 33.6667 109.514 31.8864C110.469 30.1061 111.764 28.75 113.401 27.8182C115.037 26.8788 116.878 26.4091 118.923 26.4091C120.272 26.4091 121.522 26.5985 122.673 26.9773C123.832 27.3561 124.859 27.9091 125.753 28.6364C126.647 29.3561 127.374 30.2386 127.935 31.2841C128.503 32.3295 128.866 33.5265 129.026 34.875ZM140.349 50.3409C138.584 50.3409 137.058 49.9659 135.77 49.2159C134.49 48.4583 133.501 47.4053 132.804 46.0568C132.107 44.7008 131.759 43.1288 131.759 41.3409C131.759 39.5379 132.107 37.9621 132.804 36.6136C133.501 35.2576 134.49 34.2045 135.77 33.4545C137.058 32.697 138.584 32.3182 140.349 32.3182C142.115 32.3182 143.637 32.697 144.918 33.4545C146.205 34.2045 147.198 35.2576 147.895 36.6136C148.592 37.9621 148.94 39.5379 148.94 41.3409C148.94 43.1288 148.592 44.7008 147.895 46.0568C147.198 47.4053 146.205 48.4583 144.918 49.2159C143.637 49.9659 142.115 50.3409 140.349 50.3409ZM140.372 46.5909C141.175 46.5909 141.846 46.3636 142.384 45.9091C142.921 45.447 143.327 44.8182 143.599 44.0227C143.88 43.2273 144.02 42.322 144.02 41.3068C144.02 40.2917 143.88 39.3864 143.599 38.5909C143.327 37.7955 142.921 37.1667 142.384 36.7045C141.846 36.2424 141.175 36.0114 140.372 36.0114C139.562 36.0114 138.88 36.2424 138.327 36.7045C137.781 37.1667 137.368 37.7955 137.088 38.5909C136.815 39.3864 136.679 40.2917 136.679 41.3068C136.679 42.322 136.815 43.2273 137.088 44.0227C137.368 44.8182 137.781 45.447 138.327 45.9091C138.88 46.3636 139.562 46.5909 140.372 46.5909ZM158.52 50.2841C157.194 50.2841 155.993 49.9432 154.918 49.2614C153.849 48.572 153.001 47.5606 152.372 46.2273C151.751 44.8864 151.44 43.2424 151.44 41.2955C151.44 39.2955 151.762 37.6326 152.406 36.3068C153.05 34.9735 153.906 33.9773 154.974 33.3182C156.05 32.6515 157.228 32.3182 158.509 32.3182C159.486 32.3182 160.3 32.4848 160.952 32.8182C161.611 33.1439 162.141 33.553 162.543 34.0455C162.952 34.5303 163.262 35.0076 163.474 35.4773H163.622V26.7273H168.452V50H163.679V47.2045H163.474C163.247 47.6894 162.925 48.1705 162.509 48.6477C162.099 49.1174 161.565 49.5076 160.906 49.8182C160.255 50.1288 159.459 50.2841 158.52 50.2841ZM160.054 46.4318C160.834 46.4318 161.493 46.2197 162.031 45.7955C162.577 45.3636 162.993 44.7614 163.281 43.9886C163.577 43.2159 163.724 42.3106 163.724 41.2727C163.724 40.2348 163.58 39.3333 163.293 38.5682C163.005 37.803 162.588 37.2121 162.043 36.7955C161.497 36.3788 160.834 36.1705 160.054 36.1705C159.259 36.1705 158.588 36.3864 158.043 36.8182C157.497 37.25 157.084 37.8485 156.804 38.6136C156.524 39.3788 156.384 40.2652 156.384 41.2727C156.384 42.2879 156.524 43.1856 156.804 43.9659C157.092 44.7386 157.505 45.3447 158.043 45.7841C158.588 46.2159 159.259 46.4318 160.054 46.4318ZM172.432 50V32.5455H177.273V50H172.432ZM174.864 30.2955C174.144 30.2955 173.527 30.0568 173.011 29.5795C172.504 29.0947 172.25 28.5152 172.25 27.8409C172.25 27.1742 172.504 26.6023 173.011 26.125C173.527 25.6402 174.144 25.3977 174.864 25.3977C175.583 25.3977 176.197 25.6402 176.705 26.125C177.22 26.6023 177.477 27.1742 177.477 27.8409C177.477 28.5152 177.22 29.0947 176.705 29.5795C176.197 30.0568 175.583 30.2955 174.864 30.2955ZM185.991 39.9091V50H181.151V32.5455H185.764V35.625H185.969C186.355 34.6098 187.003 33.8068 187.912 33.2159C188.821 32.6174 189.923 32.3182 191.219 32.3182C192.431 32.3182 193.488 32.5833 194.389 33.1136C195.291 33.6439 195.991 34.4015 196.491 35.3864C196.991 36.3636 197.241 37.5303 197.241 38.8864V50H192.401V39.75C192.408 38.6818 192.135 37.8485 191.582 37.25C191.029 36.6439 190.268 36.3409 189.298 36.3409C188.647 36.3409 188.071 36.4811 187.571 36.7614C187.079 37.0417 186.692 37.4508 186.412 37.9886C186.139 38.5189 185.999 39.1591 185.991 39.9091ZM208.92 56.9091C207.352 56.9091 206.008 56.6932 204.886 56.2614C203.773 55.8371 202.886 55.2576 202.227 54.5227C201.568 53.7879 201.14 52.9621 200.943 52.0455L205.42 51.4432C205.557 51.7917 205.773 52.1174 206.068 52.4205C206.364 52.7235 206.754 52.9659 207.239 53.1477C207.731 53.3371 208.33 53.4318 209.034 53.4318C210.087 53.4318 210.955 53.1742 211.636 52.6591C212.326 52.1515 212.67 51.2992 212.67 50.1023V46.9091H212.466C212.254 47.3939 211.936 47.8523 211.511 48.2841C211.087 48.7159 210.542 49.0682 209.875 49.3409C209.208 49.6136 208.413 49.75 207.489 49.75C206.178 49.75 204.985 49.447 203.909 48.8409C202.841 48.2273 201.989 47.2917 201.352 46.0341C200.723 44.7689 200.409 43.1705 200.409 41.2386C200.409 39.2614 200.731 37.6098 201.375 36.2841C202.019 34.9583 202.875 33.9659 203.943 33.3068C205.019 32.6477 206.197 32.3182 207.477 32.3182C208.455 32.3182 209.273 32.4848 209.932 32.8182C210.591 33.1439 211.121 33.553 211.523 34.0455C211.932 34.5303 212.246 35.0076 212.466 35.4773H212.648V32.5455H217.455V50.1705C217.455 51.6553 217.091 52.8977 216.364 53.8977C215.636 54.8977 214.629 55.6477 213.341 56.1477C212.061 56.6553 210.587 56.9091 208.92 56.9091ZM209.023 46.1136C209.803 46.1136 210.462 45.9205 211 45.5341C211.545 45.1402 211.962 44.5795 212.25 43.8523C212.545 43.1174 212.693 42.2386 212.693 41.2159C212.693 40.1932 212.549 39.3068 212.261 38.5568C211.973 37.7992 211.557 37.2121 211.011 36.7955C210.466 36.3788 209.803 36.1705 209.023 36.1705C208.227 36.1705 207.557 36.3864 207.011 36.8182C206.466 37.2424 206.053 37.8333 205.773 38.5909C205.492 39.3485 205.352 40.2235 205.352 41.2159C205.352 42.2235 205.492 43.0947 205.773 43.8295C206.061 44.5568 206.473 45.1212 207.011 45.5227C207.557 45.9167 208.227 46.1136 209.023 46.1136ZM236.83 34.25C236.67 33.697 236.447 33.2083 236.159 32.7841C235.871 32.3523 235.519 31.9886 235.102 31.6932C234.693 31.3902 234.223 31.1591 233.693 31C233.17 30.8409 232.591 30.7614 231.955 30.7614C230.765 30.7614 229.72 31.0568 228.818 31.6477C227.924 32.2386 227.227 33.0985 226.727 34.2273C226.227 35.3485 225.977 36.7197 225.977 38.3409C225.977 39.9621 226.223 41.3409 226.716 42.4773C227.208 43.6136 227.905 44.4811 228.807 45.0795C229.708 45.6705 230.773 45.9659 232 45.9659C233.114 45.9659 234.064 45.7689 234.852 45.375C235.648 44.9735 236.254 44.4091 236.67 43.6818C237.095 42.9545 237.307 42.0947 237.307 41.1023L238.307 41.25H232.307V37.5455H242.045V40.4773C242.045 42.5227 241.614 44.2803 240.75 45.75C239.886 47.2121 238.697 48.3409 237.182 49.1364C235.667 49.9242 233.932 50.3182 231.977 50.3182C229.795 50.3182 227.879 49.8371 226.227 48.875C224.576 47.9053 223.288 46.5303 222.364 44.75C221.447 42.9621 220.989 40.8409 220.989 38.3864C220.989 36.5 221.261 34.8182 221.807 33.3409C222.36 31.8561 223.133 30.5985 224.125 29.5682C225.117 28.5379 226.273 27.7538 227.591 27.2159C228.909 26.678 230.337 26.4091 231.875 26.4091C233.193 26.4091 234.42 26.6023 235.557 26.9886C236.693 27.3674 237.701 27.9053 238.58 28.6023C239.466 29.2992 240.189 30.1288 240.75 31.0909C241.311 32.0455 241.67 33.0985 241.83 34.25H236.83ZM246.744 50V32.5455H251.585V50H246.744ZM249.176 30.2955C248.456 30.2955 247.839 30.0568 247.324 29.5795C246.816 29.0947 246.562 28.5152 246.562 27.8409C246.562 27.1742 246.816 26.6023 247.324 26.125C247.839 25.6402 248.456 25.3977 249.176 25.3977C249.896 25.3977 250.509 25.6402 251.017 26.125C251.532 26.6023 251.79 27.1742 251.79 27.8409C251.79 28.5152 251.532 29.0947 251.017 29.5795C250.509 30.0568 249.896 30.2955 249.176 30.2955ZM264.747 32.5455V36.1818H254.236V32.5455H264.747ZM256.622 28.3636H261.463V44.6364C261.463 45.0833 261.531 45.4318 261.668 45.6818C261.804 45.9242 261.993 46.0947 262.236 46.1932C262.486 46.2917 262.774 46.3409 263.099 46.3409C263.327 46.3409 263.554 46.322 263.781 46.2841C264.009 46.2386 264.183 46.2045 264.304 46.1818L265.065 49.7841C264.823 49.8598 264.482 49.947 264.043 50.0455C263.603 50.1515 263.069 50.2159 262.44 50.2386C261.274 50.2841 260.251 50.1288 259.372 49.7727C258.501 49.4167 257.823 48.8636 257.338 48.1136C256.853 47.3636 256.615 46.4167 256.622 45.2727V28.3636ZM272.878 50.3295C271.764 50.3295 270.772 50.1364 269.901 49.75C269.029 49.3561 268.34 48.7765 267.832 48.0114C267.332 47.2386 267.082 46.2765 267.082 45.125C267.082 44.1553 267.26 43.3409 267.616 42.6818C267.973 42.0227 268.457 41.4924 269.071 41.0909C269.685 40.6894 270.382 40.3864 271.162 40.1818C271.95 39.9773 272.776 39.8333 273.639 39.75C274.654 39.6439 275.473 39.5455 276.094 39.4545C276.715 39.3561 277.166 39.2121 277.446 39.0227C277.726 38.8333 277.866 38.553 277.866 38.1818V38.1136C277.866 37.3939 277.639 36.8371 277.185 36.4432C276.738 36.0492 276.101 35.8523 275.276 35.8523C274.404 35.8523 273.711 36.0455 273.196 36.4318C272.681 36.8106 272.34 37.2879 272.173 37.8636L267.696 37.5C267.923 36.4394 268.37 35.5227 269.037 34.75C269.704 33.9697 270.563 33.3712 271.616 32.9545C272.677 32.5303 273.904 32.3182 275.298 32.3182C276.268 32.3182 277.196 32.4318 278.082 32.6591C278.976 32.8864 279.768 33.2386 280.457 33.7159C281.154 34.1932 281.704 34.8068 282.105 35.5568C282.507 36.2992 282.707 37.1894 282.707 38.2273V50H278.116V47.5795H277.98C277.7 48.125 277.325 48.6061 276.855 49.0227C276.385 49.4318 275.821 49.7538 275.162 49.9886C274.503 50.2159 273.741 50.3295 272.878 50.3295ZM274.264 46.9886C274.976 46.9886 275.605 46.8485 276.151 46.5682C276.696 46.2803 277.124 45.8939 277.435 45.4091C277.745 44.9242 277.901 44.375 277.901 43.7614V41.9091C277.749 42.0076 277.541 42.0985 277.276 42.1818C277.018 42.2576 276.726 42.3295 276.401 42.3977C276.075 42.4583 275.749 42.5152 275.423 42.5682C275.098 42.6136 274.802 42.6553 274.537 42.6932C273.969 42.7765 273.473 42.9091 273.048 43.0909C272.624 43.2727 272.295 43.5189 272.06 43.8295C271.825 44.1326 271.707 44.5114 271.707 44.9659C271.707 45.625 271.946 46.1288 272.423 46.4773C272.908 46.8182 273.522 46.9886 274.264 46.9886Z" fill="url(#paint0_linear_7_59)"/>
<path d="M92.3209 62.7551L92.2815 63.2918H92.8196H100.5V64.0525C100.5 65.9895 98.9114 67.5811 96.9683 67.5811H4.0254C2.08911 67.5811 0.5 65.99 0.5 64.0525V63.2918H8.18337H8.72272L8.68194 62.754C8.67778 62.6991 8.66909 62.6421 8.66405 62.609C8.66317 62.6032 8.6624 62.5981 8.66178 62.5939C8.65614 62.5555 8.65555 62.5435 8.65555 62.5391V13.6172C8.65555 11.3534 10.5095 9.5 12.7698 9.5H88.2302C90.4909 9.5 92.3474 11.3538 92.3474 13.6172V62.5391C92.3474 62.5431 92.3469 62.5548 92.3411 62.5936C92.3405 62.5978 92.3398 62.6028 92.3389 62.6084C92.3338 62.6418 92.325 62.6994 92.3209 62.7551ZM86.8462 61.6519H87.3462V61.1519V15.001V14.501H86.8462H14.1538H13.6538V15.001V61.1519V61.6519H14.1538H86.8462Z" fill="#F9CA3A" stroke="#540D6E"/>
<path d="M50.4983 13.12C50.1936 13.12 49.932 13.0123 49.7135 12.7969C49.498 12.5784 49.3903 12.3168 49.3903 12.0121C49.3903 11.7105 49.498 11.4519 49.7135 11.2365C49.932 11.0211 50.1936 10.9134 50.4983 10.9134C50.7937 10.9134 51.0522 11.0211 51.2738 11.2365C51.4954 11.4519 51.6062 11.7105 51.6062 12.0121C51.6062 12.2152 51.5539 12.4014 51.4493 12.5707C51.3477 12.7369 51.2138 12.8707 51.0476 12.9723C50.8814 13.0708 50.6983 13.12 50.4983 13.12Z" fill="#540D6E"/>
<path d="M48.2186 57.2525C46.4359 55.1496 43.46 52.9004 40.578 51.4774C37.6679 50.0403 34.9037 49.2422 31.7655 48.9336C31.1467 48.8733 30.6337 48.8171 30.6255 48.809C30.6175 48.809 30.6335 42.3186 30.6655 34.4039L30.7183 20.0141L31.2897 20.0703C34.798 20.4199 38.7137 21.7517 41.6765 23.6079C44.2298 25.2073 46.8664 27.6772 48.5474 30.0437L48.9705 30.6393V44.3082C48.9705 51.8258 48.9385 57.9755 48.9001 57.9743C48.8601 57.9731 48.5539 57.648 48.2186 57.2525ZM51.1249 44.2736V30.5477L51.9418 29.451C52.9849 28.0509 55.083 25.9415 56.4703 24.8987C60.1789 22.1102 64.2018 20.5345 68.8203 20.0603L69.4062 20V34.4099V48.8203L68.7265 48.8846C62.2956 49.4858 56.7204 52.1513 52.3596 56.7092L51.1249 58V44.2736ZM55.1093 57.0669C57.6333 54.6879 60.9747 52.7975 64.3312 51.8487C66.0876 51.3524 68.3717 51.006 69.8879 51.006C70.6829 51.006 71.1238 50.8332 71.3725 50.4229C71.5598 50.1135 71.5618 49.9805 71.5622 38.304L71.5625 26.4965L71.9141 26.5608C72.1073 26.601 72.6558 26.7537 73.1328 26.9064L74 27.1837V41.9195C74 50.0243 73.968 56.6554 73.9284 56.6554C73.8884 56.6554 73.3088 56.5308 72.6393 56.3781C69.9936 55.7793 67.8147 55.5736 64.9532 55.6511C61.4823 55.7476 58.7848 56.2338 55.5782 57.347L54.3594 57.7701L55.1093 57.0669ZM44.4217 57.2959C43.0901 56.8169 40.8908 56.2523 39.4061 56.0088C37.3874 55.6793 35.9946 55.5916 33.5205 55.6471C31.0621 55.6993 29.5752 55.8721 27.5467 56.3347C26.9795 56.4633 26.3994 56.5959 26.2576 56.624L26 56.6803L26.0004 41.9051L26.0009 27.1294L27.1021 26.8079C27.7077 26.6311 28.256 26.4663 28.3204 26.4463C28.4136 26.4061 28.4376 28.8132 28.4376 38.2405C28.4376 51.1229 28.4096 50.4048 28.9567 50.7661C29.1471 50.8907 29.5427 50.9469 30.6725 51.0152C35.1623 51.2724 39.4226 52.7871 42.9006 55.3642C43.6506 55.92 45.4505 57.4462 45.5537 57.6138C45.6257 57.7303 45.5777 57.7183 44.422 57.3004L44.4217 57.2959Z" fill="#F9CA3A"/>
<defs>
<linearGradient id="paint0_linear_7_59" x1="195.5" y1="34.5" x2="195.5" y2="46.5" gradientUnits="userSpaceOnUse">
<stop stop-color="#F9CA3A"/>
<stop offset="1" stop-color="#F9B63E"/>
</linearGradient>
</defs>
</svg>
