<svg width="521" height="422" viewBox="0 0 521 422" fill="none" xmlns="http://www.w3.org/2000/svg">
<path d="M520.978 63.2997C520.738 28.3557 492.175 0 457.076 0H63.9241C28.825 0 0.262349 28.3557 0.0221721 63.2997C0.0184771 63.4031 0.00739306 63.5029 0.00739306 63.6027L0 63.7394V357.495C0 392.642 28.6772 421.234 63.9241 421.234H457.076C492.323 421.234 521 392.642 521 357.495V63.7394L520.993 63.6027C520.993 63.5029 520.982 63.3994 520.978 63.2997ZM63.9241 29.5603H457.076C473.548 29.5603 487.342 41.1553 490.664 56.5673L260.5 217.08L30.3362 56.5673C33.6581 41.1553 47.4479 29.5603 63.9241 29.5603ZM457.076 391.674H63.9241C44.976 391.674 29.5603 376.343 29.5603 357.495V92.0655L252.046 247.22C254.525 248.95 257.476 249.878 260.5 249.878C263.524 249.878 266.475 248.95 268.954 247.22L491.44 92.0655V357.495C491.44 376.343 476.024 391.674 457.076 391.674Z" fill="#5D21D1"/>
</svg>
