<svg width="914" height="689" viewBox="0 0 914 689" fill="none" xmlns="http://www.w3.org/2000/svg">
<g clip-path="url(#clip0_215_649)">
<path fill-rule="evenodd" clip-rule="evenodd" d="M474.87 7.32825C580.189 6.95174 692.199 30.6597 755.196 115.061C816.474 197.159 796.81 307.021 772.919 406.641C749.476 504.391 717.007 609.742 626.215 652.885C535.801 695.848 433.822 654.557 343.945 610.483C255.147 566.938 169.04 509.646 140.821 414.858C110.495 312.993 129.669 199.255 197.046 117.056C263.455 36.0396 370.115 7.70274 474.87 7.32825Z" fill="#482093"/>
<path d="M684.932 505.687C673.249 517.679 662.196 525.413 653.462 531.522C550.803 603.343 429.331 582.408 403.514 577.295C365.391 569.745 291.701 555.152 238.424 494.063C157.821 401.641 170.372 256.033 232.893 159.915C244.33 142.333 304.739 44.7508 427.52 29.1016C501.825 19.6309 588.442 38.7322 651.167 89.972C782.834 197.529 773.461 414.813 684.932 505.687Z" fill="url(#paint0_linear_215_649)"/>
<path d="M585.214 452.514C671.237 368.638 671.237 232.648 585.214 148.772C499.191 64.8961 359.721 64.8961 273.698 148.772C187.675 232.648 187.675 368.638 273.698 452.514C359.721 536.39 499.191 536.39 585.214 452.514Z" fill="#9679CF"/>
<path d="M429.461 483.949C533.29 483.949 617.46 401.88 617.46 300.643C617.46 199.406 533.29 117.337 429.461 117.337C325.632 117.337 241.463 199.406 241.463 300.643C241.463 401.88 325.632 483.949 429.461 483.949Z" fill="url(#paint1_linear_215_649)"/>
<path d="M429.461 493.131C320.606 493.131 232.046 406.782 232.046 300.643C232.046 194.504 320.606 108.155 429.461 108.155C538.315 108.155 626.875 194.504 626.875 300.643C626.875 406.782 538.315 493.131 429.461 493.131ZM429.461 117.337C325.798 117.337 241.463 199.567 241.463 300.643C241.463 401.719 325.798 483.949 429.461 483.949C533.123 483.949 617.458 401.719 617.458 300.643C617.458 199.567 533.123 117.337 429.461 117.337Z" fill="white"/>
<path d="M429.461 412.395C492.76 412.395 544.074 362.362 544.074 300.643C544.074 238.924 492.76 188.891 429.461 188.891C366.162 188.891 314.848 238.924 314.848 300.643C314.848 362.362 366.162 412.395 429.461 412.395Z" fill="#5D21D1"/>
<path d="M429.461 421.577C361.071 421.577 305.432 367.326 305.432 300.643C305.432 233.96 361.071 179.71 429.461 179.71C497.85 179.71 553.49 233.96 553.49 300.643C553.49 367.326 497.85 421.577 429.461 421.577ZM429.461 198.072C371.455 198.072 324.264 244.085 324.264 300.643C324.264 357.201 371.455 403.215 429.461 403.215C487.467 403.215 534.658 357.201 534.658 300.643C534.658 244.085 487.467 198.072 429.461 198.072Z" fill="white"/>
<path d="M429.461 343.939C453.985 343.939 473.865 324.555 473.865 300.643C473.865 276.731 453.985 257.347 429.461 257.347C404.937 257.347 385.056 276.731 385.056 300.643C385.056 324.555 404.937 343.939 429.461 343.939Z" fill="url(#paint2_linear_215_649)"/>
<path d="M429.461 353.121C399.784 353.121 375.64 329.58 375.64 300.643C375.64 271.706 399.784 248.165 429.461 248.165C459.137 248.165 483.282 271.706 483.282 300.643C483.282 329.58 459.137 353.121 429.461 353.121ZM429.461 266.527C410.168 266.527 394.473 281.831 394.473 300.643C394.473 319.455 410.168 334.759 429.461 334.759C448.753 334.759 464.45 319.455 464.45 300.643C464.45 281.831 448.753 266.527 429.461 266.527Z" fill="white"/>
<path d="M639.645 96.2585L644.322 100.819L467.214 273.506L462.537 268.945L639.645 96.2585Z" fill="url(#paint3_linear_215_649)"/>
<path d="M465.85 257.942C468.533 255.326 481.183 267.659 478.5 270.276L431.583 306.239C429.85 307.567 427.604 305.378 428.966 303.687L465.85 257.942Z" fill="url(#paint4_linear_215_649)"/>
<path d="M644.221 100.917L668.047 103.226L635.338 135.119C624.621 145.569 609.663 150.78 594.581 149.318L644.221 100.917Z" fill="#91B3FA"/>
<path d="M639.543 96.3573L637.175 73.1255L604.466 105.018C593.749 115.468 588.405 130.053 589.903 144.758L639.543 96.3573Z" fill="#91B3FA"/>
<g opacity="0.3">
<path d="M312.565 64.1999C311.9 64.849 310.82 64.8484 310.155 64.1993C308.862 62.9381 307.494 61.7128 306.088 60.5576C305.377 59.973 305.279 58.9424 305.862 58.2408C305.869 58.2324 305.876 58.2242 305.883 58.2156C306.49 57.5139 307.565 57.4247 308.285 58.0163C309.765 59.2325 311.205 60.5222 312.566 61.8499C313.189 62.4569 313.228 63.4172 312.686 64.0695C312.648 64.1147 312.608 64.1585 312.565 64.1999ZM298.85 55.3923C297.296 54.435 295.686 53.5337 294.063 52.7122C293.228 52.2898 292.902 51.2868 293.335 50.4719C293.773 49.6555 294.797 49.3395 295.633 49.7623C297.341 50.6262 299.036 51.5751 300.671 52.5819C301.466 53.0721 301.704 54.0989 301.201 54.8749C301.164 54.9312 301.125 54.9848 301.083 55.0352C300.546 55.6804 299.588 55.8469 298.85 55.3923ZM285.837 49.2365C284.109 48.6421 282.333 48.1139 280.558 47.6663C279.647 47.4365 279.1 46.5297 279.335 45.6412C279.572 44.7537 280.501 44.2191 281.412 44.4484C283.281 44.9199 285.152 45.4763 286.971 46.1022C287.859 46.4075 288.325 47.3568 288.012 48.2225C287.945 48.407 287.848 48.5727 287.729 48.7165C287.287 49.2467 286.536 49.4768 285.837 49.2365ZM271.739 46.073C269.916 45.8699 268.063 45.7422 266.231 45.692C265.29 45.666 264.549 44.9013 264.575 43.9842C264.602 43.0669 265.387 42.3446 266.327 42.3694C268.256 42.4224 270.207 42.5573 272.125 42.7702C273.06 42.8744 273.732 43.6979 273.625 44.6098C273.587 44.9361 273.455 45.2295 273.257 45.4671C272.903 45.8933 272.34 46.1394 271.739 46.073ZM257.27 46.0509C255.451 46.2472 253.614 46.5223 251.812 46.8694C250.888 47.0467 249.992 46.4607 249.81 45.5602C249.627 44.6592 250.229 43.7855 251.152 43.6085C253.048 43.2437 254.981 42.9542 256.895 42.7477C257.831 42.6465 258.673 43.304 258.776 44.2165C258.829 44.6761 258.683 45.1128 258.407 45.4459C258.134 45.7736 257.734 46.0007 257.27 46.0509ZM243.157 49.1507C241.424 49.7353 239.697 50.3997 238.021 51.1258C237.161 51.4985 236.153 51.1206 235.771 50.2823C235.389 49.4434 235.776 48.4616 236.636 48.0885C238.4 47.3242 240.219 46.625 242.042 46.0099C242.931 45.71 243.902 46.1696 244.21 47.0369C244.41 47.6003 244.281 48.1969 243.922 48.6283C243.728 48.8608 243.469 49.0456 243.157 49.1507ZM199.681 94.0009C198.771 93.7698 198.224 92.8621 198.461 91.9738C198.948 90.1543 199.522 88.3307 200.168 86.5544C200.483 85.6893 201.458 85.2369 202.345 85.5441C203.232 85.8506 203.695 86.8009 203.381 87.6656C202.767 89.3522 202.222 91.0837 201.76 92.8117C201.697 93.0488 201.585 93.2601 201.436 93.4391C201.028 93.9295 200.349 94.1706 199.681 94.0009ZM230.107 55.2201C228.552 56.1652 227.021 57.1874 225.555 58.2594C224.801 58.8098 223.733 58.6611 223.168 57.9268C222.603 57.192 222.759 56.154 223.51 55.6C225.053 54.4714 226.666 53.3948 228.303 52.3996C229.102 51.9141 230.153 52.1516 230.652 52.9308C231.047 53.5483 230.975 54.3213 230.53 54.8567C230.414 54.9964 230.272 55.1196 230.107 55.2201ZM204.663 80.3554C203.828 79.9314 203.505 78.9273 203.94 78.1134C204.831 76.4466 205.808 74.795 206.843 73.2044C207.344 72.4265 208.401 72.2002 209.196 72.6914C209.99 73.183 210.226 74.2099 209.721 74.9852C208.738 76.4966 207.809 78.0661 206.962 79.6505C206.908 79.7516 206.845 79.8446 206.774 79.9298C206.274 80.531 205.394 80.7271 204.663 80.3554ZM218.778 63.9796C217.48 65.2393 216.221 66.57 215.035 67.9359C214.427 68.6371 213.352 68.7242 212.633 68.1312C211.924 67.5461 211.827 66.517 212.41 65.8167C212.417 65.8077 212.425 65.7983 212.433 65.7897C213.681 64.3514 215.006 62.9501 216.372 61.6242C217.039 60.977 218.118 60.9792 218.783 61.6296C219.403 62.237 219.442 63.1956 218.9 63.847C218.862 63.8924 218.821 63.9368 218.778 63.9796Z" fill="#91B3FA"/>
<path d="M199.48 104.952C199.691 104.697 199.829 104.38 199.855 104.029C199.919 103.174 200.004 102.307 200.104 101.45C200.212 100.538 199.54 99.7141 198.605 99.6097C197.67 99.5047 196.824 100.159 196.718 101.071C196.612 101.972 196.523 102.885 196.455 103.784C196.386 104.699 197.091 105.496 198.03 105.563C198.608 105.605 199.14 105.36 199.48 104.952Z" fill="#91B3FA"/>
</g>
<g opacity="0.3">
<path d="M216.198 152.924C216.716 152.302 216.708 151.387 216.142 150.77C215.555 150.132 214.973 149.472 214.411 148.807C213.812 148.098 212.738 147.997 212.011 148.581C211.282 149.168 211.182 150.213 211.78 150.921C212.372 151.621 212.986 152.317 213.603 152.989C214.231 153.672 215.309 153.73 216.01 153.117C216.079 153.057 216.141 152.992 216.198 152.924Z" fill="#91B3FA"/>
<path d="M315.014 153.071C314.386 153.755 313.308 153.813 312.607 153.201C311.906 152.588 311.847 151.539 312.474 150.854C313.67 149.552 314.827 148.181 315.927 146.762C316.49 146.032 317.564 145.886 318.315 146.439C319.066 146.993 319.214 148.035 318.646 148.768C318.169 149.382 317.684 149.987 317.19 150.581C316.486 151.428 315.753 152.266 315.014 153.071ZM321.414 141.825C320.594 141.376 320.302 140.363 320.764 139.563C321.649 138.026 322.477 136.437 323.225 134.839C323.613 134.004 324.627 133.636 325.483 134.017C326.339 134.398 326.717 135.383 326.326 136.218C325.539 137.901 324.667 139.574 323.735 141.19C323.687 141.274 323.632 141.352 323.572 141.425C323.059 142.042 322.149 142.228 321.414 141.825ZM308.359 159.388C306.912 160.584 305.394 161.736 303.845 162.812C303.078 163.344 302.014 163.17 301.467 162.422C300.921 161.675 301.101 160.638 301.867 160.104C303.339 159.083 304.78 157.989 306.153 156.853C306.871 156.26 307.947 156.346 308.556 157.046C309.095 157.665 309.087 158.557 308.581 159.166C308.516 159.245 308.441 159.32 308.359 159.388ZM327.472 128.854C326.571 128.591 326.058 127.665 326.328 126.786C326.845 125.1 327.294 123.373 327.663 121.652C327.855 120.753 328.758 120.177 329.68 120.365C330.601 120.553 331.192 121.433 330.999 122.332C330.611 124.144 330.138 125.963 329.594 127.738C329.528 127.952 329.422 128.144 329.286 128.308C328.864 128.816 328.154 129.053 327.472 128.854ZM295.933 167.542C294.253 168.398 292.513 169.196 290.759 169.913C289.891 170.269 288.892 169.871 288.528 169.025C288.163 168.178 288.572 167.204 289.44 166.849C291.106 166.167 292.759 165.41 294.354 164.596C295.188 164.171 296.218 164.486 296.654 165.3C296.979 165.906 296.882 166.618 296.467 167.117C296.325 167.288 296.145 167.434 295.933 167.542ZM281.974 172.841C280.139 173.32 278.261 173.728 276.394 174.055C275.467 174.217 274.582 173.617 274.415 172.714C274.248 171.809 274.864 170.945 275.791 170.784C277.565 170.473 279.349 170.085 281.093 169.631C282.003 169.394 282.937 169.92 283.18 170.807C283.327 171.341 283.189 171.884 282.857 172.284C282.638 172.547 282.335 172.747 281.974 172.841ZM267.162 175.048C265.262 175.126 263.338 175.126 261.444 175.049C260.503 175.01 259.773 174.236 259.812 173.319C259.851 172.401 260.646 171.689 261.586 171.728C263.386 171.801 265.214 171.801 267.019 171.727C267.96 171.689 268.754 172.402 268.793 173.318C268.812 173.74 268.667 174.13 268.415 174.434C268.118 174.792 267.67 175.027 267.162 175.048ZM252.209 174.052C250.338 173.723 248.46 173.312 246.627 172.83C245.718 172.591 245.18 171.679 245.425 170.793C245.67 169.908 246.606 169.382 247.514 169.621C249.255 170.078 251.038 170.469 252.815 170.781C253.741 170.945 254.357 171.809 254.189 172.712C254.136 172.997 254.012 173.252 253.837 173.462C253.458 173.918 252.843 174.164 252.209 174.052ZM237.838 169.875C236.092 169.154 234.355 168.349 232.674 167.485C231.841 167.057 231.521 166.052 231.961 165.24C232.399 164.431 233.43 164.117 234.263 164.545C235.86 165.366 237.511 166.129 239.169 166.815C240.036 167.173 240.44 168.149 240.073 168.993C240.009 169.141 239.926 169.274 239.828 169.393C239.361 169.953 238.554 170.171 237.838 169.875ZM224.773 162.73C223.636 161.938 222.51 161.102 221.426 160.246C221.034 159.935 220.646 159.622 220.263 159.305C219.545 158.712 219.434 157.66 220.065 156.963C220.673 156.262 221.749 156.176 222.467 156.769C222.831 157.07 223.2 157.369 223.573 157.664C224.603 158.478 225.673 159.273 226.754 160.026C227.52 160.559 227.698 161.597 227.15 162.344C227.13 162.372 227.109 162.399 227.087 162.426C226.523 163.103 225.51 163.244 224.773 162.73Z" fill="#91B3FA"/>
<path d="M331.898 114.248C332.112 113.991 332.249 113.67 332.274 113.316C332.338 112.418 332.382 111.503 332.408 110.594C332.434 109.676 331.692 108.912 330.751 108.887C329.81 108.862 329.026 109.584 329 110.503C328.976 111.366 328.933 112.236 328.873 113.088C328.808 114.003 329.517 114.797 330.456 114.86C331.032 114.898 331.561 114.653 331.898 114.248Z" fill="#91B3FA"/>
</g>
<path d="M312.726 92.7481C312.656 92.4236 312.384 92.1777 312.047 92.1359L302.429 90.9385C300.521 86.9352 297.944 83.1997 294.732 79.9077L297.113 70.75C297.197 70.4288 297.062 70.0913 296.778 69.9095L287.052 63.6924C286.768 63.5105 286.397 63.5247 286.128 63.7274L278.464 69.5079C274.087 67.949 269.546 67.134 265.02 67.0236L260.059 58.9013C259.885 58.6166 259.545 58.4709 259.213 58.5385L247.827 60.8474C247.494 60.9148 247.242 61.1807 247.199 61.5096L245.971 70.887C241.865 72.7479 238.034 75.2606 234.658 78.3921L225.266 76.0705C224.936 75.9889 224.59 76.1203 224.404 76.3974L218.027 85.8804C217.841 86.1575 217.856 86.5193 218.063 86.7814L223.992 94.2541C222.393 98.5216 221.557 102.949 221.444 107.363L213.114 112.2C212.822 112.369 212.672 112.701 212.742 113.025L215.11 124.127C215.179 124.451 215.452 124.697 215.789 124.739L225.406 125.936C227.315 129.94 229.892 133.675 233.103 136.967L230.723 146.125C230.639 146.446 230.774 146.784 231.058 146.965L240.783 153.183C241.068 153.364 241.439 153.35 241.708 153.147L249.372 147.367C253.748 148.926 258.289 149.741 262.816 149.851L267.776 157.973C267.95 158.258 268.29 158.404 268.623 158.337L280.009 156.027C280.342 155.96 280.594 155.694 280.637 155.365L281.865 145.988C285.971 144.127 289.802 141.614 293.178 138.483L302.57 140.805C302.899 140.886 303.245 140.755 303.432 140.478L309.808 130.995C309.995 130.718 309.98 130.356 309.772 130.094L303.844 122.621C305.443 118.354 306.278 113.926 306.392 109.513L314.722 104.676C315.014 104.506 315.163 104.174 315.094 103.85L312.726 92.7481Z" fill="#91B3FA"/>
<path d="M271.827 116.83C267.081 121.082 259.672 120.777 255.31 116.15C253.197 113.908 252.106 110.998 252.238 107.956C252.369 104.915 253.708 102.105 256.008 100.045C260.754 95.7923 268.163 96.0972 272.525 100.725C276.493 104.935 276.592 111.294 273.003 115.61C272.648 116.038 272.255 116.446 271.827 116.83ZM254.963 108.069C254.862 110.401 255.698 112.632 257.318 114.351C260.662 117.899 266.344 118.133 269.982 114.872C273.623 111.612 273.861 106.072 270.517 102.524C267.173 98.9764 261.492 98.742 257.853 102.003C257.523 102.298 257.22 102.614 256.942 102.947C255.739 104.395 255.045 106.173 254.963 108.069Z" fill="#BDD0FB"/>
<path d="M285.968 126.159C286.584 125.418 287.166 124.642 287.71 123.834C287.881 123.579 288.048 123.322 288.211 123.062C289.014 121.78 289.71 120.439 290.291 119.058C290.299 119.039 290.306 119.02 290.314 119.001C290.336 118.948 290.359 118.894 290.38 118.84C290.423 118.736 290.465 118.631 290.507 118.526C290.616 118.251 290.524 117.948 290.301 117.771C290.246 117.728 290.184 117.693 290.116 117.667C289.764 117.535 289.37 117.706 289.235 118.048C288.538 119.811 287.641 121.512 286.57 123.104C281.251 131.017 272.327 135.267 263.278 135.154C258.244 135.091 253.172 133.678 248.66 130.793C247.868 130.287 247.109 129.746 246.384 129.173C241.504 125.314 238.162 119.982 236.866 113.904C235.376 106.922 236.765 99.7928 240.774 93.8296C249.057 81.5144 266.059 78.0701 278.684 86.1412C279.463 86.6388 280.213 87.173 280.931 87.7412C284.043 90.2025 286.568 93.3006 288.315 96.8215C288.36 96.9125 288.423 96.9888 288.499 97.0482C288.698 97.2052 288.979 97.2464 289.225 97.1304C289.564 96.9695 289.707 96.5736 289.542 96.2423C287.709 92.5459 285.058 89.2928 281.79 86.709C281.036 86.1126 280.249 85.552 279.432 85.0294C266.177 76.5554 248.322 80.1805 239.634 93.1003C235.424 99.3608 233.967 106.845 235.531 114.174C236.891 120.555 240.4 126.153 245.523 130.204C246.284 130.806 247.081 131.374 247.911 131.905C254.333 136.01 262.008 137.431 269.525 135.906C276.071 134.579 281.814 131.156 285.968 126.159Z" fill="#BDD0FB"/>
<g opacity="0.3">
<path d="M384.205 47.5997C384.492 47.2548 384.526 46.7546 384.254 46.3705C383.746 45.6534 383.21 44.9413 382.658 44.2543C382.3 43.8081 381.639 43.7293 381.181 44.0784C380.721 44.4264 380.642 45.0728 381 45.5192C381.525 46.1738 382.037 46.8524 382.521 47.5367C382.851 48.003 383.507 48.1201 383.986 47.7986C384.07 47.7414 384.144 47.6741 384.205 47.5997Z" fill="#91B3FA"/>
<path d="M378.942 41.6186C378.531 42.0201 377.865 42.0219 377.453 41.6216C376.413 40.6128 375.307 39.6439 374.168 38.743C373.927 38.5531 373.684 38.3652 373.438 38.1789C372.979 37.8312 372.896 37.1864 373.252 36.7386C373.607 36.3283 374.27 36.2102 374.73 36.5576C374.987 36.7528 375.242 36.9495 375.494 37.1482C376.688 38.0927 377.847 39.1083 378.938 40.1667C379.324 40.541 379.35 41.1356 379.014 41.5396C378.992 41.5668 378.967 41.5928 378.942 41.6186ZM369.023 35.2383C367.496 34.3488 365.899 33.5435 364.275 32.8456C363.743 32.6165 363.503 32.0115 363.737 31.4923C363.971 30.9767 364.593 30.7384 365.125 30.9675C366.826 31.6988 368.501 32.5429 370.103 33.476C370.602 33.7667 370.765 34.397 370.467 34.8841C370.441 34.9266 370.411 34.967 370.38 35.0048C370.055 35.3949 369.478 35.5032 369.023 35.2383ZM359.258 31.0434C357.557 30.5466 355.805 30.1492 354.051 29.8615C353.478 29.7673 353.092 29.2377 353.188 28.6791C353.285 28.1183 353.827 27.7424 354.401 27.837C356.24 28.1385 358.078 28.5561 359.862 29.0764C360.419 29.2391 360.736 29.8111 360.569 30.3541C360.528 30.4862 360.462 30.6048 360.378 30.706C360.118 31.0194 359.679 31.166 359.258 31.0434ZM348.735 29.3161C346.957 29.2413 345.158 29.2735 343.391 29.4126C342.811 29.4578 342.303 29.0368 342.257 28.4718C342.211 27.9082 342.642 27.4122 343.221 27.3662C345.076 27.2206 346.961 27.1868 348.826 27.2652C349.406 27.2894 349.857 27.769 349.832 28.3354C349.821 28.5635 349.736 28.7713 349.598 28.9364C349.395 29.1803 349.081 29.3309 348.735 29.3161ZM338.097 30.1464C336.355 30.4952 334.62 30.9525 332.937 31.5051C332.387 31.6862 331.79 31.3973 331.604 30.8599C331.418 30.3227 331.713 29.7399 332.265 29.5596C334.028 28.9802 335.848 28.5012 337.673 28.1349C338.243 28.0213 338.799 28.3786 338.916 28.9336C338.982 29.2473 338.894 29.557 338.702 29.7875C338.555 29.9652 338.345 30.0964 338.097 30.1464ZM327.989 33.4692C326.388 34.2199 324.82 35.0752 323.329 36.012C322.841 36.3189 322.189 36.1816 321.875 35.7054C321.56 35.2289 321.7 34.5958 322.189 34.2861C323.752 33.3036 325.397 32.4063 327.077 31.6188C327.601 31.3737 328.23 31.5882 328.481 32.0989C328.663 32.4687 328.598 32.8924 328.35 33.1909C328.255 33.3048 328.134 33.4012 327.989 33.4692ZM319.025 39.0991C317.666 40.2065 316.36 41.4119 315.145 42.6828C314.748 43.0967 314.082 43.1193 313.657 42.7324C313.232 42.3462 313.215 41.7028 313.605 41.2811C314.88 39.9498 316.249 38.6857 317.674 37.5243C318.12 37.161 318.784 37.2188 319.157 37.6536C319.485 38.0361 319.478 38.5837 319.168 38.9574C319.126 39.0078 319.078 39.0555 319.025 39.0991ZM307.444 51.5044C306.935 51.2299 306.751 50.6058 307.033 50.1095C307.812 48.7364 308.682 47.3813 309.615 46.0854C309.756 45.8877 309.899 45.6929 310.043 45.4988C310.37 45.033 311.044 44.9386 311.514 45.2737C311.985 45.6074 312.088 46.2489 311.746 46.7078C311.61 46.8891 311.476 47.0728 311.341 47.2614C310.447 48.5015 309.618 49.7941 308.874 51.1034C308.844 51.1574 308.809 51.2077 308.771 51.2537C308.455 51.6334 307.897 51.7491 307.444 51.5044Z" fill="#91B3FA"/>
</g>
<g opacity="0.3">
<path d="M381.741 99.9555C380.567 101.33 379.296 102.647 377.966 103.87C377.542 104.258 376.876 104.239 376.477 103.826C376.078 103.413 376.105 102.765 376.522 102.375C377.792 101.209 379.003 99.9533 380.123 98.6416C380.495 98.2058 381.159 98.147 381.605 98.5095C382.048 98.8693 382.112 99.5093 381.75 99.9445C381.747 99.9481 381.744 99.9519 381.741 99.9555ZM383.552 95.9282C383.064 95.6205 382.924 94.9848 383.24 94.5093C384.19 93.0774 385.061 91.5752 385.827 90.0437C386.082 89.5381 386.713 89.3228 387.236 89.5725C387.758 89.821 387.974 90.435 387.72 90.9448C386.916 92.5496 386.004 94.1241 385.008 95.6241C384.987 95.6559 384.965 95.6855 384.941 95.7143C384.607 96.1161 384.009 96.2161 383.552 95.9282ZM373.727 107.31C372.247 108.368 370.687 109.347 369.093 110.219C368.585 110.497 367.943 110.32 367.659 109.826C367.374 109.332 367.555 108.709 368.062 108.429C369.583 107.597 371.07 106.663 372.484 105.654C372.953 105.319 373.611 105.419 373.954 105.875C374.243 106.26 374.217 106.775 373.923 107.128C373.868 107.195 373.802 107.257 373.727 107.31ZM388.493 86.6122C387.943 86.4278 387.651 85.8435 387.84 85.3077C388.409 83.6954 388.882 82.0334 389.245 80.3666C389.366 79.813 389.925 79.459 390.493 79.5757C391.061 79.6939 391.425 80.2387 391.304 80.7933C390.924 82.5412 390.428 84.2852 389.831 85.9758C389.789 86.0926 389.728 86.1975 389.653 86.2881C389.382 86.6134 388.922 86.7561 388.493 86.6122ZM364.132 112.557C362.438 113.235 360.683 113.819 358.916 114.293C358.355 114.444 357.776 114.122 357.622 113.576C357.467 113.029 357.796 112.464 358.357 112.313C360.043 111.862 361.716 111.304 363.332 110.657C363.869 110.442 364.485 110.692 364.706 111.217C364.857 111.576 364.784 111.972 364.549 112.254C364.442 112.383 364.301 112.489 364.132 112.557ZM353.524 115.406C351.709 115.669 349.861 115.827 348.033 115.876C347.452 115.892 346.968 115.445 346.952 114.879C346.936 114.313 347.394 113.84 347.976 113.824C349.719 113.778 351.482 113.626 353.214 113.375C353.789 113.292 354.325 113.679 354.411 114.239C354.456 114.535 354.366 114.821 354.187 115.037C354.027 115.229 353.795 115.366 353.524 115.406ZM342.521 115.697C340.693 115.529 338.859 115.25 337.072 114.868C336.503 114.746 336.144 114.199 336.269 113.645C336.393 113.092 336.955 112.742 337.522 112.862C339.226 113.227 340.975 113.493 342.718 113.652C343.297 113.705 343.722 114.206 343.667 114.771C343.648 114.98 343.564 115.168 343.438 115.32C343.223 115.577 342.885 115.73 342.521 115.697Z" fill="#91B3FA"/>
<path d="M391.894 75.9836C392.022 75.8299 392.105 75.6386 392.124 75.4264C392.202 74.5512 392.254 73.6699 392.278 72.8064C392.294 72.24 391.835 71.7676 391.254 71.7518C390.674 71.738 390.19 72.1834 390.173 72.75C390.15 73.5733 390.1 74.4142 390.027 75.2495C389.976 75.8143 390.406 76.3119 390.985 76.3605C391.346 76.3907 391.681 76.2396 391.894 75.9836Z" fill="#91B3FA"/>
</g>
<path d="M379.195 60.8667C379.148 60.6495 378.966 60.485 378.74 60.457L372.305 59.6557C371.028 56.9769 369.303 54.4774 367.154 52.2746L368.747 46.1466C368.803 45.9317 368.713 45.706 368.523 45.5842L362.015 41.4239C361.825 41.3022 361.576 41.3118 361.397 41.4473L356.268 45.3155C353.34 44.2723 350.301 43.7269 347.272 43.6531L343.952 38.2181C343.836 38.0275 343.609 37.93 343.386 37.9752L335.767 39.5202C335.544 39.5654 335.376 39.7433 335.347 39.9632L334.525 46.238C331.778 47.4833 329.214 49.1647 326.955 51.2602L320.67 49.7067C320.45 49.6523 320.218 49.7401 320.093 49.9254L315.826 56.2711C315.702 56.4567 315.712 56.6988 315.851 56.8741L319.818 61.8745C318.748 64.7301 318.188 67.6928 318.113 70.6461L312.538 73.8828C312.343 73.9961 312.243 74.218 312.289 74.4352L313.874 81.8641C313.92 82.081 314.103 82.2455 314.328 82.2737L320.764 83.075C322.041 85.7539 323.765 88.2536 325.915 90.4564L324.321 96.5843C324.265 96.7993 324.356 97.025 324.546 97.1467L331.054 101.307C331.244 101.429 331.492 101.419 331.672 101.284L336.8 97.4156C339.729 98.4589 342.768 99.0043 345.797 99.078L349.116 104.513C349.232 104.704 349.46 104.801 349.683 104.756L357.301 103.211C357.524 103.166 357.693 102.988 357.722 102.768L358.543 96.493C361.291 95.2478 363.854 93.5662 366.114 91.471L372.399 93.0244C372.619 93.0788 372.85 92.991 372.975 92.8055L377.242 86.46C377.367 86.2747 377.357 86.0324 377.218 85.857L373.251 80.8566C374.321 78.0011 374.88 75.0381 374.956 72.085L380.53 68.8482C380.725 68.7348 380.825 68.5129 380.779 68.2958L379.195 60.8667Z" fill="#91B3FA"/>
<path d="M351.923 77.0818C350.357 78.4859 348.324 79.2106 346.198 79.1226C344.074 79.0355 342.111 78.1464 340.672 76.619C337.701 73.4671 337.915 68.5545 341.147 65.6483C344.381 62.7522 349.427 62.9603 352.397 66.112C353.837 67.6388 354.58 69.6209 354.49 71.6929C354.417 73.3771 353.801 74.9572 352.731 76.2433C352.486 76.5388 352.215 76.8193 351.923 77.0818ZM342.221 75.2297C343.28 76.3533 344.724 77.0074 346.288 77.072C347.85 77.1362 349.346 76.603 350.498 75.5709C351.649 74.5373 352.321 73.1308 352.387 71.6062C352.453 70.0825 351.906 68.6242 350.847 67.5015C348.662 65.1829 344.95 65.0298 342.571 67.16C342.357 67.3525 342.161 67.5566 341.982 67.7712C340.184 69.9336 340.234 73.1206 342.221 75.2297Z" fill="#BDD0FB"/>
<path d="M361.765 83.5743C362.184 83.0697 362.581 82.5405 362.954 81.9865C363.695 80.8859 364.321 79.7107 364.817 78.4904C364.839 78.4354 364.861 78.3804 364.883 78.3254C365.051 77.9 364.909 77.4324 364.565 77.1592C364.481 77.0931 364.385 77.0383 364.279 76.9985C363.736 76.7944 363.129 77.0601 362.918 77.5871C362.467 78.7307 361.886 79.8317 361.194 80.8601L361.193 80.8605C361.156 80.9171 361.117 80.9733 361.078 81.029C359.417 83.4484 357.2 85.3725 354.624 86.6888C353.225 87.4031 351.719 87.9379 350.136 88.2734C350.123 88.2762 350.111 88.2788 350.098 88.2816C350.058 88.2896 350.019 88.2982 349.98 88.3058C345.344 89.2455 340.611 88.3696 336.652 85.8383C336.139 85.511 335.648 85.1609 335.178 84.7897C332.02 82.292 329.856 78.8394 329.016 74.9043C328.053 70.3845 328.952 65.7698 331.547 61.9096C334.143 58.0526 338.126 55.4053 342.761 54.4645C347.396 53.5248 352.13 54.4007 356.089 56.932C356.593 57.2537 357.078 57.5999 357.543 57.9672C359.558 59.561 361.193 61.5661 362.323 63.8455C362.393 63.9858 362.491 64.1038 362.607 64.1955C362.914 64.438 363.35 64.5016 363.729 64.3225C364.251 64.0744 364.472 63.4624 364.218 62.951C362.953 60.4007 361.124 58.1565 358.871 56.3738C358.35 55.9621 357.808 55.5753 357.244 55.215C352.814 52.383 347.518 51.4028 342.332 52.4546C337.146 53.5066 332.689 56.4599 329.787 60.7832C326.882 65.1022 325.876 70.2651 326.956 75.3223C327.894 79.7245 330.315 83.5869 333.849 86.3813C334.374 86.7959 334.924 87.1882 335.497 87.5545C344.074 93.0369 355.44 91.1804 361.765 83.5743Z" fill="#BDD0FB"/>
<path d="M255.765 568.414C255.765 568.414 254.579 574.611 253.968 580.751C253.729 583.151 255.607 585.254 258.077 585.377C266.466 585.796 284.413 586.626 290.858 586.405C291.827 586.372 292.469 585.411 292.119 584.53C291.826 583.791 291.253 583.191 290.518 582.853L260.993 569.288L255.765 568.414Z" fill="url(#paint5_linear_215_649)"/>
<path d="M254.879 564.757L255.71 572.191C255.71 572.191 260.882 574.598 264.456 571.975L262.385 563.68L254.879 564.757Z" fill="url(#paint6_linear_215_649)"/>
<path d="M256.924 425.163C256.515 427.098 253.882 521.91 263.862 564.502C264.025 565.197 263.657 565.908 262.978 566.172C261.377 566.792 258.243 567.683 254.495 567.77C253.335 567.798 252.302 567.053 251.985 565.964C249.11 556.077 235.354 506.545 233.958 459.338C232.398 406.589 233.976 457.543 233.976 457.543L235.512 424.96L256.924 425.163Z" fill="url(#paint7_linear_215_649)"/>
<path d="M221.62 571.335C221.62 571.335 219.799 574.452 217.984 582.764C217.657 584.265 218.72 585.714 220.285 585.879C223.054 586.171 227.317 586.552 230.735 586.561C232.31 586.565 233.553 585.239 233.378 583.712C233.029 580.669 231.899 575.671 228.294 571.75L221.62 571.335Z" fill="url(#paint8_linear_215_649)"/>
<path d="M220.141 561.769L222.142 573.018C222.142 573.018 224.215 574.552 228.355 573.492L227.466 561.401L220.141 561.769Z" fill="url(#paint9_linear_215_649)"/>
<path d="M215.749 427.69C206.757 477.643 216.383 551.365 219.732 565.808C219.937 566.692 220.66 567.375 221.576 567.531C223.131 567.798 225.694 568.027 228.229 567.334C229.102 567.096 229.722 566.335 229.766 565.452C230.348 553.806 230.205 482.277 238.404 454.084C238.82 452.656 239.729 451.415 240.979 450.566L256.459 440.051L257.807 422.833L215.749 427.69Z" fill="url(#paint10_linear_215_649)"/>
<path d="M270.854 333.394C245.378 332.746 217.196 339.418 217.196 339.418C209.178 382.558 214.957 432.457 214.957 432.457C234.634 437.685 256.965 429.764 256.965 429.764C260.421 411.733 276.215 361.046 276.215 361.046C288.679 359.655 298.969 356.248 307.46 351.697C301.089 344.356 298.143 335.063 296.877 329.574C287.842 332.22 278.711 333.593 270.854 333.394Z" fill="#F9CA3A"/>
<path d="M346.475 297.5C344.001 294.529 340.819 295.894 340.819 295.894C336.919 311.302 317.136 323.641 296.877 329.574C298.143 335.063 301.089 344.356 307.46 351.697C341.161 333.631 346.475 297.5 346.475 297.5Z" fill="url(#paint11_linear_215_649)"/>
<path d="M345.86 298.244C346.114 299.058 343.069 300.266 341.316 296.929C341.269 295.337 340.343 288.511 341.331 287.223C346.593 280.367 356.747 271.806 356.747 271.806C358.433 273.459 357.016 275.055 357.016 275.055L352.082 279.971C353.086 281.781 354.318 283.313 354.88 285.496C355.307 287.149 355.019 288.909 354.15 290.402C353.278 291.9 352.089 293.847 350.968 295.369C348.846 298.25 345.86 298.244 345.86 298.244Z" fill="url(#paint12_linear_215_649)"/>
<path d="M349.914 283.171L345.426 286.809L343.992 290.46L347.919 294.79C347.919 294.79 349.325 287.533 350.332 285.969C351.34 284.405 350.833 283.639 349.914 283.171Z" fill="url(#paint13_linear_215_649)"/>
<path d="M226.733 363.566L217.196 339.418C217.196 339.418 193.241 354.964 189.132 374.919C193.626 375.284 201.798 376.5 209.769 380.518C211.621 371.095 226.733 363.566 226.733 363.566Z" fill="#F9CA3A"/>
<path d="M247.31 386.395C247.31 386.395 220.445 400.871 211.552 388.214C209.706 385.586 209.283 382.987 209.769 380.518C201.798 376.5 193.626 375.284 189.132 374.919C187.893 380.935 188.454 387.35 192.023 393.862C207.54 422.178 250.784 392.852 250.784 392.852L247.31 386.395Z" fill="url(#paint14_linear_215_649)"/>
<path d="M245.242 312.984L236.911 335.769C236.773 336.147 236.929 336.568 237.287 336.765C239.485 337.977 247.413 341.494 257.066 335.652C258.072 335.044 258.762 334.042 258.925 332.899L261.744 313.137L245.242 312.984Z" fill="url(#paint15_linear_215_649)"/>
<path d="M263.089 291.979C263.089 291.979 271.832 308.401 270.627 314.991C269.421 321.581 258.392 321.005 248.81 315.554L242.25 297.848L263.089 291.979Z" fill="url(#paint16_linear_215_649)"/>
<path d="M249.32 306.894C249.713 306.728 249.862 306.262 249.631 305.911C248.928 304.842 247.613 302.662 247.204 300.76C247.204 300.76 245.614 299.746 251.301 298.474C256.988 297.203 265.469 295.226 267.293 290.534C269.072 285.959 264.629 274.371 257.271 283.503C256.991 283.85 256.449 283.853 256.176 283.5C255 281.977 251.898 278.809 247.53 280.671C243.442 282.414 242.955 285.318 242.997 286.784C243.009 287.215 242.61 287.547 242.177 287.462C240.123 287.06 235.188 286.685 232.834 291.603C230.896 295.654 232.108 297.969 233.22 299.105C233.581 299.474 233.415 300.073 232.914 300.217C231.558 300.609 229.801 301.71 229.945 304.801C230.145 309.075 235.047 308.744 236.443 308.562C236.671 308.532 236.901 308.611 237.054 308.779C238.237 310.08 243.57 315.608 249.394 316.323C249.898 316.385 250.294 315.902 250.133 315.432L247.68 308.257C247.566 307.924 247.733 307.561 248.063 307.422L249.32 306.894Z" fill="url(#paint17_linear_215_649)"/>
<path d="M250.324 307.918C250.324 307.918 244.027 303.619 243.529 307.185C243.031 310.752 249.186 312.411 252.256 311.108L250.324 307.918Z" fill="url(#paint18_linear_215_649)"/>
<path d="M241.82 409.273L256.454 359.441C256.62 358.876 257.115 358.463 257.715 358.395C260.366 358.093 268.049 357.246 276.92 356.515C287.606 355.634 300.015 354.92 307.43 355.527C308.484 355.613 309.121 356.701 308.652 357.625C304.436 365.943 287.091 399.779 278.405 410.863C278.117 411.23 277.672 411.445 277.198 411.441L243.243 411.132C242.255 411.123 241.548 410.199 241.82 409.273Z" fill="url(#paint19_linear_215_649)"/>
<path d="M245.356 397.234C245.356 397.234 243.317 389.06 244.139 386.16C244.962 383.26 246.555 379.532 251.866 380.361C257.177 381.189 263.441 383.371 263.441 383.371C263.441 383.371 263.125 387.148 259.088 385.929L261.591 387.817C261.591 387.817 261.234 390.841 257.824 389.226L260.152 391.73C260.152 391.73 258.688 394.214 256.18 392.621C253.671 391.028 252.469 398.218 245.356 397.234Z" fill="url(#paint20_linear_215_649)"/>
<path d="M275.945 371.391C275.945 373.704 277.868 375.579 280.24 375.579C282.613 375.579 284.536 373.704 284.536 371.391C284.536 369.077 282.613 367.202 280.24 367.202C277.868 367.202 275.945 369.077 275.945 371.391Z" fill="#91B3FA"/>
<path d="M258.11 374.152L261.09 364.296C261.455 363.086 262.453 362.178 263.694 361.925C273.033 360.025 298.594 359.622 298.851 359.618L298.834 358.505C297.78 358.521 272.906 358.914 263.46 360.835C261.808 361.171 260.479 362.377 259.994 363.981L257.014 373.837L258.11 374.152Z" fill="#BDD0FB"/>
<path d="M638.461 300.043C638.867 299.287 640.016 299.406 640.25 300.229C641.118 303.274 643.218 308.59 647.626 310.477C647.848 310.572 648.058 310.668 648.261 310.765C648.461 310.18 648.464 309.502 647.985 308.788C646.615 306.746 649.089 303.958 649.089 303.958C649.089 303.958 649.252 306.414 651.167 307.96C652.817 309.293 653.608 312.257 652.481 314.689C650.096 323.723 646.524 335.672 660.438 344.402C674.353 353.132 693.948 327.927 693.948 327.927L684.223 357.99C684.223 357.99 669.211 368.791 651.749 353.603C634.288 338.414 645.862 316.313 645.862 316.313C645.862 316.313 632.544 311.074 638.461 300.043Z" fill="url(#paint21_linear_215_649)"/>
<path d="M696.385 283.756C696.385 283.756 692.354 266.124 713.068 270.792C713.068 270.792 723.122 269.19 723.633 278.443C723.633 278.443 730.115 282.607 725.369 290.615C725.369 290.615 744.631 283.361 753.023 299.822C761.415 316.284 753.701 325.341 745.614 327.701C745.614 327.701 752.166 330.908 749.065 338.151C745.964 345.393 730.258 350.499 720.98 341.691C720.98 341.691 694.581 345.093 695.11 326.911C695.11 326.911 682.831 319.18 695.728 304.155C708.624 289.129 696.385 283.756 696.385 283.756Z" fill="url(#paint22_linear_215_649)"/>
<path d="M695.248 324.624C699.41 323.408 711.53 321.161 723.057 331.534C725.012 333.293 725.811 335.966 725.114 338.469C722.017 349.584 713.848 382.42 721.011 396.628C721.011 396.628 708.388 410.196 694.618 399.26C694.618 399.26 688.439 373.004 680.347 361.477C674.759 353.52 689.256 331.594 692.923 326.297C693.479 325.496 694.297 324.902 695.248 324.624Z" fill="#F9CA3A"/>
<path d="M706.74 302.543C706.74 302.543 712.896 319.521 713.359 327.01C713.359 327.01 706.556 330.027 700.145 324.936C700.145 324.936 699.472 307.978 698.5 304.942L706.74 302.543Z" fill="url(#paint23_linear_215_649)"/>
<path d="M698.19 279.395C698.19 279.395 682.089 301.365 691.714 307.746C701.338 314.128 712.8 298.515 712.8 298.515C712.8 298.515 716.536 286.49 712.629 282.411C708.723 278.331 698.19 279.395 698.19 279.395Z" fill="url(#paint24_linear_215_649)"/>
<path d="M705.642 274.145C705.642 274.145 698.246 275.854 697.209 279.117C696.173 282.38 707.698 285.406 710.928 285.554L713.53 298.722C713.53 298.722 721.222 286.335 718.175 279.181C715.128 272.026 705.642 274.145 705.642 274.145Z" fill="url(#paint25_linear_215_649)"/>
<path d="M709.679 296.898C709.679 296.898 715.946 289.821 718.438 294.435C720.931 299.048 712.797 302.512 709.982 300.247L709.679 296.898Z" fill="url(#paint26_linear_215_649)"/>
<path d="M678.542 454.389C678.589 455.581 676.443 465.036 675.275 470.079C674.805 472.108 675.132 474.232 676.192 476.037L716.646 542.425C717.136 543.228 717.492 544.097 717.708 545.007C718.45 548.123 719.988 555.758 719.185 562.704L717.092 566.942L726.143 564.938L728.112 541.239L725.55 539.715C723.336 538.399 721.613 536.432 720.626 534.094C716.968 525.431 707.884 503.376 705.542 492.629C702.881 480.414 688.97 470.492 688.97 470.492L691.413 464.858L678.542 454.389Z" fill="url(#paint27_linear_215_649)"/>
<path d="M736.201 556.783C736.201 556.783 731.314 549.227 730.739 546.286C730.164 543.345 728.563 538.152 725.549 539.715C725.549 539.715 724.129 554.002 724.619 559.585C725.108 565.167 718.147 564.987 718.147 564.987C718.147 564.987 716.228 565.25 714.823 566.62C713.852 567.566 714.546 569.207 715.915 569.293C718.193 569.436 721.812 569.473 725.612 568.758C726.94 568.508 727.924 567.406 728.004 566.089L729.008 549.646L735.173 557.237L736.201 556.783Z" fill="url(#paint28_linear_215_649)"/>
<path d="M702.709 464.964C702.709 464.964 704.136 524.347 704.329 532.781C704.522 541.215 702.963 559.905 694.292 565.492L698.065 568.215C698.065 568.215 702.78 564.308 707.387 556.787C712.562 548.338 714.127 546.795 714.127 546.795L712.41 543.366C711.658 541.865 711.437 540.167 711.783 538.53C713.654 529.687 719.905 500.275 721.611 493.941C723.624 486.464 723.767 476.479 716.764 468.121C709.761 459.763 702.709 464.964 702.709 464.964Z" fill="url(#paint29_linear_215_649)"/>
<path d="M710.716 570.892C710.985 570.894 711.214 570.706 711.252 570.447C711.54 568.467 712.742 560.53 713.725 558.475C714.851 556.121 718.529 546.215 713.723 545.374C713.723 545.374 701.774 562.395 699.48 564.69C697.187 566.985 694.292 565.492 694.292 565.492C694.292 565.492 692.057 566.136 690.372 568.235C689.57 569.235 690.317 570.702 691.619 570.714L699.667 570.789C702.004 570.811 704.106 569.426 704.975 567.311C706.392 563.86 708.825 558.8 711.661 556.555L710.188 570.314C710.155 570.621 710.4 570.889 710.716 570.892Z" fill="url(#paint30_linear_215_649)"/>
<path d="M692.713 392.858C692.713 392.858 694.527 398.495 691.74 407.778L674.456 466.628C674.185 467.553 674.697 468.521 675.625 468.846C680.795 470.655 697.791 475.769 720.991 474.209C722.159 474.131 723.138 473.324 723.392 472.21C724.921 465.501 730.137 442.61 731.211 437.907C735.303 419.985 739.872 400.657 719.772 388.971C710.508 392.839 701.868 395.12 692.713 392.858Z" fill="url(#paint31_linear_215_649)"/>
<path d="M724.706 333.752C724.706 333.752 744.372 349.687 749.252 371.462C754.132 393.236 720.516 395.55 720.516 395.55C720.516 395.55 715.953 390.582 710.535 392.354C705.117 394.126 710.115 383.682 716.454 383.709C722.793 383.737 719.856 388.624 728.824 384.663C737.559 380.805 742.959 368.873 720.671 350.786C719.379 349.737 718.348 348.401 717.727 346.877C713.397 336.25 716.832 329.283 724.706 333.752Z" fill="url(#paint32_linear_215_649)"/>
<path d="M601.649 496.442H594.635V570.406H601.649V496.442Z" fill="#7D97F4"/>
<path d="M628.86 571.832H567.423V567.875C567.423 567.602 567.65 567.38 567.93 567.38H628.353C628.633 567.38 628.86 567.602 628.86 567.875V571.832Z" fill="#7D97F4"/>
<path d="M640.479 493.713C640.479 498.013 636.871 501.53 632.462 501.53H566.403C561.993 501.53 558.386 498.013 558.386 493.713V486.646C558.386 482.346 561.993 478.829 566.403 478.829H632.462C636.871 478.829 640.479 482.346 640.479 486.646V493.713Z" fill="#7D97F4"/>
<path d="M535.961 547.944C535.961 547.944 513.284 557.468 514.583 567.435C514.583 567.435 538.024 563.052 542.219 556.519C546.414 549.986 544.103 546.202 544.103 546.202L535.961 547.944Z" fill="url(#paint33_linear_215_649)"/>
<path d="M541.515 537.059L542.666 546.764C542.84 548.228 542.006 549.673 540.583 550.172C539.871 550.422 538.936 550.594 537.71 550.6C535.98 550.609 534.448 549.5 533.986 547.874L531.755 540.025L541.515 537.059Z" fill="url(#paint34_linear_215_649)"/>
<path d="M591.055 462.643C591.055 462.643 549.345 460.761 528.59 472.562C507.835 484.364 529.642 541.004 529.642 541.004C529.642 541.004 535.064 542.141 542.87 538.073C542.87 538.073 531.729 496.609 551.081 489.396C572.838 481.286 595.34 483.259 595.34 483.259L591.171 463.924L591.055 462.643Z" fill="url(#paint35_linear_215_649)"/>
<path d="M519.141 563.061C523.883 562.048 537.947 556.366 540.084 556.442C542.219 556.518 545.246 559.639 545.246 559.639C545.246 559.639 545.767 561.344 544.24 563.794C540.616 566.549 532.81 571.608 523.734 572.161C517.058 572.569 513.041 569.979 510.744 567.466C512.755 565.558 515.983 563.736 519.141 563.061Z" fill="url(#paint36_linear_215_649)"/>
<path d="M523.734 572.162C532.81 571.608 540.616 566.549 544.24 563.794C543.207 565.449 541.241 567.442 537.542 569.48C528.371 574.533 513.212 573.796 510.207 572.659C507.799 571.748 508.543 569.555 510.744 567.467C513.041 569.979 517.058 572.569 523.734 572.162Z" fill="url(#paint37_linear_215_649)"/>
<path d="M550.226 554.56C549.915 555.705 546.593 559.145 544.673 561.063C543.76 561.974 542.435 562.365 541.159 562.093C540.349 561.921 539.435 561.652 538.644 561.233C537.457 560.604 537.044 559.134 537.695 557.98L542.552 549.367L550.226 554.56Z" fill="url(#paint38_linear_215_649)"/>
<path d="M632.39 459.232C632.39 459.232 636.031 484.416 625.504 489.564C614.977 494.711 591.888 498.081 583.936 511.143C575.983 524.204 561.7 549.842 548.702 557.208C548.702 557.208 541.279 554.854 539.109 551.294C539.109 551.294 554.538 511.749 560.974 502.137C566.548 493.813 574.698 481.821 586.278 476.634C589.593 475.149 589.853 471.72 589.269 468.209L588.206 461.816L632.39 459.232Z" fill="url(#paint39_linear_215_649)"/>
<path d="M534.826 430.684C549.584 434.792 556.189 394.294 556.13 393.309L578.758 419.105C578.758 419.105 565.275 442.237 544.917 444.699C539.766 445.322 535.385 444.453 531.709 442.811C534.417 438.487 535.036 434.217 534.826 430.684Z" fill="#FFB147"/>
<path d="M507.495 417.429C513.927 414.851 519.384 419.995 519.384 419.995C525.758 426.356 530.812 429.567 534.825 430.684C535.036 434.217 534.417 438.487 531.709 442.811C523.758 439.259 519.122 432.078 517.213 428.495C516.525 427.205 514.914 426.659 513.571 427.292C512.208 427.934 510.803 428.915 510.715 430.247C510.542 432.874 507.336 433.028 507.317 432.058C507.298 431.088 509.799 425.9 509.799 425.9C509.799 425.9 502.409 430.523 499.532 432.291C496.655 434.059 494.205 431.141 494.205 431.141C494.205 431.141 501.063 420.006 507.495 417.429Z" fill="url(#paint40_linear_215_649)"/>
<path d="M626.705 376.644C626.705 376.644 606.873 363.452 558.974 387.311C558.974 387.311 554.041 393.408 556.352 400.281C558.662 407.155 587.102 444.353 588.207 461.816C588.207 461.816 607.648 472.974 632.885 461.912C632.885 461.912 641.347 415.8 626.705 376.644Z" fill="#FFB147"/>
<path d="M585.407 359.778L593.245 374.752C594.023 376.239 593.86 378.038 592.792 379.343C590.634 381.98 586.128 385.523 578.439 383.239C576.152 382.56 574.402 380.746 573.85 378.477L569.788 361.763L585.407 359.778Z" fill="url(#paint41_linear_215_649)"/>
<path d="M641.391 428.934C642.734 419.831 618.065 402.188 618.065 402.188L626.705 376.644C626.705 376.644 673.779 409.399 663.879 436.149C662.46 439.984 660.343 442.777 657.762 444.757C652.777 434.789 646.017 430.646 641.391 428.934Z" fill="#FFB147"/>
<path d="M606.975 431.46C606.975 431.46 634.881 439.059 640.671 430.777C641.064 430.215 641.294 429.596 641.392 428.934C646.017 430.646 652.778 434.789 657.763 444.757C644.513 454.92 618.967 443.528 612.025 440.113C610.883 439.551 609.571 439.441 608.35 439.813C605.881 440.564 601.603 441.73 599.219 441.603C595.732 441.416 591.989 453.703 586.055 450.592C586.055 450.592 588.752 429.6 606.975 431.46Z" fill="url(#paint42_linear_215_649)"/>
<path d="M575.361 335.306C575.112 335.516 564.774 353.121 559.512 362.096C557.905 364.836 559.108 368.324 562.084 369.567L564.363 370.52C567.478 371.822 574.177 372.912 576.814 370.836L593.433 353.731C593.433 353.73 580.951 330.588 575.361 335.306Z" fill="url(#paint43_linear_215_649)"/>
<path d="M598.116 349.064C600.154 347.947 602.605 345.686 600.697 341.687C598.757 337.623 594.925 337.27 592.456 337.529C591.458 337.634 590.555 337.015 590.264 336.078C590.099 335.544 589.694 335.073 588.819 334.938C587.64 334.756 586.908 333.582 587.215 332.457C587.806 330.296 587.706 327.361 584.141 325.257C577.816 321.523 571.903 326.947 570.256 331.661C568.609 336.376 575.703 340.045 580.233 340.793C583.676 341.363 585.357 345.236 585.965 347.06C586.157 347.638 586.065 348.267 585.723 348.774L580.67 356.261C582.059 357.965 583.291 359.767 584.505 361.589C584.959 361.112 585.357 360.715 585.667 360.437C587.862 358.476 591.765 359.488 593.372 360.027C593.899 360.204 594.472 360.162 594.967 359.913C596.717 359.031 600.251 356.553 597.355 351.868C596.749 350.888 597.092 349.625 598.116 349.064Z" fill="url(#paint44_linear_215_649)"/>
<path d="M582.666 364.789C582.666 364.789 585.896 356.693 589.568 357.145C593.24 357.597 595.987 361.294 591.248 365.132C585.353 369.906 582.666 364.789 582.666 364.789Z" fill="url(#paint45_linear_215_649)"/>
<path d="M571.343 448.784C571.293 448.786 571.243 448.788 571.193 448.787L505.999 448.718C504.387 448.717 503.082 447.442 503.084 445.87C503.086 444.298 504.398 443 506.005 443.028L571.199 443.097C572.811 443.099 574.116 444.374 574.114 445.945C574.112 447.467 572.885 448.71 571.343 448.784Z" fill="url(#paint46_linear_215_649)"/>
<path d="M447.393 391.069H501.687C505.692 391.069 509.337 393.323 511.046 396.855L536.146 448.75H468.673C466.092 448.75 463.773 447.212 462.824 444.872L443.36 396.851C442.236 394.076 444.333 391.069 447.393 391.069Z" fill="url(#paint47_linear_215_649)"/>
<path d="M485.643 417.677C486.82 421.241 485.95 424.703 483.702 425.409C481.453 426.114 478.676 423.797 477.5 420.233C476.323 416.669 477.192 413.207 479.441 412.501C481.69 411.796 484.466 414.113 485.643 417.677Z" fill="#91B3FA"/>
<path d="M456.194 585.123C455.833 585.123 455.466 585.055 455.113 584.912C453.723 584.347 453.081 582.826 453.679 581.514L511.136 455.431C511.733 454.119 513.344 453.514 514.735 454.077C516.124 454.641 516.767 456.163 516.169 457.475L458.712 583.558C458.266 584.537 457.256 585.123 456.194 585.123Z" fill="#91B3FA"/>
<path d="M520.922 585.123C519.86 585.123 518.85 584.537 518.404 583.558L460.947 457.474C460.349 456.162 460.991 454.641 462.381 454.077C463.77 453.512 465.382 454.118 465.98 455.43L523.437 581.514C524.035 582.826 523.393 584.347 522.003 584.911C521.65 585.055 521.283 585.123 520.922 585.123Z" fill="#91B3FA"/>
<path d="M634.047 585.123C633.686 585.123 633.319 585.055 632.966 584.911C631.576 584.347 630.934 582.826 631.532 581.514L688.989 455.431C689.587 454.119 691.196 453.513 692.588 454.077C693.978 454.641 694.62 456.162 694.022 457.474L636.565 583.558C636.119 584.536 635.109 585.123 634.047 585.123Z" fill="#91B3FA"/>
<path d="M698.774 585.123C697.712 585.123 696.702 584.537 696.256 583.558L638.8 457.474C638.202 456.162 638.844 454.641 640.233 454.077C641.622 453.512 643.234 454.118 643.833 455.43L701.289 581.514C701.887 582.826 701.245 584.347 699.856 584.911C699.503 585.055 699.135 585.123 698.774 585.123Z" fill="#91B3FA"/>
<path d="M705.513 451.538C705.66 450.711 705.46 449.856 704.969 449.206C704.478 448.556 703.747 448.18 702.975 448.18H441.59C440.575 448.18 439.63 448.744 439.084 449.678C438.537 450.611 438.463 451.784 438.889 452.79L441.722 459.482C442.37 461.014 443.776 461.995 445.322 461.995H701.182C702.62 461.995 703.857 460.882 704.13 459.34L705.513 451.538Z" fill="#91B3FA"/>
</g>
<defs>
<linearGradient id="paint0_linear_215_649" x1="824.851" y1="748.571" x2="331.76" y2="120.507" gradientUnits="userSpaceOnUse">
<stop stop-color="#DAE3FE"/>
<stop offset="1" stop-color="#E9EFFD"/>
</linearGradient>
<linearGradient id="paint1_linear_215_649" x1="593.243" y1="88.6238" x2="183.496" y2="646.553" gradientUnits="userSpaceOnUse">
<stop stop-color="#5D21D1"/>
<stop offset="1" stop-color="#4042E2"/>
</linearGradient>
<linearGradient id="paint2_linear_215_649" x1="467.847" y1="5.61941" x2="445.428" y2="186.86" gradientUnits="userSpaceOnUse">
<stop stop-color="#F9CA3A"/>
<stop offset="1" stop-color="#F9CA3A"/>
</linearGradient>
<linearGradient id="paint3_linear_215_649" x1="379.442" y1="287.507" x2="566.266" y2="171.597" gradientUnits="userSpaceOnUse">
<stop stop-color="#09005D"/>
<stop offset="1" stop-color="#1A0F91"/>
</linearGradient>
<linearGradient id="paint4_linear_215_649" x1="443.296" y1="287.461" x2="574.603" y2="175.76" gradientUnits="userSpaceOnUse">
<stop stop-color="#09005D"/>
<stop offset="1" stop-color="#1A0F91"/>
</linearGradient>
<linearGradient id="paint5_linear_215_649" x1="290.174" y1="560.153" x2="183.409" y2="677.01" gradientUnits="userSpaceOnUse">
<stop stop-color="#09005D"/>
<stop offset="1" stop-color="#1A0F91"/>
</linearGradient>
<linearGradient id="paint6_linear_215_649" x1="254.844" y1="568.38" x2="264.49" y2="568.474" gradientUnits="userSpaceOnUse">
<stop stop-color="#FEBBBA"/>
<stop offset="1" stop-color="#FF928E"/>
</linearGradient>
<linearGradient id="paint7_linear_215_649" x1="300" y1="429.98" x2="209.402" y2="553.445" gradientUnits="userSpaceOnUse">
<stop stop-color="#09005D"/>
<stop offset="1" stop-color="#1A0F91"/>
</linearGradient>
<linearGradient id="paint8_linear_215_649" x1="266.026" y1="538.087" x2="159.256" y2="654.948" gradientUnits="userSpaceOnUse">
<stop stop-color="#09005D"/>
<stop offset="1" stop-color="#1A0F91"/>
</linearGradient>
<linearGradient id="paint9_linear_215_649" x1="220.085" y1="567.574" x2="228.413" y2="567.655" gradientUnits="userSpaceOnUse">
<stop stop-color="#FEBBBA"/>
<stop offset="1" stop-color="#FF928E"/>
</linearGradient>
<linearGradient id="paint10_linear_215_649" x1="283.646" y1="417.98" x2="193.049" y2="541.443" gradientUnits="userSpaceOnUse">
<stop stop-color="#09005D"/>
<stop offset="1" stop-color="#1A0F91"/>
</linearGradient>
<linearGradient id="paint11_linear_215_649" x1="296.938" y1="323.379" x2="346.218" y2="323.859" gradientUnits="userSpaceOnUse">
<stop stop-color="#FEBBBA"/>
<stop offset="1" stop-color="#FF928E"/>
</linearGradient>
<linearGradient id="paint12_linear_215_649" x1="335.319" y1="315.68" x2="302.932" y2="389.347" gradientUnits="userSpaceOnUse">
<stop stop-color="#FEBBBA"/>
<stop offset="1" stop-color="#FF928E"/>
</linearGradient>
<linearGradient id="paint13_linear_215_649" x1="346.299" y1="291.348" x2="359.812" y2="270.476" gradientUnits="userSpaceOnUse">
<stop stop-color="#FEBBBA"/>
<stop offset="1" stop-color="#FF928E"/>
</linearGradient>
<linearGradient id="paint14_linear_215_649" x1="188.438" y1="390.436" x2="250.801" y2="391.044" gradientUnits="userSpaceOnUse">
<stop stop-color="#FEBBBA"/>
<stop offset="1" stop-color="#FF928E"/>
</linearGradient>
<linearGradient id="paint15_linear_215_649" x1="234.287" y1="356.858" x2="256.923" y2="311.794" gradientUnits="userSpaceOnUse">
<stop stop-color="#FEBBBA"/>
<stop offset="1" stop-color="#FF928E"/>
</linearGradient>
<linearGradient id="paint16_linear_215_649" x1="267.631" y1="310.863" x2="241.063" y2="293.887" gradientUnits="userSpaceOnUse">
<stop stop-color="#FEBBBA"/>
<stop offset="1" stop-color="#FF928E"/>
</linearGradient>
<linearGradient id="paint17_linear_215_649" x1="226.494" y1="277.362" x2="260.559" y2="305.499" gradientUnits="userSpaceOnUse">
<stop stop-color="#09005D"/>
<stop offset="1" stop-color="#1A0F91"/>
</linearGradient>
<linearGradient id="paint18_linear_215_649" x1="260.452" y1="316.809" x2="236.548" y2="301.535" gradientUnits="userSpaceOnUse">
<stop stop-color="#FEBBBA"/>
<stop offset="1" stop-color="#FF928E"/>
</linearGradient>
<linearGradient id="paint19_linear_215_649" x1="267.524" y1="351.799" x2="300.328" y2="491.981" gradientUnits="userSpaceOnUse">
<stop stop-color="#09005D"/>
<stop offset="1" stop-color="#1A0F91"/>
</linearGradient>
<linearGradient id="paint20_linear_215_649" x1="243.944" y1="388.785" x2="263.441" y2="388.785" gradientUnits="userSpaceOnUse">
<stop stop-color="#FEBBBA"/>
<stop offset="1" stop-color="#FF928E"/>
</linearGradient>
<linearGradient id="paint21_linear_215_649" x1="632.519" y1="278.878" x2="682.949" y2="361.769" gradientUnits="userSpaceOnUse">
<stop stop-color="#FEBBBA"/>
<stop offset="1" stop-color="#FF928E"/>
</linearGradient>
<linearGradient id="paint22_linear_215_649" x1="777.739" y1="271.354" x2="725.73" y2="306.918" gradientUnits="userSpaceOnUse">
<stop stop-color="#09005D"/>
<stop offset="1" stop-color="#1A0F91"/>
</linearGradient>
<linearGradient id="paint23_linear_215_649" x1="696.948" y1="335.426" x2="706.35" y2="314.01" gradientUnits="userSpaceOnUse">
<stop stop-color="#FEBBBA"/>
<stop offset="1" stop-color="#FF928E"/>
</linearGradient>
<linearGradient id="paint24_linear_215_649" x1="696.443" y1="283.814" x2="715.532" y2="326.198" gradientUnits="userSpaceOnUse">
<stop stop-color="#FEBBBA"/>
<stop offset="1" stop-color="#FF928E"/>
</linearGradient>
<linearGradient id="paint25_linear_215_649" x1="763.539" y1="250.588" x2="711.528" y2="286.153" gradientUnits="userSpaceOnUse">
<stop stop-color="#09005D"/>
<stop offset="1" stop-color="#1A0F91"/>
</linearGradient>
<linearGradient id="paint26_linear_215_649" x1="705.808" y1="279.596" x2="724.896" y2="321.98" gradientUnits="userSpaceOnUse">
<stop stop-color="#FEBBBA"/>
<stop offset="1" stop-color="#FF928E"/>
</linearGradient>
<linearGradient id="paint27_linear_215_649" x1="751.984" y1="599.904" x2="681.701" y2="469.797" gradientUnits="userSpaceOnUse">
<stop stop-color="#FEBBBA"/>
<stop offset="1" stop-color="#FF928E"/>
</linearGradient>
<linearGradient id="paint28_linear_215_649" x1="736.223" y1="554.529" x2="714.5" y2="554.318" gradientUnits="userSpaceOnUse">
<stop stop-color="#09005D"/>
<stop offset="1" stop-color="#1A0F91"/>
</linearGradient>
<linearGradient id="paint29_linear_215_649" x1="668.685" y1="504.497" x2="778.93" y2="541.84" gradientUnits="userSpaceOnUse">
<stop stop-color="#FEBBBA"/>
<stop offset="1" stop-color="#FF928E"/>
</linearGradient>
<linearGradient id="paint30_linear_215_649" x1="716.046" y1="558.168" x2="690.15" y2="557.916" gradientUnits="userSpaceOnUse">
<stop stop-color="#09005D"/>
<stop offset="1" stop-color="#1A0F91"/>
</linearGradient>
<linearGradient id="paint31_linear_215_649" x1="793.225" y1="369.24" x2="732.027" y2="417.36" gradientUnits="userSpaceOnUse">
<stop stop-color="#09005D"/>
<stop offset="1" stop-color="#1A0F91"/>
</linearGradient>
<linearGradient id="paint32_linear_215_649" x1="744.966" y1="401.5" x2="643.833" y2="247.713" gradientUnits="userSpaceOnUse">
<stop stop-color="#FEBBBA"/>
<stop offset="1" stop-color="#FF928E"/>
</linearGradient>
<linearGradient id="paint33_linear_215_649" x1="522.436" y1="530.494" x2="528.947" y2="556.365" gradientUnits="userSpaceOnUse">
<stop stop-color="#09005D"/>
<stop offset="1" stop-color="#1A0F91"/>
</linearGradient>
<linearGradient id="paint34_linear_215_649" x1="543.332" y1="544.681" x2="531.318" y2="541.953" gradientUnits="userSpaceOnUse">
<stop stop-color="#FEBBBA"/>
<stop offset="1" stop-color="#FF928E"/>
</linearGradient>
<linearGradient id="paint35_linear_215_649" x1="567.053" y1="517.205" x2="533.234" y2="435.602" gradientUnits="userSpaceOnUse">
<stop stop-color="#09005D"/>
<stop offset="1" stop-color="#1A0F91"/>
</linearGradient>
<linearGradient id="paint36_linear_215_649" x1="524.131" y1="555.447" x2="552.697" y2="618.486" gradientUnits="userSpaceOnUse">
<stop stop-color="#09005D"/>
<stop offset="1" stop-color="#1A0F91"/>
</linearGradient>
<linearGradient id="paint37_linear_215_649" x1="542.48" y1="571.548" x2="510.172" y2="564.214" gradientUnits="userSpaceOnUse">
<stop stop-color="#4F52FF"/>
<stop offset="1" stop-color="#4042E2"/>
</linearGradient>
<linearGradient id="paint38_linear_215_649" x1="549.582" y1="557.397" x2="538.305" y2="554.838" gradientUnits="userSpaceOnUse">
<stop stop-color="#FEBBBA"/>
<stop offset="1" stop-color="#FF928E"/>
</linearGradient>
<linearGradient id="paint39_linear_215_649" x1="577.59" y1="556.041" x2="595.119" y2="461.75" gradientUnits="userSpaceOnUse">
<stop stop-color="#09005D"/>
<stop offset="1" stop-color="#1A0F91"/>
</linearGradient>
<linearGradient id="paint40_linear_215_649" x1="535.233" y1="432.612" x2="495.898" y2="423.683" gradientUnits="userSpaceOnUse">
<stop stop-color="#FEBBBA"/>
<stop offset="1" stop-color="#FF928E"/>
</linearGradient>
<linearGradient id="paint41_linear_215_649" x1="594.4" y1="374.23" x2="568.302" y2="368.306" gradientUnits="userSpaceOnUse">
<stop stop-color="#FEBBBA"/>
<stop offset="1" stop-color="#FF928E"/>
</linearGradient>
<linearGradient id="paint42_linear_215_649" x1="615.176" y1="437.992" x2="715.624" y2="582.25" gradientUnits="userSpaceOnUse">
<stop stop-color="#FEBBBA"/>
<stop offset="1" stop-color="#FF928E"/>
</linearGradient>
<linearGradient id="paint43_linear_215_649" x1="579.921" y1="341.536" x2="567.398" y2="401.782" gradientUnits="userSpaceOnUse">
<stop stop-color="#FEBBBA"/>
<stop offset="1" stop-color="#FF928E"/>
</linearGradient>
<linearGradient id="paint44_linear_215_649" x1="598.097" y1="357.585" x2="572.663" y2="327.451" gradientUnits="userSpaceOnUse">
<stop stop-color="#09005D"/>
<stop offset="1" stop-color="#1A0F91"/>
</linearGradient>
<linearGradient id="paint45_linear_215_649" x1="585.092" y1="398.838" x2="588.189" y2="361.428" gradientUnits="userSpaceOnUse">
<stop stop-color="#FEBBBA"/>
<stop offset="1" stop-color="#FF928E"/>
</linearGradient>
<linearGradient id="paint46_linear_215_649" x1="582.404" y1="431.894" x2="530.91" y2="449.215" gradientUnits="userSpaceOnUse">
<stop stop-color="#09005D"/>
<stop offset="1" stop-color="#1A0F91"/>
</linearGradient>
<linearGradient id="paint47_linear_215_649" x1="511.311" y1="398.808" x2="475.033" y2="438.133" gradientUnits="userSpaceOnUse">
<stop stop-color="#09005D"/>
<stop offset="1" stop-color="#1A0F91"/>
</linearGradient>
<clipPath id="clip0_215_649">
<rect width="914" height="689" fill="white"/>
</clipPath>
</defs>
</svg>
