<svg width="915" height="668" viewBox="0 0 915 668" fill="none" xmlns="http://www.w3.org/2000/svg">
<path fill-rule="evenodd" clip-rule="evenodd" d="M474.343 0.00417205C574.271 -0.353066 680.548 22.1415 740.321 102.223C798.463 180.119 779.805 284.358 757.136 378.879C734.894 471.626 704.087 571.585 617.941 612.52C532.155 653.284 435.396 614.106 350.118 572.288C265.865 530.972 184.166 476.613 157.391 386.676C128.616 290.024 146.81 182.107 210.738 104.116C273.748 27.246 374.949 0.359499 474.343 0.00417205Z" fill="#482093"/>
<path d="M757.998 513.511H914.47C912.227 503.091 897.309 495.05 879.224 495.05C873.725 495.05 868.521 495.797 863.886 497.107C861.089 490.288 853.497 485.416 844.572 485.416C840.267 485.416 836.276 486.556 832.975 488.492C827.761 482.985 819.799 479.476 810.859 479.476C798.548 479.476 788.069 486.154 784.084 495.505C783.614 496.603 783.23 497.754 782.945 498.935C782.595 498.885 782.241 498.853 781.876 498.823C781.796 498.823 781.716 498.823 781.636 498.812C781.122 498.782 780.608 498.774 780.093 498.774C769.415 498.774 760.465 505.048 757.998 513.511Z" fill="#CBCBFF"/>
<path d="M782.946 498.935C782.598 498.885 782.241 498.853 781.88 498.823C782.442 497.634 783.189 496.512 784.087 495.504C783.617 496.603 783.231 497.754 782.946 498.935Z" fill="white"/>
<path d="M869.744 513.511H758C760.469 505.048 769.413 498.774 780.095 498.774C780.605 498.774 781.119 498.783 781.638 498.811C781.695 498.844 781.756 498.894 781.818 498.944C781.837 498.903 781.856 498.864 781.875 498.823C782.238 498.852 782.592 498.885 782.946 498.935C783.229 497.754 783.611 496.603 784.083 495.505C787.331 491.823 792.556 489.441 798.456 489.441C807.051 489.441 814.217 494.514 815.916 501.275C819.352 500.224 823.241 499.629 827.376 499.629C831.492 499.629 835.367 500.215 838.785 501.255C840.116 498.621 843.363 496.755 847.153 496.755C852.147 496.755 856.202 499.992 856.202 503.979C856.202 504.16 856.192 504.322 856.178 504.503C862.343 505.35 867.426 508.83 869.744 513.511Z" fill="#EAEAFF"/>
<path d="M894.913 151.33H798.057C799.446 144.88 808.683 139.904 819.875 139.904C823.278 139.904 826.5 140.366 829.371 141.177C831.096 136.956 835.8 133.941 841.323 133.941C843.989 133.941 846.461 134.646 848.503 135.845C851.73 132.436 856.658 130.263 862.191 130.263C869.815 130.263 876.298 134.396 878.764 140.185C879.057 140.865 879.295 141.577 879.471 142.308C879.69 142.276 879.905 142.258 880.129 142.239C880.183 142.239 880.231 142.239 880.28 142.233C880.597 142.214 880.919 142.208 881.235 142.208C887.845 142.208 893.383 146.091 894.913 151.33Z" fill="#CBCBFF"/>
<path d="M330.615 378.313L333.059 362.267L315.318 349.896L313.247 349.735L313.139 349.39C312.849 348.464 311.99 347.849 311.024 347.849C311.002 347.849 310.979 347.849 310.956 347.852C310.079 347.875 309.203 347.89 308.328 347.89C302.013 347.89 295.779 347.213 289.74 345.892C289.579 345.857 289.417 345.839 289.257 345.839C288.45 345.839 287.693 346.276 287.306 347.014L273.088 374.148C272.694 374.901 271.927 375.331 271.133 375.331C270.788 375.331 270.437 375.249 270.111 375.079L234.301 356.314C233.221 355.749 232.804 354.413 233.371 353.335L247.604 326.193C248.066 325.311 247.872 324.239 247.146 323.556C241.988 318.723 237.416 313.254 233.455 307.193C233.036 306.555 232.336 306.183 231.604 306.183C231.388 306.183 231.17 306.215 230.955 306.282L201.691 315.422C201.472 315.489 201.25 315.521 201.033 315.521C200.093 315.521 199.223 314.918 198.928 313.972L186.871 275.343C186.508 274.181 187.156 272.944 188.319 272.581L217.583 263.442C218.527 263.146 219.147 262.258 219.123 261.271C218.947 254.074 219.586 246.953 221.082 240.066C221.293 239.091 220.844 238.098 219.961 237.632L192.803 223.372C191.725 222.807 191.31 221.474 191.875 220.396L210.652 184.58C211.046 183.83 211.813 183.399 212.607 183.399C212.952 183.399 213.302 183.481 213.629 183.651L240.758 197.876C241.08 198.043 241.427 198.125 241.771 198.125C242.371 198.125 242.962 197.876 243.395 197.413C248.198 192.281 253.685 187.697 259.742 183.783C260.578 183.241 260.961 182.222 260.665 181.273L251.527 151.998C251.164 150.835 251.813 149.596 252.975 149.232L291.564 137.181C291.783 137.114 292.004 137.082 292.222 137.082C293.162 137.082 294.033 137.685 294.327 138.631L303.464 167.904C303.754 168.832 304.614 169.444 305.579 169.444C305.603 169.444 305.627 169.444 305.651 169.444C306.593 169.415 307.533 169.4 308.472 169.4C314.717 169.4 320.882 170.057 326.864 171.348C327.023 171.384 327.183 171.401 327.341 171.401C328.148 171.401 328.906 170.965 329.293 170.226L343.512 143.09C343.907 142.337 344.674 141.906 345.468 141.906C345.813 141.906 346.163 141.988 346.49 142.158L382.287 160.926C383.366 161.491 383.782 162.827 383.217 163.905L368.999 191.039C368.536 191.924 368.732 192.999 369.461 193.681C374.641 198.517 379.227 204.007 383.134 210.035C383.551 210.68 384.255 211.055 384.991 211.055C385.208 211.055 385.427 211.022 385.642 210.955L414.911 201.816C415.128 201.745 415.35 201.713 415.567 201.713C416.507 201.713 417.379 202.32 417.672 203.263L429.72 241.865C430.083 243.028 429.436 244.264 428.273 244.627L399.007 253.766C398.058 254.062 397.437 254.959 397.466 255.955C397.695 263.169 397.05 270.299 395.569 277.206C395.361 278.179 395.809 279.169 396.69 279.632L423.784 293.868C424.862 294.434 425.277 295.766 424.712 296.844L405.95 332.655C405.555 333.407 404.787 333.838 403.994 333.838C403.648 333.838 403.297 333.756 402.972 333.586L375.844 319.362C375.522 319.195 375.175 319.113 374.831 319.113C374.23 319.113 373.638 319.362 373.205 319.824C368.395 324.977 362.913 329.585 356.857 333.516C356.024 334.055 355.642 335.074 355.939 336.023L365.059 365.243C365.422 366.409 364.774 367.645 363.611 368.008L357.713 369.851L355.227 355.57L344.947 357.167L345.92 373.533L330.615 378.313ZM308.316 219.664C295.891 219.664 282.784 225.66 272.771 239.618C272.642 239.8 272.536 240.002 272.461 240.21C260.758 272.98 283.117 297.588 308.288 297.588C320.707 297.588 333.811 291.595 343.846 277.637C343.976 277.458 344.083 277.253 344.157 277.045C355.837 244.232 333.469 219.664 308.316 219.664Z" fill="#F5F5FF"/>
<path d="M518.946 182.328C518.507 182.328 518.102 182.047 517.963 181.608L513.727 168.026C513.591 167.594 513.192 167.309 512.741 167.309C512.732 167.309 512.723 167.309 512.713 167.309C512.302 167.322 511.895 167.328 511.493 167.328C508.554 167.328 505.659 167.013 502.85 166.401C502.776 166.385 502.702 166.376 502.628 166.376C502.251 166.376 501.898 166.577 501.719 166.92L495.109 179.534C494.927 179.883 494.572 180.084 494.201 180.084C494.04 180.084 493.877 180.044 493.728 179.967L477.082 171.244C476.582 170.981 476.387 170.36 476.65 169.859L483.265 157.242C483.482 156.834 483.389 156.337 483.055 156.018C480.654 153.771 478.528 151.23 476.69 148.411C476.495 148.115 476.167 147.942 475.831 147.942C475.729 147.942 475.627 147.957 475.528 147.988L461.925 152.238C461.824 152.269 461.722 152.284 461.62 152.284C461.181 152.284 460.776 152.003 460.643 151.564L455.038 133.609C454.868 133.068 455.171 132.493 455.711 132.326L469.314 128.076C469.749 127.94 470.04 127.529 470.028 127.068C469.947 123.724 470.241 120.414 470.939 117.211C471.035 116.76 470.828 116.297 470.417 116.08L457.797 109.453C457.293 109.19 457.099 108.569 457.361 108.068L466.091 91.4237C466.273 91.0745 466.632 90.8735 466.999 90.8735C467.16 90.8735 467.321 90.9106 467.475 90.991L480.086 97.6025C480.234 97.6798 480.395 97.7169 480.552 97.7169C480.833 97.7169 481.108 97.6025 481.309 97.3892C483.543 95.003 486.093 92.8703 488.908 91.0528C489.297 90.7994 489.473 90.3265 489.334 89.8844L485.088 76.2781C484.918 75.7372 485.221 75.1623 485.762 74.9923L503.7 69.3915C503.799 69.3606 503.904 69.3452 504.003 69.3452C504.441 69.3452 504.843 69.6264 504.982 70.0653L509.228 83.6717C509.364 84.1044 509.766 84.3888 510.214 84.3888C510.223 84.3888 510.235 84.3888 510.244 84.3888C510.683 84.3733 511.119 84.3671 511.555 84.3671C514.459 84.3671 517.324 84.6731 520.105 85.2728C520.179 85.2882 520.253 85.2975 520.327 85.2975C520.701 85.2975 521.057 85.0935 521.236 84.7504L527.845 72.1363C528.025 71.787 528.383 71.5892 528.751 71.5892C528.915 71.5892 529.078 71.6263 529.227 71.7066L545.866 80.4293C546.367 80.692 546.559 81.3102 546.299 81.814L539.689 94.425C539.473 94.8361 539.566 95.3369 539.903 95.6521C542.313 97.8992 544.442 100.452 546.259 103.253C546.454 103.556 546.781 103.729 547.121 103.729C547.223 103.729 547.325 103.713 547.427 103.682L561.029 99.4324C561.131 99.4015 561.233 99.386 561.335 99.386C561.771 99.386 562.176 99.6673 562.315 100.106L567.914 118.049C568.081 118.59 567.778 119.165 567.24 119.332L553.638 123.582C553.196 123.718 552.909 124.135 552.921 124.596C553.029 127.949 552.726 131.263 552.04 134.474C551.942 134.926 552.152 135.386 552.56 135.603L565.151 142.22C565.655 142.483 565.847 143.101 565.587 143.602L556.864 160.247C556.682 160.596 556.323 160.797 555.955 160.797C555.792 160.797 555.631 160.76 555.48 160.679L542.869 154.068C542.721 153.991 542.56 153.953 542.403 153.953C542.121 153.953 541.846 154.068 541.645 154.284C539.408 156.68 536.862 158.822 534.047 160.648C533.661 160.899 533.482 161.372 533.618 161.814L537.86 175.395C538.027 175.936 537.724 176.511 537.187 176.678L519.249 182.282C519.147 182.313 519.045 182.328 518.946 182.328ZM511.484 107.728C505.708 107.728 499.618 110.516 494.964 117.004C494.902 117.088 494.853 117.184 494.819 117.279C489.381 132.508 499.772 143.948 511.471 143.948C517.243 143.948 523.334 141.163 528 134.675C528.059 134.592 528.108 134.496 528.142 134.4C533.571 119.149 523.176 107.728 511.484 107.728Z" fill="#F5F5FF"/>
<path d="M294.28 103.91L294.253 102.738C296.215 102.693 298.178 102.69 300.136 102.726L300.115 103.899C298.173 103.863 296.227 103.866 294.28 103.91ZM311.759 104.596C309.816 104.4 307.859 104.243 305.944 104.127L306.014 102.96C307.945 103.076 309.917 103.234 311.876 103.429L311.759 104.596ZM282.644 104.665L282.52 103.501C284.457 103.293 286.428 103.124 288.378 102.996L288.453 104.166C286.52 104.291 284.566 104.46 282.644 104.665ZM323.312 106.215C321.389 105.867 319.45 105.558 317.551 105.291L317.713 104.133C319.628 104.4 321.581 104.712 323.519 105.06L323.312 106.215ZM271.116 106.402L270.892 105.25C272.806 104.878 274.756 104.54 276.687 104.252L276.861 105.41C274.947 105.698 273.014 106.03 271.116 106.402ZM334.71 108.7C332.827 108.216 330.917 107.764 329.034 107.352L329.283 106.209C331.181 106.621 333.105 107.079 335.001 107.565L334.71 108.7ZM259.785 109.13L259.46 108.005C261.329 107.465 263.242 106.957 265.145 106.5L265.419 107.64C263.533 108.094 261.636 108.596 259.785 109.13ZM345.903 111.998C344.053 111.384 342.179 110.796 340.335 110.253L340.665 109.127C342.523 109.677 344.41 110.267 346.272 110.888L345.903 111.998ZM248.748 112.868L248.321 111.779C250.135 111.066 251.994 110.389 253.847 109.763L254.222 110.873C252.387 111.494 250.544 112.165 248.748 112.868ZM356.851 116.048C355.051 115.315 353.22 114.602 351.411 113.934L351.817 112.836C353.639 113.51 355.481 114.225 357.293 114.965L356.851 116.048ZM238.117 117.631L237.586 116.586C239.32 115.707 241.107 114.855 242.896 114.053L243.374 115.122C241.603 115.915 239.834 116.758 238.117 117.631ZM367.516 120.796C365.771 119.953 363.989 119.124 362.22 118.338L362.696 117.269C364.476 118.061 366.269 118.893 368.026 119.739L367.516 120.796ZM228.012 123.427L227.378 122.441C229.015 121.387 230.707 120.357 232.408 119.383L232.991 120.398C231.306 121.366 229.631 122.384 228.012 123.427ZM377.877 126.185C376.172 125.232 374.443 124.3 372.736 123.412L373.277 122.373C374.994 123.266 376.734 124.205 378.448 125.161L377.877 126.185ZM218.57 130.244L217.835 129.329C219.349 128.109 220.924 126.906 222.515 125.757L223.2 126.708C221.626 127.845 220.068 129.032 218.57 130.244ZM387.908 132.171C386.266 131.129 384.593 130.095 382.934 129.107L383.535 128.1C385.202 129.095 386.885 130.134 388.537 131.182L387.908 132.171ZM209.928 138.05L209.095 137.224C210.471 135.835 211.904 134.466 213.355 133.157L214.14 134.026C212.705 135.321 211.288 136.675 209.928 138.05ZM397.585 138.715C396.011 137.584 394.398 136.461 392.792 135.374L393.449 134.404C395.062 135.496 396.685 136.624 398.268 137.762L397.585 138.715ZM406.9 145.778C405.38 144.561 403.831 143.35 402.29 142.183L403 141.25C404.546 142.423 406.104 143.641 407.63 144.864L406.9 145.778ZM202.22 146.782L201.299 146.057C202.507 144.519 203.776 142.996 205.071 141.529L205.949 142.304C204.669 143.753 203.414 145.262 202.22 146.782ZM415.861 153.296C414.377 152.008 412.893 150.74 411.412 149.493L412.169 148.596C413.653 149.846 415.14 151.12 416.627 152.411L415.861 153.296ZM195.571 156.334L194.572 155.722C195.599 154.047 196.684 152.391 197.797 150.793L198.758 151.461C197.658 153.041 196.585 154.68 195.571 156.334ZM424.635 161.046C423.175 159.742 421.718 158.442 420.263 157.156L421.035 156.277C422.492 157.566 423.953 158.866 425.416 160.173L424.635 161.046ZM581.42 168.151L580.553 167.364C581.485 166.334 582.408 165.294 583.314 164.249L584.198 165.015C583.287 166.066 582.361 167.112 581.42 168.151ZM433.395 168.828C431.925 167.536 430.465 166.239 429.008 164.944L429.788 164.068C431.24 165.363 432.7 166.657 434.169 167.949L433.395 168.828ZM442.3 176.47C440.798 175.22 439.305 173.952 437.82 172.679L438.586 171.788C440.065 173.062 441.552 174.324 443.051 175.571L442.3 176.47ZM573.23 176.589L572.423 175.743C573.8 174.425 575.189 173.038 576.561 171.625L577.401 172.441C576.021 173.863 574.62 175.259 573.23 176.589ZM451.495 183.783C449.999 182.655 448.435 181.441 446.856 180.182L447.583 179.264C449.109 180.482 450.649 181.678 452.202 182.848L451.495 183.783ZM564.432 184.392L563.693 183.483C565.172 182.278 566.668 181.004 568.134 179.704L568.912 180.58C567.433 181.892 565.928 183.175 564.432 184.392ZM461.119 190.55C459.53 189.517 457.889 188.409 456.248 187.251L456.921 186.292C458.551 187.441 460.181 188.543 461.757 189.567L461.119 190.55ZM554.973 191.387L554.322 190.413C555.899 189.362 557.501 188.234 559.09 187.061L559.787 188.002C558.184 189.19 556.564 190.327 554.973 191.387ZM471.282 196.497C469.587 195.618 467.854 194.659 466.126 193.644L466.723 192.634C468.429 193.638 470.145 194.588 471.819 195.458L471.282 196.497ZM544.821 197.352L544.287 196.31C545.979 195.446 547.694 194.502 549.389 193.504L549.983 194.517C548.27 195.523 546.534 196.479 544.821 197.352ZM482.027 201.307C480.228 200.633 478.394 199.882 476.577 199.065L477.058 197.997C478.851 198.801 480.662 199.546 482.437 200.212L482.027 201.307ZM534.002 202.02L533.613 200.915C535.417 200.28 537.237 199.564 539.027 198.792L539.49 199.867C537.676 200.651 535.83 201.375 534.002 202.02ZM493.324 204.642C491.425 204.232 489.504 203.739 487.613 203.178L487.943 202.055C489.813 202.608 491.704 203.092 493.568 203.498L493.324 204.642ZM522.621 205.096L522.402 203.944C524.283 203.59 526.186 203.151 528.065 202.643L528.371 203.775C526.465 204.291 524.53 204.734 522.621 205.096ZM504.993 206.236C503.042 206.126 501.066 205.933 499.127 205.669L499.285 204.508C501.196 204.769 503.14 204.956 505.061 205.066L504.993 206.236ZM510.894 206.337L510.867 205.167C512.793 205.12 514.74 204.995 516.661 204.79L516.783 205.954C514.835 206.162 512.853 206.292 510.894 206.337Z" fill="#CBCBFF"/>
<path d="M14.3259 619.29L20.7192 665.721C169.302 645.208 301.312 610.206 413.107 561.689C514.921 517.506 603.89 460.347 677.551 391.805L677.962 391.418L750.676 464.152V292.743L704.245 293.126C640.085 352.541 493.01 475.925 394.459 518.695C286.574 565.514 158.681 599.359 14.3259 619.29ZM19.7184 667.04L13.0057 618.291L13.5857 618.209C158.073 598.301 286.061 564.46 393.993 517.617C492.483 474.876 639.593 351.422 703.618 292.113L703.782 291.961L704.01 291.958L751.847 291.562V466.982L677.935 393.047C604.262 461.507 515.317 518.611 413.576 562.764C301.537 611.387 169.22 646.444 20.2987 666.961L19.7184 667.04Z" fill="#CBCBFF"/>
<path d="M737.594 252.706H564.23L630.298 318.793C560.793 383.176 477.017 436.849 380.56 478.708C272.58 525.571 144.541 559.427 0 579.34L6.55286 626.932C155.422 606.421 287.687 571.379 399.674 522.779C501.758 478.477 590.528 421.417 664.282 352.784L737.594 426.119V252.706Z" fill="#5D21D1"/>
<path d="M641.364 72.5663L640.464 77.7387L640.199 79.0435C640.033 81.8588 637.272 83.6682 634.225 85.368L629.525 76.61L632.001 68.1573L636.508 66.8427L640.747 71.8359L641.364 72.5663Z" fill="#D28572"/>
<path d="M641.364 72.5664L640.464 77.7388C637.527 75.9793 635.877 73.4295 634.659 69.844L640.746 71.836L641.364 72.5664Z" fill="#1B1B43"/>
<path d="M645.894 61.3779C644.98 65.4019 645.797 71.324 644.11 73.2323C642.574 74.9697 639.705 73.9119 638.022 72.9946C635.733 71.7492 633.912 69.851 632.607 67.6047C629.575 62.3655 633.899 58.8738 633.899 58.8738L639.515 56.4433L645.894 61.3779Z" fill="#D28572"/>
<path d="M637.875 66.5883C638.01 64.3585 636.984 62.3652 638.784 61.1726C646.603 64.2065 646.049 63.2707 650.906 57.8819C650.906 57.8819 648.403 58.186 646.049 56.4393C643.695 54.6927 637.092 49.3782 632.917 57.7299C632.917 57.7299 623.784 60.5645 631.525 69.825C632.41 67.9533 635.589 67.3722 637.875 66.5883Z" fill="#1B1B43"/>
<path d="M638.605 65.6265C638.605 66.8288 637.634 67.8032 636.432 67.8032C635.227 67.8032 634.256 66.8288 634.256 65.6265C634.256 64.4275 635.227 63.4531 636.432 63.4531C637.634 63.4531 638.605 64.4275 638.605 65.6265Z" fill="#D28572"/>
<path d="M691.361 58.9455C692.168 61.9351 692.256 64.9502 691.968 67.9798L693.03 77.3196L684.529 75.192L684.071 68.7399C681.948 66.6123 680.733 61.2986 680.581 61.0695L691.361 58.9455Z" fill="#D28572"/>
<path d="M723.909 56.5283L709.648 58.7668L653.078 67.6213L652.278 63.4466L708.118 50.7732L722.195 47.5781L723.909 56.5283Z" fill="#FE5B52"/>
<path d="M723.909 56.5283L709.648 58.7668L708.118 50.7733L722.195 47.5781L723.909 56.5283Z" fill="#1B1B43"/>
<path d="M684.529 56.5922C684.529 57.2196 683.712 57.7286 682.708 57.7286C681.701 57.7286 680.884 57.2196 680.884 56.5922C680.884 55.9613 681.701 55.4523 682.708 55.4523C683.712 55.4523 684.529 55.9613 684.529 56.5922Z" fill="#D28572"/>
<path d="M687.412 55.5305C687.412 56.1574 686.594 56.6689 685.589 56.6689C684.585 56.6689 683.767 56.1574 683.767 55.5305C683.767 54.9001 684.585 54.3921 685.589 54.3921C686.594 54.3921 687.412 54.9001 687.412 55.5305Z" fill="#D28572"/>
<path d="M690.672 54.9995C690.672 55.6298 689.857 56.1406 688.851 56.1406C687.848 56.1406 687.029 55.6298 687.029 54.9995C687.029 54.3728 687.848 53.862 688.851 53.862C689.857 53.862 690.672 54.3728 690.672 54.9995Z" fill="#D28572"/>
<path d="M685.744 63.8024C685.744 65.249 686.744 66.4617 685.592 66.4617C684.438 66.4617 683.315 65.706 683.315 64.2594C683.315 62.8128 681.819 60.8841 682.862 60.3875C684.452 59.6282 685.744 62.3558 685.744 63.8024Z" fill="#D28572"/>
<path d="M684.426 73.8002L692.525 72.9166L692.877 76.0037L684.426 73.8002Z" fill="#1B1B43"/>
<path d="M695.665 76.7662C695.665 76.7662 695.665 111.387 676.027 108.958C674.753 108.801 673.5 108.618 672.277 108.41C665.681 107.281 659.998 105.495 655.733 103.869C650.452 101.864 647.344 100.103 647.344 100.103L640.2 79.0385C654.447 82.6332 667.43 86.6773 677.097 91.8904L683.459 73.5222L695.665 76.7662Z" fill="#FFB147"/>
<path d="M672.276 108.41C665.68 107.283 659.996 105.497 655.733 103.868L656.136 98.1231C664.21 100.103 669.858 104.742 672.276 108.41Z" fill="#1B1B43"/>
<path d="M677.393 146.259L659.225 136.288L640.198 79.0428C658.284 98.7098 673.396 122.116 677.393 146.259Z" fill="#BF8535"/>
<path d="M682.636 231.444L680.711 252.703H703.67L694.946 242.681L695.331 229.926L682.636 231.444Z" fill="#1B1B43"/>
<path d="M690.816 247.475L689.977 246.597L694.525 242.244L695.364 243.122L690.816 247.475Z" fill="white"/>
<path d="M641.719 139.426L645.211 159.168L677.242 174.35V238.431L700.315 236.103L701.802 178.492C702.009 168.797 697.332 159.648 689.352 154.139L665.397 137.606" fill="#5254CF"/>
<path d="M655.985 156.839C659.211 160.286 661.334 163.803 662.161 167.164L654.823 163.724L655.985 156.839Z" fill="#1B1B43"/>
<path d="M647.017 67.8531C646.856 68.2859 646.075 68.9302 645.018 68.8027C644.2 68.702 643.354 67.2893 643.354 66.2592C643.354 65.229 644.022 64.3901 644.85 64.3901C646.081 64.3901 647.168 67.447 647.017 67.8531Z" fill="#D28572"/>
<path d="M622.768 233.318L617.955 252.755H642.142L634.039 243.188L635.052 233.471L622.768 233.318Z" fill="#1B1B43"/>
<path d="M630.275 248.155L629.384 247.33L633.594 242.775L634.486 243.598L630.275 248.155Z" fill="white"/>
<path d="M657.961 138.059C655.364 170.443 647.065 204.873 639.29 240.253L617.126 239.949C625.535 202.372 629.031 167.733 628.36 137.908L657.961 138.059Z" fill="#5254CF"/>
<path d="M640.2 79.0409C638.172 81.7559 634.355 80.3516 629.523 76.6102L637.77 143.83C646.994 143.081 656.201 140.838 665.397 137.606L640.2 79.0409Z" fill="white"/>
<path d="M647.09 153.297L621.377 164.63C618.95 134.869 614.094 115.43 611.965 91.7425C611.119 82.2667 629.527 76.6067 629.527 76.6067C636.73 85.3771 641.479 96.079 644.269 108.313C645.253 112.626 645.995 117.133 646.519 121.823C647.611 131.614 647.731 142.158 647.09 153.297Z" fill="#FFB147"/>
<path d="M640.2 79.0424C657.417 101.745 671.188 124.234 677.393 146.258C678.304 122.723 661.647 96.2366 640.2 79.0424Z" fill="#FFB147"/>
<path d="M657.455 73.4293L659.354 68.4807C659.354 68.4807 657.652 62.6687 659.266 61.9458C660.88 61.2263 666.406 60.212 667.802 60.1067C669.195 60.0014 671.167 57.7868 671.718 58.0781C672.276 58.3694 671.718 62.4827 669.132 62.7425C669.132 62.7425 668.62 71.0603 666.122 70.6462L664.157 78.2656L657.455 73.4293Z" fill="#D28572"/>
<path d="M646.519 121.82C638.092 121.505 627.622 115.771 621.986 108.142L644.271 108.313C645.253 112.627 645.996 117.131 646.519 121.82Z" fill="#1B1B43"/>
<path d="M621.375 90.3799L640.659 96.9093L656.597 72.4615L667.221 79.2935C667.221 79.2935 657.202 119.381 639.289 115.586C623.031 112.139 619.254 106.625 619.254 106.625L621.375 90.3799Z" fill="#FFB147"/>
<path d="M640.76 97.1956L621.302 90.6052L621.459 90.1476L640.558 96.6151L656.394 72.3264L656.801 72.5928L640.76 97.1956Z" fill="#1B1B43"/>
<path d="M657.562 73.0675L665.02 74.9491L664.393 77.4544L657.562 73.0675Z" fill="#1B1B43"/>
<path d="M496.312 430.129L498.113 447.696L524.697 442.271L510.852 435.167L506.559 426.772L496.312 430.129Z" fill="#1B1B43"/>
<path d="M509.845 439.309L508.811 438.908L510.334 434.968L511.367 435.367L509.845 439.309Z" fill="white"/>
<path d="M511.765 429.262L492.845 434.637C488.979 406.671 487.184 377.718 483.418 352.043C482.953 348.83 482.455 345.672 481.913 342.57L481.237 340.81L477.491 331.026L484.115 328.553L499.492 322.836C500.066 325.185 500.623 327.669 501.153 330.282C506.272 355.556 509.039 392.265 511.765 429.262Z" fill="#FE5B52"/>
<path d="M506.28 426.781C505.264 398.449 503.402 362.545 497.978 336.164L498.523 336.052C503.952 362.474 505.818 398.408 506.837 426.76L506.28 426.781Z" fill="#BE443D"/>
<path d="M459.481 436.893L458.65 448.249L452.005 468.886L470.56 455.59L471.667 433.846L459.481 436.893Z" fill="#1B1B43"/>
<path d="M462.75 452.016L458.319 448.692L458.984 447.804L463.414 451.129L462.75 452.016Z" fill="white"/>
<path d="M484.127 327.889C484.127 328.111 484.127 328.334 484.115 328.554C484.106 332.3 484.039 336 483.928 339.655C483.817 343.833 483.641 347.957 483.418 352.043C481.814 382.481 477.658 410.693 473.88 440.077L455.282 441.861C458.351 406.238 460.5 375.147 460.079 347.934C459.991 342.383 459.792 336.999 459.481 331.767L484.127 327.889Z" fill="#FE5B52"/>
<path d="M482.78 364.929L482.338 364.903L483.629 344.773L484.072 344.802L482.78 364.929Z" fill="#1B1B43"/>
<path d="M460.864 434.37L460.313 434.332C462.304 405.544 464.562 372.914 463.634 342.763L464.19 342.746C465.116 372.926 462.858 405.57 460.864 434.37Z" fill="#BE443D"/>
<path d="M501.153 330.282C496.145 333.706 490.397 336.832 483.928 339.655C483.04 340.057 482.144 340.432 481.236 340.81C474.835 343.446 467.777 345.827 460.079 347.934C459.991 342.383 459.792 336.999 459.481 331.767L484.127 327.889C484.127 328.111 484.127 328.334 484.115 328.553L499.492 322.836C500.066 325.185 500.623 327.669 501.153 330.282Z" fill="#BE443D"/>
<path d="M402.813 256.347L399.741 250.023C399.519 249.569 399.352 249.094 399.246 248.599C398.913 247.067 398.025 243.572 396.93 244.12C396.154 244.507 396.798 250.137 396.798 250.137C396.798 250.137 393.049 240.046 391.82 240.626C390.592 241.209 393.955 250.653 393.955 250.653C393.955 250.653 387.746 253.306 390.268 257.445C392.79 261.585 397.899 263.008 397.899 263.008L402.813 256.347Z" fill="#FFBC96"/>
<path d="M393.346 253.746C393.981 254.513 394.872 255.571 395.914 255.773C396.374 255.861 396.679 255.594 396.664 255.128C396.649 254.54 396.298 253.922 396.031 253.412C395.774 252.914 395.495 252.398 395.156 251.947C394.945 251.666 394.465 251.941 394.678 252.228C395.188 252.905 395.63 253.722 395.938 254.513C396.005 254.692 396.099 254.9 396.107 255.093C396.113 255.304 396.16 255.243 395.979 255.216C395.103 255.096 394.26 253.983 393.738 253.356C393.51 253.081 393.12 253.473 393.346 253.746Z" fill="#D28572"/>
<path d="M391.961 255.269C392.595 256.036 393.487 257.097 394.529 257.296C394.989 257.384 395.293 257.117 395.282 256.655C395.264 256.063 394.913 255.445 394.646 254.935C394.388 254.437 394.11 253.922 393.774 253.47C393.56 253.189 393.08 253.465 393.293 253.752C393.803 254.428 394.248 255.246 394.552 256.037C394.62 256.215 394.714 256.423 394.722 256.616C394.731 256.827 394.775 256.766 394.593 256.74C393.718 256.619 392.874 255.509 392.352 254.879C392.125 254.604 391.735 254.997 391.961 255.269Z" fill="#D28572"/>
<path d="M390.425 256.435C390.997 257.106 391.78 257.999 392.698 258.181C393.127 258.266 393.422 258.02 393.404 257.58C393.384 257.059 393.068 256.514 392.827 256.066C392.602 255.647 392.364 255.219 392.073 254.841C391.859 254.563 391.377 254.838 391.595 255.123C392.04 255.697 392.429 256.394 392.698 257.071C392.761 257.229 392.823 257.393 392.85 257.56C392.874 257.712 392.93 257.665 392.773 257.63C391.986 257.448 391.315 256.628 390.817 256.042C390.586 255.77 390.196 256.162 390.425 256.435Z" fill="#D28572"/>
<path d="M494.652 331.723L466.492 338.991C462.184 340.11 457.885 337.186 457.332 332.775L454.108 307.102L453.267 300.4L453.024 298.438L466.87 274.614L476.328 270.727L498.992 280.522L502.06 321.362C502.415 326.16 499.302 330.516 494.652 331.723Z" fill="#5254CF"/>
<path d="M458.562 300.465C457.587 303.379 456.046 305.518 454.108 307.103L453.267 300.4L458.562 300.465Z" fill="#1B1B43"/>
<path d="M465.019 298.988C444.341 310.439 416.096 292.896 394.125 263.717L403.911 254.297C427.898 279.919 446.742 290.956 470.744 271.286L465.019 298.988Z" fill="#5254CF"/>
<path d="M519.473 307.422C531.014 304.996 513.031 286.155 502.605 276.269C498.532 272.405 493.088 270.325 487.474 270.46L476.334 270.727L511.601 305.532L519.473 307.422Z" fill="#5254CF"/>
<path d="M508.512 305.524C507.961 306.666 508.058 307.715 508.939 308.676C510.041 309.877 511.511 311.332 513.265 311.247C514.72 311.174 515.83 312.75 517.306 311.904C518.515 311.212 519.098 309.63 519.526 308.383C520.319 306.063 519.944 303.661 517.886 302.14C516.006 300.752 513.402 299.656 511.197 300.986C510.404 301.467 509.786 302.196 509.361 303.013C509.089 303.541 509.018 304.123 508.857 304.686C508.772 304.985 508.641 305.257 508.512 305.524Z" fill="#FFBC96"/>
<path d="M475.251 283.276C473.058 283.276 470.609 282.734 467.892 281.65L468.056 281.24C475.365 284.151 480.654 283.059 484.224 277.9L484.587 278.152C482.221 281.574 479.134 283.276 475.251 283.276Z" fill="#1B1B43"/>
<path d="M499.636 288.923L500.005 294.094L502.406 296.586C502.96 294.556 501.39 291.141 499.636 288.923Z" fill="#1B1B43"/>
<path d="M489.843 291.85C489.378 291.85 488.938 292.078 488.739 292.427C488.282 293.221 488.722 294.272 489.389 294.794C489.468 294.855 489.553 294.914 489.641 294.969C489.875 294.706 490.095 294.427 490.297 294.137C490.649 293.631 491.009 292.91 490.742 292.339C490.546 291.923 490.089 291.858 489.902 291.85H489.843ZM479.764 294.038C479.421 294.038 479.061 294.187 478.829 294.468C478.472 294.899 478.399 295.596 478.645 296.2C478.824 296.63 479.111 296.964 479.444 297.222L479.503 297.169C479.939 296.78 480.425 296.314 480.645 295.728C480.827 295.239 480.786 294.565 480.349 294.225C480.185 294.096 479.98 294.038 479.764 294.038ZM468.419 296.677C468.308 296.677 468.188 296.695 468.067 296.73C467.675 296.844 467.338 297.128 467.189 297.477C466.908 298.127 467.124 298.997 467.713 299.592C467.892 299.773 468.103 299.934 468.346 300.075C468.477 299.937 468.603 299.794 468.726 299.642C469.154 299.111 469.394 298.631 469.458 298.174C469.526 297.72 469.397 297.131 468.964 296.838C468.805 296.73 468.621 296.677 468.419 296.677ZM458.641 303.669C457.973 303.669 457.308 303.655 456.65 303.643L456.661 303.089C458.822 303.13 461.063 303.18 463.209 302.726C464.606 302.433 466.46 301.806 467.936 300.473C467.704 300.33 467.499 300.166 467.318 299.981C466.562 299.217 466.307 298.124 466.679 297.257C466.896 296.756 467.356 296.358 467.912 296.197C468.401 296.056 468.896 296.124 469.274 296.378C469.827 296.756 470.117 297.491 470.009 298.25C469.927 298.81 469.649 299.378 469.157 299.99C469.063 300.104 468.966 300.219 468.87 300.327C469.183 300.45 469.535 300.547 469.921 300.617C472.785 301.141 476.071 300.037 479.02 297.585C478.622 297.257 478.32 296.859 478.132 296.411C477.804 295.608 477.91 294.709 478.405 294.114C478.97 293.429 480.039 293.279 480.689 293.789C481.365 294.316 481.409 295.265 481.16 295.924C480.912 296.595 480.402 297.105 479.93 297.53C480.745 297.954 481.664 298.063 482.045 298.089C484.689 298.277 487.375 297.24 489.252 295.377C489.181 295.33 489.114 295.283 489.05 295.23C488.18 294.553 487.647 293.218 488.259 292.151C488.572 291.604 489.225 291.261 489.925 291.296C490.526 291.322 491.02 291.624 491.243 292.105C491.545 292.746 491.375 293.557 490.751 294.454C490.567 294.72 490.367 294.975 490.157 295.221C490.692 295.429 491.331 295.514 492.127 295.514C495.132 295.473 498.131 293.965 499.952 291.577L500.394 291.914C498.47 294.433 495.305 296.027 492.133 296.068C491.176 296.071 490.4 295.945 489.758 295.655C487.761 297.697 484.865 298.854 482.007 298.64C481.023 298.572 480.165 298.318 479.491 297.916C476.387 300.541 472.885 301.721 469.822 301.162C469.309 301.068 468.852 300.93 468.451 300.752C466.864 302.257 464.837 302.949 463.323 303.268C461.777 303.596 460.202 303.669 458.641 303.669Z" fill="#1B1B43"/>
<path d="M478.765 255.418C478.765 260.58 473.623 269.136 468.463 269.136C463.303 269.136 460.05 264.288 460.858 259.191C461.637 254.279 465.171 250.743 469.781 250.324C473.617 249.976 478.765 251.464 478.765 255.418Z" fill="#1B1B43"/>
<path d="M479.474 273.463C479.474 275.402 478.247 277.209 476.308 277.874C473.892 278.703 471.257 277.429 470.405 275.015C469.119 271.392 467.511 266.793 467.511 266.626L472.287 266.438L477.292 266.251L478.988 271.269L479.222 271.957C479.386 272.455 479.474 272.965 479.474 273.463Z" fill="#FFBC96"/>
<path d="M478.988 271.269C476.563 271.269 473.207 270.328 469.64 268.334L472.287 266.438L477.292 266.251L478.988 271.269Z" fill="#1B1B43"/>
<path d="M476.557 253.652C481.082 260.577 487.451 271.195 469.634 268.333L466.612 265.354L466.82 255.591L476.557 253.652Z" fill="#FFBC96"/>
<path d="M468.823 263.685C467.857 261.804 467.819 259.742 468.343 257.574C472.317 257.727 475.951 256.915 478.106 254.519L475.769 252.542L467.924 253.081L464.091 257.334L463.195 263.026L468.823 263.685Z" fill="#1B1B43"/>
<path d="M463.104 263.975C462.495 267.399 459.227 269.675 455.806 269.066C452.386 268.457 450.107 265.187 450.717 261.763C451.329 258.342 454.597 256.063 458.017 256.675C461.438 257.284 463.716 260.553 463.104 263.975Z" fill="#1B1B43"/>
<path d="M470.144 264.593C470.144 266.084 468.934 267.294 467.444 267.294C465.95 267.294 464.744 266.084 464.744 264.593C464.744 263.102 465.95 261.892 467.444 261.892C468.934 261.892 470.144 263.102 470.144 264.593Z" fill="#FFBC96"/>
<path d="M353.213 481.418L352.23 498.358L378.276 497.285L366.231 488.424L363.446 479.804L353.213 481.418Z" fill="#1B1B43"/>
<path d="M361.5 492.792L360.845 491.951L365.904 488.006L366.559 488.846L361.5 492.792Z" fill="white"/>
<path d="M368.845 485.229L369.706 433.541C369.826 426.335 365.143 419.923 358.239 417.849L321.219 406.718L306.719 406.185L311.375 433.864L345.83 441.316L349.289 485.229H368.845Z" fill="#FFB147"/>
<path d="M315.414 428.743C318.326 429.493 321.353 432.276 322.117 436.193L316.729 434.997L315.414 428.743Z" fill="#BF8535"/>
<path d="M314.833 503.595L317.361 510.514L317.095 521.557L335.054 515.705L327.339 508.384L324.944 499.204L314.833 503.595Z" fill="#1B1B43"/>
<path d="M318.159 511.208L317.894 510.177L326.186 508.048L326.451 509.079L318.159 511.208Z" fill="white"/>
<path d="M329.866 501.064L311.774 506.92C299.875 484.725 292.458 456.674 284.891 417.732C284.146 413.857 283.39 409.876 282.634 405.787L297.172 402.348L309.645 399.401L310.742 404.934L312.891 415.729L329.866 501.064Z" fill="#FFB147"/>
<path d="M314.647 503.698C305.354 486.898 297.217 461.215 289.039 422.864L289.456 422.777C297.624 461.08 305.747 486.728 315.02 503.49L314.647 503.698Z" fill="#1B1B43"/>
<path d="M312.891 415.729L311.741 409.955C314.414 410.166 316.958 410.289 319.351 410.312C322.168 410.14 324.115 409.416 325.285 408.028C323.457 411.578 318.89 414.103 312.891 415.729Z" fill="#E59F40"/>
<path d="M292.874 418.025C290.214 418.025 287.534 417.926 284.891 417.732C284.413 415.248 283.932 412.723 283.448 410.151L287.945 415.017L295.623 407.995C301.352 408.88 306.771 409.566 311.741 409.955L312.891 415.729C307.139 417.293 300.081 418.025 292.874 418.025Z" fill="#E59F40"/>
<path d="M354.012 357.881L351.95 353.157C351.95 353.157 352.556 345.338 346.884 345.321C346.348 345.318 345.82 345.461 345.353 345.725C344.436 346.241 342.829 347.301 342.075 348.725C341.465 349.879 341.715 351.299 342.628 352.231L345.431 355.087L346.141 358.435L354.012 357.881Z" fill="#D28572"/>
<path d="M315.321 349.896L321.297 351.326C328.07 352.949 334.413 357.146 339.444 361.962L348.313 370.656L348.668 390.174L325.786 370.302L315.321 349.896Z" fill="#CBCBFF"/>
<path d="M355.515 391.521C355.429 391.553 355.344 391.565 355.259 391.586L354.163 391.808C353.854 391.873 353.556 391.905 353.248 391.917C350.172 392.107 347.341 389.989 346.713 386.881L344.947 357.167L355.227 355.57L359.176 378.257L359.537 380.375L360.197 384.145C360.868 387.476 358.792 390.724 355.515 391.521Z" fill="#CBCBFF"/>
<path d="M331.717 369.203L331.096 374.915L334.999 378.252C335.176 375.237 333.984 371.892 331.717 369.203Z" fill="#1B1B43"/>
<path d="M353.248 391.917C352.481 390.563 352.056 389.011 352.056 387.359C352.056 382.962 355.089 379.268 359.176 378.257L359.537 380.375C356.451 381.195 354.184 384.016 354.184 387.359C354.184 388.902 354.674 390.349 355.515 391.521C355.43 391.553 355.344 391.565 355.259 391.586L354.163 391.808C353.855 391.873 353.556 391.905 353.248 391.917Z" fill="#8284E2"/>
<path d="M333.059 362.267L329.792 383.718L329.462 385.838L327.291 400.06L326.971 402.19L326.535 405.052C326.024 408.426 323.747 410.046 319.351 410.312C309.262 410.216 296.491 408.321 282.634 405.787L283.795 400.828L284.274 398.739L287.562 384.676L288.041 382.578L293.681 358.415L309.56 349.451L315.318 349.896L333.059 362.267Z" fill="#CBCBFF"/>
<path d="M314.405 360.855C314.054 360.855 313.703 360.837 313.35 360.802C310.045 360.462 307.293 358.614 305.602 355.591L305.973 355.383C307.595 358.28 310.23 360.052 313.393 360.377C316.373 360.679 319.315 359.621 321.058 357.609L321.38 357.887C319.755 359.765 317.15 360.855 314.405 360.855Z" fill="#1B1B43"/>
<path d="M289.602 375.624L292.617 371.189C293.947 375.378 292.693 378.249 288.715 379.728L289.602 375.624Z" fill="#1B1B43"/>
<path d="M326.972 402.19C322.885 401.176 319.841 397.473 319.841 393.077C319.841 387.904 324.055 383.697 329.228 383.697C329.419 383.697 329.611 383.709 329.792 383.718L329.462 385.838C329.387 385.827 329.302 385.827 329.228 385.827C325.226 385.827 321.969 389.084 321.969 393.077C321.969 396.407 324.226 399.219 327.291 400.06L326.972 402.19Z" fill="#8284E2"/>
<path d="M291.463 399.779L290.164 398.08C292.295 396.814 293.724 394.491 293.724 391.84C293.724 388.211 291.052 385.188 287.562 384.675L288.041 382.578C292.468 383.337 295.852 387.201 295.852 391.84C295.852 395.177 294.099 398.115 291.463 399.779Z" fill="#8284E2"/>
<path d="M292.165 405.995L295.645 409.797C295.645 409.797 303.036 412.413 300.752 417.606C300.536 418.098 300.191 418.523 299.761 418.842C298.917 419.472 297.297 420.509 295.689 420.623C294.39 420.714 293.191 419.906 292.712 418.696L291.238 414.973L288.465 412.966L292.165 405.995Z" fill="#D28572"/>
<path d="M281.262 386.445L296.874 406.853L287.945 415.017L271.651 397.388C270.842 396.504 270.151 395.558 269.587 394.544C269.235 393.917 268.938 393.267 268.693 392.608C267.15 388.583 267.394 384.005 269.544 380.109C269.671 379.866 269.81 379.631 269.959 379.397L270.64 378.298L278.484 365.726C282.741 358.915 289.467 354.006 297.247 352.026L310.177 348.748L281.262 386.445Z" fill="#CBCBFF"/>
<path d="M296.802 406.906L281.193 386.503L281.338 386.392L296.946 406.797L296.802 406.906Z" fill="#1B1B43"/>
<path d="M269.586 394.544C269.235 393.917 268.937 393.267 268.693 392.608C271.087 391.428 272.726 388.967 272.726 386.114C272.726 383.612 271.459 381.418 269.544 380.109C269.671 379.866 269.81 379.631 269.959 379.397L270.64 378.299C273.184 379.971 274.855 382.845 274.855 386.114C274.855 389.819 272.705 393.024 269.586 394.544Z" fill="#8284E2"/>
<path d="M320.309 345.532L320.224 345.851L318.809 350.886L318.426 352.251C317.553 355.327 314.179 357.583 311.231 355.392C309.028 353.751 307.57 350.409 308.411 347.811C308.432 347.746 311.071 339.538 311.071 339.538L320.309 345.532Z" fill="#D28572"/>
<path d="M320.224 345.851L318.808 350.886C315.807 349.366 313.86 346.319 312.37 342.573L320.224 345.851Z" fill="#1B1B43"/>
<path d="M324.212 335.593C324.877 340.317 326.141 345.907 320.288 347.102C316.449 347.89 309.823 342.57 309.823 337.743C309.823 332.918 314.774 329.312 318.691 329.403C324.345 329.538 323.238 328.674 324.212 335.593Z" fill="#D28572"/>
<path d="M311.064 338.144C310.919 336.263 311.059 334.544 312.306 333.443C316.336 334.008 320.72 333.665 325.166 332.599C325.26 332.575 325.071 331.389 325.057 331.307C324.882 330.32 324.514 329.362 323.949 328.53C321.786 325.346 317.508 325.027 314.018 325.425C311.57 325.703 309.371 327.177 308.214 329.359C306.871 331.89 307.333 334.67 308.261 337.259C308.381 337.593 308.508 337.924 308.641 338.252C308.68 338.349 308.719 338.446 308.758 338.542L311.064 338.144Z" fill="#1B1B43"/>
<path d="M312.838 339.286C312.838 340.625 311.751 341.715 310.41 341.715C309.069 341.715 307.982 340.625 307.982 339.286C307.982 337.945 309.069 336.855 310.41 336.855C311.751 336.855 312.838 337.945 312.838 339.286Z" fill="#D28572"/>
</svg>
