<svg width="441" height="445" viewBox="0 0 441 445" fill="none" xmlns="http://www.w3.org/2000/svg">
<path d="M376.261 278.761C357.997 276.338 340.067 271.85 322.816 265.383C303.91 258.243 282.413 262.849 267.996 277.172L249.206 296.056C207.176 270.336 171.924 234.917 146.402 192.767L165.22 173.858C179.435 159.411 184.023 137.787 176.919 118.794C170.467 101.407 165.994 83.3484 163.586 64.9597C159.974 39.2793 137.918 20.0628 112.283 20.0628L111.775 20.0658H51.8694C50.3319 20.0658 48.7763 20.1383 47.251 20.2772C33.4412 21.5308 20.9393 28.1155 12.0529 38.8202C3.16353 49.5309 -1.04706 63.0779 0.221552 77.1626C6.9422 140.747 28.7805 202.725 63.3231 256.303C94.7093 305.942 137.407 348.849 186.705 380.326C239.857 414.965 301.24 436.909 364.444 443.808C366 443.947 367.574 444.016 369.135 444.016H369.317C397.945 443.899 421.146 420.387 421.031 391.65V331.605C421.608 305.169 402.427 282.47 376.261 278.761ZM397.036 331.466V391.698C397.096 407.16 384.618 419.789 369.229 419.852C368.421 419.87 367.613 419.84 366.809 419.762C307.538 413.289 249.771 392.637 199.657 359.98C153.22 330.33 113.077 289.991 83.5153 243.237C50.9602 192.743 30.4116 134.432 24.1078 74.7945C23.7685 71.1306 24.156 67.4357 25.2482 63.9219C26.3403 60.4081 28.1155 57.1445 30.472 54.3184C32.8099 51.4827 35.6886 49.1405 38.9406 47.4281C42.1925 45.7158 45.7527 44.6677 49.4137 44.3447C50.2413 44.2692 51.0719 44.2299 51.8875 44.2299H112.171C126.023 44.2299 137.882 54.551 139.806 68.237C142.458 88.4064 147.37 108.214 154.449 127.285C158.267 137.491 155.802 149.099 148.218 156.805L122.864 182.283C120.999 184.161 119.8 186.598 119.449 189.221C119.097 191.844 119.612 194.511 120.915 196.814C150.354 248.868 193.291 292.016 245.2 321.71C247.482 323.015 250.13 323.53 252.734 323.176C255.338 322.822 257.752 321.619 259.602 319.752L284.905 294.323C288.703 290.557 293.503 287.962 298.733 286.844C303.963 285.727 309.404 286.134 314.41 288.019C333.329 295.113 352.993 300.04 373.023 302.704C387.065 304.695 397.389 316.931 397.039 331.167L397.036 331.466ZM267.993 104.19C261.49 102.916 257.24 96.5724 258.509 90.0209C259.771 83.4725 266.063 79.1864 272.581 80.4701C317.484 89.2749 352.16 124.126 360.922 169.255C362.194 175.804 357.95 182.15 351.447 183.43C350.685 183.581 349.91 183.657 349.133 183.657C346.344 183.646 343.645 182.666 341.498 180.884C339.352 179.102 337.892 176.629 337.368 173.889C330.488 138.464 303.258 111.104 267.993 104.19ZM430.34 183.382C428.769 183.554 427.18 183.414 425.663 182.971C424.146 182.529 422.731 181.791 421.5 180.802C420.268 179.812 419.243 178.59 418.483 177.204C417.724 175.818 417.245 174.297 417.074 172.726C408.263 93.9627 347.36 32.8456 268.966 24.0921C262.378 23.3551 257.63 17.3836 258.361 10.7536C259.092 4.1205 265.027 -0.667018 271.609 0.0760292C361.228 10.08 430.853 79.9657 440.924 170.019C441.664 176.652 436.925 182.633 430.34 183.382Z" fill="#5D21D1"/>
</svg>
