<svg width="650" height="517" viewBox="0 0 650 517" fill="none" xmlns="http://www.w3.org/2000/svg">
<g clip-path="url(#clip0_82_2653)">
<path d="M484.634 510.031C475.641 502.432 470.179 490.428 471.611 478.743C473.044 467.057 481.916 456.315 493.425 453.833C504.933 451.352 518.052 458.221 521.548 469.463C523.472 447.788 525.688 425.206 537.212 406.748C547.646 390.035 565.719 378.076 585.305 375.936C604.891 373.797 625.513 381.877 637.729 397.337C649.944 412.796 652.935 435.271 644.38 453.019C638.077 466.094 626.466 475.824 614.3 483.74C574.989 509.105 527.84 519.42 481.528 512.787" fill="#F2F2F2"/>
<path d="M618.36 382.325C602.199 395.489 587.373 410.211 574.096 426.279C553.318 451.34 536.504 479.438 524.24 509.593C523.342 511.793 526.915 512.751 527.803 510.575C547.868 461.566 579.901 418.37 620.972 384.937C622.817 383.436 620.189 380.836 618.36 382.325Z" fill="white"/>
<path d="M158.838 515.232H107.838C106.115 515.23 104.462 514.544 103.244 513.326C102.025 512.107 101.34 510.455 101.338 508.732V402.732C101.34 401.008 102.025 399.356 103.244 398.138C104.462 396.919 106.115 396.234 107.838 396.232H158.838C160.561 396.234 162.213 396.919 163.432 398.138C164.65 399.356 165.336 401.008 165.338 402.732V508.732C165.336 510.455 164.65 512.107 163.432 513.326C162.213 514.544 160.561 515.23 158.838 515.232Z" fill="#F8B000"/>
<path d="M279.838 516.232H228.838C226.849 516.229 224.943 515.439 223.537 514.033C222.131 512.627 221.34 510.72 221.338 508.732V302.732C221.34 300.743 222.131 298.837 223.537 297.431C224.943 296.025 226.849 295.234 228.838 295.232H279.838C281.826 295.234 283.733 296.025 285.139 297.431C286.545 298.837 287.336 300.743 287.338 302.732V508.732C287.336 510.72 286.545 512.627 285.139 514.033C283.733 515.439 281.826 516.229 279.838 516.232ZM228.838 297.232C227.38 297.233 225.982 297.813 224.951 298.844C223.92 299.876 223.34 301.274 223.338 302.732V508.732C223.34 510.19 223.92 511.588 224.951 512.619C225.982 513.65 227.38 514.23 228.838 514.232H279.838C281.296 514.23 282.694 513.65 283.725 512.619C284.756 511.588 285.336 510.19 285.338 508.732V302.732C285.336 301.274 284.756 299.876 283.725 298.844C282.694 297.813 281.296 297.233 279.838 297.232H228.838Z" fill="#3F3D56"/>
<path d="M400.838 516.232H349.838C347.849 516.229 345.943 515.439 344.537 514.033C343.131 512.627 342.34 510.72 342.338 508.732V171.732C342.34 169.743 343.131 167.837 344.537 166.431C345.943 165.025 347.849 164.234 349.838 164.232H400.838C402.826 164.234 404.733 165.025 406.139 166.431C407.545 167.837 408.336 169.743 408.338 171.732V508.732C408.336 510.72 407.545 512.627 406.139 514.033C404.733 515.439 402.826 516.229 400.838 516.232ZM349.838 166.232C348.38 166.233 346.982 166.813 345.951 167.844C344.92 168.876 344.34 170.274 344.338 171.732V508.732C344.34 510.19 344.92 511.588 345.951 512.619C346.982 513.65 348.38 514.23 349.838 514.232H400.838C402.296 514.23 403.694 513.65 404.725 512.619C405.756 511.588 406.336 510.19 406.338 508.732V171.732C406.336 170.274 405.756 168.876 404.725 167.844C403.694 166.813 402.296 166.233 400.838 166.232H349.838Z" fill="#3F3D56"/>
<path d="M522.967 515.732H471.967C470.244 515.73 468.592 515.044 467.373 513.826C466.155 512.607 465.469 510.955 465.467 509.232V34.2316C465.469 32.5083 466.155 30.8561 467.373 29.6376C468.592 28.419 470.244 27.7336 471.967 27.7316H522.967C524.691 27.7336 526.343 28.419 527.561 29.6376C528.78 30.8561 529.465 32.5083 529.467 34.2316V509.232C529.465 510.955 528.78 512.607 527.561 513.826C526.343 515.044 524.691 515.73 522.967 515.732Z" fill="#F8B000"/>
<path d="M205.779 222.358C205.965 220.9 205.828 219.419 205.378 218.019C204.929 216.619 204.178 215.335 203.179 214.257C202.179 213.179 200.956 212.333 199.594 211.779C198.232 211.224 196.766 210.976 195.298 211.05L177.521 178.44L173.521 192.44L185.7 222.326C185.988 224.784 187.167 227.052 189.015 228.699C190.863 230.345 193.25 231.257 195.725 231.261C198.201 231.265 200.591 230.361 202.444 228.72C204.297 227.079 205.484 224.816 205.779 222.358Z" fill="#A0616A"/>
<path d="M68.8159 351.113L78.7169 358.342L111.312 323.589L96.6979 312.92L68.8159 351.113Z" fill="#A0616A"/>
<path d="M91.101 381.478L59.9811 358.758L68.759 346.735L87.8554 360.676C91.0442 363.004 93.1777 366.504 93.7863 370.405C94.395 374.306 93.4291 378.289 91.101 381.478Z" fill="#2F2E41"/>
<path d="M121.201 389.377L133.461 389.376L139.293 342.088L121.199 342.089L121.201 389.377Z" fill="#A0616A"/>
<path d="M157.105 400.759L118.575 400.761L118.574 385.874L142.218 385.873C146.166 385.873 149.953 387.441 152.745 390.233C155.537 393.025 157.105 396.811 157.105 400.759Z" fill="#2F2E41"/>
<path d="M158.021 204.94C158.021 204.94 164.021 262.94 149.021 302.94L138.021 378.941H119.021L121.021 288.94L114.021 208.94C114.021 208.94 128.021 172.94 158.021 204.94Z" fill="#2F2E41"/>
<path d="M93.021 208.94L113.021 277.94L74.021 339.94L93.521 356.44L138.021 286.94L125.021 201.94L93.021 208.94Z" fill="#2F2E41"/>
<path d="M144.025 54.2141C157.59 54.2141 168.586 43.2178 168.586 29.6531C168.586 16.0884 157.59 5.09204 144.025 5.09204C130.46 5.09204 119.464 16.0884 119.464 29.6531C119.464 43.2178 130.46 54.2141 144.025 54.2141Z" fill="#A0616A"/>
<path d="M123.521 63.4406C123.521 63.4406 138.521 53.4405 155.521 75.4405L160.021 213.941C160.021 213.941 147.021 195.941 120.021 212.941C93.0209 229.941 87.0209 210.941 87.0209 210.941C87.0209 210.941 68.0209 67.9406 123.521 63.4406Z" fill="#CCCCCC"/>
<path d="M154.311 75.0913C158.625 75.3245 162.701 77.1448 165.754 80.2019C168.806 83.2591 170.621 87.3372 170.848 91.6516L174.021 151.94L195.021 208.941L183.021 218.941L144.021 150.94L136.036 95.0474C135.67 92.4856 135.877 89.8745 136.641 87.402C137.405 84.9296 138.708 82.6574 140.456 80.7489C142.204 78.8405 144.353 77.3432 146.748 76.3649C149.144 75.3866 151.727 74.9516 154.311 75.0913Z" fill="#CCCCCC"/>
<path d="M125.978 48.0764C129.993 52.3535 137.45 50.0575 137.973 44.2143C138.014 43.7607 138.011 43.3041 137.964 42.851C137.694 40.2628 136.199 37.913 136.557 35.1801C136.638 34.5 136.892 33.8518 137.293 33.297C140.493 29.0124 148.004 35.2134 151.024 31.3347C152.875 28.9563 150.699 25.2117 152.12 22.5535C153.995 19.0451 159.55 20.7758 163.033 18.8544C166.909 16.7167 166.677 10.7702 164.126 7.15322C161.014 2.74223 155.559 0.388471 150.172 0.0492209C144.785 -0.290029 139.435 1.16631 134.405 3.12637C128.69 5.35337 123.024 8.43118 119.507 13.456C115.23 19.5667 114.819 27.782 116.958 34.9273C118.259 39.2739 122.699 44.5837 125.978 48.0764Z" fill="#2F2E41"/>
<path d="M648.485 515.807H1.19064C0.875452 515.806 0.573473 515.68 0.350922 515.457C0.12837 515.234 0.00341797 514.932 0.00341797 514.617C0.00341797 514.301 0.12837 513.999 0.350922 513.776C0.573473 513.553 0.875452 513.427 1.19064 513.426H648.485C648.8 513.427 649.102 513.553 649.324 513.776C649.547 513.999 649.672 514.301 649.672 514.617C649.672 514.932 649.547 515.234 649.324 515.457C649.102 515.68 648.8 515.806 648.485 515.807Z" fill="#3F3D56"/>
</g>
<rect x="0.5" y="0.5" width="648.675" height="515.232" stroke="#1E1E1E"/>
<defs>
<clipPath id="clip0_82_2653">
<rect width="649.675" height="516.232" fill="white"/>
</clipPath>
</defs>
</svg>
