<svg width="160" height="168" viewBox="0 0 160 168" fill="none" xmlns="http://www.w3.org/2000/svg">
<g clip-path="url(#clip0_17_183)">
<g clip-path="url(#clip1_17_183)">
<g clip-path="url(#clip2_17_183)">
<path d="M0 0H160V160H0V0Z" fill="white"/>
<mask id="mask0_17_183" style="mask-type:luminance" maskUnits="userSpaceOnUse" x="0" y="40" width="160" height="80">
<path d="M0 40.201H160V119.798H0V40.201Z" fill="white"/>
</mask>
<g mask="url(#mask0_17_183)">
<path d="M115.389 40.356H44.883C44.0948 40.356 43.3388 40.6691 42.7815 41.2264C42.2241 41.7838 41.911 42.5397 41.911 43.328V116.449C41.911 117.237 42.2241 117.993 42.7815 118.55C43.3388 119.108 44.0948 119.421 44.883 119.421H115.389C116.177 119.421 116.933 119.108 117.491 118.55C118.048 117.993 118.361 117.237 118.361 116.449V43.328C118.361 42.5397 118.048 41.7838 117.491 41.2264C116.933 40.6691 116.177 40.356 115.389 40.356Z" fill="#FEBA91"/>
<path d="M45.541 116.378V43.485C45.541 41.957 46.731 40.716 48.198 40.716M71.314 40.506V107.979" stroke="white" stroke-width="0.609" stroke-linecap="round" stroke-linejoin="round"/>
<path d="M87.0391 45.266H86.4921C86.4253 45.2658 86.3592 45.2789 86.2975 45.3044C86.2358 45.3299 86.1798 45.3673 86.1326 45.4145C86.0854 45.4617 86.048 45.5177 86.0225 45.5794C85.997 45.6411 85.9839 45.7072 85.9841 45.774V46.85C85.9841 47.13 86.2121 47.358 86.4921 47.358H87.0391C87.3191 47.358 87.5461 47.131 87.5461 46.85V45.774C87.5462 45.7073 87.5332 45.6413 87.5078 45.5796C87.4823 45.518 87.445 45.462 87.3979 45.4148C87.3508 45.3676 87.2949 45.3302 87.2333 45.3047C87.1717 45.2791 87.1057 45.266 87.0391 45.266ZM84.8771 45.266H75.1521C75.0853 45.2658 75.0192 45.2789 74.9575 45.3044C74.8958 45.3299 74.8398 45.3673 74.7926 45.4145C74.7454 45.4617 74.708 45.5177 74.6825 45.5794C74.657 45.6411 74.6439 45.7072 74.6441 45.774V46.85C74.6441 47.13 74.8721 47.358 75.1521 47.358H84.8771C85.1571 47.358 85.3851 47.131 85.3851 46.85V45.774C85.3851 45.6392 85.3316 45.51 85.2363 45.4148C85.141 45.3195 85.0118 45.266 84.8771 45.266ZM85.8501 54.983H75.1521C75.0853 54.9828 75.0192 54.9959 74.9575 55.0214C74.8958 55.0469 74.8398 55.0843 74.7926 55.1315C74.7454 55.1787 74.708 55.2347 74.6825 55.2964C74.657 55.3581 74.6439 55.4242 74.6441 55.491V56.568C74.6441 56.848 74.8721 57.075 75.1521 57.075H85.8501C86.1301 57.075 86.3571 56.848 86.3571 56.568V55.49C86.3572 55.4233 86.3442 55.3573 86.3188 55.2956C86.2933 55.234 86.256 55.178 86.2089 55.1308C86.1618 55.0836 86.1059 55.0462 86.0443 55.0207C85.9827 54.9951 85.9167 54.982 85.8501 54.982V54.983ZM95.2651 51.749H78.1141C77.9795 51.749 77.8505 51.8024 77.7552 51.8974C77.66 51.9925 77.6063 52.1214 77.6061 52.256V53.333C77.6061 53.613 77.8341 53.841 78.1141 53.841H95.2641C95.3988 53.841 95.528 53.7875 95.6233 53.6922C95.7185 53.5969 95.7721 53.4677 95.7721 53.333V52.256C95.7721 52.1215 95.7187 51.9926 95.6236 51.8975C95.5285 51.8024 95.3995 51.749 95.2651 51.749ZM104.525 51.749H97.2951C97.1606 51.749 97.0317 51.8024 96.9366 51.8975C96.8415 51.9926 96.7881 52.1215 96.7881 52.256V53.333C96.7881 53.613 97.0151 53.841 97.2961 53.841H104.525C104.805 53.841 105.033 53.613 105.033 53.333V52.256C105.033 52.1214 104.979 51.9925 104.884 51.8974C104.789 51.8024 104.66 51.749 104.525 51.749ZM112.355 63.537H111.808C111.741 63.537 111.676 63.5501 111.614 63.5756C111.553 63.601 111.497 63.6384 111.45 63.6855C111.402 63.7326 111.365 63.7884 111.34 63.85C111.314 63.9115 111.301 63.9774 111.301 64.044V65.121C111.301 65.401 111.528 65.629 111.808 65.629H112.355C112.422 65.6291 112.488 65.6161 112.55 65.5906C112.611 65.5651 112.667 65.5277 112.715 65.4805C112.762 65.4333 112.799 65.3772 112.825 65.3155C112.85 65.2538 112.863 65.1877 112.863 65.121V64.044C112.863 63.9773 112.85 63.9113 112.824 63.8497C112.799 63.7881 112.761 63.7322 112.714 63.6851C112.667 63.638 112.611 63.6007 112.549 63.5753C112.488 63.5499 112.422 63.5368 112.355 63.537ZM109.062 66.83H108.515C108.448 66.83 108.382 66.8431 108.321 66.8687C108.259 66.8942 108.203 66.9316 108.156 66.9788C108.109 67.026 108.072 67.082 108.046 67.1436C108.021 67.2053 108.008 67.2713 108.008 67.338V68.414C108.008 68.694 108.235 68.922 108.515 68.922H109.062C109.129 68.9221 109.195 68.9091 109.257 68.8836C109.318 68.8581 109.374 68.8207 109.422 68.7735C109.469 68.7263 109.506 68.6702 109.532 68.6085C109.557 68.5468 109.57 68.4807 109.57 68.414V67.338C109.57 67.2712 109.557 67.2051 109.532 67.1434C109.506 67.0817 109.469 67.0257 109.422 66.9785C109.374 66.9313 109.318 66.8939 109.257 66.8684C109.195 66.8429 109.129 66.8298 109.062 66.83ZM92.9221 48.507H75.1521C75.0854 48.5068 75.0194 48.5199 74.9577 48.5453C74.8961 48.5707 74.8401 48.608 74.7929 48.6551C74.7457 48.7022 74.7083 48.7581 74.6828 48.8197C74.6572 48.8813 74.6441 48.9473 74.6441 49.014V50.091C74.6441 50.371 74.8721 50.599 75.1521 50.599H92.9221C93.2021 50.599 93.4301 50.372 93.4301 50.091V49.014C93.4301 48.9473 93.4169 48.8813 93.3914 48.8197C93.3658 48.7581 93.3284 48.7022 93.2812 48.6551C93.234 48.608 93.178 48.5707 93.1164 48.5453C93.0548 48.5199 92.9887 48.5068 92.9221 48.507ZM98.4701 45.266H88.7441C88.6773 45.2658 88.6112 45.2789 88.5495 45.3044C88.4878 45.3299 88.4318 45.3673 88.3846 45.4145C88.3374 45.4617 88.3 45.5177 88.2745 45.5794C88.249 45.6411 88.2359 45.7072 88.2361 45.774V46.85C88.2361 47.13 88.4631 47.358 88.7441 47.358H98.4691C98.7491 47.358 98.9771 47.131 98.9771 46.85V45.774C98.9771 45.6392 98.9235 45.51 98.8283 45.4148C98.733 45.3195 98.6048 45.266 98.4701 45.266ZM106.215 48.5H94.7761C94.7094 48.5 94.6434 48.5131 94.5818 48.5387C94.5202 48.5642 94.4643 48.6016 94.4172 48.6488C94.3701 48.696 94.3328 48.752 94.3074 48.8136C94.282 48.8753 94.2689 48.9413 94.2691 49.008V50.098C94.2691 50.378 94.4961 50.606 94.7761 50.606H106.215C106.495 50.606 106.722 50.379 106.722 50.098V49.008C106.722 48.8735 106.669 48.7446 106.574 48.6495C106.478 48.5544 106.35 48.5 106.215 48.5ZM84.8771 63.52H75.1521C75.0854 63.5198 75.0194 63.5329 74.9577 63.5583C74.8961 63.5837 74.8401 63.621 74.7929 63.6681C74.7457 63.7152 74.7083 63.7711 74.6828 63.8327C74.6572 63.8943 74.6441 63.9603 74.6441 64.027V65.104C74.6441 65.384 74.8721 65.611 75.1521 65.611H84.8771C85.1571 65.611 85.3851 65.384 85.3851 65.104V64.027C85.3851 63.8922 85.3316 63.763 85.2363 63.6678C85.141 63.5725 85.0118 63.52 84.8771 63.52ZM106.093 70.001H97.2961C97.2293 70.0008 97.1632 70.0139 97.1015 70.0394C97.0398 70.0649 96.9838 70.1023 96.9366 70.1495C96.8894 70.1967 96.852 70.2527 96.8265 70.3144C96.801 70.3761 96.7879 70.4422 96.7881 70.509V71.586C96.7881 71.866 97.0151 72.093 97.2961 72.093H106.093C106.16 72.0931 106.226 72.0801 106.287 72.0547C106.349 72.0292 106.405 71.9919 106.452 71.9448C106.499 71.8977 106.537 71.8418 106.562 71.7802C106.588 71.7186 106.601 71.6526 106.601 71.586V70.509C106.601 70.4422 106.588 70.3761 106.563 70.3144C106.537 70.2527 106.5 70.1967 106.453 70.1495C106.405 70.1023 106.349 70.0649 106.288 70.0394C106.226 70.0139 106.16 70.0008 106.093 70.001ZM92.9221 66.76H75.1521C75.0853 66.7598 75.0192 66.7729 74.9575 66.7984C74.8958 66.8239 74.8398 66.8613 74.7926 66.9085C74.7454 66.9557 74.708 67.0117 74.6825 67.0734C74.657 67.1351 74.6439 67.2012 74.6441 67.268V68.345C74.6441 68.625 74.8721 68.852 75.1521 68.852H92.9221C93.2021 68.852 93.4301 68.625 93.4301 68.345V67.268C93.4302 67.2012 93.4172 67.1351 93.3917 67.0734C93.3662 67.0117 93.3288 66.9557 93.2816 66.9085C93.2344 66.8613 93.1783 66.8239 93.1166 66.7984C93.0549 66.7729 92.9888 66.7598 92.9221 66.76ZM98.4691 63.52H86.4921C86.4254 63.5198 86.3594 63.5329 86.2977 63.5583C86.2361 63.5837 86.1801 63.621 86.1329 63.6681C86.0857 63.7152 86.0483 63.7711 86.0228 63.8327C85.9972 63.8943 85.9841 63.9603 85.9841 64.027V65.104C85.9841 65.384 86.2121 65.611 86.4921 65.611H98.4691C98.7491 65.611 98.9761 65.384 98.9761 65.104V64.027C98.9762 63.9603 98.9632 63.8943 98.9378 63.8326C98.9123 63.771 98.875 63.715 98.8279 63.6678C98.7808 63.6206 98.7249 63.5832 98.6633 63.5577C98.6017 63.5321 98.5357 63.52 98.4691 63.52ZM110.037 63.52H100.311C100.177 63.5202 100.048 63.5737 99.9529 63.6688C99.8578 63.7638 99.8043 63.8926 99.8041 64.027V65.104C99.8041 65.384 100.031 65.611 100.311 65.611H110.037C110.317 65.611 110.544 65.384 110.544 65.104V64.027C110.544 63.9603 110.531 63.8943 110.506 63.8326C110.48 63.771 110.443 63.715 110.396 63.6678C110.349 63.6206 110.293 63.5832 110.231 63.5577C110.17 63.5321 110.104 63.52 110.037 63.52ZM87.0391 60.384H86.4921C86.4253 60.3838 86.3592 60.3969 86.2975 60.4224C86.2358 60.4479 86.1798 60.4853 86.1326 60.5325C86.0854 60.5797 86.048 60.6357 86.0225 60.6974C85.997 60.7591 85.9839 60.8252 85.9841 60.892V61.969C85.9841 62.249 86.2121 62.476 86.4921 62.476H87.0391C87.3191 62.476 87.5461 62.249 87.5461 61.969V60.892C87.5462 60.8253 87.5332 60.7593 87.5078 60.6976C87.4823 60.636 87.445 60.58 87.3979 60.5328C87.3508 60.4856 87.2949 60.4482 87.2333 60.4227C87.1717 60.3971 87.1057 60.384 87.0391 60.384ZM84.8771 60.384H75.1521C75.0853 60.3838 75.0192 60.3969 74.9575 60.4224C74.8958 60.4479 74.8398 60.4853 74.7926 60.5325C74.7454 60.5797 74.708 60.6357 74.6825 60.6974C74.657 60.7591 74.6439 60.8252 74.6441 60.892V61.969C74.6441 62.249 74.8721 62.476 75.1521 62.476H84.8771C85.1571 62.476 85.3851 62.249 85.3851 61.969V60.892C85.3851 60.8253 85.3719 60.7592 85.3464 60.6976C85.3209 60.6359 85.2835 60.5799 85.2363 60.5328C85.1891 60.4856 85.1331 60.4482 85.0715 60.4226C85.0098 60.3971 84.9438 60.384 84.8771 60.384ZM98.4701 60.384H88.7441C88.6773 60.3838 88.6112 60.3969 88.5495 60.4224C88.4878 60.4479 88.4318 60.4853 88.3846 60.5325C88.3374 60.5797 88.3 60.6357 88.2745 60.6974C88.249 60.7591 88.2359 60.8252 88.2361 60.892V61.969C88.2361 62.249 88.4631 62.476 88.7441 62.476H98.4691C98.7491 62.476 98.9771 62.249 98.9771 61.969V60.892C98.9771 60.8253 98.9639 60.7592 98.9384 60.6976C98.9129 60.6359 98.8755 60.5799 98.8283 60.5328C98.7811 60.4856 98.7251 60.4482 98.6635 60.4226C98.6018 60.3971 98.5368 60.384 98.4701 60.384ZM107.012 66.754H94.7761C94.7094 66.754 94.6434 66.7671 94.5818 66.7927C94.5202 66.8182 94.4643 66.8556 94.4172 66.9028C94.3701 66.95 94.3328 67.006 94.3074 67.0676C94.282 67.1293 94.2689 67.1953 94.2691 67.262V68.352C94.2691 68.632 94.4961 68.859 94.7761 68.859H107.012C107.292 68.859 107.519 68.632 107.519 68.352V67.262C107.519 67.1953 107.506 67.1293 107.481 67.0676C107.455 67.006 107.418 66.95 107.371 66.9028C107.324 66.8556 107.268 66.8182 107.206 66.7927C107.145 66.7671 107.079 66.754 107.012 66.754ZM63.0601 64.69H51.7101C51.6434 64.69 51.5774 64.7031 51.5158 64.7287C51.4542 64.7542 51.3983 64.7916 51.3512 64.8388C51.3041 64.886 51.2668 64.942 51.2414 65.0036C51.216 65.0653 51.2029 65.1313 51.2031 65.198V66.269C51.2031 66.549 51.4301 66.776 51.7111 66.776H63.0601C63.3401 66.776 63.5681 66.549 63.5681 66.269V65.199C63.5682 65.1322 63.5552 65.0661 63.5297 65.0044C63.5042 64.9427 63.4668 64.8867 63.4196 64.8395C63.3724 64.7923 63.3163 64.7549 63.2546 64.7294C63.1929 64.7039 63.1268 64.6898 63.0601 64.69ZM53.7301 61.645H51.7101C51.5756 61.645 51.4467 61.6984 51.3516 61.7935C51.2565 61.8886 51.2031 62.0175 51.2031 62.152V63.222C51.2031 63.503 51.4301 63.73 51.7111 63.73H53.7311C54.0111 63.73 54.2381 63.503 54.2381 63.223V62.152C54.2382 62.0852 54.2252 62.0191 54.1997 61.9574C54.1742 61.8957 54.1368 61.8397 54.0896 61.7925C54.0424 61.7453 53.9863 61.7079 53.9246 61.6824C53.8629 61.6569 53.7968 61.6448 53.7301 61.645ZM57.6861 58.074H51.7101C51.6433 58.0738 51.5772 58.0869 51.5155 58.1124C51.4538 58.1379 51.3978 58.1753 51.3506 58.2225C51.3034 58.2697 51.266 58.3257 51.2405 58.3874C51.215 58.4491 51.2019 58.5152 51.2021 58.582V59.652C51.2021 59.932 51.4291 60.16 51.7101 60.16H57.6851C57.9651 60.16 58.1921 59.933 58.1921 59.652V58.582C58.1922 58.5153 58.1792 58.4493 58.1538 58.3876C58.1283 58.326 58.091 58.27 58.0439 58.2228C57.9968 58.1756 57.9409 58.1382 57.8793 58.1127C57.8177 58.0871 57.7527 58.074 57.6861 58.074ZM59.9221 54.95H51.7101C51.6434 54.9498 51.5774 54.9629 51.5157 54.9883C51.4541 55.0137 51.3981 55.051 51.3509 55.0981C51.3037 55.1452 51.2663 55.2011 51.2408 55.2627C51.2152 55.3243 51.2021 55.3903 51.2021 55.457V56.528C51.2021 56.808 51.4291 57.036 51.7101 57.036H59.9201C59.9868 57.0361 60.0529 57.0231 60.1146 56.9976C60.1763 56.9721 60.2324 56.9347 60.2796 56.8875C60.3268 56.8403 60.3642 56.7842 60.3897 56.7225C60.4152 56.6608 60.4282 56.5947 60.4281 56.528V55.458C60.4282 55.3913 60.4152 55.3253 60.3898 55.2636C60.3643 55.202 60.327 55.146 60.2799 55.0988C60.2328 55.0516 60.1769 55.0142 60.1153 54.9887C60.0537 54.9631 59.9887 54.95 59.9221 54.95ZM57.6861 51.773H51.7101C51.5755 51.773 51.4465 51.8264 51.3512 51.9214C51.256 52.0165 51.2023 52.1454 51.2021 52.28V53.351C51.2021 53.631 51.4291 53.859 51.7101 53.859H57.6851C57.9651 53.859 58.1921 53.632 58.1921 53.351V52.281C58.1921 52.1464 58.1387 52.0174 58.0436 51.9221C57.9486 51.8269 57.8206 51.7732 57.6861 51.773ZM55.2781 48.411H51.7111C51.6443 48.4108 51.5782 48.4239 51.5165 48.4494C51.4548 48.4749 51.3988 48.5123 51.3516 48.5595C51.3044 48.6067 51.267 48.6627 51.2415 48.7244C51.216 48.7861 51.2029 48.8522 51.2031 48.919V49.989C51.2031 50.269 51.4301 50.497 51.7111 50.497H55.2781C55.5581 50.497 55.7861 50.27 55.7861 49.99V48.919C55.7862 48.8522 55.7732 48.7861 55.7477 48.7244C55.7222 48.6627 55.6848 48.6067 55.6376 48.5595C55.5904 48.5123 55.5343 48.4749 55.4726 48.4494C55.4109 48.4239 55.3448 48.4108 55.2781 48.411ZM57.8271 48.411H56.9661C56.8772 48.411 56.792 48.4463 56.7292 48.5091C56.6664 48.5719 56.6311 48.6571 56.6311 48.746V50.162C56.6311 50.347 56.7811 50.497 56.9661 50.497H57.8261C58.0111 50.497 58.1611 50.347 58.1611 50.162V48.746C58.1611 48.6573 58.1259 48.5722 58.0633 48.5094C58.0007 48.4467 57.9157 48.4112 57.8271 48.411ZM60.1521 51.732H59.2911C59.2022 51.732 59.117 51.7673 59.0542 51.8301C58.9914 51.8929 58.9561 51.9781 58.9561 52.067V53.483C58.9561 53.668 59.1061 53.818 59.2911 53.818H60.1511C60.3371 53.818 60.4871 53.668 60.4871 53.483V52.067C60.4871 52.023 60.4784 51.9794 60.4616 51.9388C60.4447 51.8981 60.4201 51.8612 60.389 51.8301C60.3578 51.799 60.3209 51.7743 60.2803 51.7575C60.2396 51.7406 60.1961 51.732 60.1521 51.732ZM62.6311 54.953H61.7711C61.727 54.9528 61.6833 54.9614 61.6426 54.9782C61.6018 54.995 61.5648 55.0196 61.5335 55.0507C61.5023 55.0819 61.4776 55.1188 61.4607 55.1595C61.4438 55.2003 61.4351 55.2439 61.4351 55.288V56.704C61.4351 56.889 61.5851 57.039 61.7701 57.039H62.6311C62.8161 57.039 62.9661 56.889 62.9661 56.704V55.288C62.9661 55.1991 62.9308 55.1139 62.868 55.0511C62.8051 54.9883 62.7199 54.953 62.6311 54.953ZM60.2301 58.1H59.3701C59.326 58.0998 59.2823 58.1084 59.2416 58.1252C59.2008 58.142 59.1638 58.1666 59.1325 58.1977C59.1013 58.2289 59.0766 58.2658 59.0597 58.3065C59.0428 58.3473 59.0341 58.3909 59.0341 58.435V59.851C59.0341 60.036 59.1841 60.186 59.3691 60.186H60.2291C60.4151 60.186 60.5651 60.036 60.5651 59.851V58.435C60.5651 58.3461 60.5298 58.2609 60.467 58.1981C60.4041 58.1353 60.3189 58.1 60.2301 58.1ZM56.1771 61.65H55.3171C55.2729 61.6498 55.2292 61.6584 55.1883 61.6753C55.1475 61.6921 55.1104 61.7169 55.0792 61.7481C55.048 61.7793 55.0232 61.8164 55.0064 61.8572C54.9895 61.8981 54.9809 61.9418 54.9811 61.986V63.402C54.9811 63.586 55.1311 63.736 55.3161 63.736H56.1771C56.3621 63.736 56.5121 63.586 56.5121 63.402V61.986C56.5121 61.8971 56.4768 61.8119 56.414 61.7491C56.3511 61.6863 56.2659 61.65 56.1771 61.65ZM65.3071 64.686H64.4471C64.403 64.6858 64.3593 64.6944 64.3186 64.7112C64.2778 64.728 64.2408 64.7526 64.2095 64.7837C64.1783 64.8149 64.1536 64.8518 64.1367 64.8925C64.1198 64.9333 64.1111 64.9769 64.1111 65.021V66.437C64.1111 66.622 64.2611 66.772 64.4461 66.772H65.3071C65.4921 66.772 65.6421 66.622 65.6421 66.437V65.022C65.6422 64.9779 65.6336 64.9342 65.6169 64.8935C65.6001 64.8527 65.5754 64.8157 65.5443 64.7844C65.5132 64.7532 65.4762 64.7285 65.4355 64.7116C65.3948 64.6947 65.3511 64.686 65.3071 64.686ZM59.0201 45.048H51.5831C51.5164 45.0478 51.4504 45.0609 51.3887 45.0863C51.3271 45.1117 51.2711 45.149 51.2239 45.1961C51.1767 45.2432 51.1393 45.2991 51.1138 45.3607C51.0882 45.4223 51.0751 45.4883 51.0751 45.555V46.626C51.0751 46.906 51.3021 47.134 51.5831 47.134H59.0201C59.3001 47.134 59.5281 46.906 59.5281 46.626V45.556C59.5282 45.4892 59.5152 45.4231 59.4897 45.3614C59.4642 45.2997 59.4268 45.2437 59.3796 45.1965C59.3324 45.1493 59.2763 45.1119 59.2146 45.0864C59.1529 45.0609 59.0868 45.0478 59.0201 45.048Z" fill="white"/>
<path d="M44.199 93.224H13.917V119.343H44.199V93.224Z" fill="white" stroke="#9935E8" stroke-width="0.609" stroke-linecap="round" stroke-linejoin="round"/>
<path d="M54.368 68.36C54.368 68.36 56.269 67.846 57.348 66.814C57.992 66.199 58.818 65.369 58.803 65.098C58.775 64.59 57.712 65.37 57.539 65.478" fill="white"/>
<path d="M54.368 68.36C54.368 68.36 56.269 67.846 57.348 66.814C57.992 66.199 58.818 65.369 58.803 65.098C58.775 64.59 57.712 65.37 57.539 65.478" stroke="#9935E8" stroke-width="0.609" stroke-linecap="round" stroke-linejoin="round"/>
<path d="M55.4 66.679C55.4 66.679 56.3 65.899 56.618 65.252C56.936 64.604 57.15 64.105 57.041 64.018C56.931 63.93 56.351 64.087 56.116 64.47C55.857 65.121 54.803 66 54.803 66C54.931 65.95 55.579 65.233 55.875 64.783C56.17 64.333 56.185 63.643 55.265 64.419C55.265 64.419 54.296 65.282 53.923 65.54C53.923 65.54 52.229 66.176 51.806 66.897C51.521 67.383 49.282 71.107 47.516 73.537C46.43 74.674 44.376 81.636 47.719 80.865C48.416 80.726 49.198 80.059 49.431 79.47L53.872 68.595C54.897 68.17 55.59 67.716 56.035 67.317C56.61 66.8 58.227 64.65 58.213 64.421C58.176 63.811 57.182 64.067 56.668 65.176" fill="white"/>
<path d="M55.4 66.679C55.4 66.679 56.3 65.899 56.618 65.252C56.936 64.604 57.15 64.105 57.041 64.018C56.931 63.93 56.351 64.087 56.116 64.47C55.857 65.121 54.803 66 54.803 66C54.931 65.95 55.579 65.233 55.875 64.783C56.17 64.333 56.185 63.643 55.265 64.419C55.265 64.419 54.296 65.282 53.923 65.54C53.923 65.54 52.229 66.176 51.806 66.897C51.521 67.383 49.282 71.107 47.516 73.537C46.43 74.674 44.376 81.636 47.719 80.865C48.416 80.726 49.198 80.059 49.431 79.47L53.872 68.595C54.897 68.17 55.59 67.716 56.035 67.317C56.61 66.8 58.227 64.65 58.213 64.421C58.176 63.811 57.182 64.067 56.668 65.176" stroke="#9935E8" stroke-width="0.609" stroke-linecap="round" stroke-linejoin="round"/>
<path d="M47.6531 72.656L50.1201 68.17L54.0031 69.089L50.6731 77.349L47.6531 72.656Z" fill="#5D21D1"/>
<path d="M31.8051 105.517L31.9301 119.541H34.0211L34.1451 115.17C34.1451 115.17 34.9931 119.446 37.9141 119.636C40.8341 119.826 43.3581 119.027 43.3391 118.915C43.3291 118.857 43.4261 118.001 43.5231 117.163C43.6091 116.436 42.9151 115.725 42.1651 115.768C41.0431 115.834 39.5701 115.745 38.6761 115C37.0801 113.669 37.2821 103.997 37.2821 103.997L31.8051 105.517Z" fill="#9935E8"/>
<path d="M35.3831 105.517L37.4001 119.541H39.4901L39.5741 117.04C39.5741 117.04 40.4621 119.446 43.3831 119.636C46.3031 119.826 48.8271 119.027 48.8071 118.915C48.7971 118.857 48.8941 118.001 48.9931 117.163C49.0781 116.436 48.3831 115.725 47.6351 115.768C46.5121 115.834 45.5511 114.302 44.6581 113.558C43.0611 112.227 42.7511 103.997 42.7511 103.997L35.3831 105.517Z" fill="#9935E8"/>
<path d="M48.4901 91.142C47.7451 89.43 38.6301 84.373 38.6301 84.373C38.6301 84.373 42.6601 73.553 40.3821 70.366C38.4021 67.69 34.8301 67.822 34.8301 67.822L28.3101 67.582V67.553H27.2471C26.0971 67.553 24.5321 68.777 24.3611 70.103C24.0461 72.54 23.1021 75.896 22.4511 78.698C20.9291 83.368 19.3911 90.332 22.4811 93.244C22.5061 93.28 30.3911 93.244 30.3911 93.244L30.4011 114.916H46.1271C46.1271 114.916 49.2361 92.854 48.4901 91.142Z" fill="#5D21D1"/>
<path d="M31.192 67.3299C30.61 67.4019 30.026 66.7149 29.882 65.7799C29.8022 65.3304 29.8587 64.8672 30.044 64.4499M39.248 67.0469C38.665 67.1189 38.082 66.4309 37.938 65.4969C37.857 65.0478 37.912 64.5846 38.096 64.1669" stroke="#FE7624" stroke-width="0.609" stroke-linecap="round" stroke-linejoin="round"/>
<path d="M30.544 57.6999C31.784 56.7869 32.606 51.9849 29.241 48.7689C25.835 45.5109 22.999 48.8399 22.369 49.7179C21.739 50.5959 21.265 53.0079 24.21 55.2859C27.156 57.5649 29.13 58.7459 30.544 57.6999Z" fill="#9935E8"/>
<path d="M32.344 59.8259L32.267 59.8759C32.0386 60.0176 31.7648 60.0672 31.5012 60.0147C31.2375 59.9621 31.0037 59.8114 30.847 59.5929L29.942 58.325C29.8647 58.2209 29.8096 58.1021 29.7801 57.9759C29.7505 57.8497 29.7472 57.7187 29.7702 57.5912C29.7933 57.4636 29.8423 57.3421 29.9141 57.2343C29.986 57.1264 30.0792 57.0344 30.188 56.964L30.265 56.914C30.4935 56.7719 30.7674 56.7222 31.0312 56.7749C31.295 56.8277 31.5288 56.979 31.685 57.198L32.59 58.471C32.6669 58.5746 32.7216 58.693 32.751 58.8187C32.7803 58.9444 32.7835 59.0747 32.7605 59.2017C32.7374 59.3287 32.6886 59.4496 32.6169 59.557C32.5453 59.6644 32.4524 59.7559 32.344 59.8259Z" fill="#FE7624"/>
<path d="M31.73 63.8409C31.99 63.2969 31.737 62.6349 31.165 62.3629C30.593 62.0899 29.919 62.3099 29.66 62.8539C29.4 63.3979 29.654 64.0599 30.226 64.3319C30.798 64.6049 31.471 64.3849 31.731 63.8419L31.73 63.8409ZM39.605 63.4729C39.865 62.9289 39.612 62.2669 39.04 61.9939C38.468 61.7219 37.794 61.9419 37.535 62.4859C37.275 63.0299 37.529 63.6909 38.101 63.9639C38.673 64.2369 39.345 64.0169 39.605 63.4729Z" fill="white" stroke="#9935E8" stroke-width="0.609" stroke-linecap="round" stroke-linejoin="round"/>
<path d="M35.353 66.5899L35.416 68.2149L36.779 68.5189C36.856 68.7409 36.94 72.5789 33.429 72.1049C31.126 71.7919 30.049 69.7299 29.432 67.8419L31.386 67.9789L31.396 63.3959L35.353 66.5909V66.5899Z" fill="white" stroke="#9935E8" stroke-width="0.609" stroke-linecap="round" stroke-linejoin="round"/>
<path d="M35.52 67.5079C37.488 67.1459 38.707 64.8029 38.242 62.2739C37.778 59.7449 35.806 57.9879 33.838 58.3499C31.87 58.7109 30.652 61.0539 31.117 63.5829C31.581 66.1129 33.552 67.8689 35.52 67.5079Z" fill="white" stroke="#9935E8" stroke-width="0.609" stroke-linecap="round" stroke-linejoin="round"/>
<path d="M35.008 64.033L35.698 64.011C35.7147 64.0104 35.731 64.006 35.7458 63.9982C35.7605 63.9904 35.7733 63.9793 35.7831 63.9658C35.7929 63.9523 35.7996 63.9368 35.8025 63.9203C35.8054 63.9039 35.8046 63.887 35.8 63.871L35.302 61.99M33.088 61.074C33.088 61.074 33.697 60.526 34.204 60.983M35.88 60.907C35.88 60.907 36.662 60.614 36.977 61.211" stroke="#9935E8" stroke-width="0.609" stroke-linecap="round" stroke-linejoin="round"/>
<path d="M34.4001 62.6199C34.4081 62.3929 34.2901 62.2049 34.1381 62.1999C33.9851 62.1949 33.8561 62.3749 33.8481 62.6019C33.8411 62.8299 33.9581 63.0179 34.1111 63.0229C34.2631 63.0279 34.3921 62.8479 34.4001 62.6199ZM36.7301 63.1249C36.8811 63.1149 36.9901 62.9199 36.9741 62.6919C36.9581 62.4639 36.8211 62.2879 36.6701 62.2989C36.5181 62.3099 36.4091 62.5039 36.4251 62.7319C36.4421 62.9599 36.5781 63.1359 36.7301 63.1249Z" fill="#9935E8"/>
<path d="M38.8431 63.53C39.4331 63.438 39.9251 64.22 40.0711 65.167C40.2171 66.113 39.8581 66.952 39.2681 67.044H39.2481M30.6851 63.903C31.2731 63.812 31.8691 64.505 32.0151 65.45C32.1611 66.395 31.8021 67.237 31.2131 67.327H31.1931" stroke="#FE7624" stroke-width="0.609" stroke-linecap="round" stroke-linejoin="round"/>
<path d="M35.1421 65.3949C35.1421 65.3949 33.5661 66.3719 33.4861 64.2499L35.1421 65.3949Z" stroke="#9935E8" stroke-width="0.609" stroke-linecap="round" stroke-linejoin="round"/>
<path d="M33.371 57.2679L33.363 57.2779C32.185 57.4509 30.868 57.9879 30.136 58.7779C28.837 60.1749 29.434 63.1719 30.756 63.3759C30.864 63.3929 30.975 63.4019 31.086 63.4079C31.033 63.0616 31.0109 62.7112 31.02 62.3609C32.823 61.6869 32.82 58.9859 32.816 58.7609C33.199 59.0649 33.7 59.5859 33.57 60.1579L37.554 60.4099C37.9572 61.1053 38.2109 61.877 38.299 62.6759V62.7079C38.673 62.1749 38.689 61.3429 38.375 60.4609L39.723 60.5469C39.723 60.5469 40.963 55.9919 33.371 57.2679Z" fill="#9935E8"/>
<path d="M37.441 77.7139L28.96 77.6939L29.432 74.0339M22.36 79.0749C21.983 80.5599 23.218 82.3449 24.749 82.3779L37.059 82.3719M29.038 77.7079C29.038 77.7079 27.766 77.1439 26.848 78.5079M29.012 77.2739C29.012 77.2739 27.832 76.2119 26.35 77.4319" stroke="white" stroke-width="0.609" stroke-linecap="round" stroke-linejoin="round"/>
<path d="M27.2311 80.9659L33.4571 81.0309L35.5071 71.3879C35.5236 71.2874 35.5751 71.1959 35.6525 71.1297C35.7299 71.0635 35.8282 71.0267 35.9301 71.0259L51.0861 71.2599C51.3631 71.2599 51.5671 71.5539 51.5041 71.8529L49.5761 82.1399C49.4421 82.7749 48.6381 83.2699 48.0651 83.2569C44.3391 83.1959 29.3351 82.9819 28.8971 82.9749C26.8871 82.9449 27.2311 80.9659 27.2311 80.9659Z" fill="#FE7624"/>
<path d="M18.917 119.04V83.017H53.394V119.04" stroke="#9935E8" stroke-width="0.609" stroke-linecap="round" stroke-linejoin="round"/>
<path d="M43.643 119.278H41.357C41.133 119.295 39.959 119.249 40.965 118.615C41.168 118.528 42.852 117.447 43.525 117.325C44.198 117.203 46.758 117.202 46.815 117.202C46.87 117.202 47.758 114.665 47.777 114.527L51.409 114.69C51.215 115.174 50.084 118.756 49.244 119.079C48.404 119.402 43.631 119.232 43.631 119.232C43.631 119.232 43.717 118.522 44.653 118.42C45.588 118.319 45.993 118.319 45.993 118.319" fill="white"/>
<path d="M43.643 119.278H41.357C41.133 119.295 39.959 119.249 40.965 118.615C41.168 118.528 42.852 117.447 43.525 117.325C44.198 117.203 46.758 117.202 46.815 117.202C46.87 117.202 47.758 114.665 47.777 114.527L51.409 114.69C51.215 115.174 50.084 118.756 49.244 119.079C48.404 119.402 43.631 119.232 43.631 119.232C43.631 119.232 43.717 118.522 44.653 118.42C45.588 118.319 45.993 118.319 45.993 118.319" stroke="#9935E8" stroke-width="0.609" stroke-linecap="round" stroke-linejoin="round"/>
<path d="M80.6721 94.774C79.5111 93.27 74.7391 87.578 74.7391 87.578L70.7611 90.988L71.4511 91.929C68.1111 91.127 64.7901 90.738 63.9551 91.096L64.2161 91.798C60.6641 90.86 55.0951 89.941 53.9491 92.972C52.7361 95.226 47.2821 115.354 47.2821 115.354L54.3011 115.54L55.0111 112.75C55.1901 114.563 55.3961 116.208 55.6381 117.492C55.9681 119.249 59.5691 119.652 61.3571 119.63L65.9831 119.572L72.8851 111.308L69.3731 99.761C72.1471 100.286 76.6261 100.931 78.8451 100.155C78.9525 100.149 79.0594 100.137 79.1651 100.117C81.5531 99.662 82.5171 97.363 80.6721 94.774Z" fill="#9935E8"/>
<path d="M58.7531 91.33L61.0801 86.693L65.1001 89.253L64.5751 91.443C64.9111 93.271 62.7991 94.543 61.3411 93.386L58.7531 91.33Z" fill="white" stroke="#9935E8" stroke-width="0.609" stroke-linecap="round" stroke-linejoin="round"/>
<path d="M61.4101 80.2599C61.4101 80.2599 62.8201 85.7079 66.2071 84.3649C66.2071 84.3649 67.6441 83.7409 67.6811 82.8589C67.6811 82.8589 66.5391 83.1489 66.2611 82.3049C66.2611 82.3049 68.7171 82.8949 69.3171 80.9849C69.3171 80.9849 67.0841 81.6689 66.3671 80.2249C65.6511 78.7819 61.2291 78.8589 61.4111 80.2589L61.4101 80.2599Z" fill="#9935E8"/>
<path d="M59.173 85.3669C59.173 85.3669 56.856 81.8059 60.435 79.4069C60.768 79.1829 63.074 77.6999 64.45 79.5519C65.364 80.7879 66.092 82.2519 66.574 83.4239C66.574 83.4309 67.517 85.6239 67.2 87.2209C66.882 88.8169 64.925 89.5549 63.647 89.4159C62.37 89.2769 62.047 89.0449 61.447 88.4659C60.848 87.8859 59.173 85.3759 59.173 85.3759V85.3669Z" fill="white" stroke="#9935E8" stroke-width="0.609" stroke-linecap="round" stroke-linejoin="round"/>
<path d="M64.5951 83.1559L65.7701 84.7479L65.0941 85.1639" stroke="#9935E8" stroke-width="0.609" stroke-linecap="round" stroke-linejoin="round"/>
<path d="M65.414 82.715C65.518 82.657 65.529 82.481 65.44 82.321C65.352 82.161 65.196 82.079 65.092 82.137C64.989 82.194 64.977 82.37 65.066 82.53C65.156 82.69 65.311 82.772 65.414 82.715ZM63.92 84.011C64.031 83.974 64.076 83.803 64.018 83.63C63.961 83.456 63.823 83.346 63.711 83.383C63.599 83.42 63.554 83.591 63.611 83.764C63.669 83.938 63.808 84.048 63.92 84.011Z" fill="#9935E8"/>
<path d="M62.0601 83.1749C62.0965 83.0034 62.1783 82.8449 62.2971 82.7159C62.4158 82.587 62.5671 82.4923 62.7351 82.4419M64.2481 81.2759C64.2481 81.2759 64.7841 80.6719 65.2631 80.9459" stroke="#9935E8" stroke-width="0.609" stroke-linecap="round" stroke-linejoin="round"/>
<path d="M60.391 81.2519C60.391 81.2519 64.479 86.1059 61.033 88.3419C61.033 88.3419 59.52 89.2559 58.686 88.7119C58.686 88.7119 59.701 87.8539 59.101 87.0489C59.101 87.0489 58.041 89.6879 55.89 88.9949C55.89 88.9949 57.977 87.3849 57.117 85.7869C56.256 84.1899 59.225 80.1709 60.391 81.2519Z" fill="#9935E8"/>
<path d="M64.773 79.35C64.773 79.35 61.753 75.369 57.917 78.83C55.708 80.822 55.947 82.972 56.547 84.439L54.72 86.367C54.5443 86.5697 54.4534 86.8324 54.4663 87.1004C54.4792 87.3684 54.5949 87.6211 54.7893 87.806C54.9838 87.9909 55.242 88.0938 55.5103 88.0932C55.7786 88.0927 56.0364 87.9887 56.23 87.803L64.773 79.35Z" fill="#FE7624"/>
<path d="M64.713 86.231L65.607 85.986" stroke="#9935E8" stroke-width="0.609" stroke-linecap="round" stroke-linejoin="round"/>
<path d="M74.5871 89.452C73.6241 88.832 72.8021 88.225 72.3001 87.698C71.8681 87.284 71.5101 86.961 71.2161 86.709C70.8694 86.4117 70.4653 86.189 70.0288 86.0548C69.5923 85.9206 69.1329 85.8778 68.6791 85.929C67.9761 86.008 67.1631 86.126 66.7831 86.277C66.0411 86.573 63.6071 87.502 63.7641 87.887C63.8741 88.16 65.2141 87.945 65.9011 87.808L67.2771 89.454C67.2771 89.454 67.8861 89.251 68.2371 89.272C68.9651 89.315 69.7821 89.567 70.1771 89.325C70.6932 90.142 71.266 90.9219 71.8911 91.659" fill="white"/>
<path d="M74.5871 89.452C73.6241 88.832 72.8021 88.225 72.3001 87.698C71.8681 87.284 71.5101 86.961 71.2161 86.709C70.8694 86.4117 70.4653 86.189 70.0288 86.0548C69.5923 85.9206 69.1329 85.8778 68.6791 85.929C67.9761 86.008 67.1631 86.126 66.7831 86.277C66.0411 86.573 63.6071 87.502 63.7641 87.887C63.8741 88.16 65.2141 87.945 65.9011 87.808L67.2771 89.454C67.2771 89.454 67.8861 89.251 68.2371 89.272C68.9651 89.315 69.7821 89.567 70.1771 89.325C70.6932 90.142 71.266 90.9219 71.8911 91.659" stroke="#9935E8" stroke-width="0.609" stroke-linecap="round" stroke-linejoin="round"/>
<path d="M67.102 86.8159C67.102 86.8159 65.502 87.8309 65.645 88.4629C65.787 89.0959 66.283 88.8989 66.283 88.8989" fill="white"/>
<path d="M67.102 86.8159C67.102 86.8159 65.502 87.8309 65.645 88.4629C65.787 89.0959 66.283 88.8989 66.283 88.8989" stroke="#9935E8" stroke-width="0.609" stroke-linecap="round" stroke-linejoin="round"/>
<path d="M67.4881 87.468C67.4881 87.468 66.1421 88.495 66.3291 89.113C66.5171 89.731 66.9991 89.499 66.9991 89.499" fill="white"/>
<path d="M67.4881 87.468C67.4881 87.468 66.1421 88.495 66.3291 89.113C66.5171 89.731 66.9991 89.499 66.9991 89.499" stroke="#9935E8" stroke-width="0.609" stroke-linecap="round" stroke-linejoin="round"/>
<path d="M67.986 88.261C67.986 88.261 66.386 89.529 67.374 89.833C68.361 90.138 68.674 89.909 68.674 89.909C68.674 89.909 69.018 89.365 67.994 89.253" fill="white"/>
<path d="M67.986 88.261C67.986 88.261 66.386 89.529 67.374 89.833C68.361 90.138 68.674 89.909 68.674 89.909C68.674 89.909 69.018 89.365 67.994 89.253" stroke="#9935E8" stroke-width="0.609" stroke-linecap="round" stroke-linejoin="round"/>
<path d="M66.348 111.593C66.348 111.593 77.978 99.293 80.512 96.44C83.045 93.588 87.71 94.055 89.564 96.39C91.418 98.724 100.926 113.676 100.926 113.676L90.043 116.253L86.097 105.033L79.959 116.509L66.348 111.593Z" fill="white" stroke="#9935E8" stroke-width="0.609" stroke-linecap="round" stroke-linejoin="round"/>
<path d="M66.348 111.595L84.153 109.071C84.9184 109.003 85.6884 109.007 86.453 109.082L103.468 111.192L103.423 119.455L61.353 119.489L66.348 111.595Z" fill="white" stroke="#9935E8" stroke-width="0.609" stroke-linecap="round" stroke-linejoin="round"/>
<path d="M84.716 95.025C84.5395 94.9892 84.3561 95.025 84.2059 95.1243C84.0558 95.2237 83.9512 95.3786 83.915 95.5549L81.479 108.024L69.088 109.7L69.125 109.973C69.142 110.099 69.1837 110.221 69.2477 110.331C69.3116 110.441 69.3967 110.537 69.4979 110.614C69.5992 110.691 69.7146 110.747 69.8377 110.78C69.9607 110.812 70.0889 110.82 70.215 110.803L82.017 109.207C82.1431 109.19 82.2647 109.148 82.3746 109.084C82.4846 109.02 82.5809 108.935 82.658 108.834C82.7351 108.733 82.7915 108.617 82.8239 108.494C82.8563 108.371 82.8642 108.243 82.847 108.117L85.245 95.829C85.2634 95.7414 85.2643 95.6511 85.2477 95.5632C85.231 95.4753 85.1971 95.3915 85.1479 95.3168C85.0987 95.2421 85.0353 95.1778 84.9611 95.1277C84.887 95.0776 84.8037 95.0427 84.716 95.025ZM139.926 110.064L139.594 114.781C139.594 114.781 144.567 117.249 144.123 119.793L133.629 119.755L133.812 110.663L139.926 110.064Z" fill="#FE7624"/>
<path d="M129.984 70.618C134.634 71.378 134.488 73.37 136.059 76.358C137.631 79.344 141.826 114.802 141.826 114.802L129.51 114.975L128.799 89.157L123.978 112.249L109.483 112.381C109.483 112.381 121.876 78.111 122.945 75.835C124.014 73.559 125.207 72.635 126.78 72.208C128.352 71.782 129.984 70.618 129.984 70.618Z" fill="#5D21D1"/>
<path d="M146.192 71.045C143.739 66.648 138.58 59.349 136.232 58.568C136.18 58.5487 136.127 58.5317 136.074 58.517L133.773 58.077C132.481 59.763 129.87 61.518 127.601 60.999C124.01 60.179 125.493 56.979 125.618 56.757L126.761 57.007L126.628 56.709L125.755 56.543C124.874 56.328 123.725 56.387 122.295 56.868C118.707 58.073 110.354 60.934 110.354 60.934L113.92 66.014C113.92 66.014 115.098 65.42 118.893 64.175C119.648 63.929 120.475 63.689 121.312 63.442C121.457 65.161 122.348 67.158 124.547 69.388C125.663 70.78 130.103 71.364 130.103 71.364C131.41 71.736 134.105 69.646 134.815 68.46C135.047 68.076 135.291 67.634 135.535 67.156C138.079 70.521 142.098 75.491 142.098 75.491L143.16 75.216C145.588 74.186 147.374 73.156 146.192 71.045Z" fill="#9935E8"/>
<path d="M130.663 52.5559L130.997 52.7759C130.997 52.7759 133.006 53.8679 133.636 51.8389C134.115 50.2989 132.639 49.8159 131.898 49.6719" fill="white"/>
<path d="M130.663 52.5559L130.997 52.7759C130.997 52.7759 133.006 53.8679 133.636 51.8389C134.115 50.2989 132.639 49.8159 131.898 49.6719" stroke="#9935E8" stroke-width="0.609" stroke-linecap="round" stroke-linejoin="round"/>
<path d="M125.994 55.3L126.763 57.007L125.619 56.757C125.494 56.979 124.012 60.178 127.603 60.999C129.959 61.537 132.686 59.624 133.919 57.882L131.927 57.52L130.303 53.605L125.994 55.3Z" fill="white" stroke="#9935E8" stroke-width="0.609" stroke-linecap="round" stroke-linejoin="round"/>
<path d="M134.381 58.291C135.936 57.704 136.783 56.131 136.272 54.777C135.761 53.424 134.086 52.802 132.53 53.389C130.975 53.977 130.128 55.549 130.639 56.903C131.15 58.257 132.825 58.878 134.381 58.291Z" fill="#9935E8"/>
<path d="M137.316 60.532C138.529 60.074 139.19 58.847 138.791 57.791C138.393 56.734 137.086 56.249 135.872 56.707C134.659 57.166 133.998 58.393 134.397 59.449C134.795 60.505 136.102 60.99 137.316 60.532Z" fill="#9935E8"/>
<path d="M139.885 62.628C140.968 62.219 141.558 61.124 141.203 60.181C140.847 59.239 139.68 58.807 138.597 59.216C137.513 59.624 136.923 60.72 137.279 61.662C137.635 62.605 138.801 63.037 139.885 62.628Z" fill="#9935E8"/>
<path d="M142.644 63.211C142.913 64 142.398 64.895 141.494 65.211C140.591 65.526 139.64 65.143 139.371 64.354C139.102 63.565 139.574 62.629 140.482 62.315C141.391 62.001 142.376 62.423 142.644 63.211Z" fill="#9935E8"/>
<path d="M144.31 65.345C144.334 66.195 144.759 66.54 145.167 66.676C145.198 66.6869 145.226 66.7046 145.249 66.7278C145.272 66.751 145.29 66.779 145.301 66.8098C145.312 66.8407 145.316 66.8736 145.312 66.9061C145.309 66.9387 145.298 66.9701 145.281 66.998C145.258 67.0351 145.224 67.0644 145.184 67.082C144.107 67.511 142.172 68.025 141.566 66.518C141.28 65.808 141.627 64.948 142.421 64.568C143.216 64.186 144.289 64.578 144.31 65.345Z" fill="#9935E8"/>
<path d="M135.929 56.712L134.387 58.301M138.751 59.176L137.364 60.431M140.461 62.365L139.979 62.693M142.239 64.61L141.775 64.964" stroke="#FE7624" stroke-width="0.812" stroke-linecap="round" stroke-linejoin="round"/>
<path d="M123.47 48.728C123.196 49.658 122.414 54.075 125.246 55.171C128.077 56.266 130.735 54.067 131.741 51.348C132.748 48.629 132.118 45.968 130.341 45.234C128.564 44.499 125.455 41.989 123.47 48.728Z" fill="white" stroke="#9935E8" stroke-width="0.609" stroke-linecap="round" stroke-linejoin="round"/>
<path d="M126.363 52.313C125.936 52.3902 125.495 52.3271 125.106 52.133C125.081 52.1205 125.053 52.1142 125.024 52.1147C124.996 52.1152 124.968 52.1225 124.943 52.136C124.918 52.1493 124.896 52.1681 124.879 52.191C124.863 52.2146 124.853 52.2417 124.849 52.27C124.789 52.618 124.805 53.227 125.569 53.41C126.367 53.602 126.535 52.903 126.569 52.511C126.572 52.4839 126.569 52.4565 126.559 52.431C126.55 52.4044 126.534 52.3803 126.514 52.361C126.494 52.342 126.47 52.3278 126.444 52.3195C126.418 52.3111 126.39 52.3089 126.363 52.313Z" fill="#9935E8"/>
<path d="M125.873 51.0559L124.996 50.8259L126.48 47.4299M128.419 48.4999C128.419 48.4999 127.981 47.6649 127.303 47.9729M126.082 46.566C126.082 46.566 125.534 45.8009 124.903 46.2029" stroke="#9935E8" stroke-width="0.609" stroke-linecap="round" stroke-linejoin="round"/>
<path d="M127.355 50.057C127.408 49.8 127.32 49.564 127.157 49.53C126.995 49.497 126.82 49.679 126.767 49.936C126.714 50.194 126.803 50.429 126.965 50.463C127.128 50.496 127.302 50.315 127.355 50.057ZM124.463 49.506C124.516 49.248 124.427 49.013 124.265 48.979C124.102 48.946 123.927 49.127 123.874 49.385C123.821 49.642 123.91 49.878 124.073 49.912C124.235 49.945 124.41 49.764 124.463 49.506Z" fill="#9935E8"/>
<path d="M125.13 48.275L126.301 48.497M130.045 48.968L132.696 49.861M129.96 49.852C130.198 48.448 129.549 47.167 128.511 46.991C127.472 46.814 126.437 47.81 126.199 49.214C125.961 50.618 126.609 51.9 127.648 52.076C128.686 52.252 129.721 51.256 129.96 49.852ZM125.013 48.9C125.252 47.495 124.603 46.214 123.564 46.038C122.526 45.862 121.491 46.858 121.253 48.262C121.014 49.666 121.663 50.947 122.702 51.123C123.74 51.299 124.775 50.303 125.013 48.9Z" stroke="#FE7624" stroke-width="0.457" stroke-linecap="round" stroke-linejoin="round"/>
<path d="M135.21 48.265C135.002 46.855 132.906 44.52 130.987 44.54C128.507 42.02 124.796 39.5 122.64 43.93C122.586 44.0389 122.558 44.1585 122.556 44.28C122.555 44.4014 122.58 44.5217 122.631 44.632C122.681 44.7424 122.756 44.8401 122.848 44.918C122.941 44.9958 123.051 45.0519 123.168 45.082L130.215 46.91C130.411 47.971 130.952 49.661 132.436 50.335C132.864 50.53 133.152 50.505 133.338 50.335C133.671 50.665 133.853 51.147 133.637 51.839C133.046 53.74 131.245 52.901 131.021 52.787C130.659 53.3535 130.214 53.8625 129.701 54.297C131.233 55.136 132.905 55.534 133.914 54.201C135.229 52.464 135.498 50.231 135.21 48.265Z" fill="#9935E8"/>
<path d="M102.096 52.483L101.726 53.264L102.184 54.431L103.098 54.647C103.098 54.647 103.768 54.315 103.183 53.928C102.598 53.542 102.649 53.697 102.649 53.697L102.751 53.114L103.962 52.431" fill="white"/>
<path d="M102.096 52.483L101.726 53.264L102.184 54.431L103.098 54.647C103.098 54.647 103.768 54.315 103.183 53.928C102.598 53.542 102.649 53.697 102.649 53.697L102.751 53.114L103.962 52.431" stroke="#9935E8" stroke-width="0.609" stroke-linecap="round" stroke-linejoin="round"/>
<path d="M101.442 52.8179L101.072 53.5989L101.531 54.7659L102.445 54.9819C102.445 54.9819 103.113 54.6499 102.529 54.2629C101.944 53.8769 101.996 54.0319 101.996 54.0319L102.097 53.4489L103.308 52.7659" fill="white"/>
<path d="M101.442 52.8179L101.072 53.5989L101.531 54.7659L102.445 54.9819C102.445 54.9819 103.113 54.6499 102.529 54.2629C101.944 53.8769 101.996 54.0319 101.996 54.0319L102.097 53.4489L103.308 52.7659" stroke="#9935E8" stroke-width="0.609" stroke-linecap="round" stroke-linejoin="round"/>
<path d="M100.712 52.9349L100.306 53.7859L100.804 55.0549L101.795 55.2899C101.795 55.2899 102.523 54.9299 101.887 54.5089C101.251 54.0869 101.306 54.2569 101.306 54.2569L101.414 53.6239L102.733 52.8799" fill="white"/>
<path d="M100.712 52.9349L100.306 53.7859L100.804 55.0549L101.795 55.2899C101.795 55.2899 102.523 54.9299 101.887 54.5089C101.251 54.0869 101.306 54.2569 101.306 54.2569L101.414 53.6239L102.733 52.8799" stroke="#9935E8" stroke-width="0.609" stroke-linecap="round" stroke-linejoin="round"/>
<path d="M104.62 51.8439C103.798 51.8539 102.833 51.8629 102.833 51.8629C102.833 51.8629 100.892 52.2389 100.591 52.2869C100.291 52.3349 98.7901 53.0869 98.8511 53.2569C99.0031 53.6619 100.261 53.4029 100.906 53.1399C101.55 52.8759 102.985 53.1499 102.985 53.1499C102.985 53.1499 103.385 54.3539 103.12 54.3579C102.856 54.3609 101.405 54.2429 101.192 54.6899C100.979 55.1379 101.069 55.4819 101.629 55.4159C102.19 55.3499 102.974 55.7209 102.974 55.7209C102.974 55.7209 105.004 55.3739 105.503 55.1229C106.001 54.8729 108.072 59.7219 110.064 62.8989C112.055 66.0749 113.375 66.4029 115.02 65.1309C116.61 63.9019 114.499 60.9879 113.525 59.9309C112.75 59.0919 108.401 54.5689 106.57 52.6659C106.319 52.4022 106.016 52.193 105.681 52.0516C105.345 51.9102 104.984 51.8395 104.62 51.8439ZM132.927 79.6589C132.927 79.6589 143.045 76.2989 146.011 73.5479C147.432 72.2279 144.469 68.216 138.736 73.051C133.002 77.887 127.987 76.8179 127.987 76.8179L132.927 79.6589Z" fill="white" stroke="#9935E8" stroke-width="0.609" stroke-linecap="round" stroke-linejoin="round"/>
<path d="M140.734 76.233L138.337 76.298L136.286 66.656C136.27 66.5565 136.219 66.4658 136.143 66.3998C136.067 66.3338 135.97 66.2967 135.869 66.295L120.707 66.525C120.43 66.53 120.226 66.82 120.29 67.119L122.213 77.404C122.347 78.041 123.151 78.535 123.726 78.521C127.451 78.461 138.627 78.247 139.065 78.24C141.081 78.215 140.734 76.233 140.734 76.233Z" fill="#FE7624"/>
<path d="M133.945 79.29C130.563 80.71 128.566 79.583 127.544 77.677C126.782 76.256 125.893 74.35 126.491 74.057C127.12 73.927 127.879 76.3 127.879 76.3C127.879 76.3 126.608 73.623 127.258 73.48C127.766 73.378 128.25 74.464 128.796 76.138C128.796 76.138 127.92 73.91 127.932 73.552C127.967 72.537 128.84 72.457 129.697 76.066L128.95 73.528C128.809 72.722 129.546 72.833 129.954 73.568C130.391 74.353 131.549 77.001 131.837 77.862" fill="white"/>
<path d="M133.945 79.29C130.563 80.71 128.566 79.583 127.544 77.677C126.782 76.256 125.893 74.35 126.491 74.057C127.12 73.927 127.879 76.3 127.879 76.3C127.879 76.3 126.608 73.623 127.258 73.48C127.766 73.378 128.25 74.464 128.796 76.138C128.796 76.138 127.92 73.91 127.932 73.552C127.967 72.537 128.84 72.457 129.697 76.066L128.95 73.528C128.809 72.722 129.546 72.833 129.954 73.568C130.391 74.353 131.549 77.001 131.837 77.862" stroke="#9935E8" stroke-width="0.609" stroke-linecap="round" stroke-linejoin="round"/>
<path d="M131.04 76.3759C131.04 76.3759 131.713 74.9559 132.319 75.3619C132.925 75.7679 131.561 77.8989 131.561 77.8989" fill="white"/>
<path d="M131.04 76.3759C131.04 76.3759 131.713 74.9559 132.319 75.3619C132.925 75.7679 131.561 77.8989 131.561 77.8989" stroke="#9935E8" stroke-width="0.609" stroke-linecap="round" stroke-linejoin="round"/>
<path d="M116.814 92.1999L116.739 92.1299C114.985 90.5559 113.299 88.5979 111.664 87.8249C111.241 85.6249 109.385 83.148 101.96 84.522C97.2901 85.677 96.2601 87.397 96.7781 89.079C95.1801 90.039 91.9061 92.393 88.9761 96.9299C84.9161 103.223 98.0171 113.17 100.327 113.17C102.636 113.17 118.919 106.81 118.919 106.81L119.875 103.911C120.551 101.872 120.621 99.6807 120.078 97.6023C119.535 95.524 118.401 93.6476 116.814 92.1999Z" fill="#FE7624"/>
<path d="M111.664 87.8109C111.841 88.7239 111.772 89.5889 111.75 90.1159C111.655 92.3159 110.476 93.3639 110.228 94.1859C111.833 93.2289 113.318 91.0259 114.041 89.5829C113.579 89.1499 112.466 88.2029 111.664 87.8109ZM102.534 94.3539C101.739 93.9889 97.432 91.5129 96.748 88.9749C95.936 89.4129 94.921 90.0539 94.135 90.9979C95.048 91.5519 100.205 94.6159 102.485 94.4479L102.576 94.4409C102.563 94.4059 102.547 94.3779 102.534 94.3539Z" fill="#9935E8"/>
<path d="M101.074 87.8139L100.15 88.7629C100.15 88.7629 104.545 92.1049 105.975 100.159C106.562 103.525 107.03 106.91 107.381 110.309L110.106 110.163C110.106 110.163 107.789 97.1309 108.739 94.3779C109.689 91.6239 108.82 88.5309 108.181 88.0309C107.541 87.5309 101.074 87.8139 101.074 87.8139Z" fill="white"/>
<path d="M100.209 82.14C100.209 82.14 98.6211 82.565 99.2591 83.922C99.8991 85.28 101.457 84.019 101.457 84.019L100.719 82.048L100.209 82.14Z" fill="white" stroke="#9935E8" stroke-width="0.609" stroke-linecap="round" stroke-linejoin="round"/>
<path d="M103.642 76.517C104.054 76.378 106.89 75.485 107.804 77.81C108.717 80.136 109.028 82.874 109.06 84.152C109.093 85.43 103.439 86.231 103.1 86.199C102.761 86.168 102.3 85.895 102.3 85.895L100.632 82.391C100.632 82.391 99.218 78.007 103.642 76.517Z" fill="white" stroke="#9935E8" stroke-width="0.609" stroke-linecap="round" stroke-linejoin="round"/>
<path d="M102.145 85.1279L102.044 86.8899L101.172 87.8919C103.042 89.1281 104.739 90.6085 106.218 92.2939C106.218 92.2939 108.237 90.1629 108.59 86.8239L103.862 87.4099L103.49 85.5629L102.145 85.1279Z" fill="white" stroke="#9935E8" stroke-width="0.609" stroke-linecap="round" stroke-linejoin="round"/>
<path d="M101.162 82.2209C101.499 82.4189 102.605 83.7659 102.958 84.4339C102.958 84.4339 104.613 83.3909 107.186 82.716C107.186 82.716 108.601 82.3959 109.203 82.4209C109.203 82.4209 109.704 84.9729 108.885 86.5609C108.066 88.1479 105.562 88.3779 104.236 87.8729C102.909 87.3669 102.63 87.0389 102.161 86.2649C101.692 85.4909 100.226 82.5299 100.226 82.5299L101.162 82.2209Z" fill="#968BB4"/>
<path d="M100.556 82.9469C100.556 82.9469 99.519 81.9719 98.932 80.8369C98.6592 80.321 98.5707 79.7274 98.6813 79.1544C98.7918 78.5814 99.0948 78.0633 99.54 77.6859C100.314 77.0429 101.048 77.2159 101.048 77.2159C101.048 77.2159 99.728 75.8599 100.776 74.1119C100.96 73.8064 101.205 73.5417 101.495 73.334C101.785 73.1262 102.114 72.9799 102.463 72.9039C102.942 72.7902 103.443 72.8188 103.906 72.9861C104.368 73.1535 104.772 73.4523 105.067 73.8459C105.067 73.8459 106.066 70.0359 110.305 71.0969C110.733 71.2039 111.296 71.6589 111.593 71.9849C113.395 73.9599 109.983 77.6679 107.911 78.4079C105.637 79.2199 104.176 79.1689 103.285 78.7849C103.923 78.9819 104.157 82.6279 100.556 82.9469Z" fill="#9935E8"/>
<path d="M106.893 81.7629L107.688 83.8969L106.864 83.8899" stroke="#9935E8" stroke-width="0.609" stroke-linecap="round" stroke-linejoin="round"/>
<path d="M107.969 81.8769C108.093 81.8469 108.155 81.6659 108.108 81.4739C108.06 81.2809 107.921 81.1509 107.797 81.1809C107.673 81.2119 107.611 81.3929 107.658 81.5849C107.706 81.7769 107.845 81.9079 107.969 81.8769ZM105.937 82.3699C106.064 82.3639 106.159 82.1979 106.149 81.9999C106.138 81.8029 106.026 81.6479 105.898 81.6549C105.77 81.6619 105.676 81.8279 105.686 82.0249C105.697 82.2229 105.809 82.3759 105.937 82.3699Z" fill="#9935E8"/>
<path d="M104.366 81.167C104.453 80.998 104.584 80.8555 104.744 80.7544C104.905 80.6532 105.09 80.5971 105.28 80.592M107.104 79.556C107.104 79.556 107.835 79.077 108.257 79.499" stroke="#9935E8" stroke-width="0.609" stroke-linecap="round" stroke-linejoin="round"/>
<path d="M106.861 85.3949C106.139 85.3269 105.892 84.9649 105.892 84.9649L107.139 84.8849C107.139 84.8849 107.339 85.3849 106.861 85.3949Z" fill="#9935E8" stroke="#9935E8" stroke-width="0.609" stroke-linecap="round" stroke-linejoin="round"/>
<path d="M103.024 93.7509C103.024 93.7509 104.249 96.5929 104.445 98.5979M109.602 93.8809C109.602 93.8809 109.819 96.3579 110.033 98.3609M94.6101 99.8029C94.6101 99.8029 95.9121 98.367 98.0371 99.688L99.9331 98.0029M102.824 102.407C102.594 102.292 97.8641 99.5929 97.8641 99.5929M114.555 99.5369L113.613 97.3969" stroke="#9935E8" stroke-width="0.609" stroke-linecap="round" stroke-linejoin="round"/>
<path d="M102.59 110.755C102.59 110.755 97.8781 108.796 92.0501 104.757C86.2221 100.717 82.5161 106.973 84.0781 109.524C85.4611 111.782 93.2181 119.533 93.2181 119.533L119.627 119.319C119.627 119.319 125.834 111.503 126.808 110.285C130.102 106.148 127.381 103.962 123.763 103.646C120.355 103.347 111.161 110.047 110.03 110.91L102.59 110.755Z" fill="#9935E8"/>
<path d="M118.751 99.316H101.774C101.666 99.3155 101.561 99.3518 101.476 99.4191C101.391 99.4863 101.331 99.5804 101.307 99.6859L99.007 109.423H94.745C94.745 109.423 94.358 111.419 96.612 111.419H99.004C99.048 111.432 99.094 111.439 99.141 111.439H116.112C116.22 111.439 116.325 111.402 116.409 111.335C116.494 111.268 116.554 111.175 116.579 111.07L119.218 99.905C119.242 99.7989 119.23 99.6879 119.183 99.5897C119.136 99.4916 119.058 99.412 118.96 99.3639C118.895 99.3325 118.823 99.3161 118.751 99.316Z" fill="#5D21D1"/>
<path d="M0.305054 119.494H159.696" stroke="#9935E8" stroke-width="0.609" stroke-linecap="round" stroke-linejoin="round"/>
</g>
</g>
</g>
</g>
<defs>
<clipPath id="clip0_17_183">
<rect width="160" height="160" fill="white"/>
</clipPath>
<clipPath id="clip1_17_183">
<rect width="160" height="160" fill="white"/>
</clipPath>
<clipPath id="clip2_17_183">
<rect width="160" height="160" fill="white"/>
</clipPath>
</defs>
</svg>
