<svg width="160" height="167" viewBox="0 0 160 167" fill="none" xmlns="http://www.w3.org/2000/svg">
<g clip-path="url(#clip0_17_471)">
<g clip-path="url(#clip1_17_471)">
<g clip-path="url(#clip2_17_471)">
<path d="M0.00311279 0H159.003V159H0.00311279V0Z" fill="white"/>
<path d="M136.419 101.581C131.311 101.257 123.534 100.732 120.177 99.6224C120.509 95.0482 119.363 88.4696 113.48 80.4133C108.854 73.5305 105.062 73.0764 105.062 73.0764C104.013 70.6924 102.262 68.6383 100.914 67.2789C101.848 64.5957 101.538 61.7417 98.5305 59.6498C98.9846 56.9866 95.2004 50.7429 93.2189 51.51C92.5719 51.7605 91.0217 54.1852 89.7239 56.9488C87.8724 56.7619 86.0114 56.6863 84.1509 56.7223C82.4178 55.1323 77.2891 50.7299 75.1555 52.2206C74.5145 52.6678 74.6338 56.9081 74.8762 60.2332C72.3044 63.2224 70.1579 67.6714 74.7699 72.2009C74.9269 72.3559 75.0879 72.505 75.2509 72.655C75.2584 73.0749 75.2345 73.4948 75.1793 73.9111C74.9001 75.8967 73.477 79.6232 76.496 87.3288C77.5931 90.149 79.0192 93.5148 79.7108 96.6471C80.165 98.7012 79.7456 101.093 78.9814 102.729C77.9976 104.832 79.5081 107.246 81.8305 107.246L118.014 106.805H139.28C139.28 106.805 142.621 101.976 136.419 101.581Z" fill="#FE7624"/>
<path d="M76.2684 52.9569C76.2684 52.9569 80.1898 56.0992 80.2146 58.9622M93.3967 52.4054C93.3967 52.4054 96.0669 55.1223 95.2133 58.7982" stroke="#9935E8" stroke-width="0.680719" stroke-linecap="round" stroke-linejoin="round"/>
<path d="M86.9105 63.4281C87.0218 62.7086 86.7416 62.0686 86.2845 61.9971C85.8274 61.9255 85.3672 62.4512 85.255 63.1697C85.1427 63.8892 85.4229 64.5302 85.88 64.6007C86.3371 64.6723 86.7982 64.1466 86.9105 63.4281ZM80.4641 63.4619C80.5764 62.7434 80.2971 62.1024 79.839 62.0309C79.3819 61.9603 78.9208 62.485 78.8095 63.2035C78.6972 63.924 78.9764 64.5649 79.4336 64.6345C79.8907 64.7061 80.3528 64.1814 80.4641 63.4619Z" fill="#9935E8"/>
<path d="M84.7283 68.1494C82.8153 69.3071 82.4188 67.4955 82.2995 66.5176C82.1723 67.4369 81.59 69.4542 80.2156 68.1484" stroke="#9935E8" stroke-width="0.680719" stroke-linecap="round" stroke-linejoin="round"/>
<path d="M80.8904 65.6571L82.0054 66.627C82.0915 66.6939 82.1982 66.7287 82.3072 66.7254C82.4162 66.7221 82.5207 66.681 82.6026 66.6091L83.653 65.665C83.9044 65.4384 83.7434 65.0797 83.3877 65.0757L81.2213 65.0469C80.8447 65.0419 80.634 65.4335 80.8904 65.6571Z" fill="#9935E8"/>
<path d="M77.1121 66.0248C77.1121 66.0248 71.5074 60.7648 64.9188 64.7528M77.1499 67.0612C77.1499 67.0612 70.6408 62.9759 64.9367 68.1494M88.5631 65.5497C88.5631 65.5497 94.1689 60.2898 100.757 64.2777M88.5184 66.5872C88.5184 66.5872 95.0295 62.5009 100.732 67.6744M76.3589 74.0513C89.6105 80.4709 98.0276 73.3467 99.6534 70.7222" stroke="#9935E8" stroke-width="0.680719" stroke-linecap="round" stroke-linejoin="round"/>
<path d="M136.015 82.0639C136.015 75.368 129.733 69.9371 121.985 69.9371C114.671 69.9371 108.666 74.7747 108.014 80.9459L108.2 94.1916L123.469 94.123C130.519 93.483 136.015 88.3324 136.015 82.0639Z" fill="white" stroke="#9935E8" stroke-width="0.680719" stroke-linecap="round" stroke-linejoin="round"/>
<path d="M113.833 85.4088C113.832 85.4937 113.807 85.5765 113.76 85.6471C113.713 85.7176 113.646 85.773 113.568 85.8063C113.49 85.8392 113.403 85.8478 113.32 85.8312C113.237 85.8145 113.16 85.7733 113.101 85.7129C113.061 85.6731 113.03 85.6258 113.009 85.5738C112.987 85.5218 112.977 85.466 112.978 85.4098V79.7157C112.976 79.6588 112.986 79.6023 113.008 79.5496C113.029 79.4969 113.061 79.4492 113.102 79.4096C113.162 79.3504 113.237 79.3101 113.32 79.2937C113.402 79.2772 113.488 79.2854 113.566 79.3172C113.618 79.3385 113.666 79.3699 113.706 79.4097C113.746 79.4494 113.778 79.4967 113.799 79.5487C113.821 79.6014 113.833 79.658 113.833 79.7147V81.6803C114.131 81.4585 114.481 81.3185 114.849 81.274C115.218 81.2296 115.591 81.2823 115.933 81.4269C116.448 81.6428 116.86 82.0494 117.082 82.5617C117.196 82.8241 117.255 83.1083 117.253 83.3965V85.4069C117.253 85.4637 117.242 85.52 117.22 85.5725C117.198 85.6249 117.165 85.6723 117.124 85.7119C117.065 85.7722 116.989 85.8132 116.905 85.8297C116.822 85.8463 116.736 85.8376 116.658 85.8048C116.58 85.772 116.513 85.7166 116.467 85.6457C116.42 85.5748 116.396 85.4916 116.397 85.4069V83.3975C116.398 83.2268 116.363 83.0579 116.295 82.9016C116.161 82.5949 115.917 82.3502 115.61 82.2169C115.454 82.1489 115.285 82.1143 115.114 82.1156C114.943 82.1139 114.774 82.1477 114.616 82.2149C114.31 82.349 114.065 82.5944 113.933 82.9016C113.866 83.0586 113.831 83.2277 113.832 83.3985L113.833 85.4088ZM121.388 84.5483C121.444 84.5463 121.5 84.556 121.553 84.5767C121.606 84.5975 121.653 84.6288 121.693 84.6688C121.733 84.7088 121.765 84.7566 121.786 84.8092C121.806 84.8618 121.816 84.9181 121.814 84.9746C121.816 85.0316 121.806 85.0884 121.785 85.1414C121.764 85.1944 121.732 85.2425 121.692 85.2826C121.368 85.5619 120.973 85.7453 120.551 85.8121C120.129 85.8789 119.696 85.8265 119.302 85.6607C118.908 85.4949 118.569 85.2224 118.321 84.8739C118.074 84.5253 117.929 84.1146 117.902 83.6881C117.876 83.2615 117.969 82.8359 118.171 82.4595C118.374 82.083 118.677 81.7705 119.047 81.5572C119.418 81.344 119.84 81.2384 120.268 81.2524C120.695 81.2664 121.11 81.3995 121.465 81.6366C121.843 81.887 122.139 82.2418 122.318 82.6581C122.432 82.9384 122.489 83.2385 122.487 83.5406C122.489 83.6261 122.465 83.7103 122.417 83.7813C122.369 83.8524 122.3 83.9068 122.22 83.9371C122.168 83.9579 122.113 83.9681 122.056 83.9669H118.811C118.878 84.1861 118.997 84.3859 119.158 84.5492C119.319 84.7125 119.517 84.8346 119.735 84.905C119.881 84.9547 120.035 84.9785 120.189 84.9785C120.524 84.9866 120.849 84.8697 121.102 84.6506C121.183 84.5848 121.284 84.5487 121.388 84.5483ZM121.573 83.1182C121.527 82.9706 121.457 82.8316 121.366 82.7068C121.185 82.4617 120.933 82.2782 120.644 82.1811C120.498 82.1315 120.345 82.1067 120.19 82.1076C119.881 82.1109 119.581 82.2087 119.33 82.3878C119.207 82.4773 119.099 82.5836 119.011 82.7058C118.92 82.8306 118.852 82.9702 118.81 83.1182H121.573ZM123.1 85.4128V79.7147C123.099 79.6583 123.109 79.6023 123.13 79.5499C123.151 79.4976 123.182 79.4499 123.221 79.4096C123.303 79.3296 123.412 79.2848 123.526 79.2848C123.64 79.2848 123.75 79.3296 123.831 79.4096C123.871 79.4497 123.902 79.4974 123.923 79.5498C123.944 79.6022 123.954 79.6583 123.953 79.7147V84.9835H124.149C124.205 84.9825 124.261 84.9931 124.313 85.0147C124.365 85.0362 124.412 85.0682 124.45 85.1087C124.491 85.1485 124.523 85.196 124.544 85.2484C124.566 85.3009 124.576 85.3571 124.576 85.4138C124.575 85.5266 124.53 85.6347 124.45 85.7143C124.37 85.794 124.262 85.8389 124.149 85.8391H123.521C123.465 85.8398 123.41 85.829 123.358 85.8075C123.307 85.786 123.26 85.7541 123.221 85.7139C123.143 85.6337 123.099 85.5249 123.1 85.4128ZM125.068 85.4128V79.7147C125.065 79.6583 125.075 79.602 125.096 79.5495C125.116 79.497 125.148 79.4493 125.188 79.4096C125.269 79.3296 125.379 79.2848 125.493 79.2848C125.607 79.2848 125.717 79.3296 125.798 79.4096C125.838 79.4497 125.869 79.4974 125.89 79.5498C125.91 79.6022 125.92 79.6583 125.919 79.7147V84.9835H126.116C126.172 84.9825 126.228 84.9931 126.28 85.0147C126.331 85.0362 126.378 85.0682 126.417 85.1087C126.457 85.1485 126.489 85.196 126.511 85.2485C126.532 85.3009 126.542 85.3572 126.541 85.4138C126.543 85.4699 126.533 85.5257 126.511 85.5776C126.49 85.6294 126.458 85.6762 126.417 85.7149C126.378 85.7545 126.331 85.7859 126.279 85.8072C126.227 85.8285 126.172 85.8394 126.116 85.8391H125.49C125.434 85.8404 125.378 85.8299 125.327 85.8086C125.275 85.7872 125.228 85.7553 125.19 85.7149C125.15 85.6757 125.119 85.6288 125.097 85.577C125.076 85.5252 125.066 85.4687 125.068 85.4128ZM131.663 83.5446C131.669 83.8467 131.613 84.1467 131.497 84.426C131.382 84.7052 131.21 84.9576 130.992 85.1674C130.752 85.407 130.462 85.5905 130.142 85.7046C129.823 85.8188 129.482 85.8607 129.144 85.8275C128.807 85.7942 128.48 85.6866 128.189 85.5123C127.898 85.3381 127.649 85.1015 127.46 84.8195C127.209 84.4419 127.075 83.9983 127.075 83.5446C127.075 83.0908 127.209 82.6473 127.46 82.2696C127.691 81.9234 128.012 81.6465 128.388 81.4684C128.764 81.2902 129.182 81.2176 129.596 81.2582C130.01 81.2988 130.405 81.4512 130.74 81.6989C131.074 81.9467 131.335 82.2807 131.494 82.6651C131.606 82.9443 131.663 83.2425 131.663 83.5446ZM129.369 82.1076C129.174 82.1049 128.98 82.1435 128.801 82.2209C128.46 82.3687 128.188 82.6419 128.042 82.9841C127.968 83.1606 127.931 83.3499 127.931 83.5411C127.931 83.7323 127.968 83.9216 128.042 84.0981C128.152 84.3585 128.336 84.5808 128.572 84.7373C128.807 84.8939 129.084 84.9777 129.367 84.9785C129.56 84.9785 129.751 84.9398 129.93 84.8643C130.273 84.7152 130.546 84.4399 130.693 84.0961C130.804 83.8346 130.834 83.5457 130.78 83.2669C130.725 82.9881 130.588 82.7321 130.386 82.5319C130.256 82.4002 130.102 82.2947 129.932 82.2209C129.755 82.1439 129.563 82.1053 129.369 82.1076Z" fill="#9935E8"/>
<path d="M75.6126 107.095H159.088" stroke="#9935E8" stroke-width="0.680719" stroke-linecap="round" stroke-linejoin="round"/>
<path d="M35.8974 67.893C37.5019 67.3484 38.9639 66.4511 40.176 65.2671C41.3881 64.083 42.3193 62.6424 42.9013 61.051C44.7331 61.0665 46.4847 61.805 47.7745 63.1059C49.0644 64.4067 49.7881 66.1644 49.788 67.9963C49.788 68.0947 49.788 68.1921 49.7801 68.2895L49.788 68.2815V74.9148H43.4419C42.4742 74.9986 41.4997 74.8785 40.5813 74.5622C39.6629 74.246 38.821 73.7406 38.1101 73.0788C37.3991 72.417 36.8348 71.6135 36.4537 70.7201C36.0726 69.8266 35.883 68.8642 35.8974 67.893ZM45.5755 69.2922C45.977 69.2922 46.2512 68.9831 46.2512 68.5697C46.2512 68.1573 45.965 67.8473 45.5646 67.8473C45.1631 67.8473 44.8878 68.1454 44.8878 68.5697C44.8878 68.9941 45.1512 69.2922 45.5755 69.2922ZM43.2014 69.2922C43.6039 69.2922 43.8782 68.9831 43.8782 68.5697C43.8782 68.1573 43.593 67.8473 43.1905 67.8473C42.789 67.8473 42.5147 68.1454 42.5147 68.5697C42.5147 68.9941 42.7771 69.2922 43.2014 69.2922ZM40.8293 69.2922C41.2298 69.2922 41.5051 68.9831 41.5051 68.5697C41.5051 68.1573 41.2189 67.8473 40.8174 67.8473C40.4149 67.8473 40.1407 68.1454 40.1407 68.5697C40.1407 68.9941 40.405 69.2922 40.8293 69.2922Z" fill="#FE7624"/>
<path d="M21.5585 57.0452C21.585 54.9314 22.236 52.8726 23.4296 51.1279C24.6233 49.3831 26.3062 48.0303 28.2668 47.2396C30.2273 46.449 32.3779 46.2558 34.448 46.6843C36.5181 47.1129 38.4153 48.1441 39.9008 49.6482C41.3862 51.1523 42.3938 53.0621 42.7965 55.1373C43.1993 57.2126 42.9794 59.3606 42.1644 61.3112C41.3494 63.2618 39.9758 64.9278 38.2163 66.0996C36.4568 67.2715 34.3901 67.8968 32.2761 67.897H21.5377V57.0214L21.5585 57.0452Z" fill="#FE7624"/>
<path d="M31.9015 63.4589H31.9472C32.0716 63.4721 32.1974 63.4589 32.3164 63.4204C32.4355 63.3818 32.545 63.3186 32.6381 63.2349C32.7311 63.1512 32.8055 63.0489 32.8564 62.9346C32.9073 62.8203 32.9336 62.6966 32.9336 62.5715C32.9336 62.4464 32.9073 62.3226 32.8564 62.2083C32.8055 62.094 32.7311 61.9917 32.6381 61.908C32.545 61.8244 32.4355 61.7612 32.3164 61.7226C32.1974 61.684 32.0716 61.6709 31.9472 61.6841H31.9015C31.6823 61.7073 31.4795 61.8108 31.3321 61.9746C31.1847 62.1385 31.1031 62.3511 31.1031 62.5715C31.1031 62.7919 31.1847 63.0045 31.3321 63.1683C31.4795 63.3322 31.6823 63.4357 31.9015 63.4589ZM32.7551 58.4573C32.9042 58.2566 33.3136 57.9794 33.9834 57.6246C35.5167 56.8246 36.2879 55.7563 36.2939 54.4178C36.2939 53.3902 35.9242 52.5475 35.1858 51.8906C34.4475 51.2328 33.4766 50.9048 32.2761 50.9048C30.1733 50.9048 28.8288 51.8718 28.2445 53.8066C28.1915 53.9816 28.2102 54.1705 28.2965 54.3317C28.3828 54.4929 28.5296 54.6132 28.7046 54.6662C28.8796 54.7192 29.0685 54.7005 29.2297 54.6142C29.3909 54.5279 29.5112 54.3811 29.5642 54.2061C29.9845 52.8466 30.865 52.1669 32.2046 52.1669C32.8388 52.1541 33.4578 52.3613 33.9565 52.7532C34.4524 53.1438 34.6999 53.6814 34.6999 54.3651C34.6996 54.6879 34.6308 55.0071 34.4981 55.3014C34.3653 55.5957 34.1716 55.8585 33.9297 56.0723C33.572 56.3407 33.1943 56.5802 32.7988 56.7888C32.295 57.0721 31.975 57.2778 31.8399 57.405C31.6858 57.562 31.5616 57.7458 31.4742 57.9466C31.3702 58.1649 31.305 58.3996 31.2814 58.6402C31.2579 59.0067 31.2463 59.374 31.2466 59.7413C31.2432 59.8278 31.2573 59.9141 31.288 59.995C31.3188 60.0759 31.3656 60.1498 31.4256 60.2122C31.4856 60.2746 31.5575 60.3242 31.6372 60.3581C31.7168 60.392 31.8025 60.4095 31.8891 60.4095C31.9756 60.4095 32.0613 60.392 32.1409 60.3581C32.2206 60.3242 32.2925 60.2746 32.3525 60.2122C32.4125 60.1498 32.4593 60.0759 32.4901 59.995C32.5208 59.9141 32.5349 59.8278 32.5315 59.7413V59.3994C32.5315 58.9721 32.606 58.6571 32.7551 58.4573Z" fill="white"/>
<path d="M74.0067 111.998L67.6149 85.6761C67.5612 85.4498 67.4522 85.2402 67.2977 85.0663C67.1432 84.8923 66.9479 84.7594 66.7295 84.6794H69.194C69.4384 84.6795 69.6757 84.7621 69.8673 84.914C70.0589 85.0659 70.1935 85.2781 70.2493 85.5162L75.4367 107.477H90.8239C90.8239 107.477 91.7183 112.077 86.521 112.077H74.0176C74.0173 112.05 74.0136 112.024 74.0067 111.998ZM30.8273 84.6824C30.8273 84.6824 65.7983 84.7549 65.7904 84.7679C65.7904 84.9537 66.0487 85.2637 66.2376 85.2637C66.4058 85.2624 66.5696 85.318 66.7022 85.4216C66.8348 85.5252 66.9285 85.6706 66.968 85.8342L73.3369 112.077H36.7868C36.5422 112.078 36.3045 111.996 36.1126 111.844C35.9206 111.693 35.7855 111.48 35.7294 111.242L29.7719 86.017C29.7345 85.8577 29.7335 85.6921 29.7691 85.5324C29.8046 85.3727 29.8758 85.2232 29.9773 85.0948C30.0788 84.9665 30.2079 84.8628 30.3551 84.7914C30.5023 84.72 30.6637 84.6827 30.8273 84.6824ZM50.8583 101.482C51.3901 101.483 51.9103 101.326 52.3526 101.031C52.795 100.736 53.1396 100.316 53.3427 99.8242C53.5637 99.2915 53.6077 98.7019 53.4679 98.1424C53.3282 97.5829 53.0123 97.0831 52.5667 96.7169C52.1212 96.3508 51.5697 96.1376 50.9937 96.1089C50.4177 96.0802 49.8478 96.2375 49.368 96.5576C48.8883 96.8776 48.5242 97.3435 48.3296 97.8864C48.1349 98.4292 48.12 99.0203 48.2871 99.5723C48.4541 100.124 48.7943 100.608 49.2573 100.952C49.7203 101.296 50.2816 101.481 50.8583 101.482ZM39.7044 101.993C40.2893 101.833 40.9114 101.882 41.4638 102.132C42.0162 102.381 42.4644 102.816 42.7314 103.36C42.955 103.811 43.0436 104.317 42.9863 104.818C42.9291 105.318 42.7286 105.791 42.4088 106.18C42.089 106.569 41.6637 106.858 41.1839 107.011C40.7042 107.164 40.1904 107.175 39.7044 107.043V107.731C40.1543 107.827 40.6192 107.826 41.0689 107.73C41.5185 107.634 41.9428 107.443 42.314 107.172C42.6861 106.902 42.9972 106.556 43.2269 106.158C43.4567 105.759 43.6 105.317 43.6476 104.859C43.6953 104.402 43.6465 103.94 43.5044 103.503C43.3623 103.065 43.1301 102.663 42.8228 102.32C42.5155 101.978 42.1395 101.704 41.7193 101.517C41.2991 101.33 40.8442 101.233 40.3842 101.233C40.1556 101.233 39.927 101.257 39.7044 101.305V101.993Z" fill="#9935E8"/>
<path d="M28.9888 100.648H39.9032V108.727C39.9032 109.167 39.8166 109.602 39.6483 110.009C39.48 110.415 39.2333 110.784 38.9223 111.095C38.6113 111.406 38.2421 111.653 37.8358 111.821C37.4295 111.99 36.994 112.076 36.5542 112.076H32.3378C31.898 112.076 31.4625 111.99 31.0562 111.821C30.6499 111.653 30.2807 111.406 29.9697 111.095C29.6587 110.784 29.4121 110.415 29.2438 110.009C29.0755 109.602 28.9888 109.167 28.9888 108.727V100.648Z" fill="#FE7624"/>
</g>
</g>
</g>
<defs>
<clipPath id="clip0_17_471">
<rect width="160" height="159" fill="white"/>
</clipPath>
<clipPath id="clip1_17_471">
<rect width="160" height="159" fill="white"/>
</clipPath>
<clipPath id="clip2_17_471">
<rect width="159.994" height="159" fill="white" transform="translate(0.00311279)"/>
</clipPath>
</defs>
</svg>
