<svg width="160" height="168" viewBox="0 0 160 168" fill="none" xmlns="http://www.w3.org/2000/svg">
<g clip-path="url(#clip0_17_314)">
<g clip-path="url(#clip1_17_314)">
<mask id="mask0_17_314" style="mask-type:luminance" maskUnits="userSpaceOnUse" x="0" y="39" width="160" height="82">
<path d="M0 39.836H160V120.164H0V39.836Z" fill="white"/>
</mask>
<g mask="url(#mask0_17_314)">
<path d="M45.25 116.123H21.444V51.758H45.11" stroke="#9935E8" stroke-width="0.575" stroke-linecap="round" stroke-linejoin="round"/>
<path d="M44.52 58.53H31.526V55.801H44.52M45.11 62.795H23.96V80.462H45.112V62.795H45.11ZM45.11 86.398H23.96V104.361H45.112V86.398H45.11Z" stroke="#9935E8" stroke-width="0.575" stroke-linecap="round" stroke-linejoin="round"/>
<path d="M31.777 111.091L30.425 119.875H39.463L40.562 111.091M31.777 111.091H40.562M31.777 111.091L33.057 102.789H41.599L40.562 111.091" stroke="#FE7624" stroke-width="0.575" stroke-linecap="round" stroke-linejoin="round"/>
<path d="M34.267 94.929L33.057 102.789H41.6L42.582 94.929M34.267 94.929H42.582M34.267 94.929L35.414 87.476M42.582 94.929L43.514 87.476M35.414 87.476H43.514M35.414 87.476L36.504 80.401H44.398M43.514 87.476L44.398 80.401M44.398 80.401H36.503L37.538 73.676H45.238L44.398 80.401Z" stroke="#FE7624" stroke-width="0.575" stroke-linecap="round" stroke-linejoin="round"/>
<path d="M44.52 72.763H35.103V73.676H44.521L44.52 72.763Z" fill="#FE7624"/>
<path d="M66.686 110.61H62.75V114.545H66.685L66.686 110.61ZM72.147 110.61H68.213V114.545H72.147V110.61Z" stroke="#9935E8" stroke-width="0.575" stroke-linecap="round" stroke-linejoin="round"/>
<path d="M59.659 110.227H48.889V114.927H59.659V110.227Z" fill="#9935E8"/>
<path d="M52.194 116.323H70.72" stroke="#9935E8" stroke-width="0.575" stroke-linecap="round" stroke-linejoin="round"/>
<path d="M46.644 108.544H76.494" stroke="#FE7624" stroke-width="0.575" stroke-linecap="round" stroke-linejoin="round"/>
<path d="M48.888 105.387H56.428" stroke="#9935E8" stroke-width="0.575" stroke-linecap="round" stroke-linejoin="round"/>
<path d="M58.934 106.349C59.1893 106.349 59.4341 106.248 59.6146 106.067C59.7951 105.887 59.8965 105.642 59.8965 105.386C59.8965 105.131 59.7951 104.886 59.6146 104.706C59.4341 104.525 59.1893 104.424 58.934 104.424C58.6787 104.424 58.4339 104.525 58.2534 104.706C58.0729 104.886 57.9715 105.131 57.9715 105.386C57.9715 105.642 58.0729 105.887 58.2534 106.067C58.4339 106.248 58.6787 106.349 58.934 106.349ZM61.858 106.349C61.987 106.353 62.1155 106.331 62.2359 106.285C62.3563 106.238 62.4662 106.168 62.5589 106.078C62.6516 105.988 62.7254 105.881 62.7757 105.762C62.8261 105.643 62.852 105.516 62.852 105.386C62.852 105.257 62.8261 105.13 62.7757 105.011C62.7254 104.892 62.6516 104.784 62.5589 104.695C62.4662 104.605 62.3563 104.535 62.2359 104.488C62.1155 104.442 61.987 104.42 61.858 104.424C61.6081 104.432 61.3711 104.537 61.1972 104.717C61.0233 104.896 60.926 105.136 60.926 105.386C60.926 105.636 61.0233 105.877 61.1972 106.056C61.3711 106.236 61.6081 106.341 61.858 106.349ZM64.783 106.349C64.912 106.353 65.0405 106.331 65.1609 106.285C65.2813 106.238 65.3912 106.168 65.4839 106.078C65.5766 105.988 65.6504 105.881 65.7007 105.762C65.7511 105.643 65.777 105.516 65.777 105.386C65.777 105.257 65.7511 105.13 65.7007 105.011C65.6504 104.892 65.5766 104.784 65.4839 104.695C65.3912 104.605 65.2813 104.535 65.1609 104.488C65.0405 104.442 64.912 104.42 64.783 104.424C64.5331 104.432 64.2961 104.537 64.1222 104.717C63.9483 104.896 63.851 105.136 63.851 105.386C63.851 105.636 63.9483 105.877 64.1222 106.056C64.2961 106.236 64.5331 106.341 64.783 106.349Z" fill="#9935E8"/>
<path d="M48.888 102.788H75.575M48.888 100.934H75.575" stroke="#9935E8" stroke-width="0.575" stroke-linecap="round" stroke-linejoin="round"/>
<path d="M70.427 95.57H48.887V98.817H70.427V95.57Z" fill="#9935E8"/>
<path d="M75.575 55.55H49.06V93.675H75.575V55.55Z" stroke="#FE7624" stroke-width="0.575" stroke-linecap="round" stroke-linejoin="round"/>
<path d="M76.492 115.947C76.492 117.385 75.305 118.543 73.842 118.543H50.307C48.842 118.543 47.657 117.381 47.657 115.947V54.909C47.657 53.471 48.842 52.313 50.307 52.313H53.385L53.914 53.003C54.1233 53.2775 54.393 53.5002 54.7022 53.6537C55.0114 53.8071 55.3518 53.8873 55.697 53.888H70.771C71.0004 53.8873 71.2268 53.8353 71.4335 53.7356C71.6401 53.6359 71.8217 53.4911 71.965 53.312L72.783 52.308H73.837C75.301 52.308 76.488 53.47 76.488 54.904L76.492 115.947ZM77.175 49.955H49.55C49.0658 49.9572 48.5867 50.0548 48.1402 50.2423C47.6937 50.4298 47.2885 50.7035 46.9479 51.0477C46.6072 51.3919 46.3377 51.7998 46.1549 52.2482C45.972 52.6966 45.8793 53.1767 45.882 53.661V117.067C45.882 119.114 47.524 119.617 49.55 119.617H77.174C79.199 119.617 80.841 119.114 80.841 117.067V53.661C80.8437 53.1768 80.7509 52.6969 80.568 52.2486C80.3851 51.8003 80.1157 51.3925 79.7752 51.0483C79.4347 50.7042 79.0297 50.4305 78.5834 50.2429C78.1371 50.0553 77.6592 49.9574 77.175 49.955Z" fill="#9935E8"/>
<path d="M81.37 116.123V51.758H84.834C84.6627 50.9324 84.2128 50.1907 83.5598 49.6573C82.9068 49.1238 82.0902 48.8311 81.247 48.828H48.187C47.2095 48.8336 46.2742 49.2271 45.5867 49.922C44.8993 50.617 44.5159 51.5565 44.521 52.534V115.941C44.5182 116.425 44.6109 116.905 44.7938 117.353C44.9766 117.802 45.246 118.209 45.5866 118.554C45.9271 118.898 46.3322 119.171 46.7785 119.359C47.2249 119.546 47.7039 119.644 48.188 119.646H81.248C82.1942 119.642 83.1025 119.274 83.7844 118.618C84.4663 117.962 84.8694 117.068 84.91 116.123H81.37ZM75.129 114.819C75.129 116.257 73.942 117.416 72.478 117.416H48.945C47.481 117.416 46.295 116.253 46.295 114.819V53.781C46.295 52.348 47.481 51.185 48.945 51.185H52.023L52.553 51.876C52.7622 52.1506 53.0319 52.3733 53.3411 52.5268C53.6503 52.6803 53.9908 52.7604 54.336 52.761H69.409C69.6384 52.76 69.8647 52.7079 70.0714 52.6084C70.2781 52.509 70.4601 52.3647 70.604 52.186L71.422 51.186H72.477C73.941 51.186 75.127 52.348 75.127 53.781L75.129 114.819Z" fill="#FD7723"/>
<path d="M72.986 49.166C75.298 49.166 77.171 50.988 77.171 53.226V116.184C77.1657 116.969 76.9322 117.737 76.4991 118.392C76.0659 119.047 75.4516 119.562 74.731 119.875M111.023 116.111V51.746M81.349 49.955V118.441M111.025 51.746V51.759H81.37V116.123H111.025V116.111H140.68V51.746H111.025Z" stroke="#9935E8" stroke-width="0.575" stroke-linecap="round" stroke-linejoin="round"/>
<path d="M101.881 63.575L95.617 69.945L94.007 68.385L92.013 70.443L95.707 74.021L103.923 65.583L101.881 63.575Z" fill="#FD7723"/>
<path d="M103.818 98.725H88.953V102.582H103.818V98.725Z" fill="#9935E8"/>
<path d="M91.948 100.653H100.823" stroke="white" stroke-width="0.575" stroke-linecap="round" stroke-linejoin="round"/>
<path d="M88.634 77.845H104.435M90.281 81.002H101.852M85.227 85.458H107.917M85.227 88.34H107.917M85.227 91.225H107.917M92.004 93.676H99.792" stroke="#9935E8" stroke-width="0.575" stroke-linecap="round" stroke-linejoin="round"/>
<path d="M98.47 64.037L96.427 62.028L96.417 62.038L95.209 60.852L88.947 67.22L88.553 66.839L88.552 66.841L87.335 65.663L85.342 67.721L89.037 71.299V71.297L90.254 72.475L98.47 64.037Z" fill="#9935E8"/>
<mask id="mask1_17_314" style="mask-type:luminance" maskUnits="userSpaceOnUse" x="85" y="60" width="14" height="13">
<path d="M98.47 64.037L96.427 62.028L96.417 62.038L95.209 60.852L88.947 67.22L88.553 66.839L88.552 66.841L87.335 65.663L85.342 67.721L89.037 71.299V71.297L90.254 72.475L98.47 64.037Z" fill="white"/>
</mask>
<g mask="url(#mask1_17_314)">
<path d="M89.036 71.299L97.169 62.946" stroke="white" stroke-width="0.575" stroke-linecap="round" stroke-linejoin="round"/>
</g>
<path d="M127.536 94.697H132.86M127.536 96.27H130.197M135.901 93.409H114.79V104.224H135.901V93.409Z" stroke="#FE7624" stroke-width="0.575" stroke-linecap="round" stroke-linejoin="round"/>
<path d="M125.585 93.415V104.23M133.574 103.191C133.867 103.191 134.148 103.075 134.355 102.868C134.562 102.661 134.679 102.38 134.679 102.087C134.679 101.794 134.563 101.513 134.356 101.306C134.149 101.099 133.868 100.982 133.575 100.982C133.43 100.982 133.286 101.01 133.152 101.066C133.018 101.121 132.896 101.203 132.794 101.305C132.587 101.512 132.47 101.793 132.47 102.086C132.47 102.379 132.586 102.66 132.793 102.867C133 103.074 133.281 103.191 133.574 103.191Z" stroke="#FE7624" stroke-width="0.575" stroke-linecap="round" stroke-linejoin="round"/>
<path d="M127.514 79.423H132.837M127.514 80.997H130.175M133.552 87.918C133.845 87.918 134.126 87.8016 134.333 87.5945C134.54 87.3873 134.656 87.1064 134.656 86.8135C134.656 86.5205 134.54 86.2396 134.333 86.0325C134.126 85.8253 133.845 85.709 133.552 85.709C133.259 85.709 132.978 85.8253 132.771 86.0325C132.564 86.2396 132.447 86.5205 132.447 86.8135C132.447 87.1064 132.564 87.3873 132.771 87.5945C132.978 87.8016 133.259 87.918 133.552 87.918Z" stroke="#9935E8" stroke-width="0.575" stroke-linecap="round" stroke-linejoin="round"/>
<path d="M124.701 78.135H135.88V88.95H114.769V87.863" stroke="#9935E8" stroke-width="0.575" stroke-linecap="round" stroke-linejoin="round"/>
<path d="M124.701 77.048H113.886M124.701 77.048V87.863M124.701 77.048L113.886 87.863M113.886 77.048V87.863M113.886 77.048L124.701 87.863M113.886 87.863H124.701M127.534 64.66H132.858M127.534 66.233H130.196M127.534 68.268H130.196M133.572 72.042C133.717 72.042 133.861 72.0134 133.995 71.9579C134.129 71.9023 134.251 71.8209 134.353 71.7183C134.456 71.6157 134.537 71.4939 134.593 71.3598C134.648 71.2258 134.677 71.0821 134.677 70.937C134.677 70.7919 134.648 70.6482 134.593 70.5141C134.537 70.38 134.456 70.2582 134.353 70.1556C134.251 70.053 134.129 69.9716 133.995 69.9161C133.861 69.8606 133.717 69.832 133.572 69.832C133.279 69.832 132.998 69.9484 132.791 70.1556C132.583 70.3628 132.467 70.6439 132.467 70.937C132.467 71.23 132.583 71.5111 132.791 71.7183C132.998 71.9256 133.279 72.042 133.572 72.042Z" stroke="#9935E8" stroke-width="0.575" stroke-linecap="round" stroke-linejoin="round"/>
<path d="M124.701 62.86H135.859V73.676H114.748V72.292" stroke="#9935E8" stroke-width="0.575" stroke-linecap="round" stroke-linejoin="round"/>
<path d="M124.701 61.477H113.886M124.701 61.477V72.292M124.701 61.477L113.886 72.292M113.886 61.477V72.292M113.886 61.477L124.701 72.292M113.886 72.292H124.701" stroke="#9935E8" stroke-width="0.575" stroke-linecap="round" stroke-linejoin="round"/>
<path d="M135.902 108.782H126.217V112.096H135.902V108.782ZM131.966 55.551H118.999V58.729H131.966V55.551ZM49.058 55.55V62.139H49.084V66.884H60.473V65.528H64.588V62.86H69.267V62.139H75.573V55.55H49.058ZM56.95 66.41L56.456 66.558C56.4089 66.5726 56.3585 66.5729 56.3112 66.5586C56.264 66.5443 56.2221 66.5163 56.191 66.478C56.17 66.4523 56.1544 66.4227 56.145 66.391L55.294 63.561C55.279 63.5138 55.2786 63.4631 55.2929 63.4156C55.3071 63.3682 55.3354 63.3261 55.374 63.295C55.3997 63.2744 55.4293 63.2591 55.461 63.25L55.955 63.101C55.987 63.091 56.02 63.089 56.052 63.091C56.1012 63.096 56.1477 63.1155 56.1858 63.147C56.2239 63.1785 56.2518 63.2206 56.266 63.268L57.117 66.103C57.1351 66.1657 57.1278 66.233 57.0968 66.2904C57.0657 66.3479 57.0124 66.3908 56.95 66.41Z" fill="#FE7624"/>
<path d="M56.729 66.569L56.894 67.116L55.466 67.546L53.92 66.058L37.948 70.863M42.034 79.886H40.87L41.245 76.694L41.005 73.75L39.715 73.654L39.535 76.447C39.535 76.447 39.027 79.508 38.735 79.882H39.945" stroke="#9935E8" stroke-width="0.575" stroke-linecap="round" stroke-linejoin="round"/>
<path d="M40.356 68.151C40.727 67.996 40.886 67.531 40.712 67.112C40.537 66.694 40.095 66.48 39.723 66.635C39.352 66.79 39.193 67.255 39.367 67.673C39.542 68.093 39.985 68.306 40.356 68.151Z" fill="#9935E8" stroke="#9935E8" stroke-width="0.575" stroke-linecap="round" stroke-linejoin="round"/>
<path d="M39.944 69.612C39.944 69.612 40.647 73.594 43.714 69.182M41.244 68.98C41.244 68.98 42.394 67.582 45.5 68.443" stroke="#9935E8" stroke-width="0.575" stroke-linecap="round" stroke-linejoin="round"/>
<path d="M39.714 73.658V69.32L41.244 68.988L41.004 73.75L39.714 73.658ZM79.18 41.146C79.31 40.711 79.104 40.265 78.719 40.149C78.333 40.033 77.915 40.292 77.784 40.726C77.654 41.161 77.86 41.606 78.246 41.723C78.631 41.839 79.049 41.58 79.18 41.146Z" fill="#9935E8" stroke="#9935E8" stroke-width="0.575" stroke-linecap="round" stroke-linejoin="round"/>
<path d="M79.16 43.223C79.16 43.223 80.022 46.016 82.062 46.202" stroke="#9935E8" stroke-width="0.575" stroke-linecap="round" stroke-linejoin="round"/>
<path d="M75.537 48.75C75.537 48.75 77.094 45.827 77.467 43.094C77.885 43.099 79.042 43.15 79.042 43.15C79.042 43.15 78.803 48.75 77.51 48.75H75.537Z" fill="#9935E8" stroke="#9935E8" stroke-width="0.575" stroke-linecap="round" stroke-linejoin="round"/>
<path d="M75.537 48.747H79.159L78.045 52.767L78.826 53.904" stroke="#9935E8" stroke-width="0.575" stroke-linecap="round" stroke-linejoin="round"/>
<path d="M77.231 48.747H80.853L79.739 52.767L80.521 53.904" stroke="#9935E8" stroke-width="0.575" stroke-linecap="round" stroke-linejoin="round"/>
<path d="M86.546 69.374L92.173 58.104L96.869 65.956" stroke="#FE7624" stroke-width="0.575" stroke-linecap="round" stroke-linejoin="round"/>
<path d="M92.198 58.313L92.158 43.483C92.1575 43.255 92.101 43.0306 91.9934 42.8297C91.8857 42.6287 91.7303 42.4572 91.5408 42.3305C91.3513 42.2037 91.1336 42.1255 90.9067 42.1028C90.6799 42.08 90.4509 42.1134 90.24 42.2L79.74 46.503" stroke="#FE7624" stroke-width="0.575" stroke-linecap="round" stroke-linejoin="round"/>
<path d="M81.792 47.852C81.9138 47.856 82.0353 47.8355 82.149 47.7917C82.2628 47.7478 82.3665 47.6816 82.4542 47.5968C82.5418 47.5121 82.6115 47.4105 82.659 47.2983C82.7066 47.1861 82.7311 47.0654 82.7311 46.9435C82.7311 46.8216 82.7066 46.7009 82.659 46.5887C82.6115 46.4764 82.5418 46.3749 82.4542 46.2902C82.3665 46.2054 82.2628 46.1391 82.149 46.0953C82.0353 46.0514 81.9138 46.0309 81.792 46.035C81.5563 46.0428 81.3328 46.142 81.1688 46.3115C81.0048 46.481 80.9131 46.7076 80.9131 46.9435C80.9131 47.1793 81.0048 47.406 81.1688 47.5755C81.3328 47.745 81.5563 47.8442 81.792 47.852Z" fill="#FD7723"/>
<path d="M77.62 43.094C77.62 43.094 79.202 48.213 83.147 45.052" stroke="#9935E8" stroke-width="0.575" stroke-linecap="round" stroke-linejoin="round"/>
<path d="M85.755 68.376L88.921 67.003M97.968 64.744L93.018 62.665" stroke="#FE7624" stroke-width="0.575" stroke-linecap="round" stroke-linejoin="round"/>
<path d="M120.43 119.3H119.317V115.88L118.568 113.164H117.155V119.3H116.243" stroke="#9935E8" stroke-width="0.575" stroke-linecap="round" stroke-linejoin="round"/>
<path d="M117.155 113.164L116.531 108.397H118.793L118.568 113.164H117.155ZM118.372 106.15C118.45 105.703 118.191 105.285 117.795 105.216C117.398 105.147 117.014 105.454 116.936 105.901C116.859 106.348 117.117 106.766 117.514 106.835C117.91 106.904 118.295 106.597 118.372 106.15Z" fill="#9935E8" stroke="#9935E8" stroke-width="0.575" stroke-linecap="round" stroke-linejoin="round"/>
<path d="M116.531 108.397C116.531 108.397 115.452 112.401 114.633 111.626C114.181 111.189 113.694 110.79 113.177 110.433" stroke="#9935E8" stroke-width="0.575" stroke-linecap="round" stroke-linejoin="round"/>
<path d="M121.555 108.275L122.758 100.953" stroke="#FE7624" stroke-width="0.575" stroke-linecap="round" stroke-linejoin="round"/>
<path d="M122.781 101.504C122.871 101.507 122.96 101.493 123.044 101.461C123.127 101.429 123.204 101.38 123.268 101.318C123.333 101.256 123.384 101.181 123.419 101.099C123.454 101.016 123.472 100.928 123.472 100.838C123.472 100.748 123.454 100.66 123.419 100.577C123.384 100.495 123.332 100.42 123.268 100.358C123.203 100.296 123.126 100.248 123.043 100.216C122.959 100.184 122.87 100.169 122.78 100.173C122.608 100.18 122.445 100.253 122.326 100.377C122.207 100.501 122.14 100.667 122.14 100.839C122.14 101.011 122.207 101.177 122.327 101.301C122.446 101.425 122.609 101.497 122.781 101.504Z" fill="#FE7624"/>
<path d="M118.793 108.419C118.793 108.419 120.568 108.595 121.964 105.856M126.662 119.3H127.902L128.114 115.646L128.741 112.778L130.111 112.648L129.927 115.642C129.927 115.642 129.864 118.902 130.175 119.3H128.886" stroke="#9935E8" stroke-width="0.575" stroke-linecap="round" stroke-linejoin="round"/>
<path d="M130.484 106.373C130.659 105.955 130.5 105.49 130.128 105.335C129.757 105.18 129.314 105.394 129.14 105.812C128.965 106.231 129.124 106.696 129.496 106.851C129.867 107.006 130.31 106.792 130.484 106.373ZM130.421 108.275L130.11 112.648L128.74 112.778L129.157 108.525L130.421 108.275Z" fill="#9935E8" stroke="#9935E8" stroke-width="0.575" stroke-linecap="round" stroke-linejoin="round"/>
<path d="M130.42 108.275C130.42 108.275 135.183 110.409 130.239 113.603M125.188 109.612C125.188 109.612 126.454 113.043 129.098 108.614M33.292 118.586L31.962 119.335L31.337 116.188L29.009 113.758L27.225 114.026L29.175 116.818C29.175 116.818 27.512 118.961 27.225 119.335H29.179" stroke="#9935E8" stroke-width="0.575" stroke-linecap="round" stroke-linejoin="round"/>
<path d="M26.82 109.365C26.82 109.365 25.904 112.418 27.22 114.026C27.8732 114.029 28.525 113.965 29.165 113.834C29.165 113.834 27.705 110.553 29.12 109.364L26.82 109.365ZM27.999 108.377C28.369 108.222 28.529 107.756 28.355 107.338C28.18 106.919 27.737 106.705 27.365 106.86C26.995 107.015 26.835 107.48 27.01 107.899C27.184 108.318 27.627 108.531 27.999 108.377Z" fill="#9935E8" stroke="#9935E8" stroke-width="0.575" stroke-linecap="round" stroke-linejoin="round"/>
<path d="M29.165 109.349C29.165 109.349 30.559 110.808 30.987 105.418" stroke="#9935E8" stroke-width="0.575" stroke-linecap="round" stroke-linejoin="round"/>
<path d="M48.1 103.34L27.68 110.192L28.713 113.269L49.133 106.417L48.101 103.34H48.1Z" fill="#FE7624"/>
<path d="M26.798 109.386C26.798 109.386 28.109 114.958 32.598 111.835M0.286987 119.875H159.712" stroke="#9935E8" stroke-width="0.575" stroke-linecap="round" stroke-linejoin="round"/>
</g>
</g>
</g>
<defs>
<clipPath id="clip0_17_314">
<rect width="160" height="160" fill="white"/>
</clipPath>
<clipPath id="clip1_17_314">
<rect width="160" height="160" fill="white"/>
</clipPath>
</defs>
</svg>
