<svg width="160" height="168" viewBox="0 0 160 168" fill="none" xmlns="http://www.w3.org/2000/svg">
<g clip-path="url(#clip0_17_542)">
<g clip-path="url(#clip1_17_542)">
<g clip-path="url(#clip2_17_542)">
<path d="M0 0H160V160H0V0Z" fill="white"/>
<mask id="mask0_17_542" style="mask-type:luminance" maskUnits="userSpaceOnUse" x="0" y="51" width="160" height="58">
<path d="M0 51.416H160V108.584H0V51.416Z" fill="white"/>
</mask>
<g mask="url(#mask0_17_542)">
<path d="M147.866 88.457L145.028 86.217V82.513C145.028 82.4026 145.007 82.2933 144.965 82.1912C144.923 82.0892 144.861 81.9965 144.783 81.9184C144.705 81.8404 144.612 81.7785 144.51 81.7364C144.408 81.6943 144.298 81.6727 144.188 81.673C144.078 81.6729 143.969 81.6945 143.867 81.7367C143.765 81.7789 143.672 81.8408 143.594 81.9188C143.516 81.9968 143.454 82.0895 143.412 82.1915C143.37 82.2934 143.349 82.4027 143.349 82.513V84.893L124.454 69.998C124.301 69.8773 124.111 69.8136 123.916 69.818C123.771 69.7663 123.619 69.7399 123.465 69.74H103.872C103.516 69.7403 103.174 69.8818 102.922 70.1335C102.67 70.3853 102.528 70.7267 102.527 71.083V71.363C102.527 71.7195 102.669 72.0614 102.921 72.3134C103.174 72.5654 103.515 72.707 103.872 72.707H123.465C123.669 72.7072 123.87 72.6609 124.053 72.5716C124.236 72.4824 124.397 72.3526 124.522 72.192L143.349 87.034V106.037H127.431V108.304H143.59C143.669 108.384 143.762 108.448 143.865 108.492C144.074 108.579 144.31 108.579 144.519 108.492C144.622 108.448 144.716 108.384 144.794 108.304H146.237V106.037H145.032V88.357L146.831 89.775C146.917 89.8512 147.017 89.9091 147.126 89.945C147.234 89.9809 147.349 89.9942 147.463 89.9838C147.577 89.9735 147.688 89.9399 147.789 89.8851C147.889 89.8302 147.978 89.7553 148.048 89.665C148.119 89.5753 148.171 89.4719 148.2 89.3613C148.23 89.2506 148.236 89.1351 148.218 89.022C148.201 88.9087 148.162 88.8 148.101 88.7028C148.04 88.6055 147.96 88.5219 147.866 88.457Z" fill="#FEBA91"/>
<path d="M134.388 86.478H102.445V108.091H134.388V86.478Z" fill="white" stroke="#9935E8" stroke-width="0.56" stroke-linecap="round" stroke-linejoin="round"/>
<path d="M120.367 86.272V108.214" stroke="#9935E8" stroke-width="0.56" stroke-linejoin="round"/>
<path d="M116.067 88.872H130.522M124.812 96.636H134.099M114.622 102.939H132.725M117.151 94.695H107.792M102.445 99.972H113.538" stroke="#9935E8" stroke-width="0.56" stroke-linecap="round" stroke-linejoin="round"/>
<path d="M134.481 96.6C136.866 97.502 134.41 99.01 134.41 99.01C134.41 99.01 133.795 97.3 130.651 96.607L134.481 96.6Z" fill="white" stroke="#9935E8" stroke-width="0.56" stroke-linecap="round" stroke-linejoin="round"/>
<path d="M88.616 51.416H22.794C22.4273 51.4171 22.0759 51.5632 21.8166 51.8225C21.5572 52.0819 21.4111 52.4333 21.41 52.8V91.909C21.4108 92.2758 21.5569 92.6274 21.8163 92.8868C22.0757 93.1461 22.4272 93.2922 22.794 93.293H48.643L44.849 107.776L68.856 108.538L64.948 93.292H88.616C88.9827 93.2912 89.3341 93.1453 89.5934 92.8861C89.8528 92.627 89.999 92.2756 90 91.909V52.799C89.999 52.4324 89.8528 52.081 89.5934 51.8219C89.3341 51.5627 88.9827 51.4168 88.616 51.416Z" fill="#FE7624"/>
<path d="M56.403 102.573C57.166 102.573 57.8978 102.27 58.4373 101.73C58.9769 101.191 59.28 100.459 59.28 99.696C59.28 98.933 58.9769 98.2012 58.4373 97.6617C57.8978 97.1221 57.166 96.819 56.403 96.819C55.64 96.819 54.9082 97.1221 54.3687 97.6617C53.8291 98.2012 53.526 98.933 53.526 99.696C53.526 100.459 53.8291 101.191 54.3687 101.73C54.9082 102.27 55.64 102.573 56.403 102.573Z" fill="white"/>
<path d="M62.764 93.341L66.247 108.176" stroke="#9935E8" stroke-width="0.712" stroke-linecap="round" stroke-linejoin="round"/>
<path d="M82.818 54.044H25.998C25.277 54.044 24.692 54.629 24.692 55.35V88.434C24.692 89.155 25.277 89.74 25.998 89.74H82.818C83.539 89.74 84.124 89.155 84.124 88.435V55.35C84.124 54.629 83.539 54.044 82.818 54.044Z" fill="white"/>
<path d="M87.123 51.746V92.922" stroke="#9935E8" stroke-width="0.56" stroke-linecap="round" stroke-linejoin="round"/>
<path d="M59.86 59.755V86.073M82.118 63.514C81.893 63.59 59.86 63.214 59.86 63.514M82.118 72.95C81.893 73.025 59.86 72.649 59.86 72.95M82.118 80.914C81.893 80.99 59.86 80.614 59.86 80.914M61.835 65.827H71.084M61.835 67.763H76.555M61.835 69.305H71.328M61.835 70.846H65.199M61.835 74.945H76.555M61.835 76.486H71.328M61.835 78.028H65.199M61.835 82.45H76.555M61.835 83.992H71.328M28.9 63.525H50.499M28.9 65.263H50.499M28.9 83.742H50.499M31.55 67.763H46.438M31.55 69.55H44.267M34.342 71.918L50.81 72.059M34.342 73.595L50.81 73.735M34.342 78.825L50.81 78.966M34.342 80.282L50.81 80.422M31.297 75.575H40.884M31.297 77.2H40.884M31.297 82.388H36.814" stroke="#5D21D1" stroke-width="0.56" stroke-linecap="round" stroke-linejoin="round"/>
<path d="M82.119 59.755H26.475V86.074H82.119V59.755Z" stroke="#5D21D1" stroke-width="0.56" stroke-linecap="round" stroke-linejoin="round"/>
<path d="M28.448 57.931H31.297M40.883 57.931H43.186M45.799 57.931H47.603" stroke="#FE7624" stroke-width="0.56" stroke-linecap="round" stroke-linejoin="round"/>
<path d="M78.608 57.931H80.413M75.522 57.931H77.327" stroke="#5D21D1" stroke-width="0.56" stroke-linecap="round" stroke-linejoin="round"/>
<path d="M33.97 57.931H38.092" stroke="#FE7624" stroke-width="0.56" stroke-linecap="round" stroke-linejoin="round"/>
<path d="M82.119 56.228H26.475V59.755H82.119V56.228Z" stroke="#5D21D1" stroke-width="0.56" stroke-linecap="round" stroke-linejoin="round"/>
<path d="M25.697 93.278C23.924 92.748 21.154 91.318 18.419 87.521C15.685 83.724 17.673 80.99 20.379 83.103C23.084 85.217 25.697 93.278 25.697 93.278Z" fill="#FCFCFC" stroke="#9935E8" stroke-width="0.56" stroke-linecap="round" stroke-linejoin="round"/>
<path d="M25.78 93.122C24.763 90.774 22.876 86.439 22.583 82.318C22.181 76.65 26.37 75.328 27.621 79.306C29.493 85.276 25.779 93.122 25.779 93.122H25.78Z" fill="#FCFCFC" stroke="#9935E8" stroke-width="0.56" stroke-linecap="round" stroke-linejoin="round"/>
<path d="M33.185 87.679C35.923 83.882 33.931 81.148 31.225 83.26C28.52 85.372 27.273 89.173 25.907 93.278C25.904 93.278 30.447 91.476 33.185 87.679Z" fill="#FCFCFC" stroke="#9935E8" stroke-width="0.56" stroke-linecap="round" stroke-linejoin="round"/>
<path d="M25.9041 94.521C25.8111 94.397 26.2461 92.469 22.6041 90.165C18.9641 87.862 18.1261 88.606 17.6601 89.448C17.1931 90.289 19.3081 92.281 21.5781 93.433C23.8481 94.583 25.9041 94.521 25.9041 94.521Z" fill="#FCFCFC" stroke="#9935E8" stroke-width="0.56" stroke-linecap="round" stroke-linejoin="round"/>
<path d="M25.9041 94.521C25.9981 94.397 25.5621 92.469 29.2031 90.165C32.8431 87.862 33.6811 88.606 34.1481 89.448C34.6141 90.289 32.5011 92.282 30.2301 93.431C27.9591 94.579 25.9041 94.521 25.9041 94.521Z" fill="#FCFCFC" stroke="#9935E8" stroke-width="0.56" stroke-linecap="round" stroke-linejoin="round"/>
<path d="M22.534 108.256L18.302 103.455L22.045 94.776H29.893L33.505 103.604L29.405 108.256H22.534Z" fill="#FEBA91"/>
<path d="M56.292 105.55H25.279C25.0186 105.55 24.7688 105.653 24.5847 105.838C24.4005 106.022 24.297 106.272 24.297 106.532V107.124C24.297 107.666 24.737 108.106 25.279 108.106H56.292C56.834 108.106 57.274 107.666 57.274 107.124V106.532C57.274 106.272 57.1706 106.022 56.9864 105.838C56.8023 105.653 56.5525 105.55 56.292 105.55ZM15.318 105.55H8.79004C8.5296 105.55 8.27983 105.653 8.09567 105.838C7.9115 106.022 7.80804 106.272 7.80804 106.532V107.124C7.80804 107.666 8.24804 108.106 8.79004 108.106H15.318C15.86 108.106 16.3 107.666 16.3 107.124V106.532C16.3 106.272 16.1966 106.022 16.0124 105.838C15.8283 105.653 15.5785 105.55 15.318 105.55Z" fill="#9935E8"/>
<path d="M66.652 82.212L102.93 82.512C103.16 82.5134 103.383 82.5917 103.563 82.7345C103.744 82.8773 103.871 83.0764 103.925 83.3L108.946 104.556H122.036C122.036 104.556 122.762 108.304 118.531 108.304H72.421C72.1908 108.303 71.9675 108.225 71.787 108.082C71.6066 107.939 71.4794 107.74 71.426 107.516L65.657 83.469C65.6224 83.319 65.6219 83.1631 65.6557 83.0128C65.6895 82.8626 65.7566 82.7219 65.8522 82.6012C65.9478 82.4805 66.0693 82.3828 66.2077 82.3154C66.3462 82.248 66.498 82.2127 66.652 82.212Z" fill="#5D21D1"/>
<path d="M106.663 102.519L102.729 85.959C102.663 85.6816 102.505 85.4346 102.281 85.2576C102.058 85.0806 101.781 84.9839 101.496 84.983L70.09 84.61C69.8981 84.6095 69.7085 84.6527 69.5357 84.7361C69.3628 84.8196 69.2111 84.9412 69.0921 85.0918C68.9731 85.2424 68.8898 85.418 68.8486 85.6055C68.8073 85.793 68.8092 85.9874 68.854 86.174L72.806 103.138C72.8716 103.416 73.0292 103.663 73.2532 103.84C73.4773 104.017 73.7545 104.113 74.04 104.113L105.431 104.08C105.719 104.079 105.999 103.98 106.224 103.8C106.448 103.619 106.605 103.367 106.668 103.086C106.709 102.899 106.707 102.705 106.663 102.519Z" fill="white"/>
<path d="M73.458 87.484L72.642 88.761L73.957 89.642M75.219 89.46L76.299 87.698M77.509 87.601L78.748 88.566L77.981 89.644M79.263 101.229L82.138 101.23M84.133 101.231L89.998 101.234M91.939 101.235L103.106 101.242M75.126 99.514H76.886M78.866 99.516L81.743 99.517M83.72 99.518L103.316 99.528M74.73 97.802L78.71 97.804M80.603 97.804L85.896 97.807M91.264 97.81L97.839 97.814M87.784 97.808L89.648 97.809M74.335 96.089L79.815 96.091M81.483 96.092L95.417 96.1M97.088 96.1L102.526 96.104M77.188 94.377L79.295 94.378M80.658 94.38L93.625 94.386M73.94 94.376H75.823M73.628 93.03L83.604 93.036M85.133 93.036L102.066 93.046M73.256 91.415L78.734 91.418M80.582 91.419L84.648 91.422M86.373 91.423H88.692M90.416 91.425L95.411 91.427M97.135 91.428H98.478" stroke="#FE7624" stroke-width="0.56" stroke-linecap="round" stroke-linejoin="round"/>
<path d="M91.827 83.81C91.827 83.81 93.46 91.088 94.947 92.234H106.697C106.124 92.0636 105.605 91.7502 105.187 91.3233C104.769 90.8964 104.466 90.3701 104.308 89.794L102.629 83.824L91.827 83.81Z" fill="#FEBA91"/>
<path d="M94.316 86.404H101.407M94.634 87.734H101.725M94.999 89.101H99.705M0.280029 108.304H159.719" stroke="#9935E8" stroke-width="0.56" stroke-linecap="round" stroke-linejoin="round"/>
</g>
</g>
</g>
</g>
<defs>
<clipPath id="clip0_17_542">
<rect width="160" height="160" fill="white"/>
</clipPath>
<clipPath id="clip1_17_542">
<rect width="160" height="160" fill="white"/>
</clipPath>
<clipPath id="clip2_17_542">
<rect width="160" height="160" fill="white"/>
</clipPath>
</defs>
</svg>
