<svg width="160" height="168" viewBox="0 0 160 168" fill="none" xmlns="http://www.w3.org/2000/svg">
<g clip-path="url(#clip0_17_408)">
<g clip-path="url(#clip1_17_408)">
<mask id="mask0_17_408" style="mask-type:luminance" maskUnits="userSpaceOnUse" x="0" y="41" width="160" height="78">
<path d="M0 41.241H160V118.758H0V41.241Z" fill="white"/>
</mask>
<g mask="url(#mask0_17_408)">
<path d="M18.89 118.415V89.551C18.8899 87.7787 19.2388 86.0238 19.917 84.3864C20.5951 82.749 21.5891 81.2612 22.8423 80.0079C24.0954 78.7547 25.5831 77.7606 27.2205 77.0823C28.8578 76.4041 30.6127 76.055 32.385 76.055H43.125M89.086 98.384C88.4793 98.1101 87.8622 97.8599 87.236 97.634C85.036 94.554 81.501 86.019 77.806 80.858C77.764 78.273 78.098 73.472 73.574 70.529" stroke="#9935E8" stroke-width="0.582" stroke-linecap="round" stroke-linejoin="round"/>
<path d="M56.5269 68.323C43.6079 70.47 41.6419 75.58 43.9129 80.278C39.8619 82.458 33.1879 87.13 27.3599 96.267C18.2389 110.551 27.0449 118.442 32.2269 118.442C37.4079 118.442 96.4519 118.007 96.4519 118.007C96.4519 118.007 99.2659 112.041 97.0779 106.223" stroke="#9935E8" stroke-width="0.582" stroke-linecap="round" stroke-linejoin="round"/>
<path d="M55.276 74.946L53.989 75.88C53.989 75.88 62.557 84.801 66.399 102.961C66.835 105.024 67.144 106.591 67.361 107.783C67.352 107.794 69.961 108.06 69.897 108.034C69.143 103.04 68.089 93.935 69.607 89.532C71.752 83.282 71.809 79.667 70.353 75.1C70.003 74.004 69.516 82.192 66.935 85.11C60.422 77.871 55.276 74.946 55.276 74.946Z" fill="#FE7624"/>
<path d="M57.5659 71.27L57.4739 72.85L55.4979 75.122C55.4979 75.122 61.3479 78.739 66.9479 85.116C66.9479 85.116 69.3119 82.644 70.1159 75.067" stroke="#9935E8" stroke-width="0.582" stroke-linecap="round" stroke-linejoin="round"/>
<path d="M59.704 88.421C59.704 88.421 62.924 95.122 63.366 99.676M71.93 88.181C71.93 88.181 70.45 94.594 70.937 99.14" stroke="#9935E8" stroke-width="0.776" stroke-linecap="round" stroke-linejoin="round"/>
<path d="M80.635 113.333C81.693 114.333 82.278 114.96 82.35 115.245C82.523 115.924 81.14 116.312 79.996 115.254L76.631 112.343C76.631 112.343 80.061 115.884 80.325 116.425C80.59 116.967 79.252 117.925 77.271 115.649C75.289 113.373 74.974 113.352 74.974 113.352C74.974 113.352 77.239 116.217 77.54 116.866C77.842 117.515 75.932 118.127 74.18 115.119L63.709 114.702L64.326 107.155C64.326 107.155 69.544 107.949 73.126 108.695L74.006 108.868C74.5282 108.912 75.0419 109.027 75.533 109.21C76.794 109.663 82.433 112.288 82.863 112.825C83.293 113.361 82.761 114.393 81.383 113.713C80.005 113.034 77.151 111.504 77.151 111.504" stroke="#9935E8" stroke-width="0.582" stroke-linecap="round" stroke-linejoin="round"/>
<path d="M52.1979 118.327C56.3699 118.363 61.2219 117.584 62.1979 117.454C64.1249 117.201 63.5979 115.749 65.0119 115.392C66.4269 115.035 66.9119 114.668 66.9119 114.668C65.4959 111.66 67.8119 107.232 67.8119 107.232C67.8119 107.232 67.3669 107.05 65.9819 106.587C64.5959 106.123 65.2329 104.716 63.3319 104.316C61.4299 103.916 45.8579 102.586 45.8579 102.586" stroke="#9935E8" stroke-width="0.582" stroke-linecap="round" stroke-linejoin="round"/>
<path d="M65.22 115.616C66.751 115.242 67.274 114.856 67.274 114.856C65.734 111.662 68.226 106.982 68.226 106.982C68.226 106.982 67.741 106.788 66.246 106.293C65.641 106.094 65.391 105.733 65.178 105.346C61.598 108.536 62.728 115.036 63.294 117.412C64.109 116.853 64.059 115.901 65.22 115.616Z" fill="#9935E8"/>
<path d="M47.645 98.108C47.645 98.108 50.75 98.721 51.151 102.917M87.175 109.017C87.175 109.017 86.593 111.685 85.747 112.698C84.901 113.711 86.689 114.615 87.603 113.989C87.729 113.908 87.851 113.82 87.967 113.724M90.49 105.006C88.899 105.091 87.527 105.869 87.455 108.028C87.455 108.028 87.959 112.992 88.055 114.432C88.153 115.871 89.597 115.574 89.883 114.976" stroke="#9935E8" stroke-width="0.582" stroke-linecap="round" stroke-linejoin="round"/>
<path d="M89.715 109.962C89.715 109.962 89.793 112.991 89.889 114.426C89.986 115.86 91.364 115.969 91.636 115.215C91.908 114.461 91.659 109.96 91.659 109.96C91.659 109.96 91.737 112.99 91.834 114.424C91.931 115.858 93.227 115.818 93.513 115.22C93.714 114.798 93.513 109.958 93.513 109.958C93.513 109.958 93.591 112.988 93.688 114.422C93.785 115.856 95.081 115.816 95.367 115.218C95.653 114.621 96.458 107.668 95.454 106.752C95.291 106.25 93.934 105.511 92.382 105.173" stroke="#9935E8" stroke-width="0.582" stroke-linecap="round" stroke-linejoin="round"/>
<path d="M92.815 105.285C94.18 105.654 95.308 106.303 95.455 106.757C96.121 107.366 95.991 110.626 95.747 112.929C96.4191 112.145 96.8868 111.206 97.1084 110.197C97.3299 109.188 97.2985 108.14 97.017 107.146C96.7347 106.152 96.211 105.244 95.4925 104.502C94.774 103.76 93.883 103.207 92.899 102.893M90.428 102.622C89.3299 102.72 88.2774 103.108 87.3771 103.744C86.4769 104.38 85.761 105.244 85.302 106.246C84.842 107.248 84.6548 108.353 84.7595 109.451C84.8641 110.548 85.2569 111.598 85.898 112.495C86.661 111.368 87.175 109.017 87.175 109.017L87.606 109.541C87.52 108.661 87.456 108.028 87.456 108.028C87.526 105.888 88.875 105.106 90.446 105.008" fill="#9935E8"/>
<path d="M88.54 99.576C88.54 99.576 80.866 99.705 80.694 107.566M79.278 103.354C79.278 103.354 79.414 97.873 85.458 98.044" stroke="#9935E8" stroke-width="0.582" stroke-linecap="round" stroke-linejoin="round"/>
<path d="M77.4869 80.508C77.4869 80.623 77.4869 80.732 77.4949 80.838C76.5409 86.053 75.6969 85.412 73.4599 89.532C73.4429 89.562 73.4279 89.594 73.4119 89.629C76.4759 88.429 78.8839 86.868 80.2639 84.195C80.2639 84.191 78.4649 81.65 77.4869 80.508ZM44.1449 80.087C42.3317 81.0804 40.605 82.2241 38.9829 83.506C40.6239 84.446 52.8119 91.252 58.4659 89.789C54.5099 89.787 46.5129 85.117 44.1449 80.087Z" fill="#9935E8"/>
<path d="M55.665 60.794C54.702 60.822 52.432 61.171 52.664 63.85C52.87 66.228 55.05 66.22 56.334 66.003M58.372 59.276C58.928 59.955 59.56 63.623 59.785 65.322C59.785 65.322 64.095 64.396 70.055 64.975C70.055 64.975 73.236 65.395 74.509 65.915C75.232 62.872 75.882 58.88 75.796 55.069C75.67 49.402 68.77 49.053 67.76 49.027C56.92 48.699 56.496 59.141 56.496 59.141V59.179L58.372 59.276Z" stroke="#9935E8" stroke-width="0.582" stroke-linecap="round" stroke-linejoin="round"/>
<path d="M58.371 59.275C58.927 59.955 59.56 63.623 59.785 65.322C59.785 65.322 64.094 64.396 70.055 64.975C70.055 64.975 73.291 65.403 74.542 65.929C74.542 65.929 73.609 71.75 70.639 74.493C67.67 77.235 62.203 75.763 59.797 73.648C57.392 71.534 57.058 70.616 56.672 68.598C56.286 66.58 55.502 59.128 55.502 59.128L58.372 59.275H58.371Z" stroke="#9935E8" stroke-width="0.582" stroke-linecap="round" stroke-linejoin="round"/>
<path d="M55.5449 60.174C55.5449 60.174 54.3589 57.171 54.2489 54.274C54.1459 51.551 55.8989 49.07 58.5369 48.387C60.7459 47.815 62.0859 48.879 62.0859 48.879C62.0859 48.879 60.6759 44.813 64.5259 42.242C65.1995 41.7929 65.9576 41.4858 66.7538 41.3397C67.5501 41.1935 68.3678 41.2113 69.1569 41.392C73.0489 42.29 73.5949 45.841 73.5949 45.841C73.5949 45.841 79.3279 38.981 87.0069 45.259C87.7829 45.892 88.4999 47.369 88.7949 48.325C90.5849 54.12 79.9949 58.443 75.0279 57.958C69.5749 57.426 66.6229 55.914 65.1629 54.262C66.2899 55.286 63.2489 62.997 55.5449 60.174Z" fill="#9935E8"/>
<path d="M70.31 62.72L70.325 67.889L68.578 67.228" stroke="#9935E8" stroke-width="0.776" stroke-linecap="round" stroke-linejoin="round"/>
<path d="M72.816 62.916C72.866 62.469 72.673 62.081 72.384 62.048C72.095 62.016 71.821 62.352 71.771 62.799C71.721 63.246 71.915 63.634 72.203 63.666C72.492 63.699 72.766 63.363 72.816 62.916ZM67.812 62.287C67.862 61.841 67.669 61.452 67.38 61.42C67.091 61.388 66.817 61.724 66.767 62.17C66.717 62.617 66.911 63.006 67.199 63.038C67.489 63.07 67.763 62.733 67.812 62.287Z" fill="#9935E8"/>
<path d="M65.068 59.272C65.3695 58.9631 65.7484 58.7408 66.1651 58.6284C66.5818 58.516 67.0211 58.5176 67.437 58.633M71.815 58.96C71.815 58.96 73.307 58.746 73.537 59.971M66.067 68.92C66.067 68.92 66.503 70.435 67.893 70.01" stroke="#9935E8" stroke-width="0.776" stroke-linecap="round" stroke-linejoin="round"/>
<path d="M64.156 114.724H98.428C98.7109 114.724 98.9821 114.837 99.1822 115.037C99.3822 115.237 99.4947 115.508 99.495 115.791V118.411H63.059V115.822C63.0587 115.678 63.0869 115.535 63.1419 115.402C63.1969 115.268 63.2777 115.147 63.3796 115.045C63.4815 114.943 63.6026 114.862 63.7358 114.807C63.869 114.752 64.0118 114.724 64.156 114.724Z" fill="#9935E8"/>
<path d="M0.287964 118.467H159.706" stroke="#9935E8" stroke-width="0.582" stroke-linecap="round" stroke-linejoin="round"/>
<path d="M119.091 87.349C118.127 87.382 117.716 87.588 117.716 88.425C117.716 89.665 118.977 106.564 118.989 106.733C119 106.903 119.722 117.033 119.722 117.033C119.743 117.359 119.887 117.664 120.125 117.888C120.363 118.111 120.677 118.236 121.003 118.237L122.406 118.189L119.039 87.547C119.032 87.4769 119.05 87.4065 119.091 87.349ZM126.244 97.323H126.224C125.878 97.3183 125.534 97.3834 125.213 97.5143C124.892 97.6452 124.601 97.8393 124.357 98.085C124.148 98.2997 123.987 98.5551 123.881 98.8352C123.776 99.1153 123.73 99.4141 123.745 99.713C123.81 101.06 125.051 102.163 126.511 102.174H126.533C126.879 102.179 127.223 102.115 127.544 101.984C127.865 101.853 128.156 101.658 128.4 101.412C128.608 101.197 128.77 100.942 128.875 100.662C128.981 100.382 129.027 100.083 129.012 99.784C128.949 98.44 127.706 97.335 126.244 97.323Z" fill="#9935E8"/>
<path d="M135.306 116.622L132.9 106.621L128.945 88.185C128.751 87.292 127.892 87.329 127.794 87.342C127.718 87.352 127.671 87.342 127.586 87.342H119.562C119.593 87.3829 119.612 87.4312 119.618 87.482L122.992 118.185H134.053C134.342 118.183 134.623 118.084 134.849 117.903C135.075 117.723 135.234 117.472 135.3 117.19C135.345 117.003 135.347 116.809 135.306 116.622ZM128.82 101.818C128.521 102.12 128.165 102.359 127.772 102.52C127.379 102.682 126.958 102.762 126.533 102.757H126.508C124.744 102.745 123.244 101.392 123.163 99.742C123.144 99.3638 123.202 98.9858 123.336 98.6314C123.469 98.2771 123.675 97.9542 123.939 97.683C124.238 97.3811 124.594 97.1423 124.987 96.9808C125.38 96.8193 125.801 96.7385 126.226 96.743H126.252C128.016 96.755 129.516 98.108 129.595 99.757C129.615 100.135 129.556 100.514 129.423 100.869C129.29 101.223 129.084 101.546 128.82 101.818Z" fill="#9935E8"/>
<path d="M102.645 114.724H133.306V118.185H101.548V115.817C101.549 115.527 101.665 115.249 101.87 115.044C102.076 114.839 102.355 114.724 102.645 114.724ZM148.091 67.689C148.091 66.774 147.372 66.039 146.496 66.039L94.2759 66.201C94.2429 66.201 94.2109 66.201 94.1789 66.206L90.0239 66.219C89.1509 66.219 88.4419 66.965 88.4459 67.879L88.6399 106.175C88.6399 107.089 89.3579 107.824 90.2349 107.824L94.0269 107.737C94.1759 107.783 94.3309 107.807 94.4869 107.807L118.444 107.233C118.429 107.081 118.416 106.93 118.405 106.778C118.353 106.082 117.13 89.688 117.13 88.426C117.13 86.762 118.514 86.762 119.43 86.762H127.848C127.887 86.762 127.926 86.766 127.964 86.775C128.509 86.793 129.303 87.095 129.511 88.061C129.758 89.215 133.289 105.701 133.541 106.872L146.705 106.557C147.578 106.557 148.287 105.811 148.282 104.897L148.091 67.689ZM93.4199 107.397C93.412 107.469 93.3779 107.535 93.3242 107.582C93.2704 107.63 93.2009 107.656 93.1289 107.656H93.0959C91.8519 107.517 91.1619 106.589 91.1559 105.037C91.1559 104.157 90.9759 70.33 90.9669 68.517C90.9579 66.859 92.3349 66.383 93.0639 66.359C93.1374 66.3624 93.2069 66.3934 93.2586 66.4458C93.3102 66.4982 93.3401 66.5681 93.3424 66.6417C93.3447 66.7152 93.3191 66.7869 93.2708 66.8424C93.2225 66.8979 93.1551 66.9331 93.0819 66.941C92.9239 66.947 91.5419 67.038 91.5489 68.516L91.7369 105.035C91.7439 106.303 92.2099 106.975 93.1619 107.072C93.2006 107.076 93.2381 107.088 93.2719 107.107C93.3231 107.135 93.3647 107.177 93.3912 107.229C93.4178 107.281 93.4272 107.339 93.4199 107.397Z" fill="#9935E8"/>
<path d="M117.687 51.904H117.562C117.433 51.904 117.31 51.9551 117.219 52.046C117.128 52.137 117.077 52.2604 117.077 52.389V52.919C117.077 53.186 117.294 53.404 117.562 53.404H117.687C117.751 53.404 117.814 53.3914 117.873 53.367C117.932 53.3426 117.985 53.3068 118.031 53.2616C118.076 53.2165 118.111 53.1629 118.136 53.104C118.16 53.045 118.173 52.9818 118.173 52.918V52.388C118.172 52.2594 118.121 52.1363 118.03 52.0456C117.939 51.9549 117.815 51.904 117.687 51.904Z" fill="#FE7624"/>
<path d="M116.172 51.904H109.611C109.482 51.904 109.359 51.9551 109.268 52.046C109.177 52.137 109.126 52.2604 109.126 52.389V52.919C109.126 53.186 109.343 53.404 109.611 53.404H116.172C116.236 53.404 116.299 53.3914 116.358 53.367C116.417 53.3425 116.47 53.3067 116.515 53.2616C116.56 53.2164 116.596 53.1629 116.62 53.1039C116.645 53.0449 116.657 52.9818 116.657 52.918V52.388C116.657 52.2595 116.605 52.1364 116.515 52.0457C116.424 51.955 116.3 51.904 116.172 51.904ZM116.853 58.872H109.611C109.482 58.872 109.359 58.9231 109.268 59.014C109.177 59.105 109.126 59.2284 109.126 59.357V59.887C109.126 60.155 109.343 60.372 109.611 60.372H116.853C116.982 60.372 117.105 60.3209 117.196 60.23C117.287 60.1391 117.339 60.0157 117.339 59.887V59.357C117.339 59.2283 117.287 59.1049 117.196 59.014C117.105 58.9231 116.982 58.872 116.853 58.872Z" fill="#9935E8"/>
<path d="M123.455 56.552H111.687C111.558 56.552 111.435 56.6031 111.344 56.694C111.253 56.785 111.202 56.9084 111.202 57.037V57.567C111.202 57.835 111.419 58.052 111.687 58.052H123.455C123.584 58.052 123.707 58.0009 123.798 57.9099C123.889 57.819 123.94 57.6956 123.94 57.567V57.037C123.94 56.9084 123.889 56.785 123.798 56.694C123.707 56.6031 123.584 56.552 123.455 56.552ZM131.048 56.552H125.137C125.008 56.5523 124.885 56.6034 124.794 56.6943C124.703 56.7852 124.652 56.9084 124.652 57.037V57.567C124.652 57.835 124.87 58.052 125.137 58.052H131.048C131.176 58.0517 131.3 58.0005 131.391 57.9096C131.481 57.8187 131.533 57.6955 131.533 57.567V57.037C131.533 56.9084 131.481 56.7852 131.391 56.6943C131.3 56.6034 131.176 56.5523 131.048 56.552Z" fill="#FE7624"/>
<path d="M133.377 54.232H133.252C133.188 54.232 133.125 54.2445 133.066 54.2689C133.008 54.2933 132.954 54.329 132.909 54.374C132.864 54.4191 132.828 54.4725 132.804 54.5314C132.78 54.5902 132.767 54.6533 132.767 54.717V55.247C132.767 55.515 132.984 55.732 133.252 55.732H133.377C133.441 55.732 133.504 55.7194 133.563 55.6951C133.621 55.6707 133.675 55.635 133.72 55.5899C133.765 55.5449 133.801 55.4914 133.825 55.4326C133.849 55.3738 133.862 55.3107 133.862 55.247V54.717C133.862 54.6533 133.849 54.5902 133.825 54.5314C133.801 54.4725 133.765 54.4191 133.72 54.374C133.675 54.329 133.621 54.2933 133.563 54.2689C133.504 54.2445 133.441 54.232 133.377 54.232ZM121.813 54.228H109.611C109.482 54.228 109.359 54.2791 109.268 54.37C109.177 54.461 109.126 54.5844 109.126 54.713V55.243C109.126 55.511 109.343 55.728 109.611 55.728H121.813C121.942 55.7277 122.065 55.6765 122.156 55.5856C122.247 55.4947 122.298 55.3715 122.298 55.243V54.713C122.298 54.5844 122.247 54.4612 122.156 54.3703C122.065 54.2794 121.942 54.2283 121.813 54.228ZM125.703 51.904H119.141C119.012 51.904 118.889 51.9551 118.798 52.046C118.707 52.137 118.656 52.2604 118.656 52.389V52.919C118.656 53.186 118.873 53.404 119.141 53.404H125.703C125.832 53.4037 125.955 53.3524 126.046 53.2613C126.137 53.1702 126.188 53.0467 126.188 52.918V52.388C126.187 52.2596 126.136 52.1367 126.045 52.046C125.954 51.9553 125.831 51.9043 125.703 51.904Z" fill="#9935E8"/>
<path d="M131.692 54.224H123.372C123.243 54.224 123.12 54.2751 123.029 54.3661C122.938 54.457 122.887 54.5804 122.887 54.709V55.249C122.887 55.516 123.104 55.733 123.372 55.733H131.692C131.821 55.733 131.944 55.6819 132.035 55.5909C132.126 55.5 132.177 55.3766 132.177 55.248V54.708C132.177 54.5795 132.125 54.4564 132.035 54.3657C131.944 54.275 131.82 54.224 131.692 54.224Z" fill="#FE7624"/>
<path d="M32 112.534C32.7497 112.534 33.4688 112.236 33.999 111.706C34.5291 111.176 34.827 110.457 34.827 109.707C34.827 108.957 34.5291 108.238 33.999 107.708C33.4688 107.178 32.7497 106.88 32 106.88C31.2502 106.88 30.5311 107.178 30.001 107.708C29.4708 108.238 29.173 108.957 29.173 109.707C29.173 110.457 29.4708 111.176 30.001 111.706C30.5311 112.236 31.2502 112.534 32 112.534Z" stroke="#9935E8" stroke-width="0.582" stroke-linecap="round" stroke-linejoin="round"/>
<path d="M32.734 105.87V115.312C32.7339 115.694 32.8091 116.073 32.9553 116.426C33.1016 116.779 33.316 117.1 33.5863 117.371C33.8567 117.641 34.1776 117.855 34.5309 118.002C34.8841 118.148 35.2627 118.223 35.645 118.223H41.622C42.0043 118.223 42.3829 118.148 42.7362 118.002C43.0894 117.855 43.4103 117.641 43.6807 117.371C43.951 117.1 44.1654 116.779 44.3117 116.426C44.4579 116.073 44.5331 115.694 44.533 115.312V105.87H32.734ZM37.507 112.572C37.5403 112.591 37.568 112.618 37.5873 112.651C37.6066 112.684 37.6169 112.722 37.617 112.76C37.617 112.788 37.6114 112.816 37.6006 112.842C37.5898 112.868 37.574 112.892 37.554 112.912C37.534 112.932 37.5103 112.947 37.4842 112.958C37.4581 112.969 37.4302 112.974 37.402 112.974C37.3645 112.975 37.3275 112.966 37.295 112.947L35.16 111.664C35.1334 111.65 35.11 111.631 35.0911 111.608C35.0723 111.585 35.0584 111.558 35.0504 111.529C35.0424 111.5 35.0405 111.47 35.0447 111.44C35.049 111.411 35.0593 111.382 35.075 111.357C35.0957 111.323 35.1251 111.295 35.16 111.276L37.295 109.994C37.3239 109.978 37.356 109.969 37.3888 109.967C37.4216 109.966 37.4545 109.971 37.485 109.983C37.5109 109.994 37.5344 110.01 37.554 110.03C37.5776 110.053 37.5954 110.082 37.606 110.113C37.6166 110.145 37.6198 110.178 37.6152 110.211C37.6106 110.244 37.5985 110.275 37.5797 110.303C37.5609 110.33 37.536 110.353 37.507 110.369L35.671 111.469L37.507 112.572ZM40.175 109.416L38.457 113.71C38.4457 113.732 38.4308 113.752 38.413 113.769C38.3936 113.79 38.37 113.806 38.3438 113.817C38.3176 113.828 38.2894 113.834 38.261 113.833C38.2328 113.833 38.2047 113.828 38.1786 113.817C38.1525 113.806 38.1289 113.79 38.109 113.77C38.0771 113.739 38.0556 113.699 38.0477 113.656C38.0398 113.612 38.0459 113.567 38.065 113.527L39.779 109.234C39.7939 109.204 39.8157 109.177 39.8426 109.156C39.8695 109.136 39.9007 109.122 39.934 109.115C39.965 109.109 39.9968 109.11 40.0272 109.118C40.0577 109.126 40.086 109.141 40.1103 109.161C40.1346 109.181 40.1542 109.206 40.1678 109.234C40.1814 109.263 40.1887 109.294 40.189 109.325C40.1903 109.356 40.1855 109.387 40.175 109.416ZM43.078 111.664L40.943 112.945C40.9102 112.963 40.8732 112.973 40.8356 112.973C40.798 112.973 40.7611 112.962 40.7285 112.944C40.696 112.925 40.669 112.898 40.6501 112.865C40.6312 112.833 40.6212 112.796 40.621 112.758C40.6211 112.72 40.6314 112.682 40.6507 112.649C40.67 112.616 40.6977 112.589 40.731 112.57L42.566 111.469L40.731 110.369C40.6977 110.35 40.6701 110.323 40.651 110.29C40.6266 110.249 40.6165 110.201 40.6225 110.154C40.6285 110.107 40.6502 110.063 40.684 110.03C40.7173 109.997 40.7607 109.975 40.8074 109.968C40.8542 109.962 40.9018 109.971 40.943 109.994L43.078 111.276C43.1129 111.295 43.1421 111.323 43.1627 111.357C43.1833 111.391 43.1944 111.43 43.195 111.47C43.1947 111.51 43.1837 111.549 43.1631 111.583C43.1425 111.617 43.1131 111.645 43.078 111.664Z" fill="#9935E8"/>
</g>
</g>
</g>
<defs>
<clipPath id="clip0_17_408">
<rect width="160" height="160" fill="white"/>
</clipPath>
<clipPath id="clip1_17_408">
<rect width="160" height="160" fill="white"/>
</clipPath>
</defs>
</svg>
