<svg width="2883" height="1930" viewBox="0 0 2883 1930" fill="none" xmlns="http://www.w3.org/2000/svg">
<rect width="2883" height="1930" rx="94" fill="white"/>
<g clip-path="url(#clip0_0_1)">
<path d="M1453.1 720.225C1438.09 695.396 1420.29 668.886 1392.43 660.778C1360.16 651.389 1327.01 670.041 1298.89 688.446C1214.8 743.49 1133.83 803.142 1056.33 867.129L1056.41 868.093C1116.75 863.933 1177.08 859.773 1237.42 855.613C1281.01 852.608 1326.1 849.187 1364.62 828.57C1379.24 820.746 1393.49 810.295 1410.06 809.567C1430.64 808.662 1448.58 823.033 1462.68 838.047C1546.1 926.859 1570.24 1062.67 1663.83 1140.7C1604.81 995.193 1534.35 854.593 1453.1 720.225Z" fill="#F2F2F2"/>
<path d="M1965.86 1473.51C1956.64 1461.87 1952.87 1459.14 1943.77 1447.38C1869.68 1351.58 1800.04 1252.54 1734.85 1150.26C1690.57 1080.79 1648.49 1010 1608.6 937.864C1589.61 903.572 1571.15 869.01 1553.2 834.18C1539.27 807.173 1525.65 780.005 1512.35 752.675C1508.54 744.869 1504.84 737.027 1501.17 729.167C1492.5 710.684 1483.99 692.112 1474.85 673.88C1464.44 653.1 1451.77 631.315 1432.66 617.354C1423.96 610.74 1413.56 606.738 1402.67 605.816C1387.1 604.811 1372.75 611.235 1359.25 618.252C1260.5 669.735 1168.05 734.282 1084.43 807.729C1000.59 881.342 925.659 964.506 861.152 1055.53C859.179 1058.34 854.512 1055.65 856.504 1052.82C864.348 1041.73 872.347 1030.76 880.501 1019.91C981.895 885.082 1106.22 769.139 1247.79 677.379C1271.61 661.947 1295.88 647.238 1320.59 633.253C1333.04 626.201 1345.56 619.238 1358.28 612.707C1370.75 606.3 1384 600.54 1398.25 600.325C1446.75 599.571 1471.86 654.482 1489.1 691.43C1494.52 703.058 1500.01 714.65 1505.56 726.207C1526.54 770.081 1548.33 813.555 1570.93 856.628C1584.88 883.222 1599.13 909.661 1613.68 935.944C1658.98 1017.79 1707.13 1097.98 1758.13 1176.51C1825.69 1280.54 1892.7 1372.43 1969.67 1469.71C1971.78 1472.4 1968 1476.24 1965.86 1473.51Z" fill="#E4E4E4"/>
<path d="M1079.64 780.615C1076.82 777.475 1074.02 774.334 1071.18 771.194C1048.82 746.466 1024.82 722.026 994.113 707.849C979.47 700.876 963.486 697.172 947.268 696.993C930.505 697.047 914.118 701.443 898.629 707.598C891.306 710.523 884.145 713.843 877.091 717.378C869.032 721.433 861.117 725.758 853.238 730.119C838.449 738.301 823.851 746.843 809.445 755.744C780.781 773.455 753.016 792.518 726.147 812.933C712.219 823.521 698.578 834.455 685.225 845.736C672.805 856.216 660.636 866.976 648.719 878.018C646.17 880.369 642.365 876.565 644.914 874.214C648.055 871.289 651.231 868.382 654.408 865.511C663.382 857.4 672.5 849.445 681.762 841.645C698.65 827.397 715.976 813.699 733.739 800.551C761.362 780.094 789.935 761.025 819.459 743.344C834.213 734.515 849.17 726.057 864.33 717.97C868.907 715.53 873.538 713.143 878.222 710.882C888.851 705.522 899.895 701.027 911.246 697.441C927.326 692.24 944.339 690.57 961.124 692.542C977.331 694.899 992.945 700.3 1007.14 708.459C1037.3 725.309 1060.68 751.365 1083.44 776.793C1085.74 779.377 1081.95 783.199 1079.64 780.615Z" fill="#E4E4E4"/>
<path d="M1697.45 1036.86L1769.71 1010.44L1805.58 997.32C1817.26 993.047 1828.92 988.183 1841 985.124C1851.49 982.126 1862.64 982.268 1873.05 985.532C1882.34 988.97 1890.85 994.24 1898.06 1001.03C1905.42 1007.81 1912.28 1015.13 1918.57 1022.93C1926.38 1032.31 1934.07 1041.79 1941.8 1051.24C1973.7 1090.25 2005.39 1129.43 2036.88 1168.77C2068.36 1208.12 2099.64 1247.63 2130.7 1287.31C2161.84 1327.09 2192.76 1367.03 2223.47 1407.14C2227.23 1412.05 2230.99 1416.97 2234.75 1421.88C2236.82 1424.6 2241.5 1421.92 2239.4 1419.17C2208.46 1378.66 2177.31 1338.31 2145.94 1298.13C2114.5 1257.85 2082.83 1217.75 2050.95 1177.81C2019.07 1137.88 1986.98 1098.12 1954.67 1058.53C1946.62 1048.67 1938.56 1038.81 1930.48 1028.97C1923.67 1020.67 1916.93 1012.28 1909.46 1004.56C1895.75 990.374 1878.61 977.841 1858.1 977.501C1846.04 977.301 1834.37 981.127 1823.16 985.18C1811.08 989.549 1799.03 993.999 1786.97 998.411L1714.21 1025.02L1696.02 1031.67C1692.79 1032.85 1694.19 1038.05 1697.45 1036.86Z" fill="#E4E4E4"/>
<path d="M984.604 738.964C947.887 720.097 900.865 723.792 867.124 747.364C931.482 758.465 995.136 773.319 1057.76 791.849C1031.75 776.612 1011.41 752.74 984.604 738.964Z" fill="#F2F2F2"/>
<path d="M866.762 747.299L859.694 753.043C862.085 751.033 864.57 749.148 867.124 747.364C867.003 747.343 866.883 747.32 866.762 747.299Z" fill="#F2F2F2"/>
<path d="M1895.34 1037.12C1888.22 1028.47 1880.53 1019.4 1869.9 1015.89L1859.96 1016.28C1935.57 1149.86 2037.68 1266.57 2160.04 1359.27C2071.8 1251.89 1983.57 1144.51 1895.34 1037.12Z" fill="#F2F2F2"/>
<path d="M1277.71 965.717C1282.3 982.413 1292.66 996.946 1306.94 1006.74C1312.46 1010.5 1318.99 1014.11 1320.88 1020.51C1321.87 1024.6 1321.26 1028.91 1319.17 1032.55C1317.08 1036.15 1314.54 1039.47 1311.61 1042.42L1311.34 1043.42C1297.64 1035.3 1284.61 1025.03 1277.04 1011.02C1269.47 997.013 1268.41 978.649 1277.71 965.717Z" fill="#F2F2F2"/>
<path d="M1733.88 1363.08C1738.48 1379.78 1748.83 1394.31 1763.12 1404.11C1768.64 1407.87 1775.17 1411.47 1777.06 1417.88C1778.05 1421.96 1777.44 1426.27 1775.35 1429.92C1773.26 1433.51 1770.72 1436.83 1767.79 1439.78L1767.52 1440.79C1753.82 1432.67 1740.78 1422.4 1733.21 1408.39C1725.65 1394.38 1724.59 1376.01 1733.88 1363.08Z" fill="#F2F2F2"/>
<path d="M823.487 1335.68C828.083 1352.37 838.438 1366.91 852.719 1376.7C858.241 1380.46 864.773 1384.07 866.662 1390.47C867.656 1394.56 867.044 1398.87 864.952 1402.51C862.864 1406.11 860.323 1409.43 857.392 1412.38L857.125 1413.38C843.423 1405.26 830.387 1394.99 822.819 1380.98C815.25 1366.97 814.193 1348.61 823.487 1335.68Z" fill="#F2F2F2"/>
<path d="M1871.13 605.661C1926.27 605.661 1970.98 560.965 1970.98 505.831C1970.98 450.696 1926.27 406 1871.13 406C1815.98 406 1771.28 450.696 1771.28 505.831C1771.28 560.965 1815.98 605.661 1871.13 605.661Z" fill="#F9A826"/>
<path d="M2051.32 429.236C2002.92 422.696 1947.68 448.847 1935.14 496.031C1931.97 487.642 1926.23 480.474 1918.73 475.564C1911.22 470.654 1902.35 468.255 1893.4 468.715C1884.45 469.174 1875.87 472.468 1868.91 478.12C1861.95 483.772 1856.97 491.49 1854.68 500.159L1860.22 504.126C1963.92 526.547 2071.27 526.062 2174.77 502.704C2141.1 467.335 2099.71 435.776 2051.32 429.236Z" fill="#F0F0F0"/>
<path d="M1843.79 562.343C1795.39 555.803 1740.15 581.954 1727.6 629.139C1724.44 620.749 1718.7 613.582 1711.2 608.671C1703.69 603.761 1694.82 601.362 1685.87 601.822C1676.91 602.281 1668.34 605.575 1661.38 611.227C1654.42 616.879 1649.44 624.597 1647.15 633.266L1652.69 637.233C1756.39 659.655 1863.74 659.169 1967.23 635.812C1933.57 600.442 1892.18 568.883 1843.79 562.343Z" fill="#F0F0F0"/>
<path d="M2266.14 587.512C2265.94 587.512 2265.74 587.481 2265.55 587.42C1747.89 423.741 1291.64 445.145 1000.04 491.923C960.362 498.287 920.574 505.637 881.784 513.771C871.881 515.845 861.607 518.068 851.248 520.383C838.877 523.137 826.67 525.974 814.965 528.811C809.91 530.008 804.953 531.214 800.096 532.43C792.737 534.246 785.271 536.138 777.268 538.218C768.325 540.523 759.238 542.941 750.255 545.405C750.222 545.417 750.188 545.427 750.154 545.434L750.155 545.436C740.009 548.206 729.915 551.056 720.155 553.902C714.872 555.428 709.771 556.932 704.885 558.418C704.339 558.569 703.856 558.714 703.365 558.863L702.315 559.182C701.707 559.368 701.107 559.549 700.507 559.721L700.468 559.733L700.469 559.735L698.881 560.228C696.986 560.802 695.137 561.362 693.319 561.92C645.264 576.731 618.846 587.267 618.585 587.371C618.347 587.466 618.091 587.514 617.834 587.511C617.577 587.508 617.323 587.454 617.087 587.353C616.85 587.252 616.636 587.106 616.457 586.922C616.277 586.738 616.135 586.521 616.039 586.282C615.944 586.043 615.896 585.788 615.899 585.531C615.902 585.274 615.956 585.02 616.057 584.784C616.158 584.547 616.304 584.333 616.488 584.154C616.672 583.974 616.89 583.832 617.128 583.737C617.391 583.633 643.938 573.043 692.168 558.177C693.993 557.617 695.846 557.057 697.747 556.481L699.223 556.023C699.273 556.003 699.324 555.988 699.376 555.973C699.973 555.803 700.57 555.621 701.176 555.438L702.227 555.118C702.751 554.96 703.268 554.803 703.796 554.658C708.649 553.182 713.767 551.674 719.063 550.142C728.828 547.294 738.93 544.444 749.085 541.67C749.116 541.659 749.149 541.651 749.18 541.642C758.195 539.17 767.315 536.74 776.287 534.427C784.303 532.346 791.783 530.449 799.154 528.629C804.032 527.416 808.998 526.207 814.052 525.003C825.77 522.163 838.002 519.322 850.395 516.562C860.771 514.245 871.062 512.016 880.981 509.94C919.831 501.793 959.682 494.431 999.424 488.058C1291.43 441.213 1748.34 419.774 2266.73 583.689C2267.18 583.829 2267.56 584.125 2267.81 584.522C2268.05 584.919 2268.15 585.391 2268.08 585.853C2268.01 586.315 2267.77 586.736 2267.42 587.04C2267.06 587.345 2266.61 587.512 2266.14 587.512Z" fill="#CCCCCC"/>
<path d="M1114.89 1227.82C1114.21 1225.84 1113.07 1224.05 1111.56 1222.59C1111 1222.08 1110.4 1221.61 1109.76 1221.2C1104.65 1217.8 1097.02 1217.03 1092.16 1221.2C1091.67 1221.63 1091.22 1222.09 1090.81 1222.59C1089.36 1224.38 1087.87 1226.12 1086.34 1227.82C1083.84 1230.68 1081.27 1233.44 1078.59 1236.12C1077.83 1236.86 1077.06 1237.63 1076.28 1238.37C1075.83 1238.82 1075.38 1239.25 1074.93 1239.68C1073.21 1241.33 1071.45 1242.91 1069.66 1244.48C1068.72 1245.32 1067.78 1246.14 1066.83 1246.94C1065.4 1248.14 1063.97 1249.33 1062.52 1250.49C1062.38 1250.59 1062.24 1250.68 1062.11 1250.8C1062.07 1250.82 1062.05 1250.86 1062.01 1250.88C1061.99 1250.88 1061.97 1250.88 1061.95 1250.92C1061.9 1250.94 1061.85 1250.97 1061.81 1251.02C1061.38 1251.31 1061.09 1251.51 1060.87 1251.68C1060.95 1251.64 1061.03 1251.58 1061.11 1251.54C1060.76 1251.82 1060.38 1252.09 1060.03 1252.37C1056.61 1254.89 1053.1 1257.32 1049.52 1259.59C1040.65 1265.26 1031.34 1270.2 1021.68 1274.37C1021.03 1274.62 1020.37 1274.9 1019.7 1275.15C994.394 1285.52 966.943 1289.56 939.722 1286.94C936.942 1286.72 934.162 1286.43 931.382 1286.05C928.171 1285.58 924.98 1285.02 921.808 1284.37C909.733 1281.96 897.918 1278.4 886.528 1273.72C872.279 1267.2 858.727 1259.25 846.079 1250C844.121 1248.61 842.143 1247.22 840.166 1245.87C842.417 1240.35 844.63 1234.83 846.783 1229.27C847.86 1226.59 848.898 1223.91 849.916 1221.2C857.924 1200.4 865.442 1179.39 872.647 1158.31C879.93 1136.95 886.802 1115.48 893.263 1093.87C893.928 1091.68 894.574 1089.49 895.201 1087.29C898.588 1075.88 901.838 1064.44 904.951 1052.98C905.245 1051.86 905.558 1050.77 905.832 1049.65C906.732 1046.36 907.613 1043.08 908.475 1039.79C910.433 1032.37 906.008 1023.5 898.216 1021.72C894.464 1020.76 890.486 1021.29 887.118 1023.2C883.751 1025.12 881.258 1028.26 880.165 1031.98C879.323 1035.15 878.481 1038.3 877.619 1041.47C873.488 1056.8 869.142 1072.07 864.58 1087.29C863.915 1089.49 863.249 1091.68 862.583 1093.87C852.52 1127.03 841.471 1159.86 829.437 1192.35C827.988 1196.29 826.52 1200.21 825.032 1204.12C824.307 1206.03 823.583 1207.95 822.839 1209.87C821.41 1213.65 819.941 1217.43 818.473 1221.2C817.631 1223.42 816.77 1225.63 815.908 1227.82C815.341 1229.21 814.792 1230.6 814.244 1231.97C808.662 1229.97 802.879 1228.57 796.996 1227.82L796.056 1227.7C791.495 1227.15 786.882 1227.19 782.331 1227.82C775.52 1228.61 768.967 1230.9 763.134 1234.5C757.302 1238.11 752.333 1242.95 748.578 1248.69C739.239 1263.39 739.357 1284.41 752.455 1296.9C765.944 1309.76 786.365 1309.66 802.243 1301.62C810.657 1297.07 817.752 1290.42 822.839 1282.32C824.788 1279.38 826.579 1276.34 828.204 1273.21C828.615 1273.49 829.026 1273.76 829.437 1274.06C831.003 1275.15 832.57 1276.27 834.116 1277.36C843.128 1283.89 852.625 1289.72 862.525 1294.8C883.81 1305.38 906.723 1312.31 930.305 1315.3C930.834 1315.36 931.343 1315.44 931.871 1315.5C934.475 1315.83 937.099 1316.08 939.722 1316.3C977.356 1319.13 1015.04 1311.43 1048.54 1294.06C1051.38 1292.59 1054.19 1291.05 1056.98 1289.44C1061.3 1286.94 1065.53 1284.27 1069.66 1281.45C1071.92 1279.93 1074.11 1278.38 1076.28 1276.76C1085.78 1269.76 1094.63 1261.94 1102.73 1253.37C1105.81 1250.14 1108.75 1246.8 1111.56 1243.36C1114.22 1240.55 1115.75 1236.86 1115.87 1232.99C1115.85 1231.22 1115.52 1229.47 1114.89 1227.82ZM790.691 1274.45C791.102 1274.15 791.514 1273.84 791.905 1273.53C791.788 1273.82 791.22 1274.15 790.691 1274.45ZM796.976 1268.12C796.526 1268.63 796.115 1269.14 795.664 1269.65C794.294 1271.18 792.823 1272.62 791.259 1273.96C791.044 1274.15 790.809 1274.35 790.574 1274.53C790.571 1274.53 790.569 1274.53 790.566 1274.53C790.564 1274.53 790.562 1274.53 790.56 1274.53C790.558 1274.53 790.557 1274.53 790.556 1274.54C790.555 1274.54 790.554 1274.54 790.554 1274.54C790.271 1274.67 789.997 1274.82 789.732 1274.98C788.89 1275.48 788.029 1275.95 787.148 1276.38C785.423 1277.02 783.648 1277.51 781.842 1277.85C780.454 1277.95 779.061 1277.97 777.672 1277.89H777.633C776.674 1277.68 775.726 1277.42 774.794 1277.11C774.324 1276.87 773.873 1276.6 773.423 1276.33C773.247 1276.17 773.09 1276.01 772.992 1275.92C772.801 1275.74 772.624 1275.55 772.464 1275.35C772.464 1275.34 772.464 1275.34 772.463 1275.34C772.462 1275.34 772.46 1275.34 772.458 1275.33C772.457 1275.33 772.454 1275.33 772.452 1275.33C772.45 1275.33 772.447 1275.33 772.444 1275.33C772.229 1274.94 771.994 1274.54 771.779 1274.15C771.768 1274.14 771.761 1274.13 771.759 1274.11C771.602 1273.62 771.465 1273.12 771.348 1272.61C771.306 1271.71 771.312 1270.82 771.368 1269.93C771.63 1268.67 771.984 1267.44 772.425 1266.25C772.821 1265.39 773.272 1264.57 773.776 1263.78C773.815 1263.7 774.011 1263.39 774.226 1263.03C774.246 1263.02 774.246 1263.02 774.246 1263C774.539 1262.66 774.833 1262.31 775.146 1262C775.675 1261.41 776.243 1260.9 776.81 1260.37C777.915 1259.65 779.058 1258.99 780.237 1258.4C782.106 1257.73 784.024 1257.22 785.973 1256.85C788.848 1256.62 791.737 1256.65 794.607 1256.93C797.326 1257.4 800.008 1258.06 802.634 1258.9C801.042 1261.99 799.23 1264.96 797.211 1267.79C797.133 1267.91 797.054 1268.03 796.976 1268.12ZM775.205 1261.68C775.032 1261.96 774.829 1262.22 774.598 1262.45C774.753 1262.16 774.959 1261.9 775.205 1261.68Z" fill="#3F3D56"/>
<path d="M1056.04 1027.91C1055.86 1034.05 1055.68 1040.2 1055.51 1046.34C1055.14 1059.99 1054.75 1073.64 1054.35 1087.29C1053.94 1102.66 1053.51 1118.02 1053.06 1133.37C1052.85 1141.3 1052.62 1149.23 1052.4 1157.16C1051.79 1178.51 1051.19 1199.86 1050.59 1221.2C1050.54 1223.42 1050.46 1225.61 1050.4 1227.82C1050.11 1238.41 1049.81 1249 1049.52 1259.59C1049.18 1271.08 1048.86 1282.57 1048.54 1294.06C1048.3 1302.67 1048.06 1311.29 1047.81 1319.92C1046.05 1382.42 1044.29 1444.92 1042.53 1507.42C1042.45 1511.29 1040.88 1514.99 1038.15 1517.72C1035.41 1520.46 1031.72 1522.03 1027.84 1522.11C1023.96 1522.07 1020.24 1520.52 1017.5 1517.77C1014.75 1515.02 1013.19 1511.31 1013.16 1507.42C1014.14 1472.27 1015.13 1437.11 1016.14 1401.96C1017.02 1370.17 1017.91 1338.38 1018.82 1306.59C1019.11 1296.12 1019.41 1285.64 1019.7 1275.15C1020.15 1259.37 1020.59 1243.6 1021.03 1227.82C1021.09 1225.61 1021.17 1223.42 1021.23 1221.2C1021.27 1219.27 1021.32 1217.35 1021.38 1215.41C1022.24 1184.78 1023.11 1154.14 1023.97 1123.49C1024.32 1111.43 1024.66 1099.37 1024.99 1087.29C1025.38 1073.53 1025.77 1059.78 1026.16 1046.03C1026.34 1039.98 1026.49 1033.95 1026.67 1027.91C1026.74 1024.03 1028.32 1020.34 1031.05 1017.61C1033.79 1014.87 1037.48 1013.3 1041.35 1013.22C1045.24 1013.26 1048.95 1014.81 1051.7 1017.56C1054.45 1020.31 1056.01 1024.02 1056.04 1027.91Z" fill="#3F3D56"/>
<path d="M1861.55 1031.98C1846.15 1090.27 1827.75 1147.73 1806.41 1204.12C1800.53 1219.68 1794.5 1235.2 1788.07 1250.54L1789.55 1247.03C1786.67 1254.33 1783 1261.3 1778.6 1267.8C1778.3 1268.22 1778 1268.64 1777.69 1269.05C1779.21 1267.1 1779.5 1266.72 1778.56 1267.89C1778.06 1268.48 1777.57 1269.07 1777.05 1269.65C1775.68 1271.18 1774.21 1272.62 1772.65 1273.96C1772.26 1274.3 1771.86 1274.62 1771.45 1274.95L1773.29 1273.52C1773.07 1274.02 1771.58 1274.69 1771.11 1274.97C1769.6 1275.88 1768.03 1276.68 1766.4 1277.36L1769.91 1275.88C1767.25 1276.95 1764.47 1277.71 1761.63 1278.15L1765.53 1277.63C1762.74 1278.01 1759.91 1278.04 1757.12 1277.72L1761.02 1278.24C1758.73 1277.93 1756.49 1277.32 1754.35 1276.45L1757.86 1277.93C1756.72 1277.43 1755.62 1276.84 1754.58 1276.17C1754.04 1275.83 1752.41 1274.59 1754.55 1276.22C1756.77 1277.91 1754.83 1276.37 1754.37 1275.91C1753.99 1275.54 1753.65 1275.13 1753.28 1274.75C1751.55 1272.98 1755.23 1277.8 1754.06 1275.73C1753.43 1274.69 1752.85 1273.62 1752.34 1272.52L1753.82 1276.03C1753.14 1274.36 1752.66 1272.62 1752.39 1270.84L1752.92 1274.74C1752.64 1272.53 1752.63 1270.29 1752.91 1268.08L1752.39 1271.98C1752.74 1269.51 1753.4 1267.09 1754.33 1264.78L1752.85 1268.28C1753.5 1266.73 1754.28 1265.22 1755.16 1263.78C1755.57 1263.04 1756.04 1262.34 1756.59 1261.69C1756.68 1261.72 1754.1 1264.65 1755.47 1263.17C1755.83 1262.78 1756.16 1262.37 1756.53 1261.99C1757.11 1261.38 1757.73 1260.81 1758.34 1260.23C1760.38 1258.29 1755.48 1262.12 1757.84 1260.58C1759.55 1259.46 1761.35 1258.48 1763.22 1257.65L1759.71 1259.13C1762.85 1257.84 1766.13 1256.96 1769.49 1256.51L1765.59 1257.03C1769.79 1256.55 1774.04 1256.6 1778.24 1257.18L1774.33 1256.65C1779.64 1257.46 1784.83 1258.92 1789.78 1261L1786.28 1259.52C1796.83 1264.05 1806.17 1270.77 1815.5 1277.37C1824.51 1283.89 1834.01 1289.72 1843.9 1294.8C1865.19 1305.38 1888.1 1312.31 1911.69 1315.3C1945.51 1319.45 1979.83 1315.03 2011.5 1302.46C2043.18 1289.89 2071.18 1269.57 2092.96 1243.36C2095.61 1240.55 2097.14 1236.85 2097.26 1232.98C2097.23 1229.09 2095.69 1225.37 2092.96 1222.6C2087.57 1217.66 2077.39 1216.26 2072.19 1222.6C2067.26 1228.62 2061.96 1234.33 2056.32 1239.68C2053.68 1242.18 2050.98 1244.6 2048.21 1246.95C2046.62 1248.29 2045.02 1249.6 2043.39 1250.88C2042.62 1251.49 2040.22 1253.11 2043.9 1250.5C2043.06 1251.1 2042.25 1251.75 2041.42 1252.37C2029.09 1261.45 2015.73 1269.05 2001.61 1275L2005.12 1273.52C1989.97 1279.88 1974.06 1284.23 1957.79 1286.49L1961.7 1285.96C1944.96 1288.16 1928.01 1288.14 1911.28 1285.89L1915.18 1286.41C1898.45 1284.12 1882.1 1279.66 1866.51 1273.16L1870.02 1274.64C1854.99 1267.99 1840.72 1259.72 1827.47 1249.99C1820.57 1244.89 1813.3 1240.31 1805.71 1236.3C1796.87 1231.79 1787.3 1228.88 1777.44 1227.71C1758.96 1225.54 1740.13 1232.73 1729.97 1248.7C1720.62 1263.39 1720.74 1284.41 1733.83 1296.9C1747.32 1309.76 1767.74 1309.66 1783.63 1301.61C1798.94 1293.86 1808.13 1277.76 1814.6 1262.57C1829.15 1228.41 1842.03 1193.45 1854.03 1158.31C1865.9 1123.55 1876.67 1088.44 1886.33 1052.98C1887.53 1048.58 1888.7 1044.19 1889.87 1039.78C1891.83 1032.37 1887.4 1023.5 1879.61 1021.73C1875.86 1020.76 1871.88 1021.29 1868.51 1023.2C1865.14 1025.11 1862.64 1028.26 1861.55 1031.98Z" fill="#3F3D56"/>
<path d="M2008.06 1027.9L2002.77 1215.42L1997.51 1401.95L1994.54 1507.43C1994.58 1511.31 1996.13 1515.02 1998.88 1517.77C2001.63 1520.52 2005.34 1522.07 2009.23 1522.11C2013.1 1522.03 2016.79 1520.46 2019.53 1517.72C2022.26 1514.99 2023.83 1511.3 2023.91 1507.43L2029.19 1319.91L2034.45 1133.38L2037.43 1027.9C2037.39 1024.02 2035.83 1020.31 2033.09 1017.56C2030.34 1014.81 2026.63 1013.26 2022.74 1013.22C2018.87 1013.3 2015.18 1014.87 2012.44 1017.61C2009.7 1020.34 2008.13 1024.03 2008.06 1027.9Z" fill="#3F3D56"/>
<path opacity="0.2" d="M1499.81 1455.07H1504.37V1247.5H1610.73V1242.95H1504.37V1155.37H1586.51C1585.3 1153.84 1584.07 1152.32 1582.79 1150.83H1504.37V1092.98C1502.86 1092.34 1501.34 1091.72 1499.81 1091.14V1150.83H1410.43V1076.71C1408.9 1076.78 1407.39 1076.89 1405.87 1077.02V1150.83H1334.56V1095.53C1333.03 1096.21 1331.52 1096.92 1330.03 1097.67V1150.83H1270.09V1155.37H1330.03V1242.95H1270.09V1247.5H1330.03V1455.07H1334.56V1247.5C1343.93 1247.5 1353.2 1249.34 1361.85 1252.92C1370.5 1256.5 1378.37 1261.76 1384.99 1268.38C1391.61 1275 1396.86 1282.86 1400.44 1291.51C1404.03 1300.16 1405.87 1309.43 1405.87 1318.79V1455.07H1410.43V1247.5H1499.81V1455.07ZM1334.56 1242.95V1155.37H1405.87V1242.95H1334.56ZM1410.43 1242.95V1155.37H1412.22C1423.72 1155.37 1435.11 1157.63 1445.74 1162.04C1456.36 1166.44 1466.02 1172.89 1474.15 1181.02C1482.29 1189.16 1488.74 1198.81 1493.14 1209.44C1497.54 1220.06 1499.81 1231.45 1499.81 1242.95H1410.43Z" fill="black"/>
<path d="M1471.96 1392.83C1466.22 1418.44 1452.47 1441.54 1432.71 1458.8C1431.26 1460.05 1429.81 1461.27 1428.3 1462.46C1424.64 1462.79 1421 1463.13 1417.4 1463.48C1414.4 1463.75 1411.44 1464.05 1408.51 1464.32L1407.98 1464.38L1407.61 1461.17L1406.12 1448.17C1400.35 1438.75 1396.77 1428.15 1395.65 1417.16C1394.53 1406.17 1395.9 1395.06 1399.66 1384.67C1404.83 1370.73 1414.19 1358.42 1423.39 1346.21C1436.09 1329.33 1448.45 1312.66 1448.9 1292.08C1455.15 1300.08 1460.35 1308.85 1464.36 1318.18C1460.57 1319.96 1457.17 1322.47 1454.34 1325.56C1453.54 1326.44 1452.73 1327.67 1453.28 1328.73C1453.75 1329.63 1454.93 1329.84 1455.95 1329.96C1458.39 1330.22 1460.86 1330.47 1463.31 1330.72C1465.27 1330.94 1467.22 1331.14 1469.18 1331.35C1471.55 1339.12 1473.16 1347.11 1473.98 1355.19C1475.3 1367.77 1474.62 1380.47 1471.96 1392.83Z" fill="#3F3D56"/>
<path d="M1536.96 1341.53C1525.41 1349.93 1518.66 1362 1513.41 1375.32C1508.03 1377.04 1503.19 1380.13 1499.37 1384.28C1498.57 1385.16 1497.77 1386.39 1498.31 1387.45C1498.78 1388.35 1499.96 1388.57 1500.98 1388.68C1503.42 1388.94 1505.89 1389.19 1508.34 1389.45C1503.09 1405.19 1498.27 1421.47 1488.99 1434.76C1482.82 1443.54 1474.78 1450.83 1465.44 1456.12C1462.9 1457.57 1460.27 1458.87 1457.57 1460.01C1447.63 1460.78 1437.87 1461.59 1428.3 1462.46C1424.64 1462.79 1421 1463.13 1417.4 1463.48C1414.4 1463.75 1411.44 1464.05 1408.51 1464.32C1408.49 1463.24 1408.49 1462.17 1408.51 1461.09C1409.13 1432.41 1419.68 1404.84 1438.36 1383.07C1439.25 1382.05 1440.15 1381.05 1441.07 1380.05C1450.53 1369.94 1461.66 1361.53 1473.98 1355.19C1493.38 1345.11 1515.12 1340.39 1536.96 1341.53Z" fill="#F9A826"/>
<path d="M1420.78 1453.44L1418.53 1460.09L1417.4 1463.48C1414.4 1463.75 1411.44 1464.05 1408.51 1464.32L1407.98 1464.38C1404.73 1464.71 1401.5 1465.05 1398.27 1465.38C1397.43 1464.4 1396.58 1463.4 1395.76 1462.38C1375.33 1437.64 1365.52 1405.82 1368.48 1373.87C1371.44 1341.92 1386.93 1312.44 1411.56 1291.87C1408.98 1305.39 1411.99 1318.35 1416.95 1331.21C1416.42 1331.43 1415.91 1331.64 1415.42 1331.88C1411.63 1333.66 1408.22 1336.17 1405.39 1339.26C1404.59 1340.14 1403.79 1341.37 1404.34 1342.43C1404.81 1343.33 1405.98 1343.55 1407 1343.66C1409.45 1343.92 1411.91 1344.17 1414.36 1344.43C1416.32 1344.64 1418.28 1344.84 1420.23 1345.05C1421.15 1345.15 1422.08 1345.25 1423 1345.35C1423.13 1345.64 1423.25 1345.91 1423.39 1346.21C1428.97 1358.3 1434.98 1370.46 1438.36 1383.07C1439.21 1386.23 1439.88 1389.44 1440.36 1392.68C1441.87 1403.63 1440.89 1414.77 1437.5 1425.29C1434.11 1435.81 1428.4 1445.43 1420.78 1453.44Z" fill="#F9A826"/>
<path d="M1617.86 1169.53C1601 1136.66 1574.89 1109 1544.18 1088.68C1513.37 1068.38 1478.01 1056.02 1441.27 1052.7C1436.45 1052.26 1431.62 1052.01 1426.78 1051.93C1421.06 1051.85 1335.03 1076.66 1306.2 1096.92C1277.4 1116.93 1253.7 1143.44 1237.03 1174.29C1220.38 1205.31 1212.2 1240.17 1213.29 1275.36C1214.72 1310.76 1224.58 1345.31 1242.07 1376.12C1259.32 1406.84 1283.82 1432.87 1313.43 1451.97C1343.46 1471.12 1373.62 1521.92 1409.08 1523.71C1444.8 1525.52 1485.54 1477.6 1518.12 1463.05C1550.7 1448.39 1578.86 1425.43 1599.81 1396.49C1620.16 1368.13 1633.33 1335.25 1638.18 1300.68C1643.22 1265.28 1640.87 1228.77 1628.78 1194.94C1625.68 1186.25 1622.03 1177.76 1617.86 1169.53C1614.37 1162.67 1604.16 1160.14 1597.77 1164.26C1594.47 1166.29 1592.09 1169.51 1591.11 1173.25C1590.12 1176.99 1590.62 1180.97 1592.5 1184.35C1594.54 1188.38 1596.45 1192.47 1598.21 1196.64L1596.73 1193.13C1603.38 1209.13 1607.91 1225.94 1610.19 1243.12L1609.66 1239.22C1612.09 1257.86 1612.05 1276.73 1609.53 1295.36L1610.06 1291.46C1607.52 1310.08 1602.55 1328.3 1595.27 1345.63L1596.75 1342.12C1593 1350.97 1588.64 1359.53 1583.69 1367.76C1581.18 1371.92 1578.51 1375.98 1575.7 1379.94C1574.46 1381.68 1573.19 1383.39 1571.9 1385.09C1570.22 1387.31 1574.19 1382.19 1572.45 1384.37C1572.16 1384.74 1571.87 1385.11 1571.57 1385.48C1570.68 1386.59 1569.78 1387.69 1568.86 1388.79C1562.76 1396.07 1556.1 1402.86 1548.94 1409.11C1547.16 1410.67 1545.34 1412.19 1543.5 1413.67C1542.58 1414.41 1541.68 1415.19 1540.72 1415.88C1540.76 1415.85 1543.81 1413.53 1542 1414.88C1541.43 1415.3 1540.87 1415.73 1540.3 1416.15C1536.5 1418.96 1532.6 1421.63 1528.6 1424.16C1519.4 1429.96 1509.73 1435.01 1499.71 1439.26L1503.22 1437.78C1485.94 1445.05 1467.77 1450.02 1449.19 1452.56L1453.1 1452.04C1434.52 1454.55 1415.7 1454.58 1397.12 1452.14L1401.03 1452.66C1384.14 1450.39 1367.62 1445.93 1351.89 1439.38L1355.4 1440.86C1346.29 1437.01 1337.51 1432.44 1329.14 1427.18C1324.99 1424.57 1320.96 1421.79 1317.03 1418.86C1316.47 1418.44 1315.91 1418.02 1315.35 1417.6C1313.56 1416.25 1316.64 1418.6 1316.67 1418.61C1315.62 1417.86 1314.62 1417.06 1313.66 1416.21C1311.76 1414.67 1309.9 1413.09 1308.06 1411.47C1300.71 1405 1293.84 1397.99 1287.52 1390.51C1285.93 1388.64 1284.38 1386.74 1282.87 1384.81C1282.21 1383.98 1281.01 1382.29 1283.66 1385.85C1283.31 1385.38 1282.95 1384.92 1282.6 1384.45C1281.75 1383.34 1280.92 1382.21 1280.1 1381.07C1277.23 1377.09 1274.49 1373.02 1271.9 1368.85C1266.05 1359.4 1260.94 1349.51 1256.62 1339.27L1258.1 1342.78C1251.03 1325.97 1246.2 1308.31 1243.73 1290.25L1244.25 1294.15C1242.02 1277.5 1241.99 1260.63 1244.16 1243.97L1243.63 1247.87C1245.86 1231.74 1250.2 1215.97 1256.55 1200.97L1255.07 1204.48C1259.06 1195.09 1263.77 1186.02 1269.15 1177.36C1271.85 1173.02 1274.7 1168.79 1277.72 1164.66C1278.41 1163.73 1279.1 1162.79 1279.8 1161.87C1280.44 1161.03 1282.18 1158.94 1279.21 1162.63C1279.5 1162.27 1279.78 1161.9 1280.07 1161.53C1281.72 1159.43 1283.42 1157.37 1285.15 1155.34C1291.73 1147.64 1298.85 1140.43 1306.46 1133.76C1308.39 1132.08 1310.34 1130.43 1312.33 1128.81C1313.23 1128.08 1314.14 1127.35 1315.05 1126.63C1315.41 1126.35 1315.78 1126.06 1316.15 1125.78C1312.24 1128.89 1315.06 1126.62 1315.95 1125.96C1320.04 1122.89 1324.24 1119.98 1328.55 1117.22C1338.13 1111.1 1348.21 1105.79 1358.67 1101.35L1355.17 1102.83C1370.36 1096.46 1437.67 1081.4 1449.91 1083.04L1446.01 1082.52C1464 1085.03 1481.59 1089.89 1498.32 1096.97L1494.82 1095.49C1503.29 1099.09 1511.53 1103.23 1519.48 1107.88C1523.46 1110.21 1527.35 1112.66 1531.17 1115.24C1532.97 1116.47 1534.76 1117.72 1536.53 1118.99C1537.41 1119.63 1538.29 1120.28 1539.16 1120.93C1539.65 1121.29 1540.13 1121.66 1540.62 1122.02C1542.65 1123.55 1537.81 1119.81 1539.95 1121.5C1547.08 1127.11 1553.86 1133.16 1560.24 1139.61C1563.38 1142.8 1566.4 1146.09 1569.32 1149.49C1570.82 1151.23 1572.29 1153 1573.72 1154.79C1574.43 1155.68 1576.86 1158.9 1573.89 1154.95C1574.61 1155.92 1575.35 1156.88 1576.07 1157.85C1582.25 1166.22 1587.75 1175.08 1592.5 1184.35C1596.01 1191.19 1606.18 1193.75 1612.59 1189.61C1615.88 1187.59 1618.27 1184.37 1619.25 1180.63C1620.23 1176.89 1619.73 1172.91 1617.86 1169.53Z" fill="#3F3D56"/>
<path d="M1446.76 1409.11C1445.24 1409.18 1443.74 1408.78 1442.46 1407.97C1441.18 1407.16 1440.18 1405.97 1439.59 1404.57C1439.01 1403.18 1438.87 1401.63 1439.19 1400.15C1439.51 1398.66 1440.28 1397.32 1441.4 1396.29C1441.58 1395.55 1441.72 1395.01 1441.9 1394.27C1441.84 1394.11 1441.77 1393.95 1441.7 1393.79C1434.89 1377.55 1391.42 1422.82 1389.54 1438.09C1388.71 1444.84 1389.06 1451.68 1390.57 1458.3C1376.49 1427.59 1369.17 1394.21 1369.13 1360.43C1369.12 1351.95 1369.59 1343.48 1370.54 1335.05C1371.32 1328.14 1372.4 1321.29 1373.78 1314.48C1381.33 1277.53 1397.53 1242.91 1421.07 1213.44C1434.52 1214.19 1446.32 1212.14 1447.46 1186.06C1447.66 1181.43 1451.1 1177.41 1451.86 1172.84C1450.57 1173.01 1449.27 1173.11 1447.98 1173.2C1447.58 1173.22 1447.16 1173.24 1446.76 1173.26L1446.61 1173.27C1445.2 1173.33 1443.8 1172.98 1442.58 1172.27C1441.36 1171.56 1440.37 1170.51 1439.74 1169.24C1439.1 1167.98 1438.84 1166.56 1438.99 1165.16C1439.14 1163.75 1439.7 1162.42 1440.59 1161.32C1441.14 1160.64 1441.7 1159.96 1442.25 1159.28C1443.1 1158.23 1443.96 1157.19 1444.8 1156.14C1444.9 1156.04 1444.99 1155.93 1445.08 1155.82C1446.05 1154.62 1447.01 1153.44 1447.98 1152.24C1446.21 1149.5 1443.84 1147.2 1441.03 1145.53C1431.32 1139.84 1417.93 1143.78 1410.91 1152.56C1403.88 1161.34 1402.55 1173.66 1405 1184.63C1407.4 1193.97 1411.37 1202.83 1416.75 1210.83C1416.22 1211.5 1415.67 1212.16 1415.15 1212.83C1405.52 1225.2 1397.13 1238.49 1390.1 1252.5C1392.09 1236.96 1367.76 1180.84 1358.35 1168.96C1347.04 1154.68 1323.87 1160.91 1321.88 1179.01C1321.86 1179.19 1321.84 1179.36 1321.82 1179.54C1323.22 1180.32 1324.59 1181.16 1325.92 1182.05C1327.61 1183.17 1328.91 1184.77 1329.66 1186.65C1330.42 1188.53 1330.59 1190.59 1330.15 1192.56C1329.71 1194.54 1328.69 1196.33 1327.21 1197.71C1325.74 1199.1 1323.88 1200 1321.88 1200.31L1321.67 1200.34C1302.96 1227.05 1362.94 1296.56 1377.95 1280.95C1370.89 1300.97 1366.45 1321.83 1364.77 1342.99C1363.81 1355.48 1363.87 1368.02 1364.93 1380.49L1364.87 1380.05C1361.54 1352.88 1304.31 1312.48 1287.6 1315.84C1277.98 1317.78 1268.5 1317.34 1269.96 1327.05C1269.98 1327.2 1270 1327.36 1270.03 1327.51C1272.62 1328.57 1275.15 1329.79 1277.59 1331.16C1278.99 1331.94 1280.35 1332.78 1281.69 1333.67C1283.38 1334.79 1284.68 1336.39 1285.43 1338.27C1286.19 1340.15 1286.35 1342.21 1285.92 1344.18C1285.48 1346.16 1284.46 1347.95 1282.98 1349.33C1281.5 1350.72 1279.65 1351.62 1277.65 1351.93L1277.44 1351.96C1277.29 1351.98 1277.17 1352 1277.02 1352.02C1268.5 1381.32 1331.66 1428.6 1370.05 1413.56H1370.07C1373.88 1430.09 1379.39 1446.18 1386.52 1461.57H1445.29C1445.5 1460.92 1445.69 1460.24 1445.88 1459.59C1440.44 1459.93 1434.98 1459.61 1429.62 1458.62C1433.98 1453.27 1438.34 1447.88 1442.7 1442.53C1442.79 1442.43 1442.89 1442.33 1442.97 1442.22C1445.18 1439.48 1447.41 1436.76 1449.63 1434.02L1449.63 1434.02C1449.75 1425.63 1448.78 1417.26 1446.76 1409.11L1446.76 1409.11ZM1379.47 1276.76L1379.5 1276.72L1379.47 1276.8V1276.76ZM1366.45 1394.08L1365.95 1392.94C1365.97 1392.12 1365.97 1391.3 1365.95 1390.46C1365.95 1390.22 1365.9 1389.99 1365.9 1389.76C1366.09 1391.21 1366.26 1392.67 1366.47 1394.12L1366.45 1394.08Z" fill="#3F3D56"/>
<path d="M786.482 1286.86C798.376 1286.86 808.018 1277.22 808.018 1265.33C808.018 1253.43 798.376 1243.79 786.482 1243.79C774.588 1243.79 764.946 1253.43 764.946 1265.33C764.946 1277.22 774.588 1286.86 786.482 1286.86Z" fill="#3F3D56"/>
<path d="M1044.92 1521.75C1056.81 1521.75 1066.45 1512.11 1066.45 1500.22C1066.45 1488.33 1056.81 1478.69 1044.92 1478.69C1033.02 1478.69 1023.38 1488.33 1023.38 1500.22C1023.38 1512.11 1033.02 1521.75 1044.92 1521.75Z" fill="#3F3D56"/>
<path d="M2025.8 1521.75C2037.69 1521.75 2047.33 1512.11 2047.33 1500.22C2047.33 1488.33 2037.69 1478.69 2025.8 1478.69C2013.9 1478.69 2004.26 1488.33 2004.26 1500.22C2004.26 1512.11 2013.9 1521.75 2025.8 1521.75Z" fill="#3F3D56"/>
<path d="M2078.66 1247.71C2090.55 1247.71 2100.19 1238.07 2100.19 1226.18C2100.19 1214.28 2090.55 1204.64 2078.66 1204.64C2066.76 1204.64 2057.12 1214.28 2057.12 1226.18C2057.12 1238.07 2066.76 1247.71 2078.66 1247.71Z" fill="#3F3D56"/>
<path d="M2016.01 1048.05C2027.9 1048.05 2037.54 1038.41 2037.54 1026.51C2037.54 1014.62 2027.9 1004.98 2016.01 1004.98C2004.11 1004.98 1994.47 1014.62 1994.47 1026.51C1994.47 1038.41 2004.11 1048.05 2016.01 1048.05Z" fill="#3F3D56"/>
<path d="M1117.36 1226.18C1117.34 1231.68 1115.22 1236.96 1111.42 1240.94C1107.61 1244.91 1102.43 1247.27 1096.93 1247.53C1091.44 1247.79 1086.05 1245.93 1081.89 1242.33C1077.73 1238.73 1075.12 1233.67 1074.59 1228.2C1074.05 1222.73 1075.65 1217.26 1079.03 1212.92C1082.42 1208.59 1087.35 1205.73 1092.79 1204.92C1098.23 1204.12 1103.78 1205.44 1108.27 1208.61C1112.77 1211.78 1115.87 1216.55 1116.95 1221.95C1117.22 1223.34 1117.36 1224.76 1117.36 1226.18Z" fill="#3F3D56"/>
<path d="M1548.08 1110.69C1559.98 1110.69 1569.62 1101.05 1569.62 1089.15C1569.62 1077.26 1559.98 1067.62 1548.08 1067.62C1536.19 1067.62 1526.55 1077.26 1526.55 1089.15C1526.55 1101.05 1536.19 1110.69 1548.08 1110.69Z" fill="#3F3D56"/>
<path d="M1334.68 1089.15C1334.66 1094.65 1332.54 1099.94 1328.74 1103.91C1324.93 1107.89 1319.75 1110.25 1314.25 1110.51C1308.76 1110.77 1303.37 1108.91 1299.21 1105.31C1295.05 1101.71 1292.44 1096.65 1291.91 1091.18C1291.37 1085.7 1292.97 1080.23 1296.35 1075.9C1299.74 1071.57 1304.67 1068.7 1310.11 1067.9C1315.55 1067.1 1321.1 1068.42 1325.59 1071.59C1330.09 1074.76 1333.19 1079.53 1334.27 1084.93C1334.54 1086.32 1334.68 1087.73 1334.68 1089.15Z" fill="#3F3D56"/>
<path d="M1056.66 1026.51C1056.65 1032.01 1054.52 1037.3 1050.72 1041.28C1046.92 1045.25 1041.74 1047.61 1036.24 1047.87C1030.75 1048.13 1025.36 1046.27 1021.2 1042.67C1017.04 1039.07 1014.42 1034.01 1013.89 1028.54C1013.36 1023.06 1014.95 1017.59 1018.34 1013.26C1021.73 1008.93 1026.65 1006.07 1032.1 1005.26C1037.54 1004.46 1043.08 1005.78 1047.58 1008.95C1052.07 1012.12 1055.18 1016.89 1056.25 1022.29C1056.53 1023.68 1056.67 1025.1 1056.66 1026.51Z" fill="#3F3D56"/>
<path d="M1773.23 1294.69C1785.13 1294.69 1794.77 1285.05 1794.77 1273.16C1794.77 1261.26 1785.13 1251.62 1773.23 1251.62C1761.34 1251.62 1751.7 1261.26 1751.7 1273.16C1751.7 1285.05 1761.34 1294.69 1773.23 1294.69Z" fill="#3F3D56"/>
<path d="M1434.53 1098.94C1451.83 1098.94 1465.85 1084.92 1465.85 1067.62C1465.85 1050.32 1451.83 1036.3 1434.53 1036.3C1417.23 1036.3 1403.2 1050.32 1403.2 1067.62C1403.2 1084.92 1417.23 1098.94 1434.53 1098.94Z" fill="#3F3D56"/>
<path d="M2281.67 1523.4L602.331 1524C602.025 1524 601.722 1523.94 601.439 1523.82C601.156 1523.71 600.899 1523.53 600.683 1523.32C600.466 1523.1 600.295 1522.84 600.177 1522.56C600.06 1522.28 600 1521.98 600 1521.67C600 1521.36 600.06 1521.06 600.177 1520.78C600.295 1520.49 600.466 1520.24 600.683 1520.02C600.899 1519.8 601.156 1519.63 601.439 1519.52C601.722 1519.4 602.025 1519.34 602.331 1519.34L2281.67 1518.74C2282.29 1518.74 2282.88 1518.98 2283.31 1519.42C2283.75 1519.86 2283.99 1520.45 2283.99 1521.07C2283.99 1521.68 2283.75 1522.28 2283.31 1522.71C2282.88 1523.15 2282.29 1523.4 2281.67 1523.4Z" fill="#CACACA"/>
</g>
<defs>
<clipPath id="clip0_0_1">
<rect width="1684" height="1118" fill="white" transform="translate(600 406)"/>
</clipPath>
</defs>
</svg>
