<svg width="67" height="64" viewBox="0 0 67 64" fill="none" xmlns="http://www.w3.org/2000/svg">
<mask id="mask0_106_18" style="mask-type:luminance" maskUnits="userSpaceOnUse" x="0" y="0" width="67" height="64">
<path d="M0 0H66.5461V63.3H0V0Z" fill="white"/>
</mask>
<g mask="url(#mask0_106_18)">
<path d="M20.7954 14.8359C21.0712 14.8359 21.3356 14.7317 21.5306 14.5462C21.7256 14.3608 21.8352 14.1092 21.8352 13.8469C21.8352 13.5846 21.7256 13.333 21.5306 13.1475C21.3356 12.962 21.0712 12.8578 20.7954 12.8578C20.5196 12.8578 20.2552 12.962 20.0602 13.1475C19.8652 13.333 19.7556 13.5846 19.7556 13.8469C19.7556 14.1092 19.8652 14.3608 20.0602 14.5462C20.2552 14.7317 20.5196 14.8359 20.7954 14.8359ZM24.9545 14.8359C25.2303 14.8359 25.4948 14.7317 25.6898 14.5462C25.8848 14.3608 25.9943 14.1092 25.9943 13.8469C25.9943 13.5846 25.8848 13.333 25.6898 13.1475C25.4948 12.962 25.2303 12.8578 24.9545 12.8578C24.6788 12.8578 24.4143 12.962 24.2193 13.1475C24.0243 13.333 23.9147 13.5846 23.9147 13.8469C23.9147 14.1092 24.0243 14.3608 24.2193 14.5462C24.4143 14.7317 24.6788 14.8359 24.9545 14.8359ZM29.1137 14.8359C29.3894 14.8359 29.6539 14.7317 29.8489 14.5462C30.0439 14.3608 30.1535 14.1092 30.1535 13.8469C30.1535 13.5846 30.0439 13.333 29.8489 13.1475C29.6539 12.962 29.3894 12.8578 29.1137 12.8578C28.8379 12.8578 28.5734 12.962 28.3784 13.1475C28.1834 13.333 28.0739 13.5846 28.0739 13.8469C28.0739 14.1092 28.1834 14.3608 28.3784 14.5462C28.5734 14.7317 28.8379 14.8359 29.1137 14.8359ZM33.2728 14.8359C33.5486 14.8359 33.813 14.7317 34.008 14.5462C34.203 14.3608 34.3126 14.1092 34.3126 13.8469C34.3126 13.5846 34.203 13.333 34.008 13.1475C33.813 12.962 33.5486 12.8578 33.2728 12.8578C32.997 12.8578 32.7326 12.962 32.5376 13.1475C32.3426 13.333 32.233 13.5846 32.233 13.8469C32.233 14.1092 32.3426 14.3608 32.5376 14.5462C32.7326 14.7317 32.997 14.8359 33.2728 14.8359ZM39.5115 48.4641C39.7873 48.4641 40.0517 48.3598 40.2467 48.1744C40.4417 47.9889 40.5513 47.7373 40.5513 47.475C40.5513 47.2127 40.4417 46.9611 40.2467 46.7756C40.0517 46.5901 39.7873 46.4859 39.5115 46.4859C39.2357 46.4859 38.9713 46.5901 38.7763 46.7756C38.5813 46.9611 38.4717 47.2127 38.4717 47.475C38.4717 47.7373 38.5813 47.9889 38.7763 48.1744C38.9713 48.3598 39.2357 48.4641 39.5115 48.4641ZM28.0739 58.3547H38.4717C38.7475 58.3547 39.012 58.2505 39.207 58.065C39.402 57.8795 39.5115 57.6279 39.5115 57.3656C39.5115 57.1033 39.402 56.8517 39.207 56.6662C39.012 56.4808 38.7475 56.3766 38.4717 56.3766H28.0739C27.7981 56.3766 27.5336 56.4808 27.3386 56.6662C27.1437 56.8517 27.0341 57.1033 27.0341 57.3656C27.0341 57.6279 27.1437 57.8795 27.3386 58.065C27.5336 58.2505 27.7981 58.3547 28.0739 58.3547Z" fill="white"/>
<path fill-rule="evenodd" clip-rule="evenodd" d="M50.9493 25.7156C51.2251 25.7156 51.4895 25.6114 51.6845 25.4259C51.8795 25.2404 51.9891 24.9889 51.9891 24.7266V5.93437C51.9875 4.62325 51.4393 3.36626 50.4646 2.43916C49.49 1.51206 48.1685 0.990555 46.7902 0.989059H19.7558C18.3774 0.990555 17.056 1.51206 16.0813 2.43916C15.1067 3.36626 14.5585 4.62325 14.5569 5.93437V57.3656C14.5585 58.6767 15.1067 59.9337 16.0813 60.8608C17.056 61.7879 18.3774 62.3094 19.7558 62.3109H46.7902C48.1685 62.3094 49.49 61.7879 50.4646 60.8608C51.4393 59.9337 51.9875 58.6767 51.9891 57.3656V51.4312C51.9891 51.1689 51.8795 50.9174 51.6845 50.7319C51.4895 50.5464 51.2251 50.4422 50.9493 50.4422C50.6735 50.4422 50.4091 50.5464 50.2141 50.7319C50.0191 50.9174 49.9095 51.1689 49.9095 51.4312V52.4203H16.6365V10.8797H49.9095V24.7266C49.9095 25.2737 50.3753 25.7156 50.9493 25.7156ZM49.9095 57.3656V54.3984H16.6365V57.3656C16.6374 58.1523 16.9663 58.9065 17.5511 59.4627C18.1359 60.019 18.9288 60.3319 19.7558 60.3328H46.7902C47.6172 60.3319 48.4101 60.019 48.9948 59.4627C49.5796 58.9065 49.9086 58.1523 49.9095 57.3656ZM16.6365 5.93437V8.90156H49.9095V5.93437C49.9086 5.1477 49.5796 4.39351 48.9948 3.83725C48.4101 3.28098 47.6172 2.96808 46.7902 2.96718H19.7558C18.9288 2.96808 18.1359 3.28098 17.5511 3.83725C16.9663 4.39351 16.6374 5.1477 16.6365 5.93437Z" fill="white"/>
<path d="M33.2728 17.8031C33.2728 17.256 32.8652 16.8141 32.3625 16.8141H19.6261C19.1234 16.8141 18.7158 17.256 18.7158 17.8031C18.7158 18.3502 19.1234 18.7922 19.6261 18.7922H32.3625C32.8652 18.7922 33.2728 18.3502 33.2728 17.8031ZM39.5115 43.5187C39.5115 42.9717 39.1229 42.5297 38.644 42.5297H35.1789C34.7012 42.5297 34.3126 42.9717 34.3126 43.5187C34.3126 44.0658 34.7012 44.5078 35.1801 44.5078H38.6452C39.1229 44.5078 39.5115 44.0658 39.5115 43.5187Z" fill="white"/>
<path fill-rule="evenodd" clip-rule="evenodd" d="M33.4725 38.9001L39.2085 45.4223C39.9679 46.2818 41.0108 46.8715 42.1674 47.0952L46.9053 48.0051L53.3436 55.3253C53.712 55.7435 54.3668 55.8001 54.8088 55.4497L65.9731 46.5628C66.0781 46.4796 66.1648 46.3774 66.2282 46.2623C66.2916 46.1471 66.3305 46.0212 66.3426 45.8917C66.3548 45.7623 66.3399 45.6318 66.2989 45.5078C66.258 45.3837 66.1917 45.2686 66.1039 45.1691L59.6156 37.7946L58.8955 33.4506C58.7486 32.565 58.3514 31.7339 57.7464 31.0464L51.8131 24.3027L50.4132 22.8637C49.4759 22.1491 48.3077 21.7648 47.1066 21.7759C45.9054 21.787 44.7453 22.1929 43.8228 22.9248L37.817 16.0974L36.3601 14.7285C35.3821 14.1803 34.1546 14.134 33.1802 14.6833C32.7884 14.9026 32.4517 15.2004 32.1933 15.5561C31.9349 15.9118 31.7611 16.3168 31.684 16.7428C31.5953 17.2695 31.6577 17.8092 31.8647 18.305L33.0328 19.9067L36.3696 23.6991L37.7481 25.2657C37.2525 25.4425 36.8114 25.7343 36.4647 26.1146C35.6804 26.9793 35.5354 28.2239 36.0238 29.2774C35.4756 29.4468 34.9866 29.7556 34.6097 30.1703C33.8028 31.0588 33.6733 32.3519 34.2116 33.4224C33.6804 33.5919 33.2027 33.8937 32.826 34.3075C32.094 35.1134 31.9229 36.2517 32.2972 37.2566L33.4725 38.9001ZM56.8409 33.7592C56.7529 33.2276 56.5147 32.7286 56.1516 32.3158L49.5529 24.8125C49.0213 24.2091 48.2596 23.8311 47.4351 23.7616C46.6107 23.692 45.791 23.9367 45.1561 24.4417L50.494 30.5095C50.671 30.7106 50.7567 30.9704 50.7323 31.2317C50.7079 31.4929 50.5754 31.7343 50.3639 31.9026C50.1524 32.071 49.8793 32.1525 49.6047 32.1293C49.33 32.1061 49.0763 31.98 48.8993 31.7788L35.6257 16.6886C35.2668 16.2816 34.6584 16.1471 34.2378 16.3834C34.1061 16.4555 33.9926 16.5542 33.9053 16.6725C33.8179 16.7907 33.7589 16.9258 33.7323 17.0681C33.7057 17.2104 33.7121 17.3565 33.7512 17.4962C33.7903 17.6358 33.861 17.7657 33.9585 17.8766L37.9632 22.4285L41.2275 26.1406L47.3046 33.0482C47.4815 33.2494 47.5672 33.5092 47.5428 33.7705C47.5184 34.0317 47.3859 34.2731 47.1745 34.4414C46.963 34.6097 46.6899 34.6913 46.4152 34.668C46.1405 34.6448 45.8868 34.5188 45.7098 34.3176L39.6328 27.41C39.5353 27.2988 39.4134 27.2092 39.2756 27.1477C39.1379 27.0862 38.9876 27.0542 38.8353 27.0539C38.6831 27.0537 38.5327 27.0853 38.3948 27.1464C38.2568 27.2076 38.1346 27.2968 38.0368 27.4078C37.7184 27.7582 37.7504 28.3527 38.1093 28.7608L39.3725 30.1963C39.3844 30.211 39.3868 30.228 39.3987 30.2438C39.4129 30.2574 39.4307 30.263 39.4438 30.2777L44.1139 35.587C44.2015 35.6866 44.2677 35.8017 44.3086 35.9256C44.3495 36.0495 44.3643 36.1799 44.3522 36.3092C44.3401 36.4386 44.3014 36.5644 44.2381 36.6796C44.1749 36.7947 44.0885 36.8968 43.9838 36.9802C43.8791 37.0635 43.7581 37.1264 43.6279 37.1653C43.4976 37.2042 43.3605 37.2183 43.2245 37.2068C43.0885 37.1953 42.9563 37.1585 42.8352 37.0983C42.7142 37.0382 42.6068 36.956 42.5192 36.8564L37.8491 31.5471C37.8372 31.5324 37.8336 31.5132 37.8229 31.4996C37.8087 31.4861 37.7908 31.4804 37.7778 31.4657C37.6809 31.3558 37.5601 31.2672 37.4236 31.2061C37.2872 31.145 37.1384 31.1129 36.9875 31.1119C36.834 31.1095 36.6819 31.1399 36.5424 31.2009C36.403 31.262 36.2797 31.3521 36.1819 31.4646C35.8634 31.815 35.8955 32.4085 36.2532 32.8165L37.5888 34.3335L40.9245 38.1258C41.1014 38.327 41.1871 38.5867 41.1627 38.848C41.1383 39.1093 41.0058 39.3506 40.7943 39.519C40.5829 39.6873 40.3098 39.7688 40.0351 39.7456C39.7604 39.7224 39.5067 39.5964 39.3297 39.3952L35.9941 35.6028C35.8968 35.4915 35.775 35.4019 35.6373 35.3403C35.4995 35.2788 35.3492 35.2469 35.197 35.2467C35.0448 35.2466 34.8945 35.2784 34.7566 35.3397C34.6188 35.4011 34.4968 35.4905 34.3994 35.6017C34.0809 35.9521 34.1118 36.5456 34.4707 36.9536L40.8021 44.1517C41.2548 44.666 41.8834 45.0221 42.5774 45.1555L47.673 46.1355C47.9047 46.1807 48.1126 46.2983 48.2647 46.4701L54.2705 53.2975L63.8389 45.68L57.8343 38.8526C57.7132 38.7157 57.6335 38.55 57.6038 38.3734L56.8409 33.7592Z" fill="#F8B000"/>
<path d="M27.0342 48.4641C27.3099 48.4641 27.5744 48.3598 27.7694 48.1744C27.9644 47.9889 28.074 47.7373 28.074 47.475C28.074 47.2127 27.9644 46.9611 27.7694 46.7756C27.5744 46.5901 27.3099 46.4859 27.0342 46.4859C26.7584 46.4859 26.4939 46.5901 26.2989 46.7756C26.1039 46.9611 25.9944 47.2127 25.9944 47.475C25.9944 47.7373 26.1039 47.9889 26.2989 48.1744C26.4939 48.3598 26.7584 48.4641 27.0342 48.4641ZM31.1933 48.4641C31.4691 48.4641 31.7335 48.3598 31.9285 48.1744C32.1235 47.9889 32.2331 47.7373 32.2331 47.475C32.2331 47.2127 32.1235 46.9611 31.9285 46.7756C31.7335 46.5901 31.4691 46.4859 31.1933 46.4859C30.9175 46.4859 30.6531 46.5901 30.4581 46.7756C30.2631 46.9611 30.1535 47.2127 30.1535 47.475C30.1535 47.7373 30.2631 47.9889 30.4581 48.1744C30.6531 48.3598 30.9175 48.4641 31.1933 48.4641ZM35.3524 48.4641C35.6282 48.4641 35.8927 48.3598 36.0877 48.1744C36.2827 47.9889 36.3922 47.7373 36.3922 47.475C36.3922 47.2127 36.2827 46.9611 36.0877 46.7756C35.8927 46.5901 35.6282 46.4859 35.3524 46.4859C35.0767 46.4859 34.8122 46.5901 34.6172 46.7756C34.4222 46.9611 34.3127 47.2127 34.3127 47.475C34.3127 47.7373 34.4222 47.9889 34.6172 48.1744C34.8122 48.3598 35.0767 48.4641 35.3524 48.4641ZM31.1933 42.5297H27.0342C26.7584 42.5297 26.4939 42.6339 26.2989 42.8194C26.1039 43.0049 25.9944 43.2564 25.9944 43.5187C25.9944 43.7811 26.1039 44.0326 26.2989 44.2181C26.4939 44.4036 26.7584 44.5078 27.0342 44.5078H31.1933C31.4691 44.5078 31.7335 44.4036 31.9285 44.2181C32.1235 44.0326 32.2331 43.7811 32.2331 43.5187C32.2331 43.2564 32.1235 43.0049 31.9285 42.8194C31.7335 42.6339 31.4691 42.5297 31.1933 42.5297Z" fill="white"/>
</g>
</svg>
