<svg width="56" height="56" viewBox="0 0 56 56" fill="none" xmlns="http://www.w3.org/2000/svg">
<mask id="mask0_106_8" style="mask-type:luminance" maskUnits="userSpaceOnUse" x="0" y="0" width="56" height="56">
<path d="M0 0H56V56H0V0Z" fill="white"/>
</mask>
<g mask="url(#mask0_106_8)">
<path d="M52.5 18.375H41.125V3.5C41.1242 2.80405 40.8474 2.13683 40.3553 1.64472C39.8632 1.15261 39.1959 0.875794 38.5 0.875H3.5C2.80405 0.875794 2.13683 1.15261 1.64472 1.64472C1.15261 2.13683 0.875794 2.80405 0.875 3.5V29.75C0.875794 30.4459 1.15261 31.1132 1.64472 31.6053C2.13683 32.0974 2.80405 32.3742 3.5 32.375H14V35.875H12.25C12.0179 35.875 11.7954 35.9672 11.6313 36.1313C11.4672 36.2954 11.375 36.5179 11.375 36.75C11.375 36.9821 11.4672 37.2046 11.6313 37.3687C11.7954 37.5328 12.0179 37.625 12.25 37.625H29.75C29.9821 37.625 30.2046 37.5328 30.3687 37.3687C30.5328 37.2046 30.625 36.9821 30.625 36.75C30.625 36.5179 30.5328 36.2954 30.3687 36.1313C30.2046 35.9672 29.9821 35.875 29.75 35.875H28V32.375H32.375V52.5C32.3758 53.1959 32.6526 53.8632 33.1447 54.3553C33.6368 54.8474 34.3041 55.1242 35 55.125H52.5C53.1959 55.1242 53.8632 54.8474 54.3553 54.3553C54.8474 53.8632 55.1242 53.1959 55.125 52.5V21C55.1242 20.3041 54.8474 19.6368 54.3553 19.1447C53.8632 18.6526 53.1959 18.3758 52.5 18.375ZM34.125 25.375H53.375V46.375H34.125V25.375ZM53.375 21V23.625H34.125V21C34.125 20.518 34.518 20.125 35 20.125H52.5C52.982 20.125 53.375 20.518 53.375 21ZM3.5 2.625H38.5C38.982 2.625 39.375 3.018 39.375 3.5V18.375H35C34.3041 18.3758 33.6368 18.6526 33.1447 19.1447C32.6526 19.6368 32.3758 20.3041 32.375 21V25.375H2.625V3.5C2.625 3.018 3.018 2.625 3.5 2.625ZM26.25 35.875H15.75V32.375H26.25V35.875ZM3.5 30.625C3.26802 30.6247 3.04561 30.5325 2.88157 30.3684C2.71754 30.2044 2.62526 29.982 2.625 29.75V27.125H32.375V30.625H3.5ZM52.5 53.375H35C34.768 53.3747 34.5456 53.2825 34.3816 53.1184C34.2175 52.9544 34.1253 52.732 34.125 52.5V48.125H53.375V52.5C53.3747 52.732 53.2825 52.9544 53.1184 53.1184C52.9544 53.2825 52.732 53.3747 52.5 53.375Z" fill="white"/>
<path d="M46.375 49.875H41.125C40.8929 49.875 40.6704 49.9672 40.5063 50.1313C40.3422 50.2954 40.25 50.5179 40.25 50.75C40.25 50.9821 40.3422 51.2046 40.5063 51.3687C40.6704 51.5328 40.8929 51.625 41.125 51.625H46.375C46.6071 51.625 46.8296 51.5328 46.9937 51.3687C47.1578 51.2046 47.25 50.9821 47.25 50.75C47.25 50.5179 47.1578 50.2954 46.9937 50.1313C46.8296 49.9672 46.6071 49.875 46.375 49.875ZM50.75 44.625C50.9821 44.625 51.2046 44.5328 51.3687 44.3687C51.5328 44.2046 51.625 43.9821 51.625 43.75C51.625 43.5179 51.5328 43.2954 51.3687 43.1313C51.2046 42.9672 50.9821 42.875 50.75 42.875C50.5179 42.875 50.2954 42.9672 50.1313 43.1313C49.9672 43.2954 49.875 43.5179 49.875 43.75C49.875 43.9821 49.9672 44.2046 50.1313 44.3687C50.2954 44.5328 50.5179 44.625 50.75 44.625ZM13.125 9.625C13.3571 9.625 13.5796 9.53282 13.7437 9.36872C13.9078 9.20463 14 8.98207 14 8.75C14 8.51794 13.9078 8.29538 13.7437 8.13128C13.5796 7.96719 13.3571 7.875 13.125 7.875C12.8929 7.875 12.6704 7.96719 12.5063 8.13128C12.3422 8.29538 12.25 8.51794 12.25 8.75C12.25 8.98207 12.3422 9.20463 12.5063 9.36872C12.6704 9.53282 12.8929 9.625 13.125 9.625ZM16.625 9.625C16.8571 9.625 17.0796 9.53282 17.2437 9.36872C17.4078 9.20463 17.5 8.98207 17.5 8.75C17.5 8.51794 17.4078 8.29538 17.2437 8.13128C17.0796 7.96719 16.8571 7.875 16.625 7.875C16.3929 7.875 16.1704 7.96719 16.0063 8.13128C15.8422 8.29538 15.75 8.51794 15.75 8.75C15.75 8.98207 15.8422 9.20463 16.0063 9.36872C16.1704 9.53282 16.3929 9.625 16.625 9.625ZM20.125 9.625H34.638L33.506 10.756C33.3418 10.9202 33.2496 11.1428 33.2496 11.375C33.2496 11.6072 33.3418 11.8298 33.506 11.994C33.6702 12.1582 33.8928 12.2504 34.125 12.2504C34.3572 12.2504 34.5798 12.1582 34.744 11.994L37.369 9.369C37.4505 9.28781 37.5151 9.19133 37.5592 9.08511C37.6033 8.97889 37.626 8.86501 37.626 8.75C37.626 8.63499 37.6033 8.52111 37.5592 8.41489C37.5151 8.30867 37.4505 8.2122 37.369 8.131L34.744 5.506C34.5798 5.34183 34.3572 5.2496 34.125 5.2496C33.8928 5.2496 33.6702 5.34183 33.506 5.506C33.3418 5.67017 33.2496 5.89283 33.2496 6.125C33.2496 6.35717 33.3418 6.57983 33.506 6.744L34.638 7.875H20.125C19.8929 7.875 19.6704 7.96719 19.5063 8.13128C19.3422 8.29538 19.25 8.51794 19.25 8.75C19.25 8.98207 19.3422 9.20463 19.5063 9.36872C19.6704 9.53282 19.8929 9.625 20.125 9.625ZM28.875 18.375C29.1071 18.375 29.3296 18.2828 29.4937 18.1187C29.6578 17.9546 29.75 17.7321 29.75 17.5C29.75 17.2679 29.6578 17.0454 29.4937 16.8813C29.3296 16.7172 29.1071 16.625 28.875 16.625C28.6429 16.625 28.4204 16.7172 28.2563 16.8813C28.0922 17.0454 28 17.2679 28 17.5C28 17.7321 28.0922 17.9546 28.2563 18.1187C28.4204 18.2828 28.6429 18.375 28.875 18.375ZM25.375 18.375C25.6071 18.375 25.8296 18.2828 25.9937 18.1187C26.1578 17.9546 26.25 17.7321 26.25 17.5C26.25 17.2679 26.1578 17.0454 25.9937 16.8813C25.8296 16.7172 25.6071 16.625 25.375 16.625C25.1429 16.625 24.9204 16.7172 24.7563 16.8813C24.5922 17.0454 24.5 17.2679 24.5 17.5C24.5 17.7321 24.5922 17.9546 24.7563 18.1187C24.9204 18.2828 25.1429 18.375 25.375 18.375ZM7.256 20.744C7.33713 20.8256 7.43358 20.8903 7.53981 20.9345C7.64604 20.9787 7.75995 21.0014 7.875 21.0014C7.99005 21.0014 8.10396 20.9787 8.21019 20.9345C8.31642 20.8903 8.41287 20.8256 8.494 20.744C8.57546 20.6628 8.64009 20.5663 8.68418 20.4601C8.72828 20.3539 8.75098 20.24 8.75098 20.125C8.75098 20.01 8.72828 19.8961 8.68418 19.7899C8.64009 19.6837 8.57546 19.5872 8.494 19.506L7.362 18.375H21.875C22.1071 18.375 22.3296 18.2828 22.4937 18.1187C22.6578 17.9546 22.75 17.7321 22.75 17.5C22.75 17.2679 22.6578 17.0454 22.4937 16.8813C22.3296 16.7172 22.1071 16.625 21.875 16.625H7.362L8.494 15.494C8.65817 15.3298 8.7504 15.1072 8.7504 14.875C8.7504 14.6428 8.65817 14.4202 8.494 14.256C8.32983 14.0918 8.10717 13.9996 7.875 13.9996C7.64283 13.9996 7.42017 14.0918 7.256 14.256L4.631 16.881C4.54955 16.9622 4.48492 17.0587 4.44082 17.1649C4.39672 17.2711 4.37402 17.385 4.37402 17.5C4.37402 17.615 4.39672 17.7289 4.44082 17.8351C4.48492 17.9413 4.54955 18.0378 4.631 18.119L7.256 20.744ZM50.75 27.125C50.5179 27.125 50.2954 27.2172 50.1313 27.3813C49.9672 27.5454 49.875 27.7679 49.875 28V40.25C49.875 40.4821 49.9672 40.7046 50.1313 40.8687C50.2954 41.0328 50.5179 41.125 50.75 41.125C50.9821 41.125 51.2046 41.0328 51.3687 40.8687C51.5328 40.7046 51.625 40.4821 51.625 40.25V28C51.625 27.7679 51.5328 27.5454 51.3687 27.3813C51.2046 27.2172 50.9821 27.125 50.75 27.125Z" fill="#F8B000"/>
</g>
</svg>
