<svg width="56" height="56" viewBox="0 0 56 56" fill="none" xmlns="http://www.w3.org/2000/svg">
<path d="M29.32 23.733C29.3616 23.9517 29.4849 24.1463 29.6649 24.2774C29.8448 24.4084 30.0679 24.466 30.2888 24.4385C30.5097 24.411 30.7118 24.3005 30.8542 24.1293C30.9965 23.9581 31.0683 23.7392 31.055 23.517L30.18 16.517C30.1658 16.403 30.1292 16.293 30.0724 16.1931C30.0156 16.0932 29.9397 16.0055 29.8491 15.935C29.7584 15.8645 29.6547 15.8125 29.5439 15.7821C29.4332 15.7516 29.3175 15.7433 29.2035 15.7575C28.9733 15.7863 28.764 15.9053 28.6215 16.0885C28.551 16.1791 28.499 16.2828 28.4686 16.3936C28.4381 16.5043 28.4298 16.62 28.444 16.734L29.319 23.734L29.32 23.733Z" fill="#F8B000"/>
<path d="M50.75 7.875H47.25C47.0179 7.875 46.7954 7.96719 46.6313 8.13128C46.4672 8.29538 46.375 8.51794 46.375 8.75C46.375 8.98206 46.4672 9.20462 46.6313 9.36872C46.7954 9.53281 47.0179 9.625 47.25 9.625H50.75C51.4459 9.62579 52.1132 9.90261 52.6053 10.3947C53.0974 10.8868 53.3742 11.5541 53.375 12.25V41.125H2.625V12.25C2.62579 11.5541 2.90261 10.8868 3.39472 10.3947C3.88683 9.90261 4.55405 9.62579 5.25 9.625H8.75C8.98206 9.625 9.20462 9.53281 9.36872 9.36872C9.53281 9.20462 9.625 8.98206 9.625 8.75C9.625 8.51794 9.53281 8.29538 9.36872 8.13128C9.20462 7.96719 8.98206 7.875 8.75 7.875H5.25C4.09008 7.87632 2.97805 8.33768 2.15787 9.15787C1.33768 9.97805 0.876323 11.0901 0.875 12.25V45.5C0.876323 46.6599 1.33768 47.7719 2.15787 48.5921C2.97805 49.4123 4.09008 49.8737 5.25 49.875H15.75V53.375H12.25C12.0179 53.375 11.7954 53.4672 11.6313 53.6313C11.4672 53.7954 11.375 54.0179 11.375 54.25C11.375 54.4821 11.4672 54.7046 11.6313 54.8687C11.7954 55.0328 12.0179 55.125 12.25 55.125H43.75C43.9821 55.125 44.2046 55.0328 44.3687 54.8687C44.5328 54.7046 44.625 54.4821 44.625 54.25C44.625 54.0179 44.5328 53.7954 44.3687 53.6313C44.2046 53.4672 43.9821 53.375 43.75 53.375H40.25V49.875H50.75C51.9099 49.8737 53.0219 49.4123 53.8421 48.5921C54.6623 47.7719 55.1237 46.6599 55.125 45.5V12.25C55.1237 11.0901 54.6623 9.97805 53.8421 9.15787C53.0219 8.33768 51.9099 7.87632 50.75 7.875ZM38.5 53.375H17.5V49.875H38.5V53.375ZM50.75 48.125H5.25C4.55405 48.1242 3.88683 47.8474 3.39472 47.3553C2.90261 46.8632 2.62579 46.1959 2.625 45.5V42.875H53.375V45.5C53.3742 46.1959 53.0974 46.8632 52.6053 47.3553C52.1132 47.8474 51.4459 48.1242 50.75 48.125Z" fill="white"/>
<path d="M15.75 9.625H18.375V11.375C18.3758 12.0709 18.6526 12.7382 19.1447 13.2303C19.6368 13.7224 20.3041 13.9992 21 14H22.634L21.102 26.25H18.375C18.1429 26.25 17.9204 26.3422 17.7563 26.5063C17.5922 26.6704 17.5 26.8929 17.5 27.125V29.75H16.625C16.3929 29.75 16.1704 29.8422 16.0063 30.0063C15.8422 30.1704 15.75 30.3929 15.75 30.625V34.125C15.75 34.608 16.141 35 16.625 35H39.375C39.6071 35 39.8296 34.9078 39.9937 34.7437C40.1578 34.5796 40.25 34.3571 40.25 34.125V30.625C40.25 30.3929 40.1578 30.1704 39.9937 30.0063C39.8296 29.8422 39.6071 29.75 39.375 29.75H38.5V27.125C38.5 26.8929 38.4078 26.6704 38.2437 26.5063C38.0796 26.3422 37.8571 26.25 37.625 26.25H34.898L33.366 14H35C35.6959 13.9992 36.3632 13.7224 36.8553 13.2303C37.3474 12.7382 37.6242 12.0709 37.625 11.375V9.625H40.25C40.4821 9.625 40.7046 9.53281 40.8687 9.36872C41.0328 9.20462 41.125 8.98206 41.125 8.75C41.125 8.51794 41.0328 8.29538 40.8687 8.13128C40.7046 7.96719 40.4821 7.875 40.25 7.875H37.625V4.375C37.625 4.14294 37.5328 3.92038 37.3687 3.75628C37.2046 3.59219 36.9821 3.5 36.75 3.5H33.25C33.0179 3.5 32.7954 3.59219 32.6313 3.75628C32.4672 3.92038 32.375 4.14294 32.375 4.375V8.75H30.625V4.375C30.625 4.14294 30.5328 3.92038 30.3687 3.75628C30.2046 3.59219 29.9821 3.5 29.75 3.5H26.25C26.0179 3.5 25.7954 3.59219 25.6313 3.75628C25.4672 3.92038 25.375 4.14294 25.375 4.375V8.75H23.625V4.375C23.625 4.14294 23.5328 3.92038 23.3687 3.75628C23.2046 3.59219 22.9821 3.5 22.75 3.5H19.25C19.0179 3.5 18.7954 3.59219 18.6313 3.75628C18.4672 3.92038 18.375 4.14294 18.375 4.375V7.875H15.75C15.5179 7.875 15.2954 7.96719 15.1313 8.13128C14.9672 8.29538 14.875 8.51794 14.875 8.75C14.875 8.98206 14.9672 9.20462 15.1313 9.36872C15.2954 9.53281 15.5179 9.625 15.75 9.625ZM38.5 33.25H17.5V31.5H38.5V33.25ZM36.75 29.75H19.25V28H36.75V29.75ZM33.134 26.25H22.866L24.398 14H31.603L33.134 26.25ZM20.125 5.25H21.875V9.625C21.875 10.108 22.266 10.5 22.75 10.5H26.25C26.4821 10.5 26.7046 10.4078 26.8687 10.2437C27.0328 10.0796 27.125 9.85706 27.125 9.625V5.25H28.875V9.625C28.875 10.108 29.266 10.5 29.75 10.5H33.25C33.4821 10.5 33.7046 10.4078 33.8687 10.2437C34.0328 10.0796 34.125 9.85706 34.125 9.625V5.25H35.875V11.375C35.8747 11.607 35.7825 11.8294 35.6184 11.9934C35.4544 12.1575 35.232 12.2497 35 12.25H21C20.768 12.2497 20.5456 12.1575 20.3816 11.9934C20.2175 11.8294 20.1253 11.607 20.125 11.375V5.25ZM43.75 2.625C43.8649 2.625 43.9787 2.60237 44.0848 2.55839C44.191 2.51442 44.2875 2.44997 44.3687 2.36872C44.45 2.28747 44.5144 2.19101 44.5584 2.08485C44.6024 1.97869 44.625 1.86491 44.625 1.75C44.625 1.63509 44.6024 1.52131 44.5584 1.41515C44.5144 1.30899 44.45 1.21253 44.3687 1.13128C44.2875 1.05003 44.191 0.985578 44.0848 0.941606C43.9787 0.897633 43.8649 0.875 43.75 0.875C43.5179 0.875 43.2954 0.967188 43.1313 1.13128C42.9672 1.29538 42.875 1.51794 42.875 1.75C42.875 1.98206 42.9672 2.20462 43.1313 2.36872C43.2954 2.53281 43.5179 2.625 43.75 2.625ZM47.25 20.125C47.4821 20.125 47.7046 20.0328 47.8687 19.8687C48.0328 19.7046 48.125 19.4821 48.125 19.25C48.125 19.0179 48.0328 18.7954 47.8687 18.6313C47.7046 18.4672 47.4821 18.375 47.25 18.375C47.0179 18.375 46.7954 18.4672 46.6313 18.6313C46.4672 18.7954 46.375 19.0179 46.375 19.25C46.375 19.4821 46.4672 19.7046 46.6313 19.8687C46.7954 20.0328 47.0179 20.125 47.25 20.125Z" fill="#F8B000"/>
<path d="M35.875 15.75C35.875 16.233 36.266 16.625 36.75 16.625H43.75C43.8649 16.625 43.9787 16.6024 44.0848 16.5584C44.191 16.5144 44.2875 16.45 44.3687 16.3687C44.45 16.2875 44.5144 16.191 44.5584 16.0848C44.6024 15.9787 44.625 15.8649 44.625 15.75V5.25C44.625 5.01794 44.5328 4.79538 44.3687 4.63128C44.2046 4.46719 43.9821 4.375 43.75 4.375C43.5179 4.375 43.2954 4.46719 43.1313 4.63128C42.9672 4.79538 42.875 5.01794 42.875 5.25V14.875H36.75C36.5179 14.875 36.2954 14.9672 36.1313 15.1313C35.9672 15.2954 35.875 15.5179 35.875 15.75ZM43.75 34.125C43.9821 34.125 44.2046 34.0328 44.3687 33.8687C44.5328 33.7046 44.625 33.4821 44.625 33.25C44.625 33.0179 44.5328 32.7954 44.3687 32.6313C44.2046 32.4672 43.9821 32.375 43.75 32.375C43.5179 32.375 43.2954 32.4672 43.1313 32.6313C42.9672 32.7954 42.875 33.0179 42.875 33.25C42.875 33.4821 42.9672 33.7046 43.1313 33.8687C43.2954 34.0328 43.5179 34.125 43.75 34.125ZM44.625 22.75C44.625 22.5179 44.5328 22.2954 44.3687 22.1313C44.2046 21.9672 43.9821 21.875 43.75 21.875H36.75C36.5179 21.875 36.2954 21.9672 36.1313 22.1313C35.9672 22.2954 35.875 22.5179 35.875 22.75C35.875 22.9821 35.9672 23.2046 36.1313 23.3687C36.2954 23.5328 36.5179 23.625 36.75 23.625H42.875V29.75C42.875 29.9821 42.9672 30.2046 43.1313 30.3687C43.2954 30.5328 43.5179 30.625 43.75 30.625C43.9821 30.625 44.2046 30.5328 44.3687 30.3687C44.5328 30.2046 44.625 29.9821 44.625 29.75V22.75ZM43.75 18.375H36.75C36.5179 18.375 36.2954 18.4672 36.1313 18.6313C35.9672 18.7954 35.875 19.0179 35.875 19.25C35.875 19.4821 35.9672 19.7046 36.1313 19.8687C36.2954 20.0328 36.5179 20.125 36.75 20.125H43.75C43.9821 20.125 44.2046 20.0328 44.3687 19.8687C44.5328 19.7046 44.625 19.4821 44.625 19.25C44.625 19.0179 44.5328 18.7954 44.3687 18.6313C44.2046 18.4672 43.9821 18.375 43.75 18.375ZM12.25 2.625C12.3649 2.625 12.4787 2.60237 12.5848 2.55839C12.691 2.51442 12.7875 2.44997 12.8687 2.36872C12.95 2.28747 13.0144 2.19101 13.0584 2.08485C13.1024 1.97869 13.125 1.86491 13.125 1.75C13.125 1.63509 13.1024 1.52131 13.0584 1.41515C13.0144 1.30899 12.95 1.21253 12.8687 1.13128C12.7875 1.05003 12.691 0.985578 12.5848 0.941606C12.4787 0.897633 12.3649 0.875 12.25 0.875C12.0179 0.875 11.7954 0.967188 11.6313 1.13128C11.4672 1.29538 11.375 1.51794 11.375 1.75C11.375 1.98206 11.4672 2.20462 11.6313 2.36872C11.7954 2.53281 12.0179 2.625 12.25 2.625ZM8.75 20.125C8.98206 20.125 9.20462 20.0328 9.36872 19.8687C9.53281 19.7046 9.625 19.4821 9.625 19.25C9.625 19.0179 9.53281 18.7954 9.36872 18.6313C9.20462 18.4672 8.98206 18.375 8.75 18.375C8.51794 18.375 8.29538 18.4672 8.13128 18.6313C7.96719 18.7954 7.875 19.0179 7.875 19.25C7.875 19.4821 7.96719 19.7046 8.13128 19.8687C8.29538 20.0328 8.51794 20.125 8.75 20.125ZM12.25 16.625H19.25C19.4821 16.625 19.7046 16.5328 19.8687 16.3687C20.0328 16.2046 20.125 15.9821 20.125 15.75C20.125 15.5179 20.0328 15.2954 19.8687 15.1313C19.7046 14.9672 19.4821 14.875 19.25 14.875H13.125V5.25C13.125 5.01794 13.0328 4.79538 12.8687 4.63128C12.7046 4.46719 12.4821 4.375 12.25 4.375C12.0179 4.375 11.7954 4.46719 11.6313 4.63128C11.4672 4.79538 11.375 5.01794 11.375 5.25V15.75C11.375 16.233 11.766 16.625 12.25 16.625ZM12.25 34.125C12.4821 34.125 12.7046 34.0328 12.8687 33.8687C13.0328 33.7046 13.125 33.4821 13.125 33.25C13.125 33.0179 13.0328 32.7954 12.8687 32.6313C12.7046 32.4672 12.4821 32.375 12.25 32.375C12.0179 32.375 11.7954 32.4672 11.6313 32.6313C11.4672 32.7954 11.375 33.0179 11.375 33.25C11.375 33.4821 11.4672 33.7046 11.6313 33.8687C11.7954 34.0328 12.0179 34.125 12.25 34.125ZM12.25 30.625C12.4821 30.625 12.7046 30.5328 12.8687 30.3687C13.0328 30.2046 13.125 29.9821 13.125 29.75V23.625H19.25C19.4821 23.625 19.7046 23.5328 19.8687 23.3687C20.0328 23.2046 20.125 22.9821 20.125 22.75C20.125 22.5179 20.0328 22.2954 19.8687 22.1313C19.7046 21.9672 19.4821 21.875 19.25 21.875H12.25C12.0179 21.875 11.7954 21.9672 11.6313 22.1313C11.4672 22.2954 11.375 22.5179 11.375 22.75V29.75C11.375 30.233 11.766 30.625 12.25 30.625ZM12.25 20.125H19.25C19.4821 20.125 19.7046 20.0328 19.8687 19.8687C20.0328 19.7046 20.125 19.4821 20.125 19.25C20.125 19.0179 20.0328 18.7954 19.8687 18.6313C19.7046 18.4672 19.4821 18.375 19.25 18.375H12.25C12.0179 18.375 11.7954 18.4672 11.6313 18.6313C11.4672 18.7954 11.375 19.0179 11.375 19.25C11.375 19.4821 11.4672 19.7046 11.6313 19.8687C11.7954 20.0328 12.0179 20.125 12.25 20.125Z" fill="#F8B000"/>
<path d="M35 44.625H21C20.7679 44.625 20.5454 44.7172 20.3813 44.8813C20.2172 45.0454 20.125 45.2679 20.125 45.5C20.125 45.7321 20.2172 45.9546 20.3813 46.1187C20.5454 46.2828 20.7679 46.375 21 46.375H35C35.2321 46.375 35.4546 46.2828 35.6187 46.1187C35.7828 45.9546 35.875 45.7321 35.875 45.5C35.875 45.2679 35.7828 45.0454 35.6187 44.8813C35.4546 44.7172 35.2321 44.625 35 44.625Z" fill="white"/>
</svg>
