<svg width="56" height="56" viewBox="0 0 56 56" fill="none" xmlns="http://www.w3.org/2000/svg">
<path d="M47.25 0.875H50.75C51.9099 0.876323 53.022 1.33768 53.8422 2.15787C54.6623 2.97805 55.1237 4.09008 55.125 5.25V38.5C55.1237 39.6599 54.6623 40.7719 53.8422 41.5921C53.022 42.4123 51.9099 42.8737 50.75 42.875H40.25V46.375H43.75C43.9821 46.375 44.2046 46.4672 44.3687 46.6313C44.5328 46.7954 44.625 47.0179 44.625 47.25C44.625 47.4821 44.5328 47.7046 44.3687 47.8687C44.2046 48.0328 43.9821 48.125 43.75 48.125H34.5V46.375H38.5V41.125H50.75C51.446 41.1242 52.1132 40.8474 52.6053 40.3553C53.0974 39.8632 53.3742 39.1959 53.375 38.5V35.875H36.687V34.125H53.375V5.25C53.3742 4.55405 53.0974 3.88683 52.6053 3.39472C52.1132 2.90261 51.446 2.62579 50.75 2.625H5.25002C4.55407 2.62579 3.88686 2.90261 3.39475 3.39472C2.90263 3.88683 2.62582 4.55405 2.62502 5.25V34.125H18.313V35.875H2.62402V38.5C2.62482 39.1959 2.90163 39.8632 3.39375 40.3553C3.88586 40.8474 4.55307 41.1242 5.24902 41.125H16.624L17.499 42.875V46.375H21.499V48.125H12.249C12.017 48.125 11.7944 48.0328 11.6303 47.8687C11.4662 47.7046 11.374 47.4821 11.374 47.25C11.374 47.0179 11.4662 46.7954 11.6303 46.6313C11.7944 46.4672 12.017 46.375 12.249 46.375H15.749V42.875H5.24902C4.08911 42.8737 2.97708 42.4123 2.15689 41.5921C1.33671 40.7719 0.875347 39.6599 0.874023 38.5V5.25C0.875347 4.09008 1.33671 2.97805 2.15689 2.15787C2.97708 1.33768 4.08911 0.876323 5.24902 0.875H47.25Z" fill="white"/>
<path d="M14.25 20H7.25C7.01794 20 6.79538 20.0922 6.63128 20.2563C6.46719 20.4204 6.375 20.6429 6.375 20.875C6.375 21.1071 6.46719 21.3296 6.63128 21.4937C6.79538 21.6578 7.01794 21.75 7.25 21.75H14.25C14.4821 21.75 14.7046 21.6578 14.8687 21.4937C15.0328 21.3296 15.125 21.1071 15.125 20.875C15.125 20.6429 15.0328 20.4204 14.8687 20.2563C14.7046 20.0922 14.4821 20 14.25 20ZM14.25 16H7.25C7.01794 16 6.79538 16.0922 6.63128 16.2563C6.46719 16.4204 6.375 16.6429 6.375 16.875C6.375 17.1071 6.46719 17.3296 6.63128 17.4937C6.79538 17.6578 7.01794 17.75 7.25 17.75H14.25C14.4821 17.75 14.7046 17.6578 14.8687 17.4937C15.0328 17.3296 15.125 17.1071 15.125 16.875C15.125 16.6429 15.0328 16.4204 14.8687 16.2563C14.7046 16.0922 14.4821 16 14.25 16ZM14.25 12H7.25C7.01794 12 6.79538 12.0922 6.63128 12.2563C6.46719 12.4204 6.375 12.6429 6.375 12.875C6.375 13.1071 6.46719 13.3296 6.63128 13.4937C6.79538 13.6578 7.01794 13.75 7.25 13.75H14.25C14.4821 13.75 14.7046 13.6578 14.8687 13.4937C15.0328 13.3296 15.125 13.1071 15.125 12.875C15.125 12.6429 15.0328 12.4204 14.8687 12.2563C14.7046 12.0922 14.4821 12 14.25 12ZM14.25 23.5H7.25C7.01794 23.5 6.79538 23.5922 6.63128 23.7563C6.46719 23.9204 6.375 24.1429 6.375 24.375C6.375 24.6071 6.46719 24.8296 6.63128 24.9937C6.79538 25.1578 7.01794 25.25 7.25 25.25H14.25C14.4821 25.25 14.7046 25.1578 14.8687 24.9937C15.0328 24.8296 15.125 24.6071 15.125 24.375C15.125 24.1429 15.0328 23.9204 14.8687 23.7563C14.7046 23.5922 14.4821 23.5 14.25 23.5ZM49.75 20H45.75C45.5179 20 45.2954 20.0922 45.1313 20.2563C44.9672 20.4204 44.875 20.6429 44.875 20.875C44.875 21.1071 44.9672 21.3296 45.1313 21.4937C45.2954 21.6578 45.5179 21.75 45.75 21.75H49.75C49.9821 21.75 50.2046 21.6578 50.3687 21.4937C50.5328 21.3296 50.625 21.1071 50.625 20.875C50.625 20.6429 50.5328 20.4204 50.3687 20.2563C50.2046 20.0922 49.9821 20 49.75 20ZM14.25 6.125H7.25C7.01794 6.125 6.79538 6.21719 6.63128 6.38128C6.46719 6.54538 6.375 6.76794 6.375 7C6.375 7.23206 6.46719 7.45462 6.63128 7.61872C6.79538 7.78281 7.01794 7.875 7.25 7.875H14.25C14.4821 7.875 14.7046 7.78281 14.8687 7.61872C15.0328 7.45462 15.125 7.23206 15.125 7C15.125 6.76794 15.0328 6.54538 14.8687 6.38128C14.7046 6.21719 14.4821 6.125 14.25 6.125ZM46.25 6.125H39.25C39.0179 6.125 38.7954 6.21719 38.6313 6.38128C38.4672 6.54538 38.375 6.76794 38.375 7C38.375 7.23206 38.4672 7.45462 38.6313 7.61872C38.7954 7.78281 39.0179 7.875 39.25 7.875H46.25C46.4821 7.875 46.7046 7.78281 46.8687 7.61872C47.0328 7.45462 47.125 7.23206 47.125 7C47.125 6.76794 47.0328 6.54538 46.8687 6.38128C46.7046 6.21719 46.4821 6.125 46.25 6.125ZM49.75 23.5H42.75C42.5179 23.5 42.2954 23.5922 42.1313 23.7563C41.9672 23.9204 41.875 24.1429 41.875 24.375C41.875 24.6071 41.9672 24.8296 42.1313 24.9937C42.2954 25.1578 42.5179 25.25 42.75 25.25H49.75C49.9821 25.25 50.2046 25.1578 50.3687 24.9937C50.5328 24.8296 50.625 24.6071 50.625 24.375C50.625 24.1429 50.5328 23.9204 50.3687 23.7563C50.2046 23.5922 49.9821 23.5 49.75 23.5ZM49.75 7.875C49.9821 7.875 50.2046 7.78281 50.3687 7.61872C50.5328 7.45462 50.625 7.23206 50.625 7C50.625 6.76794 50.5328 6.54538 50.3687 6.38128C50.2046 6.21719 49.9821 6.125 49.75 6.125C49.5179 6.125 49.2954 6.21719 49.1313 6.38128C48.9672 6.54538 48.875 6.76794 48.875 7C48.875 7.23206 48.9672 7.45462 49.1313 7.61872C49.2954 7.78281 49.5179 7.875 49.75 7.875ZM17.75 7.875C17.9821 7.875 18.2046 7.78281 18.3687 7.61872C18.5328 7.45462 18.625 7.23206 18.625 7C18.625 6.76794 18.5328 6.54538 18.3687 6.38128C18.2046 6.21719 17.9821 6.125 17.75 6.125C17.5179 6.125 17.2954 6.21719 17.1313 6.38128C16.9672 6.54538 16.875 6.76794 16.875 7C16.875 7.23206 16.9672 7.45462 17.1313 7.61872C17.2954 7.78281 17.5179 7.875 17.75 7.875ZM21.25 7.875C21.4821 7.875 21.7046 7.78281 21.8687 7.61872C22.0328 7.45462 22.125 7.23206 22.125 7C22.125 6.76794 22.0328 6.54538 21.8687 6.38128C21.7046 6.21719 21.4821 6.125 21.25 6.125C21.0179 6.125 20.7954 6.21719 20.6313 6.38128C20.4672 6.54538 20.375 6.76794 20.375 7C20.375 7.23206 20.4672 7.45462 20.6313 7.61872C20.7954 7.78281 21.0179 7.875 21.25 7.875Z" fill="white"/>
<path fill-rule="evenodd" clip-rule="evenodd" d="M17.5 33.375V40.897C17.5 41.887 17.841 42.857 18.459 43.631L21 46.807V55.25C21 55.734 21.391 56.125 21.875 56.125H34.125C34.2399 56.1251 34.3538 56.1026 34.46 56.0587C34.5662 56.0147 34.6627 55.9503 34.744 55.869C34.8253 55.7877 34.8897 55.6912 34.9337 55.585C34.9776 55.4788 35.0001 55.3649 35 55.25V46.742L37.001 43.407C37.41 42.727 37.625 41.947 37.625 41.156V33.375L37.538 31.642C37.3387 30.6511 36.8028 29.7596 36.0213 29.1186C35.2398 28.4776 34.2607 28.1266 33.25 28.125V20.25H40.25C40.3649 20.2501 40.4788 20.2276 40.585 20.1837C40.6912 20.1397 40.7877 20.0753 40.869 19.994C40.9503 19.9127 41.0147 19.8162 41.0587 19.71C41.1026 19.6038 41.1251 19.4899 41.125 19.375V12.375C41.1251 12.2601 41.1026 12.1462 41.0587 12.04C41.0147 11.9338 40.9503 11.8373 40.869 11.756C40.7877 11.6747 40.6912 11.6103 40.585 11.5663C40.4788 11.5224 40.3649 11.4999 40.25 11.5H21C20.8851 11.4999 20.7712 11.5224 20.665 11.5663C20.5588 11.6103 20.4623 11.6747 20.381 11.756C20.2997 11.8373 20.2353 11.9338 20.1913 12.04C20.1474 12.1462 20.1249 12.2601 20.125 12.375V19.375C20.125 19.859 20.516 20.25 21 20.25H28V26.432C27.5799 26.2844 27.1296 26.2442 26.69 26.315C25.694 26.478 24.893 27.245 24.61 28.223C24.1599 28.0421 23.6688 27.9878 23.19 28.066C22.166 28.233 21.348 29.039 21.088 30.057C20.6437 29.883 20.1608 29.8319 19.69 29.909C18.76 30.06 18.003 30.74 17.675 31.624L17.5 33.375ZM35.5 42.507C35.7449 42.0989 35.8746 41.632 35.875 41.156V32.5C35.8742 31.8041 35.5974 31.1368 35.1053 30.6447C34.6132 30.1526 33.9459 29.8758 33.25 29.875V36.875C33.25 37.1071 33.1578 37.3296 32.9937 37.4937C32.8296 37.6578 32.6071 37.75 32.375 37.75C32.1429 37.75 31.9204 37.6578 31.7563 37.4937C31.5922 37.3296 31.5 37.1071 31.5 36.875V19.469C31.5 18.998 31.183 18.579 30.778 18.512C30.652 18.49 30.5228 18.4958 30.3993 18.529C30.2758 18.5622 30.1611 18.622 30.0631 18.7042C29.9652 18.7864 29.8864 18.8891 29.8323 19.005C29.7782 19.1208 29.7501 19.2471 29.75 19.375V36.875C29.75 37.1071 29.6578 37.3296 29.4937 37.4937C29.3296 37.6578 29.1071 37.75 28.875 37.75C28.6429 37.75 28.4204 37.6578 28.2563 37.4937C28.0922 37.3296 28 37.1071 28 36.875V28.906C28.0001 28.778 27.9721 28.6515 27.918 28.5355C27.8639 28.4195 27.785 28.3168 27.6869 28.2346C27.5888 28.1524 27.4738 28.0927 27.3501 28.0598C27.2264 28.0269 27.097 28.0215 26.971 28.044C26.567 28.109 26.25 28.529 26.25 29V30.656C26.25 30.666 26.248 30.673 26.245 30.681L26.24 30.703C26.24 30.711 26.243 30.718 26.245 30.725C26.2479 30.733 26.2496 30.7415 26.25 30.75V36.875C26.25 37.1071 26.1578 37.3296 25.9937 37.4937C25.8296 37.6578 25.6071 37.75 25.375 37.75C25.1429 37.75 24.9204 37.6578 24.7563 37.4937C24.5922 37.3296 24.5 37.1071 24.5 36.875V30.75C24.5001 30.7414 24.5018 30.733 24.505 30.725C24.5075 30.7182 24.5092 30.7112 24.51 30.704C24.51 30.696 24.507 30.688 24.505 30.681C24.5018 30.673 24.5001 30.6646 24.5 30.656C24.5 30.4 24.387 30.156 24.191 29.99C24.0934 29.9054 23.978 29.8439 23.8533 29.8099C23.7287 29.776 23.598 29.7706 23.471 29.794C23.067 29.859 22.75 30.279 22.75 30.75V36.875C22.75 37.1071 22.6578 37.3296 22.4937 37.4937C22.3296 37.6578 22.1071 37.75 21.875 37.75C21.6429 37.75 21.4204 37.6578 21.2563 37.4937C21.0922 37.3296 21 37.1071 21 36.875V32.5C21.0002 32.372 20.9724 32.2456 20.9184 32.1296C20.8644 32.0136 20.7856 31.9108 20.6876 31.8286C20.5895 31.7464 20.4746 31.6867 20.351 31.6538C20.2273 31.6208 20.098 31.6155 19.972 31.638C19.567 31.704 19.25 32.124 19.25 32.594V40.897C19.25 41.491 19.454 42.072 19.826 42.537L22.558 45.953C22.6822 46.1083 22.7499 46.3012 22.75 46.5V54.375H33.25V46.5C33.25 46.34 33.293 46.186 33.374 46.05L35.5 42.507ZM31.06 16.786C32.001 16.939 32.767 17.633 33.087 18.533C33.141 18.522 33.192 18.5 33.25 18.5H39.375V13.25H21.875V18.5H28C28.055 18.5 28.103 18.522 28.156 18.532C28.306 18.09 28.561 17.686 28.926 17.376C29.2175 17.1286 29.5594 16.9477 29.928 16.8458C30.2965 16.7439 30.6828 16.7235 31.06 16.786Z" fill="#F8B000"/>
</svg>
