<svg width="101" height="69" viewBox="0 0 101 69" fill="none" xmlns="http://www.w3.org/2000/svg">
<path d="M92.3209 62.7552L92.2815 63.2918H92.8196H100.5V64.0525C100.5 65.9895 98.9114 67.5811 96.9683 67.5811H4.0254C2.08911 67.5811 0.5 65.99 0.5 64.0525V63.2918H8.18337H8.72272L8.68194 62.754C8.67778 62.6991 8.66909 62.6421 8.66405 62.609C8.66317 62.6032 8.6624 62.5981 8.66178 62.5939C8.65614 62.5555 8.65555 62.5435 8.65555 62.5391V13.6172C8.65555 11.3534 10.5095 9.5 12.7698 9.5H88.2302C90.4909 9.5 92.3474 11.3538 92.3474 13.6172V62.5391C92.3474 62.5431 92.3469 62.5548 92.3411 62.5936C92.3369 62.622 92.3257 62.6899 92.3209 62.7552ZM86.8462 61.6519H87.3462V61.1519V15.001V14.501H86.8462H14.1538H13.6538V15.001V61.1519V61.6519H14.1538H86.8462Z" fill="#F9CA3A" stroke="#540D6E"/>
<path d="M50.4983 13.12C50.1936 13.12 49.932 13.0123 49.7135 12.7969C49.498 12.5784 49.3903 12.3168 49.3903 12.0121C49.3903 11.7105 49.498 11.4519 49.7135 11.2365C49.932 11.0211 50.1936 10.9134 50.4983 10.9134C50.7937 10.9134 51.0522 11.0211 51.2738 11.2365C51.4954 11.4519 51.6062 11.7105 51.6062 12.0121C51.6062 12.2152 51.5539 12.4014 51.4493 12.5707C51.3477 12.7369 51.2138 12.8707 51.0476 12.9723C50.8814 13.0708 50.6983 13.12 50.4983 13.12Z" fill="#540D6E"/>
<path d="M48.2186 57.2525C46.4359 55.1496 43.46 52.9004 40.578 51.4774C37.6679 50.0403 34.9038 49.2422 31.7655 48.9336C31.1467 48.8733 30.6337 48.8171 30.6255 48.809C30.6175 48.809 30.6335 42.3186 30.6655 34.4039L30.7183 20.0141L31.2897 20.0703C34.798 20.4199 38.7137 21.7517 41.6765 23.6079C44.2298 25.2073 46.8664 27.6772 48.5474 30.0437L48.9705 30.6393V44.3082C48.9705 51.8258 48.9385 57.9755 48.9001 57.9743C48.8601 57.9731 48.5539 57.648 48.2186 57.2525ZM51.1249 44.2736V30.5477L51.9418 29.451C52.9849 28.0509 55.083 25.9415 56.4703 24.8987C60.1789 22.1102 64.2018 20.5345 68.8203 20.0603L69.4062 20V34.4099V48.8203L68.7265 48.8846C62.2956 49.4858 56.7204 52.1513 52.3596 56.7092L51.1249 58V44.2736ZM55.1093 57.0669C57.6333 54.6879 60.9747 52.7975 64.3312 51.8487C66.0876 51.3524 68.3717 51.006 69.8879 51.006C70.6829 51.006 71.1238 50.8332 71.3726 50.4229C71.5597 50.1135 71.5618 49.9805 71.5622 38.304L71.5625 26.4965L71.9141 26.5608C72.1073 26.601 72.6558 26.7537 73.1328 26.9064L74 27.1837V41.9195C74 50.0243 73.968 56.6554 73.9284 56.6554C73.8884 56.6554 73.3088 56.5308 72.6393 56.3781C69.9936 55.7793 67.8147 55.5736 64.9532 55.6511C61.4823 55.7476 58.7848 56.2338 55.5782 57.347L54.3594 57.7701L55.1093 57.0669ZM44.4217 57.2959C43.0901 56.8169 40.8908 56.2523 39.4061 56.0088C37.3874 55.6793 35.9946 55.5916 33.5205 55.6471C31.0621 55.6993 29.5752 55.8721 27.5467 56.3347C26.9795 56.4633 26.3994 56.5959 26.2576 56.624L26 56.6803L26.0004 41.9051L26.0009 27.1294L27.1021 26.8079C27.7077 26.6311 28.256 26.4663 28.3204 26.4463C28.4136 26.4061 28.4376 28.8132 28.4376 38.2405C28.4376 51.1229 28.4096 50.4048 28.9567 50.7661C29.1471 50.8907 29.5427 50.9469 30.6725 51.0152C35.1623 51.2724 39.4226 52.7871 42.9006 55.3642C43.6506 55.92 45.4505 57.4462 45.5537 57.6138C45.6257 57.7304 45.5777 57.7183 44.422 57.3004L44.4217 57.2959Z" fill="#F9CA3A"/>
</svg>
